<?xml version="1.0" standalone="no"?>
<!DOCTYPE svg PUBLIC "-//W3C//DTD SVG 1.1//EN" "http://www.w3.org/Graphics/SVG/1.1/DTD/svg11.dtd" >
<svg xmlns="http://www.w3.org/2000/svg" xmlns:xlink="http://www.w3.org/1999/xlink" version="1.1">
<metadata>
Created by FontForge 20170731 at Mon Oct 21 01:41:21 2019
 By Aleksey,,,
Copyright 2019. Mapo-Gu All rignts Reserved.
</metadata>
<defs>
<font id="MapoHongdaeFreedom" horiz-adv-x="1000" >
  <font-face 
    font-family="MapoHongdaeFreedom"
    font-weight="400"
    font-stretch="normal"
    units-per-em="1000"
    panose-1="2 0 5 0 0 0 0 0 0 0"
    ascent="800"
    descent="-200"
    x-height="493"
    cap-height="718"
    bbox="-55 -306 2417 910"
    underline-thickness="50"
    underline-position="-150"
    unicode-range="U+0020-FF5D"
  />
<missing-glyph horiz-adv-x="950" 
d="M836 748v-896h-724v896h724zM208 693l266 -342l266 342h-532zM424 300l-256 332v-674zM780 632l-256 -332l256 -342v674zM474 259l-256 -347h512z" />
    <glyph glyph-name="cid3001" unicode="ff" horiz-adv-x="744" 
d="M536 599l-12 -158l145 10l10 -120l-164 -12l-30 -410l-120 30l22 371l-114 -9l-29 -392l-125 30l21 353l-66 -5l-14 120l87 6l12 194l127 113l191 -46l50 46l207 -48l-35 -119zM394 431l9 136l-108 32l-13 -176z" />
    <glyph glyph-name="cid3002" unicode="fi" horiz-adv-x="583" 
d="M523 456l-41 -550l-125 30l27 388l-113 -10l-27 -405l-125 30l22 364l-67 -6l-14 120l88 8l11 182l127 113l207 -48l-35 -119l-168 46l-11 -163l114 9v1z" />
    <glyph glyph-name="cid3003" unicode="fl" horiz-adv-x="629" 
d="M579 663l-71 -757l-120 30l56 629l-154 34l-11 -158l88 9l10 -120l-106 -12l-27 -409l-125 30l22 365l-67 -7l-14 120l88 9l11 181l127 113l169 -33v1z" />
    <glyph glyph-name="cid3004" unicode="ffi" horiz-adv-x="818" 
d="M756 428h1l-41 -522l-125 30l28 384l-108 -6l-30 -405l-120 30l22 367l-110 -7l-29 -390l-125 30l21 352l-66 -4l-14 120l87 5l12 195l127 113l187 -46l50 46l221 -48l-35 -119l-177 46l-12 -165l238 14zM390 426l9 141l-104 32l-13 -179z" />
    <glyph glyph-name="cid3005" unicode="ffl" horiz-adv-x="847" 
d="M726 -94l-120 30l56 631l-126 32l-12 -165l78 5l6 -120l-93 -6l-30 -404l-120 30l22 367l-114 -7l-29 -390l-125 30l21 352l-66 -4l-14 120l87 5l12 195l127 113l187 -48l-1 -3l55 51l270 -57zM394 427l8 137l-107 35l-13 -179z" />
    <glyph glyph-name=".notdef" horiz-adv-x="950" 
d="M836 748v-896h-724v896h724zM208 693l266 -342l266 342h-532zM424 300l-256 332v-674zM780 632l-256 -332l256 -342v674zM474 259l-256 -347h512z" />
    <glyph glyph-name=".null" horiz-adv-x="0" 
 />
    <glyph glyph-name="nonmarkingreturn" horiz-adv-x="286" 
 />
    <glyph glyph-name="cid1" unicode=" " horiz-adv-x="286" 
 />
    <glyph glyph-name="cid1" unicode="&#xa0;" horiz-adv-x="286" 
 />
    <glyph glyph-name="cid2" unicode="!" horiz-adv-x="475" 
d="M349 720l-65 -595l-120 10l40 595zM281 28l-13 -136l-122 10l13 136z" />
    <glyph glyph-name="cid3" unicode="&#x22;" horiz-adv-x="475" 
d="M64 470l51 246l130 -25l-73 -246zM241 470l41 246l130 -25l-63 -246z" />
    <glyph glyph-name="cid4" unicode="#" horiz-adv-x="640" 
d="M581 109l-120 -11l-30 -190l-119 10l26 168l-109 -11l-27 -167l-120 10l23 146l-89 -9l-3 124l112 11l28 175l-93 -9l-4 125l117 11l33 207l120 -10l-29 -185l109 10l29 185l120 -10l-26 -163l93 9l4 -125l-117 -11l-28 -174l97 9zM358 213l28 174l-110 -10l-27 -175z
" />
    <glyph glyph-name="cid5" unicode="$" horiz-adv-x="640" 
d="M562 61l-215 -49l-15 -114l-109 10l10 78l-118 -27l-21 115l154 32l24 185l-192 129l69 160l164 38l13 101l110 -10l-8 -64l88 20l22 -114l-126 -30l-22 -175l184 -125zM288 416l9 78l-92 -22zM476 153l-102 69l-12 -93z" />
    <glyph glyph-name="cid6" unicode="%" horiz-adv-x="750" 
d="M682 631l-523 -691l-89 72l524 693zM39 454l63 189l109 39l156 -115l-29 -134l-193 -66zM139 468l144 46l-103 77zM373 54l65 190l108 39l155 -117l-27 -131l-193 -67zM473 64l145 49l-105 83z" />
    <glyph glyph-name="cid7" unicode="&#x26;" horiz-adv-x="950" 
d="M692 213l95 -249l-114 -35l-21 64l-427 -83l-1 -1l-69 112l224 307l-204 162l56 148l352 52l31 -39l1 1l32 -43l19 -24h-1l29 -39l-367 -498l285 65l-28 83l-48 -7l-19 109l264 40l13 -110zM448 423l106 145l-235 -35z" />
    <glyph glyph-name="cid8" unicode="'" horiz-adv-x="315" 
d="M77 470l41 246l130 -25l-63 -246z" />
    <glyph glyph-name="cid9" unicode="(" horiz-adv-x="475" 
d="M194 648l130 102l141 -22l-26 -127l-121 18l-58 -628l127 26l25 -125l-160 -28l-119 101z" />
    <glyph glyph-name="cid10" unicode=")" horiz-adv-x="475" 
d="M262 -14l-121 -122l-141 27l26 127l111 -23l57 623l-116 -21l-24 125l159 28l108 -121z" />
    <glyph glyph-name="cid11" unicode="*" horiz-adv-x="640" 
d="M430 494l96 -59l-57 -84l-101 62l-14 -127l-106 10l11 106l-95 -51l-48 94l106 57l-92 56l58 84l91 -56l13 121l106 -10l-11 -106l95 51l48 -94z" />
    <glyph glyph-name="cid12" unicode="+" horiz-adv-x="640" 
d="M373 228l-14 -233l-125 6l13 220l-181 -10l-5 120l193 11l14 234l125 -6l-13 -222l194 11l5 -120z" />
    <glyph glyph-name="cid13" unicode="," horiz-adv-x="315" 
d="M30 -95l41 246l139 -26l-70 -245z" />
    <glyph glyph-name="cid14" unicode="-" horiz-adv-x="475" 
d="M70 341l336 14v-133l-336 -14v133z" />
    <glyph glyph-name="cid14" unicode="&#x2011;" horiz-adv-x="475" 
d="M70 341l336 14v-133l-336 -14v133z" />
    <glyph glyph-name="cid14" unicode="&#x2010;" horiz-adv-x="475" 
d="M70 341l336 14v-133l-336 -14v133z" />
    <glyph glyph-name="cid14" unicode="&#xad;" horiz-adv-x="475" 
d="M70 341l336 14v-133l-336 -14v133z" />
    <glyph glyph-name="cid15" unicode="." horiz-adv-x="315" 
d="M49 98l150 -17l-19 -150l-150 17z" />
    <glyph glyph-name="cid16" unicode="/" horiz-adv-x="385" 
d="M360 721l-187 -869l-123 5l185 869z" />
    <glyph glyph-name="cid17" unicode="0" horiz-adv-x="632" 
d="M569 573l-41 -543l-114 -127l-257 19l-95 141l41 552l122 91l227 -4zM434 575l-198 5l-41 -534l197 -11z" />
    <glyph glyph-name="cid18" unicode="1" horiz-adv-x="487" 
d="M154 -61l100 643l-137 -96l-67 115l198 104l149 -89l-118 -707z" />
    <glyph glyph-name="cid19" unicode="2" horiz-adv-x="652" 
d="M582 -54l-502 -32l-10 124l78 7l263 516l-296 -73l-30 145l365 73l99 -155l-244 -491l268 24z" />
    <glyph glyph-name="cid20" unicode="3" horiz-adv-x="632" 
d="M553 274l-11 -175l-394 -211l-66 133l353 163l-333 96l43 121l90 -28l157 206l-292 -49l-30 142l361 44l101 -158l-167 -226z" />
    <glyph glyph-name="cid21" unicode="4" horiz-adv-x="717" 
d="M534 122l-23 -213l-123 30l15 159l-230 -41l-113 133l262 527l129 -57l-244 -474l209 38l25 260l130 -10l-24 -226l80 15l20 -121z" />
    <glyph glyph-name="cid22" unicode="5" horiz-adv-x="643" 
d="M573 127l-397 -232l-75 127l366 183l-262 39v-1l-18 4l-13 2v1l-84 19l57 224l-65 -5l-12 118l109 10l28 110l136 -25l-22 -72l223 21l8 -125l-268 -21l-43 -142l327 -52z" />
    <glyph glyph-name="cid23" unicode="6" horiz-adv-x="667" 
d="M597 205l-20 -157l-409 -142l-4 7l-94 89l173 719l145 -35l-84 -296l58 53zM481 150l-194 178l-79 -279z" />
    <glyph glyph-name="cid24" unicode="7" horiz-adv-x="568" 
d="M163 -50l222 615l-326 -73l-39 144l394 69l104 -135l-215 -673z" />
    <glyph glyph-name="cid25" unicode="8" horiz-adv-x="621" 
d="M596 112l-46 -134l-423 -82l-86 151l168 260l-184 221l74 142l372 40l82 -105l-170 -259zM276 409l115 178l-223 -39zM174 27l283 57l-136 167z" />
    <glyph glyph-name="cid26" unicode="9" horiz-adv-x="643" 
d="M573 630l-144 -739l-140 30l70 311l-68 -67l-221 247l9 197l389 112l5 -1zM436 578l-265 -91l200 -198z" />
    <glyph glyph-name="cid27" unicode=":" horiz-adv-x="315" 
d="M92 564l150 -17l-19 -150l-150 17zM92 203l150 -17l-19 -150l-150 17z" />
    <glyph glyph-name="cid28" unicode=";" horiz-adv-x="315" 
d="M110 564l150 -17l-19 -150l-150 17zM55 -55l41 246l149 -26l-70 -245z" />
    <glyph glyph-name="cid29" unicode="&#x3c;" horiz-adv-x="475" 
d="M319 -61l-250 370l286 365l95 -87l-257 -285l229 -286z" />
    <glyph glyph-name="cid30" unicode="=" horiz-adv-x="640" 
d="M89 452l466 24l4 -120l-466 -24zM81 199l465 24l3 -130l-465 -24z" />
    <glyph glyph-name="cid31" unicode="&#x3e;" horiz-adv-x="475" 
d="M210 674l240 -370l-276 -365l-95 87l247 285l-219 286z" />
    <glyph glyph-name="cid32" unicode="?" horiz-adv-x="555" 
d="M80 654l336 90l104 -123l-203 -309l-13 -189l-121 10l17 209l193 279l-264 -104zM297 29l-11 -136l-122 8l11 136z" />
    <glyph glyph-name="cid33" unicode="@" horiz-adv-x="950" 
d="M773 97l12 -129l-463 -55l-243 292l238 506l479 -76l74 -368l-288 -185l-78 64l8 31l-144 -52l-76 98l94 256l109 25l78 -82l21 83l84 -21l-61 -255l128 100l-43 204l-314 53l-170 -351l144 -206zM396 236l160 58l-96 120z" />
    <glyph glyph-name="cid34" unicode="A" horiz-adv-x="750" 
d="M517 140h-250l-74 -230l-128 30l68 200h-24l-21 123h88l158 463l110 -31l-12 -39l75 21l191 -737l-129 -30zM489 265l-76 334l-107 -335z" />
    <glyph glyph-name="cid35" unicode="B" horiz-adv-x="717" 
d="M631 305l10 -157l-372 -237l-56 82l-8 -84l-123 30l55 654l-61 8l29 128l507 -69l30 -125l-156 -180zM525 221l-252 75l42 119l49 -17l144 146l-241 32l-49 -532z" />
    <glyph glyph-name="cid36" unicode="C" horiz-adv-x="693" 
d="M126 636l152 96l345 -106l-38 -143l-321 108l-56 -554l363 133l50 -144l-406 -128l-145 91z" />
    <glyph glyph-name="cid37" unicode="D" horiz-adv-x="761" 
d="M285 -94l-74 75l-7 -67l-124 30l63 644l-62 23l53 131l540 -228l36 -160zM218 47l369 372l-318 120z" />
    <glyph glyph-name="cid38" unicode="E" horiz-adv-x="632" 
d="M562 -81l-378 -12h-2v1l-113 72l46 586l-45 -1l-15 132l510 12l-15 -132l-300 -7l-20 -197l303 13l-10 -132l-305 -5l-22 -217l376 21z" />
    <glyph glyph-name="cid39" unicode="F" horiz-adv-x="650" 
d="M267 558l-20 -225l305 18l-5 -142l-311 -1l-28 -311l-123 24l46 635l-51 -1l-15 142l495 7l-5 -142z" />
    <glyph glyph-name="cid40" unicode="G" horiz-adv-x="710" 
d="M616 36l-2 -1l-13 -121l-109 29l3 58l-290 -83l-145 91l56 627l152 96l359 -106l-56 -138l-322 113l-51 -554l306 111l8 131l128 -9l-26 -240z" />
    <glyph glyph-name="cid41" unicode="H" horiz-adv-x="813" 
d="M736 708l-67 -801l-127 29l24 322l-305 7l-30 -358l-127 29l25 332l-52 1v130l62 -2l24 321l135 -10l-26 -315l304 -10l25 335z" />
    <glyph glyph-name="cid42" unicode="I" horiz-adv-x="340" 
d="M200 -83l-128 29l59 772l137 -10z" />
    <glyph glyph-name="cid43" unicode="J" horiz-adv-x="649" 
d="M523 -10l-138 -79v-1h-2l-266 31l-62 131l72 157l112 -59l-59 -111l211 -22l41 681l137 -10z" />
    <glyph glyph-name="cid44" unicode="K" horiz-adv-x="741" 
d="M548 -87l-226 369l-94 -97l-4 5l-25 -278l-123 24l59 787l137 -10l-30 -334l306 344l103 -100l-242 -251l266 -371z" />
    <glyph glyph-name="cid45" unicode="L" horiz-adv-x="609" 
d="M534 -66l-341 -17l-118 79l78 722l142 -10l-85 -661l319 29z" />
    <glyph glyph-name="cid46" unicode="M" horiz-adv-x="927" 
d="M720 -72l13 567l-226 -443l-11 5l1 -5l-118 47l-62 386l-139 -582l-138 39l206 771l119 -27l-15 -65l79 16l45 -385l232 471l115 -56l-26 -51l65 2l7 -710z" />
    <glyph glyph-name="cid47" unicode="N" horiz-adv-x="831" 
d="M668 -48l-76 -18l-48 -13l-267 554l-51 -565l-142 30l85 770l128 -10l-6 -70l55 22l218 -517l54 575l137 -19z" />
    <glyph glyph-name="cid48" unicode="O" horiz-adv-x="774" 
d="M66 239l19 137l276 339l142 -22l221 -333l-25 -137l-273 -319l-137 26zM192 299l182 -255l232 268l-191 272z" />
    <glyph glyph-name="cid49" unicode="P" horiz-adv-x="693" 
d="M264 120l-55 59l-27 -263l-123 29l55 635l-44 8l30 131l493 -101l47 -187zM218 268l313 235l-284 52z" />
    <glyph glyph-name="cid50" unicode="Q" horiz-adv-x="790" 
d="M626 -108l-109 123l-91 -111l-137 26l-214 309l19 137l267 339l142 -22l211 -333l-25 -137l-96 -116l129 -128zM431 113l-50 56l76 74l45 -45l94 114l-181 272l-213 -285l172 -255z" />
    <glyph glyph-name="cid51" unicode="R" horiz-adv-x="746" 
d="M529 -76l-177 279l-72 -64l-58 79l-27 -302l-118 29l47 638l-44 5l33 144l495 -82l35 -188l-206 -183l215 -289zM535 533l-281 34l-25 -276z" />
    <glyph glyph-name="cid52" unicode="S" horiz-adv-x="659" 
d="M65 30l395 128l-371 249l32 209l415 119l35 -151l-359 -101l375 -254l-31 -183l-436 -150z" />
    <glyph glyph-name="cid53" unicode="T" horiz-adv-x="722" 
d="M656 561l-230 5l-50 -664l-132 20l45 647l-223 5l10 131l590 -3z" />
    <glyph glyph-name="cid54" unicode="U" horiz-adv-x="748" 
d="M682 686l-71 -789l-123 29l5 72l-274 -49l-143 84l46 663l137 -10l-56 -602l263 44l31 -80l49 648z" />
    <glyph glyph-name="cid55" unicode="V" horiz-adv-x="714" 
d="M213 723l140 -639l190 644l145 -39l-259 -760l-164 46l-199 709z" />
    <glyph glyph-name="cid56" unicode="W" horiz-adv-x="902" 
d="M894 662l-225 -742l-178 46l-33 336l-135 -385l-173 46l-62 716l145 19l25 -636l140 441l121 -29l-21 -59l68 9l31 -359l155 636z" />
    <glyph glyph-name="cid57" unicode="X" horiz-adv-x="797" 
d="M608 -106l-222 319l-185 -319l-125 80l237 344l-231 331l111 82l214 -305l194 305l120 -82l-236 -329l-11 9l249 -355z" />
    <glyph glyph-name="cid58" unicode="Y" horiz-adv-x="742" 
d="M420 204l-13 -296l-133 25l31 285h-2l1 3l-259 415l123 88l209 -371l204 371l131 -98z" />
    <glyph glyph-name="cid59" unicode="Z" horiz-adv-x="712" 
d="M636 -61l-507 -20l-63 120l355 526l-287 -21l-9 141l496 19v-125l-119 -9l71 -42l-357 -489l415 40z" />
    <glyph glyph-name="cid60" unicode="[" horiz-adv-x="475" 
d="M108 -137l77 874h245l-15 -116l-115 3l-60 -648l123 3l-16 -116h-239z" />
    <glyph glyph-name="cid61" unicode="\" horiz-adv-x="285" 
d="M0 721l125 5l155 -869l-123 -5z" />
    <glyph glyph-name="cid62" unicode="]" horiz-adv-x="475" 
d="M353 737l-77 -874h-256l16 116l125 -3l60 648l-133 -3l15 116h250z" />
    <glyph glyph-name="cid63" unicode="^" horiz-adv-x="475" 
d="M425 435l-104 -50l-87 166l-77 -166l-108 42l134 219l116 -19z" />
    <glyph glyph-name="cid64" unicode="_" horiz-adv-x="475" 
d="M4 54l467 14v-133l-467 -14v133z" />
    <glyph glyph-name="cid65" unicode="`" horiz-adv-x="315" 
d="M60 660l103 96l127 -169l-64 -61z" />
    <glyph glyph-name="cid66" unicode="a" horiz-adv-x="640" 
d="M580 500l-54 -593l-125 30l8 92l-193 -118l-156 114l78 423l154 58l148 -114l10 118zM422 183l13 154l-50 -57l-130 102l-69 -337z" />
    <glyph glyph-name="cid67" unicode="b" horiz-adv-x="621" 
d="M578 392l-53 -423l-159 -58l-169 105l-12 -107l-125 30l80 767l130 -10l-36 -331l183 141zM456 372l-240 -174l-14 -132l51 71l150 -102z" />
    <glyph glyph-name="cid68" unicode="c" horiz-adv-x="552" 
d="M236 389l-43 -362l285 73l28 -125l-309 -66l-137 82l48 432l134 95l270 -61l-38 -135z" />
    <glyph glyph-name="cid69" unicode="d" horiz-adv-x="659" 
d="M599 696l-71 -795l-126 31l8 101l-189 -122l-161 114l53 423l159 58l168 -104l24 304zM422 184l13 166l-50 -70l-150 97l-53 -332z" />
    <glyph glyph-name="cid70" unicode="e" horiz-adv-x="600" 
d="M528 423l4 -181l-280 -135l-46 69l-14 -157l319 83l21 -144l-366 -71l-104 106l40 432l109 96zM227 391l-13 -153l213 92z" />
    <glyph glyph-name="cid71" unicode="f" horiz-adv-x="523" 
d="M300 599l-13 -164l180 15l10 -120l-200 -16l-33 -405l-125 30l22 363l-67 -5l-14 120l88 7l11 183l127 113l227 -48l-35 -119z" />
    <glyph glyph-name="cid72" unicode="g" horiz-adv-x="612" 
d="M552 493l-57 -701l-118 -98l-258 62l40 120l213 -63l16 199l-177 -106l-161 114l63 428l159 58l148 -93l7 90zM400 165l16 195l-51 -70l-130 92l-63 -342z" />
    <glyph glyph-name="cid73" unicode="h" horiz-adv-x="632" 
d="M572 405l-62 -496l-127 30l50 436l-209 -85l-39 -382l-125 30l71 768l135 -10l-26 -250l186 58z" />
    <glyph glyph-name="cid74" unicode="i" horiz-adv-x="306" 
d="M97 570l11 129l138 -8l-10 -140zM60 -64l36 512l135 -10l-41 -532z" />
    <glyph glyph-name="cid75" unicode="j" horiz-adv-x="417" 
d="M205 570l11 129l138 -8l-10 -140zM296 -158l-144 -118l-207 62l48 135l175 -68l35 584l138 -10z" />
    <glyph glyph-name="cid76" unicode="k" horiz-adv-x="611" 
d="M252 173l-43 -35l-24 -229l-125 31l78 761l129 -10l-40 -378l236 201l87 -98l-208 -170l219 -262l-106 -87z" />
    <glyph glyph-name="cid77" unicode="l" horiz-adv-x="304" 
d="M60 -68l59 774l135 -10l-69 -789z" />
    <glyph glyph-name="cid78" unicode="m" horiz-adv-x="834" 
d="M774 395l-41 -491l-128 30l36 424l-144 -65l-30 -384l-130 30l36 409l-154 -72l-34 -369l-125 30l44 567l135 -10l-8 -85l151 80l81 -83l170 88z" />
    <glyph glyph-name="cid79" unicode="n" horiz-adv-x="620" 
d="M560 406l-40 -502l-125 30l30 412l-207 -86l-33 -356l-125 30l44 571l135 -10l-8 -90l195 90z" />
    <glyph glyph-name="cid80" unicode="o" horiz-adv-x="654" 
d="M596 265l-17 -128l-215 -238l-116 18l-203 234l22 132l229 223l106 -15zM168 200l149 -172l159 176l-143 175z" />
    <glyph glyph-name="cid81" unicode="p" horiz-adv-x="661" 
d="M601 392l-53 -423l-159 -58l-172 106l-32 -284l-125 30l77 743l135 -10l-13 -112l181 122zM479 372l-240 -162l-16 -147l53 74l150 -102z" />
    <glyph glyph-name="cid82" unicode="q" horiz-adv-x="624" 
d="M533 152l-2 -1l-39 -412l-126 32l25 271l-170 -131l-161 114l53 423l159 58l153 -97l9 96l130 -10l-32 -340zM407 208l14 160l-56 -78l-130 92l-53 -337z" />
    <glyph glyph-name="cid83" unicode="r" horiz-adv-x="525" 
d="M273 285l-41 60l-52 -446l-120 30l54 575l135 -10l-10 -90l210 89l46 -124z" />
    <glyph glyph-name="cid84" unicode="s" horiz-adv-x="499" 
d="M50 24l282 59l-266 182l49 175l282 85l37 -134l-253 -59l268 -181l-32 -170l-324 -92z" />
    <glyph glyph-name="cid85" unicode="t" horiz-adv-x="505" 
d="M455 -44l-185 -63l-141 104l35 368l-104 -7v120l116 8l20 214l135 -10l-21 -195l142 10v-120l-155 -11l-38 -357l157 64z" />
    <glyph glyph-name="cid86" unicode="u" horiz-adv-x="612" 
d="M552 491l-56 -577l-117 30l4 53l-182 -58l-141 79l32 473l133 -10l-43 -423l211 68l29 375z" />
    <glyph glyph-name="cid87" unicode="v" horiz-adv-x="591" 
d="M195 495l82 -478l169 479l130 -48l-227 -547l-174 37l-115 527z" />
    <glyph glyph-name="cid88" unicode="w" horiz-adv-x="781" 
d="M541 -89l-11 3l-106 30l-27 261l-97 -292l-100 31l1 1l-52 18l-79 518l138 10l33 -428l123 353l12 -2l86 -16l10 -2l34 -281l131 378l134 -45z" />
    <glyph glyph-name="cid89" unicode="x" horiz-adv-x="623" 
d="M385 208l156 -235l-97 -72l-135 199l-155 -199l-104 87l187 220l-157 232l106 68l129 -194l157 199l101 -83z" />
    <glyph glyph-name="cid90" unicode="y" horiz-adv-x="620" 
d="M570 493l-72 -691l-123 -98l-228 62l40 115l193 -53l16 199l-190 -60l-146 94l47 437l135 -10l-57 -397l177 54l37 -84l36 442z" />
    <glyph glyph-name="cid91" unicode="z" horiz-adv-x="559" 
d="M496 43l-12 -130l-360 -5l-68 115l278 354l-236 -30l-13 126l377 22l32 -97h-1l-285 -371z" />
    <glyph glyph-name="cid92" unicode="{" horiz-adv-x="440" 
d="M412 612l-78 26l15 -277l-83 -73l71 -30l-67 -308l103 23l8 -122l-138 -17l-100 82l62 317l-37 -32l-68 101l124 100l-10 272l109 81l117 -28z" />
    <glyph glyph-name="cid93" unicode="|" horiz-adv-x="315" 
d="M125 721l120 -5l-40 -820l-120 5z" />
    <glyph glyph-name="cid94" unicode="}" horiz-adv-x="440" 
d="M255 201l-31 33l6 -318l-114 -82l-116 17l27 122l80 -23l-11 308l76 30l-70 73l65 277l-93 -26l-10 115l132 28l95 -81l-57 -272l106 -100z" />
    <glyph glyph-name="cid95" unicode="~" horiz-adv-x="640" 
d="M112 191l-81 78l159 137l110 -11l113 -114l119 122l83 -84l-155 -137l-109 14l-111 116z" />
    <glyph glyph-name="cid96" unicode="&#xa2;" horiz-adv-x="950" 
d="M730 82l-225 -58l-27 -125l-108 20l16 74l-72 -19l-109 94l71 513l130 79l118 -34l20 92l109 -20l-23 -103l115 -33l-38 -108l-101 30l-73 -335l160 46zM412 114l88 402l-112 33l-66 -461z" />
    <glyph glyph-name="cid97" unicode="&#xa3;" horiz-adv-x="950" 
d="M710 94l18 -118l-419 -41l-57 112l167 183l-9 56l-158 -12l-1 104l143 11l-35 226l104 81l223 -20l-20 -106l-193 20l31 -192l233 18l5 -105l-221 -17l16 -96l-163 -161z" />
    <glyph glyph-name="cid98" unicode="&#xa4;" horiz-adv-x="950" 
d="M690 222l110 -121l-73 -78l-99 120l-129 -163l-114 29l-71 129l-109 -113l-72 84l131 118l-86 156l82 82l-90 107l72 69l92 -102l130 129l114 -19l72 -128l114 97l68 -88l-130 -102l63 -112zM644 338l-135 247l-211 -220l155 -290z" />
    <glyph glyph-name="cid99" unicode="&#xa5;" horiz-adv-x="950" 
d="M544 244l-5 -61l166 13l3 -95l-177 -14l-15 -171l-111 20l22 144l-151 -12l-2 95l167 13l9 60l-162 -12l-3 95l142 11l-222 298l100 66l193 -312l203 324l99 -68l-213 -296l129 10l4 -95z" />
    <glyph glyph-name="cid22482" unicode="&#xa7;" horiz-adv-x="640" 
d="M440 195l20 -159l-250 -152l-76 107l234 122l-253 104l3 159l62 46l-7 167l225 139l68 -100l-209 -129l247 -94l12 -155zM191 295l132 -51l109 74l-136 56z" />
    <glyph glyph-name="cid100" unicode="&#xa9;" horiz-adv-x="950" 
d="M891 365l-125 -385l-472 -77l-235 357l250 471l443 -49zM774 370l-105 214l-295 26l-179 -329l141 -256l342 58zM486 438l-77 -224l210 49l26 -99l-264 -66l-91 106l112 307l119 30l144 -81l-51 -90z" />
    <glyph glyph-name="cid101" unicode="&#xae;" horiz-adv-x="950" 
d="M891 365l-125 -385l-472 -77l-235 357l250 471l443 -49zM774 370l-105 214l-295 26l-179 -334l97 -173l71 437l283 -2l37 -146l-124 -86l130 -126l-70 -67l-123 149l-101 -70l-17 -104l-82 8l40 -71l342 58zM414 309l195 130l-174 -1z" />
    <glyph glyph-name="cid102" unicode="&#xb0;" horiz-adv-x="475" 
d="M65 453l63 198l107 39l154 -125l-27 -132l-191 -66zM162 463l148 49l-107 90z" />
    <glyph glyph-name="cid103" unicode="&#xb1;" horiz-adv-x="580" 
d="M58 473l178 8l9 139l125 -5l-9 -128l157 7l4 -115l-168 -8l-11 -157l-125 5l10 146l-166 -8zM514 160l4 -120l-456 -24l-4 120z" />
    <glyph glyph-name="cid104" unicode="&#xb6;" horiz-adv-x="640" 
d="M540 721l-24 -825l-110 15l26 711h-82l-22 -724l-110 15l18 474l-151 113l10 115l153 108z" />
    <glyph glyph-name="cid105" unicode="&#xb7;" horiz-adv-x="315" 
d="M237 365l-21 -137l-137 21l21 137z" />
    <glyph glyph-name="cid22496" unicode="&#xc5;" horiz-adv-x="750" 
d="M517 140h-252l-72 -230l-128 30l67 200h-23l-21 123h86l145 433l55 -15l-69 55l46 145l80 29l112 -92l-19 -97l-133 -45l38 -11l-3 -10l81 22l191 -737l-129 -30zM381 748l98 32l-71 58zM489 265l-78 343l-107 -344z" />
    <glyph glyph-name="cid106" unicode="&#xd7;" horiz-adv-x="640" 
d="M413 305l176 -201l-89 -79l-169 193l-187 -196l-84 85l191 202l-176 201l89 79l170 -194l185 196l84 -87z" />
    <glyph glyph-name="cid107" unicode="&#xf7;" horiz-adv-x="640" 
d="M216 490l37 107l61 23l88 -66l-15 -75l-111 -39zM36 339l553 26l5 -120l-553 -25zM224 29l37 106l61 23l88 -65l-15 -75l-111 -40z" />
    <glyph glyph-name="cid11887" unicode="&#x2c7;" horiz-adv-x="475" 
d="M72 676l74 70l97 -126l97 126l78 -72l-134 -129l-86 9z" />
    <glyph glyph-name="cid11888" unicode="&#x2d0;" horiz-adv-x="950" 
d="M477 374l-93 182l207 -18zM473 256l93 -182l-207 18z" />
    <glyph glyph-name="cid11889" unicode="&#x2d8;" horiz-adv-x="475" 
d="M141 540l-59 73l48 127l76 -34l-44 -87l148 19l-47 75l74 44l51 -114l-44 -80z" />
    <glyph glyph-name="cid11890" unicode="&#x2d9;" horiz-adv-x="315" 
d="M83 626l33 97l55 20l79 -59l-13 -68l-100 -35z" />
    <glyph glyph-name="cid11891" unicode="&#x2da;" horiz-adv-x="315" 
d="M46 613l46 145l80 29l112 -92l-19 -97l-141 -48zM120 624l101 33l-73 60z" />
    <glyph glyph-name="cid11892" unicode="&#x2db;" horiz-adv-x="315" 
d="M104 50l66 -32l-50 -109l113 32l18 -92l-150 -22l-61 75z" />
    <glyph glyph-name="cid11893" unicode="&#x2dc;" horiz-adv-x="475" 
d="M135 626l-57 46l82 88l72 -7l54 -73l57 79l54 -49l-80 -94l-72 9l-58 74z" />
    <glyph glyph-name="cid11894" unicode="&#x2dd;" horiz-adv-x="475" 
d="M48 588l115 189l97 -71l-134 -169zM214 561l109 189l98 -72l-135 -168z" />
    <glyph glyph-name="cid22598" unicode="&#x3a9;" horiz-adv-x="640" 
d="M446 -9l117 2l-5 -93l-211 10l1 4h-1l20 196h1l-1 1l110 168l-134 206l-176 -206l115 -167l-1 -1h1l-10 -196v-4h-206v93l119 -8l7 73l-159 223l258 272l113 -9l203 -289l-157 -202z" />
    <glyph glyph-name="cid108" unicode="&#x2002;" horiz-adv-x="620" 
 />
    <glyph glyph-name="cid109" unicode="&#x2003;" horiz-adv-x="834" 
 />
    <glyph glyph-name="cid110" unicode="&#x2004;" horiz-adv-x="600" 
 />
    <glyph glyph-name="cid111" unicode="&#x2005;" horiz-adv-x="240" 
 />
    <glyph glyph-name="cid112" unicode="&#x2006;" horiz-adv-x="150" 
 />
    <glyph glyph-name="cid113" unicode="&#x2007;" horiz-adv-x="600" 
 />
    <glyph glyph-name="cid114" unicode="&#x2009;" horiz-adv-x="600" 
 />
    <glyph glyph-name="cid115" unicode="&#x200a;" horiz-adv-x="185" 
 />
    <glyph glyph-name="cid116" unicode="&#x2012;" horiz-adv-x="950" 
d="M190 322l570 23v-113l-570 -23v113z" />
    <glyph glyph-name="cid117" unicode="&#x2013;" horiz-adv-x="950" 
d="M143 322l664 23v-113l-664 -23v113z" />
    <glyph glyph-name="cid118" unicode="&#x2014;" horiz-adv-x="950" 
d="M86 322l778 23v-113l-778 -23v113z" />
    <glyph glyph-name="cid119" unicode="&#x2015;" horiz-adv-x="950" 
d="M86 322l778 23v-113l-778 -23v113z" />
    <glyph glyph-name="cid120" unicode="&#x2018;" horiz-adv-x="315" 
d="M295 691l-51 -246l-130 25l73 246z" />
    <glyph glyph-name="cid121" unicode="&#x2019;" horiz-adv-x="315" 
d="M40 470l41 246l130 -25l-63 -246z" />
    <glyph glyph-name="cid122" unicode="&#x201c;" horiz-adv-x="475" 
d="M291 691l-51 -246l-125 25l73 246zM455 691l-51 -246l-125 25l73 246z" />
    <glyph glyph-name="cid123" unicode="&#x201d;" horiz-adv-x="475" 
d="M50 470l41 246l125 -25l-63 -246zM214 470l41 246l125 -25l-63 -246z" />
    <glyph glyph-name="cid124" unicode="&#x2020;" horiz-adv-x="950" 
d="M546 423l-44 -645l-120 10l43 628l-161 -9l-4 115l173 10l13 197l120 -10l-12 -180l132 7l4 -115z" />
    <glyph glyph-name="cid125" unicode="&#x2021;" horiz-adv-x="950" 
d="M667 -17l-152 -9l-13 -196l-120 10l12 179l-132 -8l-3 110l143 8l23 338l-139 -8l-4 115l151 9l13 198l120 -10l-12 -181l134 8l4 -115l-146 -9l-23 -337l141 8z" />
    <glyph glyph-name="cid126" unicode="&#x2022;" horiz-adv-x="950" 
d="M345 239l49 152l87 33l124 -93l-21 -108l-155 -54z" />
    <glyph glyph-name="cid127" unicode="&#x2023;" horiz-adv-x="950" 
d="M593 310l-236 -133l24 295z" />
    <glyph glyph-name="cid128" unicode="&#x2025;" horiz-adv-x="950" 
d="M169 92l150 -17l-19 -150l-150 17zM625 92l150 -17l-19 -150l-150 17z" />
    <glyph glyph-name="cid129" unicode="&#x2026;" horiz-adv-x="950" 
d="M93 94l150 -17l-19 -150l-150 17zM409 94l150 -17l-19 -150l-150 17zM725 94l150 -17l-19 -150l-150 17z" />
    <glyph glyph-name="cid11896" unicode="&#x2030;" horiz-adv-x="950" 
d="M662 641l-523 -691l-89 72l524 693zM41 433l59 203l101 41l124 -123l-26 -143l-159 -71zM136 447l110 50l-72 82zM337 25l60 203l101 42l123 -125l-25 -142l-159 -72zM625 25l60 203l101 42l123 -125l-25 -142l-159 -72zM432 39l111 50l-73 87zM720 39l112 50l-76 87z
" />
    <glyph glyph-name="cid130" unicode="&#x2032;" horiz-adv-x="315" 
d="M55 438l51 246h120l-53 -246h-118z" />
    <glyph glyph-name="cid131" unicode="&#x2033;" horiz-adv-x="475" 
d="M62 428l51 256h120l-53 -256h-118zM227 428l51 256h120l-53 -256h-118z" />
    <glyph glyph-name="cid132" unicode="&#x203b;" horiz-adv-x="950" 
d="M462 529l-58 48l35 102l59 22l85 -62l-15 -74zM543 289l180 -253l-97 -68l-163 230l-203 -230l-90 77l223 252l-188 264l96 68l172 -242l222 251l90 -75zM192 233l-59 48l34 103l59 22l85 -64l-14 -73zM816 326l-15 -72l-106 -38l-59 47l35 104l58 22zM455 90l85 -63
l-15 -73l-105 -36l-59 46l36 103z" />
    <glyph glyph-name="cid133" unicode="&#x20a9;" horiz-adv-x="950" 
d="M792 331l-51 -3l-91 -401l-147 41l-42 219l-75 -262l-142 40l-26 333l-76 -4l-1 105l69 4l-21 271l118 7l11 -272l109 6l15 64l96 -25l-9 -33l126 7l48 265l115 -24l-53 -234l22 1zM636 322l-109 -6l55 -291zM402 309l-80 -5l12 -282z" />
    <glyph glyph-name="cid134" unicode="&#x20ac;" horiz-adv-x="950" 
d="M705 75l28 -117l-323 -50l-124 78l12 154l-111 -11l-2 105l121 12l6 77l-113 -8l-3 105l124 9l14 191l129 82l291 -50l-29 -118l-279 61l-13 -158l214 16l4 -105l-226 -17l-6 -74l212 20l8 -105l-229 -22l-11 -137z" />
    <glyph glyph-name="cid135" unicode="&#x2103;" horiz-adv-x="950" 
d="M389 636l152 96l345 -106l-38 -143l-321 108l-56 -554l363 133l50 -144l-406 -128l-145 91zM63 505l54 166l88 33l129 -105l-23 -110l-159 -56zM146 514l120 42l-88 73z" />
    <glyph glyph-name="cid136" unicode="&#x2109;" horiz-adv-x="950" 
d="M220 704l129 -105l-23 -110l-159 -56l-89 72l54 166zM578 558l-20 -225l305 18l-5 -142l-311 -1l-28 -311l-123 24l46 635l-51 -1l-15 142l495 7l-5 -142zM281 556l-88 73l-32 -115z" />
    <glyph glyph-name="cid11921" unicode="&#x2113;" horiz-adv-x="640" 
d="M563 5l-154 -112l-115 52l-15 123l-98 -164l-96 70l172 279l-48 407l107 69l187 -152l23 -96l-158 -264l25 -204l105 88zM346 397l66 106l-90 92z" />
    <glyph glyph-name="cid11922" unicode="&#x2116;" horiz-adv-x="950" 
d="M526 498l-73 -568l-105 -19v1l-13 -3l-83 294l-31 -300l-105 20l60 590l108 -9l-8 -76l94 -333l50 418zM843 284l-15 -98l-114 -148l-94 13l-107 146l19 100l125 133l81 -11zM753 237l-69 89l-79 -94l68 -99zM488 5l337 10v-98l-337 -10v98z" />
    <glyph glyph-name="cid11923" unicode="&#x2121;" horiz-adv-x="950" 
d="M321 416l-40 -512l-112 20l42 492l-170 -1l5 100l470 2l-6 -100zM902 -83l-154 -20l-95 79l35 366l114 -10l-41 -326l131 18zM625 -90l-193 -16h-1v1l-82 72l28 259l-22 -2l-9 101l275 16l2 -96l-144 -11l-10 -73l136 16l3 -102l-153 -14l-10 -72l172 19z" />
    <glyph glyph-name="cid137" unicode="&#x2122;" horiz-adv-x="950" 
d="M735 278l-3 240l-86 -200l-37 12l-41 14l-24 184l-71 -260l-95 28l118 392l50 -6l49 -5l29 -224l91 240l94 -20l24 -403zM337 596l-26 -325l-100 17l33 309h-127l6 91l336 -1l-4 -91h-118z" />
    <glyph glyph-name="cid11925" unicode="&#x212b;" horiz-adv-x="950" 
d="M610 145h-250l-73 -235l-128 30l69 205h-25l-21 118h86l145 433l55 -15l-69 55l46 145l80 29l112 -92l-19 -97l-133 -45l38 -11l-3 -10l81 22l191 -737l-129 -30zM475 748l98 32l-71 58zM583 265l-78 343l-107 -344z" />
    <glyph glyph-name="cid138" unicode="&#x2190;" horiz-adv-x="950" 
d="M237 263l110 -95l-89 -70l-193 213l193 229l93 -63l-117 -109l633 33l9 -120z" />
    <glyph glyph-name="cid139" unicode="&#x2191;" horiz-adv-x="475" 
d="M386 454l-95 110l-18 -639l-120 9l33 633l-109 -117l-63 93l229 193l213 -193z" />
    <glyph glyph-name="cid140" unicode="&#x2192;" horiz-adv-x="950" 
d="M876 327l-193 -229l-93 63l117 109l-633 -33l-9 120l639 18l-110 95l89 70z" />
    <glyph glyph-name="cid141" unicode="&#x2193;" horiz-adv-x="475" 
d="M458 118l-213 -193l-229 193l63 93l109 -117l-33 633l120 9l18 -639l95 110z" />
    <glyph glyph-name="cid142" unicode="&#x2194;" horiz-adv-x="950" 
d="M883 321l-158 -258l-84 62l98 132l-525 -26l91 -107l-74 -61l-164 213l168 238l84 -62l-100 -112l516 18l-105 105l69 61zM171 281v5l-2 -2z" />
    <glyph glyph-name="cid143" unicode="&#x2195;" horiz-adv-x="475" 
d="M395 180l63 -93l-229 -193l-213 193l70 89l75 -87l27 508l-109 -117l-63 93l229 193l213 -193l-70 -89l-95 110l-15 -540z" />
    <glyph glyph-name="cid144" unicode="&#x2196;" horiz-adv-x="950" 
d="M781 -39l-584 548l10 -146l-113 13l15 288l298 25l21 -110l-160 5l591 -532z" />
    <glyph glyph-name="cid145" unicode="&#x2197;" horiz-adv-x="950" 
d="M746 363l10 146l-584 -548l-78 91l591 532l-160 -5l21 110l298 -25l15 -288z" />
    <glyph glyph-name="cid146" unicode="&#x2198;" horiz-adv-x="950" 
d="M854 261l-25 -298l-288 -15l-13 113l143 -10l-555 574l91 78l542 -583l-5 162z" />
    <glyph glyph-name="cid147" unicode="&#x2199;" horiz-adv-x="950" 
d="M268 66l160 5l-21 -110l-298 25l-15 288l113 13l-10 -146l584 548l78 -91z" />
    <glyph glyph-name="cid11954" unicode="&#x2200;" horiz-adv-x="950" 
d="M759 352h-81l-155 -453l-120 21l15 46l-78 -18l-181 737l129 30l58 -240h239l79 240l128 -30l-72 -210h28zM545 351l-170 -1l72 -297z" />
    <glyph glyph-name="cid11955" unicode="&#x2202;" horiz-adv-x="640" 
d="M580 618l-163 -707l-141 -28v1l-57 -12l-130 351l81 145l218 -39l67 266l-202 -63l-41 128l250 61l61 -59zM299 -24l57 227l-142 33z" />
    <glyph glyph-name="cid11956" unicode="&#x2203;" horiz-adv-x="950" 
d="M723 -56l-490 -27l-5 122l311 24l27 212l-306 -35l-5 132l326 29l23 183l-373 -41l-5 134l393 27h2v-2l98 -71l-54 -558l43 3z" />
    <glyph glyph-name="cid11957" unicode="&#x2207;" horiz-adv-x="950" 
d="M144 587l30 58l603 19l31 -58l-274 -641h-68zM268 551l227 -440l199 454z" />
    <glyph glyph-name="cid11960" unicode="&#x220f;" horiz-adv-x="780" 
d="M573 551l-14 -813l-119 10l18 798l-102 -4l-22 -804l-119 10l26 789l-127 -5l-4 125l586 24l4 -125z" />
    <glyph glyph-name="cid11961" unicode="&#x2211;" horiz-adv-x="640" 
d="M253 191l-143 359l52 102h430l-14 -120l-332 3l149 -360l-208 -327l317 12l-13 -120l-408 1l-46 114z" />
    <glyph glyph-name="cid148" unicode="&#x2212;" horiz-adv-x="640" 
d="M85 329l465 26l5 -125l-465 -25z" />
    <glyph glyph-name="cid11962" unicode="&#x221a;" horiz-adv-x="640" 
d="M613 661l-12 -110l-192 14l-138 -637l-100 -2l-151 355l114 44l71 -214l126 556z" />
    <glyph glyph-name="cid11963" unicode="&#x221d;" horiz-adv-x="830" 
d="M520 300l166 -154l-79 -77l-165 176l-212 -151l-107 45l60 346l99 43l162 -151l191 142l72 -85zM367 320l-102 99l-37 -202z" />
    <glyph glyph-name="cid11964" unicode="&#x221e;" horiz-adv-x="830" 
d="M748 473l-53 -334l-119 -60l-167 169l-220 -154l-97 45l60 346l99 43l171 -159l227 158zM204 217l138 96l-108 106zM599 198l41 213l-154 -108z" />
    <glyph glyph-name="cid11965" unicode="&#x2220;" horiz-adv-x="950" 
d="M628 642l68 -74l-460 -504l574 12v-100h-652l-43 97z" />
    <glyph glyph-name="cid11966" unicode="&#x2225;" horiz-adv-x="950" 
d="M351 653l97 -5l-23 -670l-101 5zM514 651h97l-22 -675l-102 5z" />
    <glyph glyph-name="cid11967" unicode="&#x2227;" horiz-adv-x="950" 
d="M694 -15l-206 560l-238 -560l-118 40l325 666h68l287 -666z" />
    <glyph glyph-name="cid11968" unicode="&#x2228;" horiz-adv-x="950" 
d="M253 661l206 -530l238 530l118 -40l-325 -636h-68l-287 636z" />
    <glyph glyph-name="cid11971" unicode="&#x222b;" horiz-adv-x="520" 
d="M510 632l-50 -118l-102 71l-98 -632l1 -1l-107 -58l-134 58l50 118l74 -46l95 598l147 68z" />
    <glyph glyph-name="cid11973" unicode="&#x222e;" horiz-adv-x="950" 
d="M573 595l-20 -111l149 -235l-77 -124l-134 6l-33 -187l3 -2l-102 -48l-184 78l50 98l139 -75l24 141l-100 4l-56 143l220 225h2l20 114l117 68l184 -78l-50 -98zM405 231l23 129l-109 -126zM529 346l-21 -119l101 -4z" />
    <glyph glyph-name="cid11974" unicode="&#x2234;" horiz-adv-x="950" 
d="M392 387l32 94l54 20l77 -58l-13 -66l-97 -34zM232 87l32 94l54 20l77 -58l-13 -66l-97 -34zM555 87l32 94l54 20l77 -58l-13 -66l-97 -34z" />
    <glyph glyph-name="cid11979" unicode="&#x2252;" horiz-adv-x="750" 
d="M224 549l32 94l54 20l77 -58l-13 -66l-97 -34zM92 444l576 24l3 -105l-575 -24zM89 266l575 24l3 -105l-575 -24zM431 24l32 93l54 20l77 -57l-13 -66l-97 -35z" />
    <glyph glyph-name="cid149" unicode="&#x2260;" horiz-adv-x="640" 
d="M554 113l-217 -11l-36 -174l-120 10l33 158l-145 -7l-3 130l175 9l24 113l-187 -9l-4 130l218 11l33 156l120 -10l-29 -140l144 7l4 -130l-176 -9l-23 -113l186 9z" />
    <glyph glyph-name="cid11980" unicode="&#x2261;" horiz-adv-x="750" 
d="M85 552l576 24l4 -120l-576 -24zM85 362l576 24l4 -120l-576 -24zM86 169l575 24l3 -120l-575 -24z" />
    <glyph glyph-name="cid150" unicode="&#x2264;" horiz-adv-x="680" 
d="M112 472l434 179l32 -120l-350 -129l353 -122l-39 -118l-440 181zM90 96l506 14l4 -110l-506 -14z" />
    <glyph glyph-name="cid151" unicode="&#x2265;" horiz-adv-x="680" 
d="M141 147l-39 118l351 127l-350 129l32 120l434 -179l10 -129zM600 10l-506 -24l-4 110l506 24z" />
    <glyph glyph-name="cid11983" unicode="&#x226a;" horiz-adv-x="950" 
d="M506 -63l-368 382l368 365l86 -83l-331 -282l331 -299zM757 -41l-390 360l390 355l84 -84l-351 -271l351 -277z" />
    <glyph glyph-name="cid11984" unicode="&#x226b;" horiz-adv-x="950" 
d="M453 684l368 -382l-368 -365l-86 83l331 282l-331 299zM202 662l390 -360l-390 -355l-84 84l351 271l-351 277z" />
    <glyph glyph-name="cid11985" unicode="&#x2282;" horiz-adv-x="950" 
d="M197 460l107 76l446 -14l-7 -115l-441 18l-28 -269l452 -2l-7 -115l-459 9l-94 103z" />
    <glyph glyph-name="cid11986" unicode="&#x2283;" horiz-adv-x="950" 
d="M719 125l-107 -76l-446 14l7 115l441 -18l28 269l-452 2l7 115l459 -9l94 -103z" />
    <glyph glyph-name="cid11989" unicode="&#x2299;" horiz-adv-x="950" 
d="M475 -36q-72 0 -135.5 27t-111 74.5t-74.5 111t-27 135.5t27 135.5t74.5 111t111 74.5t135.5 27t135.5 -27t111 -74.5t74.5 -111t27 -135.5t-27 -135.5t-74.5 -111t-111 -74.5t-135.5 -27zM475 44q55 0 104 21t85.5 57.5t57.5 85t21 104.5q0 55 -21 104t-57.5 85.5
t-85.5 57.5t-104 21q-56 0 -104.5 -21t-85 -57.5t-57.5 -85.5t-21 -104q0 -56 21 -104.5t57.5 -85t85 -57.5t104.5 -21zM475 196q-23 0 -44 9.5t-37 25.5t-25.5 37t-9.5 44t9.5 44t25.5 37t37 25.5t44 9.5t44 -9.5t37 -25.5t25.5 -37t9.5 -44t-9.5 -44t-25.5 -37t-37 -25.5
t-44 -9.5z" />
    <glyph glyph-name="cid11990" unicode="&#x22a5;" horiz-adv-x="950" 
d="M772 8l-583 -12l-3 105l229 5l25 557l129 -5l-36 -550l236 5z" />
    <glyph glyph-name="cid11992" unicode="&#x2312;" horiz-adv-x="950" 
d="M665 222l85 -58l58 -167l-121 -35l-25 131l-383 -19l-13 -130l-124 21l39 169l85 69z" />
    <glyph glyph-name="cid158" unicode="&#x2329;" horiz-adv-x="475" 
d="M460 729l-263 -431l199 -440l-126 -30l-201 471l265 460z" />
    <glyph glyph-name="cid158" unicode="&#x3008;" horiz-adv-x="475" 
d="M460 729l-263 -431l199 -440l-126 -30l-201 471l265 460z" />
    <glyph glyph-name="cid159" unicode="&#x232a;" horiz-adv-x="475" 
d="M69 -142l263 441l-199 430l126 30l201 -461l-265 -470z" />
    <glyph glyph-name="cid159" unicode="&#x3009;" horiz-adv-x="475" 
d="M69 -142l263 441l-199 430l126 30l201 -461l-265 -470z" />
    <glyph glyph-name="cid152" unicode="&#x25a1;" horiz-adv-x="950" 
d="M804 651v-676h-658v676h658zM233 64h484v498h-484v-498z" />
    <glyph glyph-name="cid12063" unicode="&#x25a3;" horiz-adv-x="950" 
d="M821 668v-710h-692v710h692zM211 41h528v544h-528v-544zM340 452h270v-278h-270v278z" />
    <glyph glyph-name="cid12071" unicode="&#x25b3;" horiz-adv-x="950" 
d="M94 17l381 648l383 -647zM475 508l-235 -404l472 1z" />
    <glyph glyph-name="cid12076" unicode="&#x25c0;" horiz-adv-x="950" 
d="M755 -37l-634 365l633 367z" />
    <glyph glyph-name="cid12077" unicode="&#x25c1;" horiz-adv-x="950" 
d="M754 -6l-648 351l647 373zM263 344l409 -203l-1 430z" />
    <glyph glyph-name="cid12079" unicode="&#x25c7;" horiz-adv-x="950" 
d="M480 -106l-424 424l414 414l424 -424zM471 609l-292 -292l300 -300l292 292z" />
    <glyph glyph-name="cid12080" unicode="&#x25c8;" horiz-adv-x="950" 
d="M480 -106l-424 424l414 414l424 -424zM471 618l-301 -301l309 -309l301 301zM639 311l-162 -162l-166 166l162 162z" />
    <glyph glyph-name="cid153" unicode="&#x25cb;" horiz-adv-x="950" 
d="M450 -58q-77 0 -144 29t-117.5 79.5t-79.5 117.5t-29 144q0 76 29 143.5t79.5 118t117.5 79.5t144 29q76 0 143.5 -29t118 -79.5t79.5 -118t29 -143.5q0 -77 -29 -144t-79.5 -117.5t-118 -79.5t-143.5 -29zM450 29q58 0 110 22.5t90 60.5t60.5 89.5t22.5 110.5
q0 58 -22.5 110t-60.5 90t-90 60.5t-110 22.5q-59 0 -110.5 -22.5t-89.5 -60.5t-60.5 -90t-22.5 -110q0 -59 22.5 -110.5t60.5 -89.5t89.5 -60.5t110.5 -22.5z" />
    <glyph glyph-name="cid12082" unicode="&#x25ce;" horiz-adv-x="950" 
d="M450 -58q-77 0 -144 29t-117.5 79.5t-79.5 117.5t-29 144q0 76 29 143.5t79.5 118t117.5 79.5t144 29q76 0 143.5 -29t118 -79.5t79.5 -118t29 -143.5q0 -77 -29 -144t-79.5 -117.5t-118 -79.5t-143.5 -29zM450 27q59 0 111 22.5t90.5 61t61 90.5t22.5 111t-22.5 111
t-61 90.5t-90.5 61t-111 22.5t-111 -22.5t-90.5 -61t-61 -90.5t-22.5 -111t22.5 -111t61 -90.5t90.5 -61t111 -22.5zM450 124q-39 0 -73.5 14.5t-60 40t-40 60t-14.5 73.5t14.5 73t40 59.5t60 40.5t73.5 15t73 -15t59.5 -40.5t40.5 -59.5t15 -73t-15 -73.5t-40.5 -60
t-59.5 -40t-73 -14.5zM450 210q21 0 39.5 8t32.5 22t22 32.5t8 39.5t-8 39.5t-22 32.5t-32.5 22t-39.5 8t-39.5 -8t-32.5 -22t-22 -32.5t-8 -39.5t8 -39.5t22 -32.5t32.5 -22t39.5 -8z" />
    <glyph glyph-name="cid12084" unicode="&#x25d0;" horiz-adv-x="950" 
d="M450 -58q-77 0 -144 29t-117.5 79.5t-79.5 117.5t-29 144q0 76 29 143.5t79.5 118t117.5 79.5t144 29q76 0 143.5 -29t118 -79.5t79.5 -118t29 -143.5q0 -77 -29 -144t-79.5 -117.5t-118 -79.5t-143.5 -29zM452 32q58 0 109 22t89 60t60 89t22 109t-22 109t-60 89t-89 60
t-109 22v-560z" />
    <glyph glyph-name="cid154" unicode="&#x25e6;" horiz-adv-x="950" 
d="M306 255l66 206l112 41l160 -140l-29 -128l-199 -69zM402 250l171 58l-123 114z" />
    <glyph glyph-name="cid12087" unicode="&#x2606;" horiz-adv-x="950" 
d="M741 -13l-75 -47l-209 149l-219 -166l-68 57l83 252l-170 136l30 87l219 19l119 229l98 -1l83 -228l226 -19l17 -100l-177 -123zM408 403l-220 -23l158 -107l-71 -223l188 144l191 -154l-60 233l183 112l-220 18l-56 215z" />
    <glyph glyph-name="cid12092" unicode="&#x2640;" horiz-adv-x="950" 
d="M509 197l227 -9l-7 -95l-227 8l-15 -182l-115 5l23 181l-217 8l8 96l222 -8l9 70l-154 7l-60 142l245 281l113 -9l186 -303l-85 -128l-147 6zM299 369l340 -11l-140 262z" />
    <glyph glyph-name="cid12093" unicode="&#x2642;" horiz-adv-x="950" 
d="M667 512l-126 -203l119 -82l-21 -153l-357 -104l-92 65l-3 356l140 65l121 -84l139 193l-230 -23l2 106l350 2l108 -317l-97 -26zM582 165l-291 199l-10 -298z" />
    <glyph glyph-name="cid12101" unicode="&#x2669;" horiz-adv-x="475" 
d="M369 97v-1l-63 -156l-232 76l18 92l184 22l47 572l95 -6z" />
    <glyph glyph-name="cid12102" unicode="&#x266a;" horiz-adv-x="950" 
d="M810 520l-210 -236l-69 78l134 120l-187 110l-43 -495l-63 -155l-232 76l18 92l184 23l45 513l80 60l281 -150z" />
    <glyph glyph-name="cid12103" unicode="&#x266c;" horiz-adv-x="950" 
d="M804 592l-39 -407l-63 -155l-232 76l18 92l185 23l15 167l-313 -57l-22 -234l-63 -155l-232 76l18 92l185 23l42 445l3 47l411 65v1l5 -1l92 15l-2 -25zM706 577l-312 -49l-9 -90l313 56z" />
    <glyph glyph-name="cid12104" unicode="&#x266d;" horiz-adv-x="475" 
d="M222 99l-75 61l-5 -61l-100 20l40 577l105 -10l-18 -239l170 79l111 -114zM149 189l194 223l-183 -81z" />
    <glyph glyph-name="cid155" unicode="&#x274c;" horiz-adv-x="950" 
d="M554 297l182 -231l-101 -80l-168 213l-186 -212l-96 88l201 228l-194 246l100 80l180 -228l196 223l96 -88z" />
    <glyph glyph-name="cid156" unicode="&#x2e3a;" horiz-adv-x="1720" 
d="M82 209v116l1556 20v-116z" />
    <glyph glyph-name="cid157" unicode="&#x2e3b;" horiz-adv-x="2500" 
d="M83 209v116l2334 20v-116z" />
    <glyph glyph-name="cid11731" unicode="&#x3001;" horiz-adv-x="950" 
d="M111 13l53 69l210 -104l-72 -116z" />
    <glyph glyph-name="cid11732" unicode="&#x3002;" horiz-adv-x="950" 
d="M97 -79l60 187l101 37l145 -127l-26 -116l-180 -62zM196 -67l131 45l-95 83z" />
    <glyph glyph-name="cid160" unicode="&#x300a;" horiz-adv-x="575" 
d="M382 714l-193 -416l129 -425l-105 -5l-131 431l195 420zM540 714l-193 -416l129 -425l-105 -5l-131 431l195 420z" />
    <glyph glyph-name="cid161" unicode="&#x300b;" horiz-adv-x="575" 
d="M10 -127l193 416l-129 425l105 5l131 -431l-195 -420zM168 -127l193 416l-129 425l105 5l131 -431l-195 -420z" />
    <glyph glyph-name="cid162" unicode="&#x300c;" horiz-adv-x="475" 
d="M220 371l-115 10l33 332l272 -10l-10 -112l-163 15z" />
    <glyph glyph-name="cid163" unicode="&#x300d;" horiz-adv-x="475" 
d="M270 235l115 -10l-33 -332l-272 10l10 112l163 -15z" />
    <glyph glyph-name="cid164" unicode="&#x300e;" horiz-adv-x="475" 
d="M100 352l27 359h288l-13 -138l-150 10l-5 -236zM156 394l37 -3l5 239l157 -10l3 35h-185z" />
    <glyph glyph-name="cid165" unicode="&#x300f;" horiz-adv-x="475" 
d="M345 221l-27 -359h-288l13 138l150 -10l5 236zM289 179l-37 3l-5 -239l-157 10l-3 -35h185z" />
    <glyph glyph-name="cid166" unicode="&#x3010;" horiz-adv-x="475" 
d="M264 299l143 -466h-277l32 929h277z" />
    <glyph glyph-name="cid167" unicode="&#x3011;" horiz-adv-x="475" 
d="M216 316l-143 446h277l-32 -929h-277z" />
    <glyph glyph-name="cid168" unicode="&#x3014;" horiz-adv-x="540" 
d="M337 -165l-261 154l43 606l248 156l73 -109l-208 -124l-31 -460l204 -104z" />
    <glyph glyph-name="cid169" unicode="&#x3015;" horiz-adv-x="540" 
d="M103 751l261 -154l-43 -606l-248 -156l-73 109l208 124l31 460l-204 104z" />
    <glyph glyph-name="cid170" unicode="&#x3131;" horiz-adv-x="920" 
d="M143 489l495 84l23 -109l106 -52l-156 -379l-136 70l144 322l-436 -76z" />
    <glyph glyph-name="cid170" unicode="&#xffa1;" horiz-adv-x="920" 
d="M143 489l495 84l23 -109l106 -52l-156 -379l-136 70l144 322l-436 -76z" />
    <glyph glyph-name="cid171" unicode="&#x3132;" horiz-adv-x="920" 
d="M694 40l-150 60l123 330l-204 -28l-39 135l270 34l24 -96l104 -40zM348 36l-126 60l125 250l-202 -32l-40 140l269 43l115 -173z" />
    <glyph glyph-name="cid171" unicode="&#xffa2;" horiz-adv-x="920" 
d="M694 40l-150 60l123 330l-204 -28l-39 135l270 34l24 -96l104 -40zM348 36l-126 60l125 250l-202 -32l-40 140l269 43l115 -173z" />
    <glyph glyph-name="cid172" unicode="&#x3133;" horiz-adv-x="920" 
d="M869 212l-73 -122l-190 121l11 88l-123 -225l-121 74l233 403l116 -61l-87 -159zM459 404l-158 -334l-122 61l141 278l-223 -37l-32 133l303 45l9 -94z" />
    <glyph glyph-name="cid172" unicode="&#xffa3;" horiz-adv-x="920" 
d="M869 212l-73 -122l-190 121l11 88l-123 -225l-121 74l233 403l116 -61l-87 -159zM459 404l-158 -334l-122 61l141 278l-223 -37l-32 133l303 45l9 -94z" />
    <glyph glyph-name="cid173" unicode="&#x3134;" horiz-adv-x="920" 
d="M435 529l-111 -309l449 43l-10 -145l-448 -44l-38 103l-120 52l123 345z" />
    <glyph glyph-name="cid173" unicode="&#xffa4;" horiz-adv-x="920" 
d="M435 529l-111 -309l449 43l-10 -145l-448 -44l-38 103l-120 52l123 345z" />
    <glyph glyph-name="cid174" unicode="&#x3135;" horiz-adv-x="920" 
d="M888 187l-62 -125l-170 85l8 84l-142 -169l-105 109l-8 -88l-242 -21l-22 97l-110 56l107 324l137 -57l-95 -288l237 18l-2 -20l257 234l-216 -43l-34 137l307 36l9 -97l61 -63l-108 -129z" />
    <glyph glyph-name="cid174" unicode="&#xffa5;" horiz-adv-x="920" 
d="M888 187l-62 -125l-170 85l8 84l-142 -169l-105 109l-8 -88l-242 -21l-22 97l-110 56l107 324l137 -57l-95 -288l237 18l-2 -20l257 234l-216 -43l-34 137l307 36l9 -97l61 -63l-108 -129z" />
    <glyph glyph-name="cid175" unicode="&#x3136;" horiz-adv-x="920" 
d="M786 467l-287 10l5 110l290 -22zM199 164l257 18l-12 -129l-262 -21l-22 97l-105 56l107 314l132 -57zM864 170l-65 -115l-245 -28l-80 144l103 146l-96 -9l-7 116l332 -5l3 -81l-91 -8l-114 -188l130 19l-26 92l91 37z" />
    <glyph glyph-name="cid175" unicode="&#xffa6;" horiz-adv-x="920" 
d="M786 467l-287 10l5 110l290 -22zM199 164l257 18l-12 -129l-262 -21l-22 97l-105 56l107 314l132 -57zM864 170l-65 -115l-245 -28l-80 144l103 146l-96 -9l-7 116l332 -5l3 -81l-91 -8l-114 -188l130 19l-26 92l91 37z" />
    <glyph glyph-name="cid176" unicode="&#x3137;" horiz-adv-x="920" 
d="M740 225l-10 -135l-420 -50l-40 95l-110 45l71 200l-71 -5l-30 130l575 50v-140l-320 -23l-75 -217z" />
    <glyph glyph-name="cid176" unicode="&#xffa7;" horiz-adv-x="920" 
d="M740 225l-10 -135l-420 -50l-40 95l-110 45l71 200l-71 -5l-30 130l575 50v-140l-320 -23l-75 -217z" />
    <glyph glyph-name="cid177" unicode="&#x3138;" horiz-adv-x="920" 
d="M800 116l-245 -52l-129 122l65 237l-43 -4l-21 125l333 28v-125l-136 -12l-69 -246l227 49zM395 231l56 -115l-205 -75l-50 96l-93 42l72 193l-52 -4l-24 129l310 17v-124l-93 -7l-66 -204z" />
    <glyph glyph-name="cid177" unicode="&#xffa8;" horiz-adv-x="920" 
d="M800 116l-245 -52l-129 122l65 237l-43 -4l-21 125l333 28v-125l-136 -12l-69 -246l227 49zM395 231l56 -115l-205 -75l-50 96l-93 42l72 193l-52 -4l-24 129l310 17v-124l-93 -7l-66 -204z" />
    <glyph glyph-name="cid178" unicode="&#x3139;" horiz-adv-x="920" 
d="M184 534l482 45l-5 -120l60 -95l-410 -190l444 48v-145l-519 -48l-5 110l-60 95l430 200l-377 -45z" />
    <glyph glyph-name="cid178" unicode="&#xffa9;" horiz-adv-x="920" 
d="M184 534l482 45l-5 -120l60 -95l-410 -190l444 48v-145l-519 -48l-5 110l-60 95l430 200l-377 -45z" />
    <glyph glyph-name="cid179" unicode="&#x313a;" horiz-adv-x="920" 
d="M464 523l271 42l23 -90l99 -44l-128 -392l-127 60l114 322l-212 -34zM97 522l328 22l-10 -104l47 -90l-239 -174l252 24l-11 -125l-330 -23v100l-58 75l272 190l-224 -24z" />
    <glyph glyph-name="cid179" unicode="&#xffaa;" horiz-adv-x="920" 
d="M464 523l271 42l23 -90l99 -44l-128 -392l-127 60l114 322l-212 -34zM97 522l328 22l-10 -104l47 -90l-239 -174l252 24l-11 -125l-330 -23v100l-58 75l272 190l-224 -24z" />
    <glyph glyph-name="cid180" unicode="&#x313b;" horiz-adv-x="920" 
d="M772 146h78l-11 -98h-163l-38 89l112 284l-124 -23l-16 -355l-119 25l12 477h130l-1 -32l136 32l28 -76l90 -49zM452 350l-239 -184l232 24l-11 -125l-310 -23v100l-58 75l272 200l-224 -24l-27 129l328 22l-10 -104z" />
    <glyph glyph-name="cid180" unicode="&#xffab;" horiz-adv-x="920" 
d="M772 146h78l-11 -98h-163l-38 89l112 284l-124 -23l-16 -355l-119 25l12 477h130l-1 -32l136 32l28 -76l90 -49zM452 350l-239 -184l232 24l-11 -125l-310 -23v100l-58 75l272 200l-224 -24l-27 129l328 22l-10 -104z" />
    <glyph glyph-name="cid181" unicode="&#x313c;" horiz-adv-x="920" 
d="M813 178l59 5l-12 -130l-201 -23l-25 132l58 5l15 119l-99 -14l-9 -235l-122 24l17 457h124l-5 -125l108 13l17 139l135 -24zM447 340l-229 -174l222 24l-11 -125l-300 -23v100l-58 75l262 190l-214 -24l-27 129l318 22l-10 -104z" />
    <glyph glyph-name="cid181" unicode="&#xffac;" horiz-adv-x="920" 
d="M813 178l59 5l-12 -130l-201 -23l-25 132l58 5l15 119l-99 -14l-9 -235l-122 24l17 457h124l-5 -125l108 13l17 139l135 -24zM447 340l-229 -174l222 24l-11 -125l-300 -23v100l-58 75l262 190l-214 -24l-27 129l318 22l-10 -104z" />
    <glyph glyph-name="cid182" unicode="&#x313d;" horiz-adv-x="920" 
d="M898 171l-72 -122l-175 136l12 93l-119 -235l-97 55l-3 -33l-310 -23v100l-58 75l272 190l-224 -24l-27 129l328 22l-10 -104l47 -90l-239 -174l231 24l202 360l116 -56l-95 -189z" />
    <glyph glyph-name="cid182" unicode="&#xffad;" horiz-adv-x="920" 
d="M898 171l-72 -122l-175 136l12 93l-119 -235l-97 55l-3 -33l-310 -23v100l-58 75l272 190l-224 -24l-27 129l328 22l-10 -104l47 -90l-239 -174l231 24l202 360l116 -56l-95 -189z" />
    <glyph glyph-name="cid183" unicode="&#x313e;" horiz-adv-x="920" 
d="M859 170v-117l-269 -18l-33 83l-91 33l51 271l-37 -1l-20 119l385 17v-123l-201 -7l-18 -86l204 11v-107l-189 -11l-21 73l-31 -151zM452 340l-239 -174l232 24l-11 -125l-310 -23v100l-58 75l272 190l-224 -24l-27 129l328 22l-10 -104z" />
    <glyph glyph-name="cid183" unicode="&#xffae;" horiz-adv-x="920" 
d="M859 170v-117l-269 -18l-33 83l-91 33l51 271l-37 -1l-20 119l385 17v-123l-201 -7l-18 -86l204 11v-107l-189 -11l-21 73l-31 -151zM452 340l-239 -174l232 24l-11 -125l-310 -23v100l-58 75l272 190l-224 -24l-27 129l328 22l-10 -104z" />
    <glyph glyph-name="cid184" unicode="&#x313f;" horiz-adv-x="920" 
d="M497 397l-20 115l368 20v-110zM462 330l-239 -174l232 24l-11 -125l-310 -23v100l-58 75l272 190l-224 -24l-27 129l328 22l-10 -104zM858 162v-114l-353 -21l-15 114l198 11l27 221l127 -17l-51 -198zM505 350l115 23l20 -182l-86 -23z" />
    <glyph glyph-name="cid184" unicode="&#xffaf;" horiz-adv-x="920" 
d="M497 397l-20 115l368 20v-110zM462 330l-239 -174l232 24l-11 -125l-310 -23v100l-58 75l272 190l-224 -24l-27 129l328 22l-10 -104zM858 162v-114l-353 -21l-15 114l198 11l27 221l127 -17l-51 -198zM505 350l115 23l20 -182l-86 -23z" />
    <glyph glyph-name="cid185" unicode="&#x3140;" horiz-adv-x="920" 
d="M776 447l-267 10l5 110l270 -22zM462 340l-239 -174l232 24l-11 -125l-310 -23v100l-58 75l272 190l-224 -24l-27 129l328 22l-10 -104zM854 150l-65 -115l-235 -28l-80 144l103 145l-86 -8l-7 116l312 -5l3 -81l-81 -8l-114 -188l120 19l-26 92l91 37z" />
    <glyph glyph-name="cid185" unicode="&#xffb0;" horiz-adv-x="920" 
d="M776 447l-267 10l5 110l270 -22zM462 340l-239 -174l232 24l-11 -125l-310 -23v100l-58 75l272 190l-224 -24l-27 129l328 22l-10 -104zM854 150l-65 -115l-235 -28l-80 144l103 145l-86 -8l-7 116l312 -5l3 -81l-81 -8l-114 -188l120 19l-26 92l91 37z" />
    <glyph glyph-name="cid186" unicode="&#x3141;" horiz-adv-x="920" 
d="M770 212l-10 -120l-325 -30l-60 100l200 240l-279 -52l-36 -288l-130 35l50 450h140l-6 -45l316 55l15 -105l100 -70l-170 -190z" />
    <glyph glyph-name="cid186" unicode="&#xffb1;" horiz-adv-x="920" 
d="M770 212l-10 -120l-325 -30l-60 100l200 240l-279 -52l-36 -288l-130 35l50 450h140l-6 -45l316 55l15 -105l100 -70l-170 -190z" />
    <glyph glyph-name="cid187" unicode="&#x3142;" horiz-adv-x="920" 
d="M735 178l-13 -125l-342 -31l-31 121l139 13l28 123l-224 -23l-27 -226l-135 40l49 463h145l-18 -150l239 25l33 149l145 -30l-88 -358z" />
    <glyph glyph-name="cid187" unicode="&#xffb2;" horiz-adv-x="920" 
d="M735 178l-13 -125l-342 -31l-31 121l139 13l28 123l-224 -23l-27 -226l-135 40l49 463h145l-18 -150l239 25l33 149l145 -30l-88 -358z" />
    <glyph glyph-name="cid188" unicode="&#x3143;" horiz-adv-x="920" 
d="M785 200l-8 -125l-450 -46l-26 116l59 7l14 111l-87 -12l-31 -245l-130 30l56 499h140l-21 -166l89 12l22 173l125 -5l-20 -141l92 13l29 153l140 -25l-80 -359zM482 166l80 9l24 127l-86 -12z" />
    <glyph glyph-name="cid188" unicode="&#xffb3;" horiz-adv-x="920" 
d="M785 200l-8 -125l-450 -46l-26 116l59 7l14 111l-87 -12l-31 -245l-130 30l56 499h140l-21 -166l89 12l22 173l125 -5l-20 -141l92 13l29 153l140 -25l-80 -359zM482 166l80 9l24 127l-86 -12z" />
    <glyph glyph-name="cid189" unicode="&#x3144;" horiz-adv-x="920" 
d="M918 195l-86 -139l-177 125l2 101l-135 -226l-86 64l-6 -57l-201 -13l-25 122l81 4l15 141l-122 -15l-9 -245l-127 24l17 467h129l-5 -125l130 14l15 138l135 -24l-59 -370l16 1l258 401l117 -70l-113 -190z" />
    <glyph glyph-name="cid189" unicode="&#xffb4;" horiz-adv-x="920" 
d="M918 195l-86 -139l-177 125l2 101l-135 -226l-86 64l-6 -57l-201 -13l-25 122l81 4l15 141l-122 -15l-9 -245l-127 24l17 467h129l-5 -125l130 14l15 138l135 -24l-59 -370l16 1l258 401l117 -70l-113 -190z" />
    <glyph glyph-name="cid190" unicode="&#x3145;" horiz-adv-x="920" 
d="M823 229l-61 -150l-322 143l8 93l-248 -276l-121 121l417 416l100 -96l-115 -128z" />
    <glyph glyph-name="cid190" unicode="&#xffb5;" horiz-adv-x="920" 
d="M823 229l-61 -150l-322 143l8 93l-248 -276l-121 121l417 416l100 -96l-115 -128z" />
    <glyph glyph-name="cid191" unicode="&#x3146;" horiz-adv-x="920" 
d="M853 185l-57 -128l-209 113v80l-142 -199l-112 78l69 97l-102 29l-143 -200l-106 79l296 420l109 -82l-81 -113l102 -29l156 218l111 -78l-120 -169z" />
    <glyph glyph-name="cid191" unicode="&#xffb6;" horiz-adv-x="920" 
d="M853 185l-57 -128l-209 113v80l-142 -199l-112 78l69 97l-102 29l-143 -200l-106 79l296 420l109 -82l-81 -113l102 -29l156 218l111 -78l-120 -169z" />
    <glyph glyph-name="cid192" unicode="&#x3147;" horiz-adv-x="920" 
d="M147 172l102 324l110 27l89 58l334 -226l-28 -100l-1 -94l-431 -119l-67 73zM304 182l356 89l-262 169z" />
    <glyph glyph-name="cid192" unicode="&#xffb7;" horiz-adv-x="920" 
d="M147 172l102 324l110 27l89 58l334 -226l-28 -100l-1 -94l-431 -119l-67 73zM304 182l356 89l-262 169z" />
    <glyph glyph-name="cid193" unicode="&#x3148;" horiz-adv-x="920" 
d="M795 205l-45 -145l-293 61v90l-267 -184l-90 135l470 279l-372 -68l-40 145l472 52l-2 -110l71 -82l-189 -130z" />
    <glyph glyph-name="cid193" unicode="&#xffb8;" horiz-adv-x="920" 
d="M795 205l-45 -145l-293 61v90l-267 -184l-90 135l470 279l-372 -68l-40 145l472 52l-2 -110l71 -82l-189 -130z" />
    <glyph glyph-name="cid194" unicode="&#x3149;" horiz-adv-x="920" 
d="M850 226l-27 -127l-198 45v74l-155 -198l-118 86l303 349l-191 -33l-37 130l270 32l9 -87l86 -65l-138 -177zM295 190l-110 -125l-89 86l245 244l-181 -46l-37 135l259 40l73 -154l-75 -85l70 -23l-75 -114z" />
    <glyph glyph-name="cid194" unicode="&#xffb9;" horiz-adv-x="920" 
d="M850 226l-27 -127l-198 45v74l-155 -198l-118 86l303 349l-191 -33l-37 130l270 32l9 -87l86 -65l-138 -177zM295 190l-110 -125l-89 86l245 244l-181 -46l-37 135l259 40l73 -154l-75 -85l70 -23l-75 -114z" />
    <glyph glyph-name="cid195" unicode="&#x314a;" horiz-adv-x="920" 
d="M265 485l-5 128l380 -5v-103zM800 175l-30 -125l-280 30v84l-290 -149l-60 130l480 200l-392 -75l-35 125l482 55v-90l50 -75l-182 -93z" />
    <glyph glyph-name="cid195" unicode="&#xffba;" horiz-adv-x="920" 
d="M265 485l-5 128l380 -5v-103zM800 175l-30 -125l-280 30v84l-290 -149l-60 130l480 200l-392 -75l-35 125l482 55v-90l50 -75l-182 -93z" />
    <glyph glyph-name="cid196" unicode="&#x314b;" horiz-adv-x="920" 
d="M756 435l-94 -408l-140 55l30 115l-327 -62l-30 130l350 55l17 -83l54 208l-400 -70l-40 145l447 71l33 -106z" />
    <glyph glyph-name="cid196" unicode="&#xffbb;" horiz-adv-x="920" 
d="M756 435l-94 -408l-140 55l30 115l-327 -62l-30 130l350 55l17 -83l54 208l-400 -70l-40 145l447 71l33 -106z" />
    <glyph glyph-name="cid197" unicode="&#x314c;" horiz-adv-x="920" 
d="M717 206v-130l-430 -50l-40 75l-115 54l83 257l-63 -5l-30 130l575 44v-135l-339 -24l-23 -83l347 42l5 -115l-335 -44l-26 86l-44 -157z" />
    <glyph glyph-name="cid197" unicode="&#xffbc;" horiz-adv-x="920" 
d="M717 206v-130l-430 -50l-40 75l-115 54l83 257l-63 -5l-30 130l575 44v-135l-339 -24l-23 -83l347 42l5 -115l-335 -44l-26 86l-44 -157z" />
    <glyph glyph-name="cid198" unicode="&#x314d;" horiz-adv-x="920" 
d="M172 398l-25 140l593 41v-130zM785 199v-125l-623 -52l-24 124l348 29l59 225l135 -40l-62 -175zM235 340l130 44l50 -164l-110 -45z" />
    <glyph glyph-name="cid198" unicode="&#xffbd;" horiz-adv-x="920" 
d="M172 398l-25 140l593 41v-130zM785 199v-125l-623 -52l-24 124l348 29l59 225l135 -40l-62 -175zM235 340l130 44l50 -164l-110 -45z" />
    <glyph glyph-name="cid199" unicode="&#x314e;" horiz-adv-x="920" 
d="M635 522l-373 -21v134l373 -15v-98zM787 244l-45 -75l-12 -100l-405 -73l-37 98l-61 81l162 151l-246 -61l-30 140l426 61l36 -94l-192 -246l263 39l-75 167l80 57z" />
    <glyph glyph-name="cid199" unicode="&#xffbe;" horiz-adv-x="920" 
d="M635 522l-373 -21v134l373 -15v-98zM787 244l-45 -75l-12 -100l-405 -73l-37 98l-61 81l162 151l-246 -61l-30 140l426 61l36 -94l-192 -246l263 39l-75 167l80 57z" />
    <glyph glyph-name="cid200" unicode="&#x314f;" horiz-adv-x="920" 
d="M723 363l-163 -29l-87 -514l-125 50l74 440h-1l-30 130l54 9l53 316h135l-49 -291l139 24v-135z" />
    <glyph glyph-name="cid200" unicode="&#xffc2;" horiz-adv-x="920" 
d="M723 363l-163 -29l-87 -514l-125 50l74 440h-1l-30 130l54 9l53 316h135l-49 -291l139 24v-135z" />
    <glyph glyph-name="cid201" unicode="&#x3150;" horiz-adv-x="920" 
d="M692 364l-54 -15l-75 -490l-123 45l60 408l-104 -28l-56 -464l-121 35l100 875h130l-36 -304l108 26l46 313h135l-43 -282z" />
    <glyph glyph-name="cid201" unicode="&#xffc3;" horiz-adv-x="920" 
d="M692 364l-54 -15l-75 -490l-123 45l60 408l-104 -28l-56 -464l-121 35l100 875h130l-36 -304l108 26l46 313h135l-43 -282z" />
    <glyph glyph-name="cid202" unicode="&#x3151;" horiz-adv-x="920" 
d="M550 424l-23 -136l173 27v-130l-196 -28l-59 -337l-125 55l93 532l-30 123l52 7l40 228h135l-36 -208l126 18v-130z" />
    <glyph glyph-name="cid202" unicode="&#xffc4;" horiz-adv-x="920" 
d="M550 424l-23 -136l173 27v-130l-196 -28l-59 -337l-125 55l93 532l-30 123l52 7l40 228h135l-36 -208l126 18v-130z" />
    <glyph glyph-name="cid203" unicode="&#x3152;" horiz-adv-x="920" 
d="M666 216l-53 -14l-48 -342l-125 45l35 259l-96 -27l-34 -317l-115 35l88 878h125l-21 -197l108 27l28 202h135l-61 -430zM494 302l17 122l-104 -29l-13 -118z" />
    <glyph glyph-name="cid203" unicode="&#xffc5;" horiz-adv-x="920" 
d="M666 216l-53 -14l-48 -342l-125 45l35 259l-96 -27l-34 -317l-115 35l88 878h125l-21 -197l108 27l28 202h135l-61 -430zM494 302l17 122l-104 -29l-13 -118z" />
    <glyph glyph-name="cid204" unicode="&#x3153;" horiz-adv-x="920" 
d="M617 361l-55 -9l-87 -532l-125 55l74 455l-138 -23l-16 133l177 30l48 295h135l-46 -278z" />
    <glyph glyph-name="cid204" unicode="&#xffc6;" horiz-adv-x="920" 
d="M617 361l-55 -9l-87 -532l-125 55l74 455l-138 -23l-16 133l177 30l48 295h135l-46 -278z" />
    <glyph glyph-name="cid205" unicode="&#x3154;" horiz-adv-x="920" 
d="M755 765l-128 -905l-130 45l118 860h140zM525 733l-98 -913l-125 50l45 442l-142 -37l-35 128l191 44l29 286h135z" />
    <glyph glyph-name="cid205" unicode="&#xffc7;" horiz-adv-x="920" 
d="M755 765l-128 -905l-130 45l118 860h140zM525 733l-98 -913l-125 50l45 442l-142 -37l-35 128l191 44l29 286h135z" />
    <glyph glyph-name="cid206" unicode="&#x3155;" horiz-adv-x="920" 
d="M647 210l-52 -6l-63 -382l-124 50l52 318l-138 -15l-15 135l175 17l21 128l-141 -15l-15 130l177 18l28 172h135l-70 -422z" />
    <glyph glyph-name="cid206" unicode="&#xffca;" horiz-adv-x="920" 
d="M647 210l-52 -6l-63 -382l-124 50l52 318l-138 -15l-15 135l175 17l21 128l-141 -15l-15 130l177 18l28 172h135l-70 -422z" />
    <glyph glyph-name="cid207" unicode="&#x3156;" horiz-adv-x="920" 
d="M737 765l-128 -905l-122 45l115 860h135zM522 733l-98 -913l-115 35l34 339l-145 -23l-15 127l172 20l14 131l-121 -15l-15 127l148 12l16 160h125z" />
    <glyph glyph-name="cid207" unicode="&#xffcb;" horiz-adv-x="920" 
d="M737 765l-128 -905l-122 45l115 860h135zM522 733l-98 -913l-115 35l34 339l-145 -23l-15 127l172 20l14 131l-121 -15l-15 127l148 12l16 160h125z" />
    <glyph glyph-name="cid208" unicode="&#x3157;" horiz-adv-x="920" 
d="M905 256v-130l-845 -75l-15 125l347 32l48 242l135 -35l-47 -194z" />
    <glyph glyph-name="cid208" unicode="&#xffcc;" horiz-adv-x="920" 
d="M905 256v-130l-845 -75l-15 125l347 32l48 242l135 -35l-47 -194z" />
    <glyph glyph-name="cid209" unicode="&#x3158;" horiz-adv-x="920" 
d="M940 365l-132 -26l-93 -519l-130 55l76 435h-1l-30 130l55 11l55 314h145l-51 -286l106 21v-135zM590 78l-500 -88l-30 130l211 29l39 213l120 -30l-38 -166l198 27v-115z" />
    <glyph glyph-name="cid209" unicode="&#xffcd;" horiz-adv-x="920" 
d="M940 365l-132 -26l-93 -519l-130 55l76 435h-1l-30 130l55 11l55 314h145l-51 -286l106 21v-135zM590 78l-500 -88l-30 130l211 29l39 213l120 -30l-38 -166l198 27v-115z" />
    <glyph glyph-name="cid210" unicode="&#x3159;" horiz-adv-x="920" 
d="M920 350l-51 -14l-68 -476l-128 44l53 392l-83 -23l-54 -453l-121 50l100 863h130l-38 -319l85 21l45 330h140l-43 -302zM330 161l134 18v-110l-374 -64l-30 120l151 20l39 217l120 -30z" />
    <glyph glyph-name="cid210" unicode="&#xffce;" horiz-adv-x="920" 
d="M920 350l-51 -14l-68 -476l-128 44l53 392l-83 -23l-54 -453l-121 50l100 863h130l-38 -319l85 21l45 330h140l-43 -302zM330 161l134 18v-110l-374 -64l-30 120l151 20l39 217l120 -30z" />
    <glyph glyph-name="cid211" unicode="&#x315a;" horiz-adv-x="920" 
d="M930 765l-165 -945l-134 55l154 890h145zM634 82l-534 -92l-30 130l222 34l42 231l130 -30l-42 -181l212 33v-125z" />
    <glyph glyph-name="cid211" unicode="&#xffcf;" horiz-adv-x="920" 
d="M930 765l-165 -945l-134 55l154 890h145zM634 82l-534 -92l-30 130l222 34l42 231l130 -30l-42 -181l212 33v-125z" />
    <glyph glyph-name="cid212" unicode="&#x315b;" horiz-adv-x="920" 
d="M905 193v-135l-845 -75l-15 130l203 19l24 223l140 -20l-28 -190l150 13l47 237l135 -25l-47 -199z" />
    <glyph glyph-name="cid212" unicode="&#xffd2;" horiz-adv-x="920" 
d="M905 193v-135l-845 -75l-15 130l203 19l24 223l140 -20l-28 -190l150 13l47 237l135 -25l-47 -199z" />
    <glyph glyph-name="cid213" unicode="&#x315c;" horiz-adv-x="920" 
d="M905 260l-337 -32l-58 -283l-140 35l53 234l-363 -34l-15 125l860 80v-125z" />
    <glyph glyph-name="cid213" unicode="&#xffd3;" horiz-adv-x="920" 
d="M905 260l-337 -32l-58 -283l-140 35l53 234l-363 -34l-15 125l860 80v-125z" />
    <glyph glyph-name="cid214" unicode="&#x315d;" horiz-adv-x="920" 
d="M920 765l-155 -945l-130 50l30 192l-180 -32l-15 120l214 32l91 583h145zM412 203l-77 -303l-135 35l72 245l-182 -30l-30 125l610 85v-115z" />
    <glyph glyph-name="cid214" unicode="&#xffd4;" horiz-adv-x="920" 
d="M920 765l-155 -945l-130 50l30 192l-180 -32l-15 120l214 32l91 583h145zM412 203l-77 -303l-135 35l72 245l-182 -30l-30 125l610 85v-115z" />
    <glyph glyph-name="cid215" unicode="&#x315e;" horiz-adv-x="920" 
d="M920 765l-125 -905l-125 45l110 860h140zM723 730l-98 -910l-120 45l20 192l-125 -32l-25 120l162 30l56 555h130zM342 201l-67 -302l-120 40l63 240l-138 -24l-30 120l460 60v-105z" />
    <glyph glyph-name="cid215" unicode="&#xffd5;" horiz-adv-x="920" 
d="M920 765l-125 -905l-125 45l110 860h140zM723 730l-98 -910l-120 45l20 192l-125 -32l-25 120l162 30l56 555h130zM342 201l-67 -302l-120 40l63 240l-138 -24l-30 120l460 60v-105z" />
    <glyph glyph-name="cid216" unicode="&#x315f;" horiz-adv-x="920" 
d="M920 765l-155 -945l-130 50l140 895h145zM451 144l-76 -323l-135 40l75 259l-225 -40l-30 125l595 90v-115z" />
    <glyph glyph-name="cid216" unicode="&#xffd6;" horiz-adv-x="920" 
d="M920 765l-155 -945l-130 50l140 895h145zM451 144l-76 -323l-135 40l75 259l-225 -40l-30 125l595 90v-115z" />
    <glyph glyph-name="cid217" unicode="&#x3160;" horiz-adv-x="920" 
d="M895 305l-200 -19l-51 -292l-130 40l50 240l-162 -16l-83 -268l-125 55l70 200l-214 -20l-15 130l860 80v-130z" />
    <glyph glyph-name="cid217" unicode="&#xffd7;" horiz-adv-x="920" 
d="M895 305l-200 -19l-51 -292l-130 40l50 240l-162 -16l-83 -268l-125 55l70 200l-214 -20l-15 130l860 80v-130z" />
    <glyph glyph-name="cid218" unicode="&#x3161;" horiz-adv-x="920" 
d="M45 245l860 80v-140l-845 -75z" />
    <glyph glyph-name="cid218" unicode="&#xffda;" horiz-adv-x="920" 
d="M45 245l860 80v-140l-845 -75z" />
    <glyph glyph-name="cid219" unicode="&#x3162;" horiz-adv-x="920" 
d="M920 765l-155 -945l-135 55l145 890h145zM60 170l578 79v-125l-548 -84z" />
    <glyph glyph-name="cid219" unicode="&#xffdb;" horiz-adv-x="920" 
d="M920 765l-155 -945l-135 55l145 890h145zM60 170l578 79v-125l-548 -84z" />
    <glyph glyph-name="cid220" unicode="&#x3163;" horiz-adv-x="920" 
d="M610 765l-155 -945l-125 55l145 890h135z" />
    <glyph glyph-name="cid220" unicode="&#xffdc;" horiz-adv-x="920" 
d="M610 765l-155 -945l-125 55l145 890h135z" />
    <glyph glyph-name="cid12135" unicode="&#x317f;" horiz-adv-x="950" 
d="M729 129l-70 -98l-391 -8l-46 97l247 456h98zM598 153l-90 260l-143 -270z" />
    <glyph glyph-name="cid12137" unicode="&#x3181;" horiz-adv-x="950" 
d="M749 242l-27 -96l-1 -91l-374 -114l-54 80l-93 55l186 335l2 -1l24 256l147 -15l-36 -215zM627 169l-145 143l-127 -228z" />
    <glyph glyph-name="cid12142" unicode="&#x3186;" horiz-adv-x="950" 
d="M232 616l432 24l3 -125l-432 -32zM205 100l146 305l94 5l74 45l225 -192l-27 -94l-1 -89l-366 -112l-53 79zM341 92l300 94l-170 158z" />
    <glyph glyph-name="cid12149" unicode="&#x318d;" horiz-adv-x="950" 
d="M358 235l44 136l78 30l112 -84l-19 -96l-139 -49z" />
    <glyph glyph-name="cid11688" unicode="&#x327f;" horiz-adv-x="950" 
d="M272 347v-65h-170q0 22 0.5 38t1.5 27q4 45 19 87.5t40 79.5t58 67.5t74 52.5q82 44 174 44q82 0 154 -33.5t124 -93.5q51 -59 74 -136h-80q-16 44 -42.5 79.5t-62 61t-77.5 39t-90 13.5q-75 0 -138 -33.5t-103 -93.5q-40 -59 -49 -134h93zM634 282v65h202q1 -18 1 -34.5
t-2 -30.5q-10 -94 -59.5 -171.5t-130.5 -122.5t-176 -45q-85 0 -156.5 33.5t-122.5 94.5q-50 61 -73 141h81q32 -93 103 -145.5t168 -52.5q78 0 141.5 34.5t103.5 95.5t46 138h-126zM397 341l144 117h101l-133 -110l129 -187h-82l-98 149l-59 -48v-101h-77v297h75v-117z" />
    <glyph glyph-name="cid221" unicode="&#xac00;" horiz-adv-x="950" 
d="M930 363l-153 -28l-87 -515l-125 50l74 440h-1l-30 130l54 10l53 315h135l-49 -290l129 23v-135zM475 610l89 -64l-353 -525l-129 99l343 450l-297 -60l-50 150l379 51z" />
    <glyph glyph-name="cid222" unicode="&#xac01;" horiz-adv-x="950" 
d="M930 443l-146 -23l-34 -190l-125 55l19 116l-29 122l51 8l39 234h140l-38 -211l123 19v-130zM562 553l-388 -358l-93 109l356 284l-304 -60l-50 146l404 45l11 -91zM665 152l103 -54l-112 -290l-126 60l98 240l-378 -71l-40 120l427 79z" />
    <glyph glyph-name="cid3059" unicode="&#xac02;" 
 />
    <glyph glyph-name="cid3060" unicode="&#xac03;" 
 />
    <glyph glyph-name="cid223" unicode="&#xac04;" horiz-adv-x="950" 
d="M920 423l-138 -22l-44 -277l-130 50l32 205l-30 124l50 8l40 254h140l-37 -231l117 19v-130zM562 564l-388 -398l-108 104l361 318l-289 -60l-50 146l389 50l11 -96zM325 -50l440 45l-10 -130l-435 -45l-40 85l-100 55l99 235l125 -55z" />
    <glyph glyph-name="cid4637" unicode="&#xac05;" 
 />
    <glyph glyph-name="cid4638" unicode="&#xac06;" 
 />
    <glyph glyph-name="cid224" unicode="&#xac07;" horiz-adv-x="950" 
d="M930 473l-141 -23l-34 -187l-125 50l19 115h-1l-30 125l53 9l34 203h140l-32 -181l117 19v-130zM562 558l-399 -368l-93 118l367 285l-304 -70l-50 146l404 50l11 -91zM359 -49l411 30v-131l-439 -30l-19 94l-80 63l39 91l-42 -3l-30 120l555 45v-125l-346 -26z" />
    <glyph glyph-name="cid225" unicode="&#xac08;" horiz-adv-x="950" 
d="M930 618v-130l-139 -22l-29 -157l-125 50l14 84h-1l-30 125l53 9l32 188h140l-30 -166zM562 568l-389 -353l-93 118l357 270l-304 -70l-50 141l404 50l11 -86zM386 -55l408 42l-10 -137l-495 -38l8 129l-35 84l384 137l-347 -43l-30 126l460 35l-5 -99l40 -92z" />
    <glyph glyph-name="cid226" unicode="&#xac09;" horiz-adv-x="950" 
d="M930 618v-130l-138 -22l-36 -201l-125 50l21 130l-29 123l51 8l31 189h140l-29 -166zM562 568l-409 -328l-83 118l367 245l-304 -65l-50 141l404 45l11 -86zM709 177l90 -54l-94 -309l-118 50l86 269l-170 -34l-39 115l222 42zM290 -61l204 24l-10 -125l-286 -23l5 100
l-43 82l219 129l-176 -29l-24 109l258 27l1 -83l52 -80z" />
    <glyph glyph-name="cid227" unicode="&#xac0a;" horiz-adv-x="950" 
d="M930 573v-130l-148 -23l-32 -177l-125 50l19 110l-29 120l50 8l40 234h140l-39 -212zM70 358l367 245l-304 -65l-50 141l404 45l11 -86l64 -70l-409 -328zM805 109l-96 -189h72l-10 -100h-140l-35 90l83 200l-99 -25l-10 -269l-110 25l11 394l115 -1l-1 -26l111 26
l25 -76zM250 -61l204 24l-10 -125l-286 -23l5 100l-43 82l219 129l-176 -29l-24 109l258 27l1 -83l52 -80z" />
    <glyph glyph-name="cid228" unicode="&#xac0b;" horiz-adv-x="950" 
d="M930 573v-130l-146 -23l-31 -177l-125 50l17 105l-30 125l52 8l38 234h140l-37 -211zM70 368l367 245l-304 -65l-50 141l404 45l11 -86l64 -70l-409 -328zM453 70l-200 -131l184 24l-10 -125l-266 -23l5 100l-43 82l219 129l-176 -29l-24 109l258 27l1 -83zM785 199
l-53 -259l48 2l-10 -115l-177 -10l-20 115l46 2l14 76l-63 -5l-11 -183l-105 20l24 380h105l-6 -107l77 7l20 102z" />
    <glyph glyph-name="cid3061" unicode="&#xac0c;" 
 />
    <glyph glyph-name="cid4639" unicode="&#xac0d;" 
 />
    <glyph glyph-name="cid4640" unicode="&#xac0e;" 
 />
    <glyph glyph-name="cid4641" unicode="&#xac0f;" 
 />
    <glyph glyph-name="cid229" unicode="&#xac10;" horiz-adv-x="950" 
d="M930 573v-130l-147 -23l-33 -187l-120 50l19 116l-4 -1l-30 125l56 9l39 233h135l-38 -211zM572 568l-409 -368l-93 118l367 285l-314 -65l-40 141l404 55l11 -96zM620 -65l175 15l-10 -110l-290 -20l-60 100l175 165l-268 -59l-32 -206l-115 40l50 340h125l-8 -48
l293 73l20 -85l90 -75z" />
    <glyph glyph-name="cid230" unicode="&#xac11;" horiz-adv-x="950" 
d="M930 443l-147 -23l-33 -187l-125 50l19 117l-29 123l51 8l39 234h140l-38 -211l123 19v-130zM572 568l-409 -358l-93 118l367 275l-304 -65l-50 141l404 55l11 -96zM690 -60l90 5l-10 -105l-341 -20l-20 105l152 8l16 79l-223 -21l-29 -171l-130 50l55 335h140l-16 -97
l227 21l18 86l131 -30z" />
    <glyph glyph-name="cid231" unicode="&#xac12;" horiz-adv-x="950" 
d="M930 573v-130l-147 -23l-33 -187l-125 50l19 117l-29 123l51 8l39 234h140l-38 -211zM70 348l367 265l-304 -60l-50 141l404 50l11 -96l74 -70l-409 -348zM683 46l187 -107l-79 -118l-133 94l-1 87l-104 -181l-86 60l-5 -54l-162 -10l-20 115l66 3l14 77l-83 -7l-11 -183
l-106 20l24 370h106l-6 -97l98 9l19 100l101 -25l-61 -259l31 2l177 278l101 -57z" />
    <glyph glyph-name="cid232" unicode="&#xac13;" horiz-adv-x="950" 
d="M930 593v-130l-135 -22l-40 -231l-130 55l24 153l-30 125l52 8l34 214h145l-33 -190zM126 260l306 338l-299 -70l-50 146l399 60l11 -96l74 -74l-333 -408zM512 72l284 -111l-50 -145l-265 119v107l-236 -226l-99 113l369 322l90 -90z" />
    <glyph glyph-name="cid233" unicode="&#xac14;" horiz-adv-x="950" 
d="M930 593v-130l-135 -22l-40 -231l-130 55l24 153l-30 125l52 8l34 214h145l-33 -190zM133 523l-50 146l394 60l16 -96l64 -64l-343 -398l-108 104l326 318zM319 -21l-118 -159l-109 85l256 310l94 -70l-54 -73l71 -30l-60 -110zM644 27l196 -92l-65 -115l-159 100v68
l-130 -178l-111 85l256 308l91 -70z" />
    <glyph glyph-name="cid234" unicode="&#xac15;" horiz-adv-x="950" 
d="M930 443l-146 -23l-39 -217l-125 50l24 147l-29 123l51 8l39 234h140l-38 -211l123 19v-130zM567 564l-348 -393l-113 109l326 318l-299 -70l-50 146l399 60l11 -96zM521 226l247 -142l-27 -101l-4 -88l-409 -75l-34 76l-65 91l141 208l78 5zM661 8l-194 114l-107 -180z
" />
    <glyph glyph-name="cid235" unicode="&#xac16;" horiz-adv-x="950" 
d="M930 593v-130l-144 -23l-32 -180l-125 55l18 107l-29 121l51 8l36 214h140l-34 -191zM562 554l-383 -353l-98 103l356 284l-304 -60l-50 146l404 55l11 -101zM582 -6l247 -49l-40 -127l-257 68v81l-277 -149l-69 119l445 200l-348 -60l-35 127l427 46l7 -97l62 -72z" />
    <glyph glyph-name="cid236" unicode="&#xac17;" horiz-adv-x="950" 
d="M930 473l-141 -23l-31 -177l-120 50l17 105l-30 125l52 9l33 203h135l-32 -181l117 19v-130zM552 568l-388 -368l-93 114l356 284l-284 -60l-50 146l384 45l11 -91zM282 161l-5 110l412 -4l-5 -85zM581 -55l206 -11l-25 -112l-275 44l5 46l-265 -100l-50 110l470 137
l-392 -52l-20 108l477 32v-65l40 -72z" />
    <glyph glyph-name="cid4642" unicode="&#xac18;" 
 />
    <glyph glyph-name="cid237" unicode="&#xac19;" horiz-adv-x="950" 
d="M929 483l-139 -23l-30 -169l-125 50l16 99l-29 123l51 8l32 194h140l-31 -171l115 19v-130zM532 584l-363 -353l-98 114l336 268l-294 -60l-50 146l394 45l11 -91zM435 129l-18 -53l319 28l-10 -105l-305 -25l-17 66l-41 -118l401 30l-10 -116l-419 -30l-24 94l-70 38
l65 182l-58 -4l-25 115l545 35l-10 -115z" />
    <glyph glyph-name="cid238" unicode="&#xac1a;" horiz-adv-x="950" 
d="M930 573v-130l-146 -23l-30 -167l-125 50l16 96l-30 124l52 8l38 234h140l-38 -211zM537 574l-378 -358l-98 109l346 278l-294 -60l-50 146l389 45l16 -91zM259 86l-20 121l535 32v-110zM680 -46l114 4v-109l-545 -29l-10 117l120 5l-42 104l118 36l30 -116l-78 -23
l178 6l29 142l120 -27z" />
    <glyph glyph-name="cid239" unicode="&#xac1b;" horiz-adv-x="950" 
d="M930 443l-146 -23l-27 -156l-125 50l14 84h-1l-30 125l52 8l38 234h140l-37 -211l122 19v-130zM537 574l-368 -378l-98 109l336 298l-294 -60l-50 146l389 45l16 -91zM325 146v113l350 -19l-5 -83zM665 116l109 -145l-42 -52l-17 -72l-332 -42l-24 77l-55 64l115 72
l-193 -40l-22 114l342 24l23 -67l-117 -132l198 24l-67 129z" />
    <glyph glyph-name="cid240" unicode="&#xac1c;" horiz-adv-x="950" 
d="M920 364l-54 -15l-75 -490l-123 45l60 408l-84 -22l-56 -470l-121 35l100 875h130l-36 -299l88 21l46 313h135l-43 -282zM513 550l-288 -500l-130 85l285 420l-267 -45l-30 145l324 41l18 -91z" />
    <glyph glyph-name="cid241" unicode="&#xac1d;" horiz-adv-x="950" 
d="M920 479l-54 -12l-41 -222l-120 45l25 146l-73 -16l-22 -165l-120 35l60 445h125l-25 -181l77 15l33 196h135l-32 -178zM490 555l-283 -376l-110 90l263 301l-229 -45l-45 135l306 46l18 -96zM726 132l98 -64l-107 -264l-126 70l88 214l-377 -56l-40 125l441 64z" />
    <glyph glyph-name="cid4643" unicode="&#xac1e;" 
 />
    <glyph glyph-name="cid4644" unicode="&#xac1f;" 
 />
    <glyph glyph-name="cid242" unicode="&#xac20;" horiz-adv-x="950" 
d="M917 433l-59 -13l-51 -281l-115 45l35 206l-86 -19l-29 -242l-115 35l68 571h120l-28 -230l92 18l41 242h130l-39 -215h1zM107 234l243 331l-209 -45l-45 135l286 46l18 -96l80 -55l-253 -396zM365 -50l440 45l-10 -130l-430 -45l-40 85l-100 55l102 240l125 -55z" />
    <glyph glyph-name="cid4645" unicode="&#xac21;" 
 />
    <glyph glyph-name="cid3062" unicode="&#xac22;" 
 />
    <glyph glyph-name="cid243" unicode="&#xac23;" horiz-adv-x="950" 
d="M920 479l-54 -12l-41 -222l-120 45l25 146l-73 -16l-22 -165l-120 35l60 445h125l-25 -181l77 15l33 196h135l-32 -178zM510 555l-283 -376l-110 100l263 291l-229 -45l-45 135l306 46l18 -96zM434 -49l406 30v-131l-434 -30l-19 94l-80 63l39 91l-42 -3l-30 115l550 35
v-115l-342 -23z" />
    <glyph glyph-name="cid244" unicode="&#xac24;" horiz-adv-x="950" 
d="M636 284l-120 35l55 416h125l-20 -147l86 17l29 160h130l-26 -134l35 -116l-60 -13l-44 -228l-115 45l27 153l-79 -18zM505 575l-283 -376l-110 100l263 291l-229 -45l-45 130l306 46l18 -91zM431 -68l408 42l-10 -125l-495 -37l8 117l-35 83l384 134l-347 -43l-30 117
l460 39l-5 -94l40 -90z" />
    <glyph glyph-name="cid4646" unicode="&#xac25;" 
 />
    <glyph glyph-name="cid4647" unicode="&#xac26;" 
 />
    <glyph glyph-name="cid4648" unicode="&#xac27;" 
 />
    <glyph glyph-name="cid4649" unicode="&#xac28;" 
 />
    <glyph glyph-name="cid4650" unicode="&#xac29;" 
 />
    <glyph glyph-name="cid4651" unicode="&#xac2a;" 
 />
    <glyph glyph-name="cid4652" unicode="&#xac2b;" 
 />
    <glyph glyph-name="cid245" unicode="&#xac2c;" horiz-adv-x="950" 
d="M920 479l-57 -13l-44 -231l-110 45l26 157l-83 -19l-23 -173l-115 35l61 455h120l-25 -183l87 18l33 195h130l-33 -175zM490 560l-283 -376l-110 100l263 291l-229 -45l-45 135l306 46l18 -96zM640 -70l195 15l-10 -105l-290 -20l-60 100l185 165l-279 -70l-31 -195
l-115 40l50 340h125l-9 -59l294 84l20 -85l90 -75z" />
    <glyph glyph-name="cid246" unicode="&#xac2d;" horiz-adv-x="950" 
d="M920 479l-57 -13l-44 -231l-115 45l26 156l-73 -17l-23 -174l-120 35l61 455h125l-25 -182l77 16l33 196h135l-33 -175zM490 560l-283 -376l-110 100l263 291l-229 -45l-45 135l306 46l18 -96zM743 -60l97 5l-10 -105l-355 -20l-20 105l157 8l19 83l-237 -26l-29 -170
l-125 50l55 335h135l-17 -103l244 27l22 96l131 -40z" />
    <glyph glyph-name="cid4653" unicode="&#xac2e;" 
 />
    <glyph glyph-name="cid247" unicode="&#xac2f;" horiz-adv-x="950" 
d="M920 479l-57 -13l-44 -231l-115 45l26 156l-78 -18l-23 -173l-115 35l61 455h120l-25 -183l82 17l33 196h135l-33 -175zM97 284l268 291l-234 -45l-45 135l311 46l18 -96l80 -65l-288 -366zM505 56l301 -105l-50 -135l-275 119v96l-216 -215l-104 108l359 316l85 -85z
" />
    <glyph glyph-name="cid248" unicode="&#xac30;" horiz-adv-x="950" 
d="M887 590l33 -111l-57 -13l-44 -231l-115 45l26 156l-78 -18l-23 -173l-115 35l61 455h120l-25 -183l82 17l33 196h135zM97 289l268 291l-234 -45l-45 130l311 46l18 -91l80 -60l-288 -371zM338 -18l-117 -162l-115 85l262 308l90 -65l-59 -81l90 -35l-60 -100zM672 20
l203 -80l-55 -120l-184 90l6 69l-121 -164l-111 85l255 305l91 -70z" />
    <glyph glyph-name="cid249" unicode="&#xac31;" horiz-adv-x="950" 
d="M920 479l-57 -13l-44 -231l-115 45l26 156l-78 -18l-23 -173l-115 35l61 455h120l-25 -183l82 17l33 196h135l-33 -175zM495 565l-288 -386l-110 95l268 311l-234 -45l-45 130l311 46l18 -96zM561 221l247 -137l-27 -101l-4 -88l-429 -79l-34 80l-65 91l161 203l78 5z
M701 8l-194 114l-122 -180z" />
    <glyph glyph-name="cid3063" unicode="&#xac32;" 
 />
    <glyph glyph-name="cid4654" unicode="&#xac33;" 
 />
    <glyph glyph-name="cid4655" unicode="&#xac34;" 
 />
    <glyph glyph-name="cid3064" unicode="&#xac35;" 
 />
    <glyph glyph-name="cid3065" unicode="&#xac36;" 
 />
    <glyph glyph-name="cid4656" unicode="&#xac37;" 
 />
    <glyph glyph-name="cid250" unicode="&#xac38;" horiz-adv-x="950" 
d="M801 426l-24 -138l153 27v-130l-176 -28l-59 -337l-125 55l93 532l-30 123l52 8l40 227h135l-36 -206l106 16v-130zM475 610l89 -64l-343 -524l-129 98l333 450l-287 -60l-50 150l364 56z" />
    <glyph glyph-name="cid251" unicode="&#xac39;" horiz-adv-x="950" 
d="M793 529l-14 -82l146 23v-125l-168 -23l-17 -94l-125 50l39 236l-29 115l49 7l21 129h140l-19 -107l109 16v-125zM552 568l-379 -368l-103 118l347 285l-284 -65l-50 141l384 55l11 -96zM646 152l98 -64l-107 -284l-121 70l88 234l-362 -56l-40 125l411 64z" />
    <glyph glyph-name="cid4657" unicode="&#xac3a;" 
 />
    <glyph glyph-name="cid4658" unicode="&#xac3b;" 
 />
    <glyph glyph-name="cid252" unicode="&#xac3c;" horiz-adv-x="950" 
d="M790 515l-17 -101l152 21v-125l-172 -20l-29 -176l-130 50l54 337l-28 114l48 7l23 143h140l-20 -122l114 17v-125zM547 554l-368 -373l-98 109l336 298l-284 -60l-50 146l384 50l11 -96zM345 -45l415 45l-10 -135l-410 -45l-40 85l-110 55l107 245l130 -55z" />
    <glyph glyph-name="cid4659" unicode="&#xac3d;" 
 />
    <glyph glyph-name="cid4660" unicode="&#xac3e;" 
 />
    <glyph glyph-name="cid3066" unicode="&#xac3f;" 
 />
    <glyph glyph-name="cid253" unicode="&#xac40;" horiz-adv-x="950" 
d="M931 522v-112l-157 -22l-17 -98l-120 55l33 205h-1l-30 110l50 8l16 97h135l-13 -76l102 16v-115l-123 -19l-12 -69zM562 573l-389 -358l-93 118l357 275l-304 -70l-50 141l404 50l11 -86zM376 -55l408 42l-10 -137l-495 -38l8 129l-35 84l384 137l-347 -43l-30 126
l460 35l-5 -99l40 -92z" />
    <glyph glyph-name="cid3067" unicode="&#xac41;" 
 />
    <glyph glyph-name="cid4661" unicode="&#xac42;" 
 />
    <glyph glyph-name="cid4662" unicode="&#xac43;" 
 />
    <glyph glyph-name="cid4663" unicode="&#xac44;" 
 />
    <glyph glyph-name="cid4664" unicode="&#xac45;" 
 />
    <glyph glyph-name="cid4665" unicode="&#xac46;" 
 />
    <glyph glyph-name="cid3068" unicode="&#xac47;" 
 />
    <glyph glyph-name="cid3069" unicode="&#xac48;" 
 />
    <glyph glyph-name="cid3070" unicode="&#xac49;" 
 />
    <glyph glyph-name="cid4666" unicode="&#xac4a;" 
 />
    <glyph glyph-name="cid254" unicode="&#xac4b;" horiz-adv-x="950" 
d="M793 529l-14 -82l146 23v-125l-168 -23l-17 -94l-125 50l39 236l-29 115l49 7l21 129h140l-19 -107l109 16v-125zM106 270l326 318l-299 -70l-50 146l399 60l11 -96l74 -74l-353 -388zM529 65l287 -109l-60 -140l-265 119v94l-226 -213l-99 113l369 316l90 -90z" />
    <glyph glyph-name="cid3071" unicode="&#xac4c;" 
 />
    <glyph glyph-name="cid255" unicode="&#xac4d;" horiz-adv-x="950" 
d="M793 529l-14 -83l146 24v-125l-169 -24l-16 -93l-115 50l39 236l-29 115l49 8l21 128h130l-19 -108l109 17v-125zM567 569l-353 -403l-108 104l326 318l-309 -70l-40 146l409 60l1 -96zM536 241l252 -157l-27 -96l-4 -78l-434 -95l-29 81l-70 91l161 213l78 5zM681 5
l-200 127l-120 -195z" />
    <glyph glyph-name="cid4667" unicode="&#xac4e;" 
 />
    <glyph glyph-name="cid4668" unicode="&#xac4f;" 
 />
    <glyph glyph-name="cid4669" unicode="&#xac50;" 
 />
    <glyph glyph-name="cid4670" unicode="&#xac51;" 
 />
    <glyph glyph-name="cid4671" unicode="&#xac52;" 
 />
    <glyph glyph-name="cid4672" unicode="&#xac53;" 
 />
    <glyph glyph-name="cid256" unicode="&#xac54;" horiz-adv-x="950" 
d="M893 216l-53 -14l-48 -342l-120 45l36 260l-81 -22l-35 -323l-115 35l88 878h125l-21 -192l93 23l28 201h130l-61 -430zM508 540l-308 -490l-125 85l305 430l-267 -55l-30 135l324 51l18 -91zM727 303l16 122l-89 -25l-12 -118z" />
    <glyph glyph-name="cid4673" unicode="&#xac55;" 
 />
    <glyph glyph-name="cid4674" unicode="&#xac56;" 
 />
    <glyph glyph-name="cid4675" unicode="&#xac57;" 
 />
    <glyph glyph-name="cid257" unicode="&#xac58;" horiz-adv-x="950" 
d="M884 339l-43 -8l-37 -201l-115 45l23 133l-83 -15l-22 -173l-120 35l73 580h125l-15 -121l96 13l24 138h130l-59 -322zM473 566l-259 -412l-125 80l244 346l-213 -45l-50 130l305 46l18 -91zM732 429l16 88l-93 -16l-11 -86zM360 -50l435 45l-10 -130l-435 -45l-30 85
l-100 55l97 240l125 -55z" />
    <glyph glyph-name="cid4676" unicode="&#xac59;" 
 />
    <glyph glyph-name="cid4677" unicode="&#xac5a;" 
 />
    <glyph glyph-name="cid4678" unicode="&#xac5b;" 
 />
    <glyph glyph-name="cid258" unicode="&#xac5c;" horiz-adv-x="950" 
d="M894 423l-41 -6l-26 -137l-115 45l13 71l-86 -13l-12 -93l-115 30l53 415h120l-9 -72l98 14l16 88h130l-46 -240zM500 575l-283 -376l-110 100l263 291l-229 -45l-45 130l306 46l18 -91zM744 508l12 64l-94 -16l-8 -63zM411 -63l428 42l-10 -130l-515 -37l8 122l-35 73
l404 144l-367 -43l-30 110l480 39l-5 -87l40 -80z" />
    <glyph glyph-name="cid4679" unicode="&#xac5d;" 
 />
    <glyph glyph-name="cid4680" unicode="&#xac5e;" 
 />
    <glyph glyph-name="cid4681" unicode="&#xac5f;" 
 />
    <glyph glyph-name="cid4682" unicode="&#xac60;" 
 />
    <glyph glyph-name="cid4683" unicode="&#xac61;" 
 />
    <glyph glyph-name="cid4684" unicode="&#xac62;" 
 />
    <glyph glyph-name="cid4685" unicode="&#xac63;" 
 />
    <glyph glyph-name="cid3072" unicode="&#xac64;" 
 />
    <glyph glyph-name="cid259" unicode="&#xac65;" horiz-adv-x="950" 
d="M888 398l-39 -6l-30 -157l-115 45l16 92l-76 -12l-15 -115l-115 35l61 455h120l-12 -89l88 11l19 108h130l-51 -270zM490 560l-283 -371l-110 100l263 291l-229 -45l-45 135l311 46l13 -96zM740 480l12 69l-84 -12l-9 -68zM733 -60l97 5l-10 -105l-345 -20l-20 105l147 8
l19 83l-227 -25l-29 -171l-125 50l55 335h135l-17 -102l234 26l22 96l131 -40z" />
    <glyph glyph-name="cid4686" unicode="&#xac66;" 
 />
    <glyph glyph-name="cid4687" unicode="&#xac67;" 
 />
    <glyph glyph-name="cid4688" unicode="&#xac68;" 
 />
    <glyph glyph-name="cid4689" unicode="&#xac69;" 
 />
    <glyph glyph-name="cid4690" unicode="&#xac6a;" 
 />
    <glyph glyph-name="cid4691" unicode="&#xac6b;" 
 />
    <glyph glyph-name="cid4692" unicode="&#xac6c;" 
 />
    <glyph glyph-name="cid4693" unicode="&#xac6d;" 
 />
    <glyph glyph-name="cid4694" unicode="&#xac6e;" 
 />
    <glyph glyph-name="cid4695" unicode="&#xac6f;" 
 />
    <glyph glyph-name="cid260" unicode="&#xac70;" horiz-adv-x="950" 
d="M907 365l-54 -10l-88 -533l-125 50l74 458l-149 -27l-15 135l187 33l48 294h135l-45 -272zM554 546l-343 -520l-129 104l333 445l-287 -60l-50 150l364 56l23 -106z" />
    <glyph glyph-name="cid261" unicode="&#xac71;" horiz-adv-x="950" 
d="M865 455l-35 -220l-130 50l23 145l-138 -24l-20 130l179 30l31 199h140l-29 -179l34 -121zM552 574l-363 -393l-113 109l341 308l-274 -60l-50 146l374 50l11 -96zM716 152l98 -59l-107 -289l-126 70l88 234l-357 -56l-40 125l416 64z" />
    <glyph glyph-name="cid4696" unicode="&#xac72;" 
 />
    <glyph glyph-name="cid3073" unicode="&#xac73;" 
 />
    <glyph glyph-name="cid262" unicode="&#xac74;" horiz-adv-x="950" 
d="M914 422l-54 -8l-45 -292l-130 50l33 220l-159 -25l-20 130l200 29l36 239h140l-35 -223zM562 574l-333 -413l-113 109l311 328l-274 -70l-50 146l374 60l11 -96zM410 -45l425 45l-10 -135l-420 -45l-40 85l-110 55l97 245l130 -55z" />
    <glyph glyph-name="cid3074" unicode="&#xac75;" 
 />
    <glyph glyph-name="cid4697" unicode="&#xac76;" 
 />
    <glyph glyph-name="cid263" unicode="&#xac77;" horiz-adv-x="950" 
d="M742 569l30 196h140l-27 -170h2l35 -125l-58 -11l-33 -213l-130 50l21 136l-145 -27l-20 130zM562 584l-338 -408l-113 109l316 323l-279 -65l-50 146l379 55l11 -96zM457 -59l401 45l-10 -126l-419 -40l-34 89l-80 58l55 107l-58 -4l-25 120l560 35l-10 -120l-316 -21z
" />
    <glyph glyph-name="cid264" unicode="&#xac78;" horiz-adv-x="950" 
d="M868 475l-31 -190l-130 50l18 114l-157 -28l-20 130l199 34l28 180h140l-25 -155l35 -125zM552 580l-363 -393l-113 109l341 308l-274 -60l-50 146l374 50l11 -96zM417 -65l417 37l-10 -127l-495 -33l8 119l-35 89l402 142l-365 -43l-30 126l460 35l-5 -99l40 -92z" />
    <glyph glyph-name="cid3075" unicode="&#xac79;" 
 />
    <glyph glyph-name="cid265" unicode="&#xac7a;" horiz-adv-x="950" 
d="M745 577l30 188h140l-28 -172l33 -118l-54 -9l-38 -235l-130 50l26 160l-179 -30l-20 130zM542 574l-390 -351l-88 109l338 266l-259 -60l-50 146l364 50l11 -96zM288 -61l210 24l-11 -125l-283 -23v100l-36 92l216 119l-180 -24l-26 114l270 22l1 -88l34 -90zM875 109
l-110 -189h75l-11 -100h-146l-36 90l86 200l-88 -21l-15 -273l-115 25l12 389l125 -1l-1 -25l110 30l26 -76z" />
    <glyph glyph-name="cid4698" unicode="&#xac7b;" 
 />
    <glyph glyph-name="cid4699" unicode="&#xac7c;" 
 />
    <glyph glyph-name="cid4700" unicode="&#xac7d;" 
 />
    <glyph glyph-name="cid4701" unicode="&#xac7e;" 
 />
    <glyph glyph-name="cid4702" unicode="&#xac7f;" 
 />
    <glyph glyph-name="cid266" unicode="&#xac80;" horiz-adv-x="950" 
d="M585 540l164 27l31 198h135l-29 -179l34 -121l-55 -10l-35 -220l-125 50l23 146l-123 -21zM562 573l-369 -397l-113 118l347 314l-314 -70l-40 146l409 60l6 -96zM680 -70l175 15l-10 -105l-280 -20l-70 100l175 165l-268 -59l-32 -206l-115 40l50 340h125l-9 -57l294 82
l20 -85l90 -75z" />
    <glyph glyph-name="cid267" unicode="&#xac81;" horiz-adv-x="950" 
d="M585 540l159 26l31 199h140l-29 -179l34 -121l-55 -10l-35 -220l-130 50l23 146l-118 -21zM562 573l-369 -397l-113 118l347 314l-304 -70l-50 146l404 60l11 -96zM738 -60l97 5l-10 -105l-350 -20l-20 105l153 8l19 83l-233 -25l-29 -171l-125 50l55 335h135l-17 -102
l240 26l22 95l130 -39z" />
    <glyph glyph-name="cid268" unicode="&#xac82;" horiz-adv-x="950" 
d="M545 521l197 34l33 210h140l-30 -185l35 -125l-57 -10l-35 -214l-130 50l22 138l-155 -28zM542 574l-380 -361l-98 119l338 266l-259 -60l-50 146l364 45l11 -91zM700 48l190 -109l-79 -118l-133 94l-1 92l-104 -186l-86 60l-5 -54l-162 -10l-20 115l66 3l14 77l-83 -7
l-11 -183l-106 20l24 370h106l-6 -97l98 9l19 100l101 -25l-61 -259l30 2l178 288l101 -57z" />
    <glyph glyph-name="cid269" unicode="&#xac83;" horiz-adv-x="950" 
d="M914 402l-57 -9l-42 -271l-130 50l30 198l-146 -23l-20 130l187 28l39 260h140l-37 -238h1zM106 255l331 333l-304 -70l-50 146l399 60l16 -96l69 -74l-353 -408zM504 60l315 -113l-53 -134l-280 116l-11 102l-209 -211l-108 113l354 316l91 -89z" />
    <glyph glyph-name="cid270" unicode="&#xac84;" horiz-adv-x="950" 
d="M880 544l34 -122l-55 -9l-34 -213l-130 50l22 140l-168 -27l-20 130l209 32l37 240h140zM106 275l331 313l-304 -70l-50 146l399 60l16 -96l69 -74l-353 -388zM343 -21l-122 -159l-109 85l266 310l94 -70l-57 -74l74 -29l-60 -110zM674 26l186 -91l-65 -115l-149 100v68
l-130 -178l-111 85l256 308l91 -70z" />
    <glyph glyph-name="cid271" unicode="&#xac85;" horiz-adv-x="950" 
d="M863 445l-38 -229l-130 50l25 154l-115 -20l-20 130l157 26l33 209h140l-30 -185l35 -125zM562 559l-349 -417l-113 118l327 334l-304 -70l-50 146l404 60l11 -96zM571 241l247 -157l-27 -96l-4 -93l-429 -79l-34 80l-65 91l161 223l78 5zM711 8l-194 124l-122 -190z" />
    <glyph glyph-name="cid272" unicode="&#xac86;" horiz-adv-x="950" 
d="M590 550l155 26l30 189h140l-27 -165h2l35 -125l-58 -10l-34 -211l-130 50l21 136l-114 -20zM110 280l317 314l-294 -70l-50 146l394 60l11 -96l71 -65l-339 -397zM606 -10l269 -35l-20 -135l-308 60l17 87l-284 -155l-60 130l445 206l-305 -58l-35 130l400 40l8 -90
l56 -80z" />
    <glyph glyph-name="cid3076" unicode="&#xac87;" 
 />
    <glyph glyph-name="cid4703" unicode="&#xac88;" 
 />
    <glyph glyph-name="cid273" unicode="&#xac89;" horiz-adv-x="950" 
d="M867 465l-34 -211l-125 50l21 137l-149 -26l-20 130l191 32l29 188h135l-27 -165h2l35 -125zM549 569l-344 -387l-105 108l317 304l-284 -70l-50 146l384 60l11 -96zM403 -78l421 40l-10 -116l-439 -40l-24 89l-70 48l68 162l-51 -4l-25 105l540 35l-10 -105l-323 -22
l-19 -48l320 28l-10 -95l-310 -25l-15 55z" />
    <glyph glyph-name="cid274" unicode="&#xac8a;" horiz-adv-x="950" 
d="M560 550l191 29l29 186h135l-27 -165h2l35 -125l-58 -9l-34 -212l-125 50l22 140l-150 -24zM549 569l-344 -387l-105 108l317 304l-284 -70l-50 146l384 60l11 -96zM289 207l545 32v-110l-525 -43zM730 -47l124 5v-109l-555 -29l-10 117l130 5l-42 104l118 36l30 -116
l-77 -23l167 6l29 142l120 -27z" />
    <glyph glyph-name="cid275" unicode="&#xac8b;" horiz-adv-x="950" 
d="M580 555l173 28l27 182h135l-25 -161l35 -124l-56 -9l-30 -197l-125 50l18 123l-132 -22zM544 569l-339 -397l-105 108l312 314l-279 -70l-50 146l379 60l11 -96zM395 289l360 -24l-5 -93l-355 -1v118zM735 126l119 -155l-42 -52l-17 -72l-352 -42l-24 77l-55 64l130 84
l-208 -42l-22 119l352 24l23 -72l-127 -142l208 24l-67 139z" />
    <glyph glyph-name="cid276" unicode="&#xac8c;" horiz-adv-x="950" 
d="M915 765l-128 -905l-125 45l118 860h135zM710 733l-98 -913l-119 36l48 456l-132 -28l-14 71l-150 -320l-130 75l250 460l-253 -60l-49 135l329 56l8 -86l95 -45l-73 -156l132 26l31 293h125z" />
    <glyph glyph-name="cid277" unicode="&#xac8d;" horiz-adv-x="950" 
d="M920 765l-80 -530l-120 45l65 485h135zM415 433l-198 -254l-110 100l273 291l-229 -45l-45 135l306 46l18 -96l80 -55l-42 -53l104 22l23 211h125l-55 -490l-120 35l13 122l-128 -28zM726 132l98 -64l-107 -264l-126 70l88 214l-377 -56l-40 125l441 64z" />
    <glyph glyph-name="cid4704" unicode="&#xac8e;" 
 />
    <glyph glyph-name="cid4705" unicode="&#xac8f;" 
 />
    <glyph glyph-name="cid278" unicode="&#xac90;" horiz-adv-x="950" 
d="M925 765l-97 -649l-115 50l87 599h125zM108 234l243 331l-209 -45l-45 135l286 46l18 -96l75 -50l-39 -63l146 24l27 219h118l-77 -625l-113 35l31 253l-137 -38l-19 93l-185 -299zM350 -46l450 45l-10 -130l-455 -45l-20 85l-100 55l93 224l120 -55z" />
    <glyph glyph-name="cid4706" unicode="&#xac91;" 
 />
    <glyph glyph-name="cid4707" unicode="&#xac92;" 
 />
    <glyph glyph-name="cid3077" unicode="&#xac93;" 
 />
    <glyph glyph-name="cid279" unicode="&#xac94;" horiz-adv-x="950" 
d="M920 765l-77 -500l-115 45l62 455h130zM413 461l-216 -277l-110 100l273 291l-239 -45l-45 135l316 46l18 -96l80 -55l-32 -41l121 27l21 189h120l-52 -460l-115 35l12 110l-135 -36zM401 -68l428 42l-10 -125l-515 -37l8 102l-45 78l429 154l-387 -53l-25 120l480 39
l-5 -87l45 -75z" />
    <glyph glyph-name="cid4708" unicode="&#xac95;" 
 />
    <glyph glyph-name="cid4709" unicode="&#xac96;" 
 />
    <glyph glyph-name="cid4710" unicode="&#xac97;" 
 />
    <glyph glyph-name="cid4711" unicode="&#xac98;" 
 />
    <glyph glyph-name="cid4712" unicode="&#xac99;" 
 />
    <glyph glyph-name="cid4713" unicode="&#xac9a;" 
 />
    <glyph glyph-name="cid4714" unicode="&#xac9b;" 
 />
    <glyph glyph-name="cid280" unicode="&#xac9c;" horiz-adv-x="950" 
d="M920 765l-80 -530l-115 45l65 485h130zM409 456l-212 -272l-110 100l273 291l-239 -45l-45 135l316 46l18 -96l80 -55l-50 -65l137 30l23 210h120l-55 -490l-115 35l13 120l-133 -36zM640 -70l195 15l-10 -105l-290 -20l-60 100l185 165l-279 -70l-31 -195l-115 40
l50 340h125l-9 -59l294 84l20 -85l90 -75z" />
    <glyph glyph-name="cid281" unicode="&#xac9d;" horiz-adv-x="950" 
d="M920 765l-80 -530l-120 45l65 485h135zM410 457l-213 -273l-110 100l273 291l-239 -45l-45 135l316 46l18 -96l80 -55l-50 -65l132 29l23 211h125l-55 -490l-120 35l13 122l-128 -28zM743 -60l97 5l-10 -105l-345 -20l-20 105l147 8l19 83l-227 -25l-29 -171l-125 50
l55 335h135l-17 -102l234 26l22 96l131 -40z" />
    <glyph glyph-name="cid4715" unicode="&#xac9e;" 
 />
    <glyph glyph-name="cid282" unicode="&#xac9f;" horiz-adv-x="950" 
d="M920 765l-80 -550l-120 45l65 505h135zM107 254l268 331l-244 -45l-45 135l321 46l18 -96l80 -65l-42 -60l110 24l22 211h125l-55 -510l-120 35l15 142l-130 -28l-14 59l-189 -269zM522 34l284 -88l-50 -130l-265 99v94l-236 -193l-94 108l376 282l80 -94z" />
    <glyph glyph-name="cid283" unicode="&#xaca0;" horiz-adv-x="950" 
d="M720 280l65 485h135l-80 -530zM97 284l268 291l-234 -45l-45 135l311 46l18 -96l80 -65l-41 -52l118 26l23 211h125l-55 -490l-120 35l13 122l-128 -28l-18 71l-205 -261zM334 -16l-113 -164l-115 85l252 308l90 -65l-55 -79l96 -37l-60 -100zM664 11l211 -71l-55 -120
l-194 80l6 66l-111 -151l-111 85l255 295l86 -65z" />
    <glyph glyph-name="cid284" unicode="&#xaca1;" horiz-adv-x="950" 
d="M920 765l-80 -530l-120 45l65 485h135zM415 433l-198 -254l-110 100l273 291l-229 -45l-45 135l306 46l18 -96l80 -55l-42 -53l104 22l23 211h125l-55 -490l-120 35l13 122l-128 -28zM561 221l247 -142l-27 -101l-4 -88l-419 -79l-34 80l-65 91l151 208l78 5zM713 -2
l-208 122l-110 -183z" />
    <glyph glyph-name="cid4716" unicode="&#xaca2;" 
 />
    <glyph glyph-name="cid4717" unicode="&#xaca3;" 
 />
    <glyph glyph-name="cid4718" unicode="&#xaca4;" 
 />
    <glyph glyph-name="cid3078" unicode="&#xaca5;" 
 />
    <glyph glyph-name="cid4719" unicode="&#xaca6;" 
 />
    <glyph glyph-name="cid3079" unicode="&#xaca7;" 
 />
    <glyph glyph-name="cid285" unicode="&#xaca8;" horiz-adv-x="950" 
d="M885 230l-54 -8l-66 -400l-124 50l53 329l-174 -26l-15 135l212 30l18 114l-125 -14l-15 130l161 17l29 178h135l-67 -405h2zM564 547l-333 -516l-129 99l323 435l-277 -60l-50 150l349 56l28 -106z" />
    <glyph glyph-name="cid286" unicode="&#xaca9;" horiz-adv-x="950" 
d="M910 383l-53 -9l-22 -139l-130 50l10 66l-140 -23l-20 120l180 28l12 80l-112 -19l-20 120l152 23l13 85h140l-44 -272zM567 554l-359 -367l-103 114l332 287l-284 -65l-50 141l379 60l16 -96zM726 152l98 -64l-107 -284l-121 70l88 234l-362 -56l-40 125l411 64z" />
    <glyph glyph-name="cid287" unicode="&#xacaa;" horiz-adv-x="950" 
d="M909 408l-49 -9l-25 -154l-130 50l12 78l-133 -25l-20 110l172 30l13 84l-129 -20l-20 110l167 24l13 79h140l-41 -254zM115 321l322 267l-284 -65l-50 141l379 60l16 -96l69 -74l-349 -347zM731 167l99 -55l-93 -304l-130 60l83 239l-159 -24l-24 130l200 30zM450 193
l71 -126l-84 -251l-121 60l77 196l-159 -29l-35 115z" />
    <glyph glyph-name="cid4720" unicode="&#xacab;" 
 />
    <glyph glyph-name="cid288" unicode="&#xacac;" horiz-adv-x="950" 
d="M909 343l-59 -11l-36 -225l-130 50l23 149l-144 -27l-20 120l184 33l13 81l-120 -21l-25 120l165 27l20 126h140l-50 -308l4 1zM551 544l-338 -372l-108 109l316 297l-278 -70l-50 146l373 60l11 -96zM375 -46l445 45l-10 -130l-440 -45l-40 85l-100 55l98 230l125 -55z
" />
    <glyph glyph-name="cid4721" unicode="&#xacad;" 
 />
    <glyph glyph-name="cid4722" unicode="&#xacae;" 
 />
    <glyph glyph-name="cid289" unicode="&#xacaf;" horiz-adv-x="950" 
d="M910 383l-53 -9l-22 -139l-130 50l10 66l-140 -23l-20 120l180 28l12 80l-112 -19l-20 120l152 23l13 85h140l-44 -272zM567 554l-369 -357l-103 114l342 277l-284 -65l-50 141l379 60l16 -96zM409 -49l411 30v-131l-439 -30l-19 94l-80 63l39 91l-42 -3l-30 120l555 45
v-125l-346 -26z" />
    <glyph glyph-name="cid290" unicode="&#xacb0;" horiz-adv-x="950" 
d="M914 428l-48 -9l-22 -142l-125 49l10 68l-145 -26l-20 110l183 31l9 64l-136 -21l-20 110l173 25l12 78h135l-36 -234zM552 549l-348 -368l-103 114l321 288l-274 -65l-50 141l369 60l16 -96zM417 -60l417 37l-10 -132l-495 -33l8 124l-35 89l402 137l-365 -43l-30 121
l460 35l-5 -94l40 -92z" />
    <glyph glyph-name="cid3080" unicode="&#xacb1;" 
 />
    <glyph glyph-name="cid4723" unicode="&#xacb2;" 
 />
    <glyph glyph-name="cid4724" unicode="&#xacb3;" 
 />
    <glyph glyph-name="cid3081" unicode="&#xacb4;" 
 />
    <glyph glyph-name="cid4725" unicode="&#xacb5;" 
 />
    <glyph glyph-name="cid4726" unicode="&#xacb6;" 
 />
    <glyph glyph-name="cid291" unicode="&#xacb7;" horiz-adv-x="950" 
d="M884 531l30 -103l-48 -9l-22 -142l-125 49l10 68l-145 -26l-20 110l183 31l9 64l-136 -21l-20 110l173 25l12 78h135zM567 575l-368 -348l-103 114l341 268l-284 -65l-50 141l379 60l16 -96zM824 248l-8 -88l-237 10l5 100zM530 72l-165 -137l160 13l-5 -110l-250 -18
l5 95l-40 70l175 135l-150 -30l-30 115l250 30v-90zM819 13l65 -90l-45 -85l-215 -28l-65 114l104 98l-102 -11l-7 101h282l3 -71l-53 -6l-112 -140l100 19l-26 62z" />
    <glyph glyph-name="cid292" unicode="&#xacb8;" horiz-adv-x="950" 
d="M910 383l-53 -9l-22 -139l-125 50l10 65l-125 -22l-20 120l165 27l12 82l-117 -20l-20 120l157 24l13 84h135l-44 -272zM567 554l-359 -367l-103 114l332 287l-294 -65l-40 141l379 60l16 -96zM670 -65l185 15l-10 -110l-290 -20l-60 100l175 175l-267 -59l-33 -216
l-115 40l50 350h125l-7 -48l292 73l20 -85l90 -75z" />
    <glyph glyph-name="cid293" unicode="&#xacb9;" horiz-adv-x="950" 
d="M910 383l-53 -9l-22 -139l-130 50l10 64l-120 -21l-20 120l160 27l12 81l-112 -19l-20 120l152 23l13 85h140l-44 -272zM567 554l-349 -367l-103 114l322 287l-284 -65l-50 141l379 60l16 -96zM760 -60l90 5l-10 -105l-351 -20l-20 105l162 9l16 78l-233 -21l-29 -171
l-130 50l55 335h140l-16 -97l237 21l18 86l131 -30z" />
    <glyph glyph-name="cid4727" unicode="&#xacba;" 
 />
    <glyph glyph-name="cid294" unicode="&#xacbb;" horiz-adv-x="950" 
d="M910 383l-55 -10l-28 -169l-130 50l15 94l-117 -20l-20 120l158 26l13 81l-111 -18l-20 120l151 23l14 85h140l-45 -269zM132 273l305 315l-284 -65l-50 141l379 60l16 -96l69 -74l-320 -383zM563 72l283 -111l-50 -145l-265 119v106l-236 -225l-104 123l374 306l85 -90z
" />
    <glyph glyph-name="cid295" unicode="&#xacbc;" horiz-adv-x="950" 
d="M876 494l34 -111l-53 -9l-27 -169l-125 50l15 95l-125 -22l-20 120l165 27l12 82l-117 -20l-20 120l157 24l13 84h135zM153 523l-50 141l379 60l16 -96l69 -74l-320 -383l-115 102l305 315zM350 -20l-119 -160l-109 85l256 310l94 -70l-53 -72l80 -31l-60 -110zM685 27
l205 -92l-65 -115l-169 100v68l-130 -178l-111 85l256 308l91 -70z" />
    <glyph glyph-name="cid296" unicode="&#xacbd;" horiz-adv-x="950" 
d="M910 373l-56 -9l-26 -161l-130 50l14 89l-152 -24l-20 120l192 29l13 79l-125 -19l-20 120l165 24l15 94h140l-45 -277zM577 564l-353 -398l-108 104l331 318l-294 -65l-50 141l389 60l16 -96zM586 231l247 -147l-27 -96l-4 -78l-414 -95l-29 81l-70 91l146 213l78 5z
M726 8l-194 124l-107 -190z" />
    <glyph glyph-name="cid3082" unicode="&#xacbe;" 
 />
    <glyph glyph-name="cid297" unicode="&#xacbf;" horiz-adv-x="950" 
d="M914 428l-47 -9l-27 -176l-125 49l15 103l-146 -27l-20 110l183 32l10 63l-137 -21l-20 110l173 25l12 78h135l-36 -235zM577 564l-358 -348l-93 114l321 268l-294 -65l-50 141l389 60l16 -96zM694 172l-352 -11l-5 110l362 -9zM634 -52l198 -19l-25 -112l-260 44l6 53
l-256 -107l-60 120l405 117l-327 -42l-20 113l437 22v-60l40 -72z" />
    <glyph glyph-name="cid4728" unicode="&#xacc0;" 
 />
    <glyph glyph-name="cid298" unicode="&#xacc1;" horiz-adv-x="950" 
d="M910 383l-54 -9l-19 -118l-125 50l7 45l-139 -23l-20 110l177 28l14 86l-131 -20l-20 115l170 24l15 94h135l-45 -277zM566 569l-337 -358l-103 99l311 288l-284 -65l-50 141l379 60l16 -96zM403 -78l421 40l-10 -116l-439 -40l-24 89l-70 48l68 162l-51 -4l-25 105
l540 35l-10 -105l-323 -22l-19 -48l320 28l-10 -95l-310 -25l-15 55z" />
    <glyph glyph-name="cid3083" unicode="&#xacc2;" 
 />
    <glyph glyph-name="cid4729" unicode="&#xacc3;" 
 />
    <glyph glyph-name="cid299" unicode="&#xacc4;" horiz-adv-x="950" 
d="M920 765l-128 -905l-120 45l118 860h130zM715 733l-98 -913l-119 36l38 366l-96 -29l-24 124l133 25l11 108l-90 -20l-12 60l-258 -440l-125 85l290 430l-242 -55l-40 135l324 51l8 -91l73 -51l85 14l17 165h125z" />
    <glyph glyph-name="cid3084" unicode="&#xacc5;" 
 />
    <glyph glyph-name="cid4730" unicode="&#xacc6;" 
 />
    <glyph glyph-name="cid4731" unicode="&#xacc7;" 
 />
    <glyph glyph-name="cid300" unicode="&#xacc8;" horiz-adv-x="950" 
d="M916 765l-93 -645l-115 45l78 600h130zM473 522l-266 -358l-110 100l268 301l-234 -45l-45 135l311 41l18 -91l51 -41l-5 32l116 15l14 122h120l-73 -623l-115 35l16 142l-117 -25l-20 114l150 22l11 92l-82 -19zM365 -50l455 45l-10 -130l-445 -45l-40 85l-100 55
l92 212l125 -55z" />
    <glyph glyph-name="cid4732" unicode="&#xacc9;" 
 />
    <glyph glyph-name="cid4733" unicode="&#xacca;" 
 />
    <glyph glyph-name="cid3085" unicode="&#xaccb;" 
 />
    <glyph glyph-name="cid301" unicode="&#xaccc;" horiz-adv-x="950" 
d="M916 765l-72 -472l-115 45l57 427h130zM468 555l-281 -361l-110 90l273 301l-209 -45l-45 130l286 46l18 -91l63 -44l-12 69l132 17l8 66h120l-52 -428l-115 30l5 43l-122 -26l-20 105l155 27l8 74l-99 -18zM411 -63l408 42l-10 -130l-495 -37l8 122l-35 83l384 144
l-347 -43l-30 122l460 39l-5 -99l40 -90z" />
    <glyph glyph-name="cid4734" unicode="&#xaccd;" 
 />
    <glyph glyph-name="cid4735" unicode="&#xacce;" 
 />
    <glyph glyph-name="cid4736" unicode="&#xaccf;" 
 />
    <glyph glyph-name="cid4737" unicode="&#xacd0;" 
 />
    <glyph glyph-name="cid4738" unicode="&#xacd1;" 
 />
    <glyph glyph-name="cid4739" unicode="&#xacd2;" 
 />
    <glyph glyph-name="cid4740" unicode="&#xacd3;" 
 />
    <glyph glyph-name="cid3086" unicode="&#xacd4;" 
 />
    <glyph glyph-name="cid302" unicode="&#xacd5;" horiz-adv-x="950" 
d="M916 763l-77 -520l-120 45l62 475h135zM458 542l-271 -348l-110 90l273 301l-209 -45l-45 130l286 46l18 -91l50 -34l-9 49l132 24l8 69h125l-55 -480l-120 35l8 74l-122 -25l-20 105l155 29l8 78l-99 -24zM733 -60l97 5l-10 -105l-345 -20l-20 105l147 8l19 83l-227 -25
l-29 -171l-125 50l55 335h135l-17 -102l234 26l22 96l131 -40z" />
    <glyph glyph-name="cid4741" unicode="&#xacd6;" 
 />
    <glyph glyph-name="cid303" unicode="&#xacd7;" horiz-adv-x="950" 
d="M916 763l-80 -540l-120 45l65 495h135zM87 274l263 311l-209 -45l-45 130l286 46l18 -91l48 -33l-7 38l131 24l9 79h125l-58 -500l-120 35l10 84l-121 -25l-20 105l153 29l9 78l-98 -24l-4 24l-260 -355zM524 49l282 -98l-50 -135l-275 119v75l-216 -194l-104 108
l376 302l80 -94z" />
    <glyph glyph-name="cid304" unicode="&#xacd8;" horiz-adv-x="950" 
d="M836 223l-120 45l65 495h135zM87 264l263 311l-209 -45l-45 130l286 46l18 -91l48 -33l-7 38l130 24l10 89h125l-58 -500l-120 35l8 74l-119 -25l-20 105l152 29l9 77l-97 -23l-4 24l-260 -355zM334 -16l-113 -164l-115 85l252 308l90 -65l-55 -79l96 -37l-60 -100z
M664 11l211 -71l-55 -120l-194 80l6 66l-111 -151l-111 85l255 295l86 -65z" />
    <glyph glyph-name="cid3087" unicode="&#xacd9;" 
 />
    <glyph glyph-name="cid4742" unicode="&#xacda;" 
 />
    <glyph glyph-name="cid4743" unicode="&#xacdb;" 
 />
    <glyph glyph-name="cid4744" unicode="&#xacdc;" 
 />
    <glyph glyph-name="cid4745" unicode="&#xacdd;" 
 />
    <glyph glyph-name="cid4746" unicode="&#xacde;" 
 />
    <glyph glyph-name="cid4747" unicode="&#xacdf;" 
 />
    <glyph glyph-name="cid305" unicode="&#xace0;" horiz-adv-x="950" 
d="M221 496l-50 155l496 84l28 -101l114 -46l-106 -376l-135 60l90 310zM905 123v-145l-845 -75l-15 140l236 22l53 268l150 -30l-54 -224z" />
    <glyph glyph-name="cid306" unicode="&#xace1;" horiz-adv-x="950" 
d="M204 547l-45 135l486 84l18 -86l104 -41l-77 -239l-130 55l61 174zM905 380v-120l-845 -85l-15 120l273 27l41 169l130 -30l-37 -126zM706 112l98 -54l-97 -249l-126 60l78 199l-417 -66l-40 125l487 64z" />
    <glyph glyph-name="cid4748" unicode="&#xace2;" 
 />
    <glyph glyph-name="cid4749" unicode="&#xace3;" 
 />
    <glyph glyph-name="cid307" unicode="&#xace4;" horiz-adv-x="950" 
d="M204 534l-45 145l506 84l18 -96l104 -41l-77 -239l-130 55l61 174zM905 365v-125l-845 -85l-15 125l269 27l45 184l130 -30l-41 -141zM330 -50l470 45l-10 -130l-475 -45l-40 84l-90 56l83 194l130 -55z" />
    <glyph glyph-name="cid4750" unicode="&#xace5;" 
 />
    <glyph glyph-name="cid4751" unicode="&#xace6;" 
 />
    <glyph glyph-name="cid308" unicode="&#xace7;" horiz-adv-x="950" 
d="M204 544l-45 135l486 84l18 -86l104 -41l-77 -239l-130 55l61 174zM905 395v-115l-845 -90l-15 120l277 27l37 154l130 -30l-32 -110zM354 -59l431 30v-121l-459 -30l-19 84l-80 63l32 81l-45 -3l-30 115l585 45v-120l-372 -27z" />
    <glyph glyph-name="cid309" unicode="&#xace8;" horiz-adv-x="950" 
d="M209 569l-45 130l471 74l18 -91l99 -41l-72 -199l-115 55l56 144zM905 440v-115l-845 -85l-15 115l257 25l37 146l130 -30l-29 -102zM326 -75l468 42l-10 -123l-558 -37l8 110l-30 78l452 154l-417 -53l-30 110l523 49l-5 -87l35 -85z" />
    <glyph glyph-name="cid3088" unicode="&#xace9;" 
 />
    <glyph glyph-name="cid310" unicode="&#xacea;" horiz-adv-x="950" 
d="M209 569l-45 130l461 74l28 -91l99 -41l-72 -199l-125 65l56 134zM905 440v-115l-845 -85l-15 115l257 25l37 146l130 -30l-29 -102zM855 99l-106 -179h72l-10 -100h-140l-35 90l83 190l-85 -21l-14 -263l-110 25l11 384l120 -1l-2 -30l107 30l25 -76zM292 -61l211 24
l-10 -125l-292 -23v100l-34 92l227 99l-193 -24l-25 119l279 22l1 -93l33 -90z" />
    <glyph glyph-name="cid3089" unicode="&#xaceb;" 
 />
    <glyph glyph-name="cid311" unicode="&#xacec;" horiz-adv-x="950" 
d="M209 569l-45 130l461 74l28 -91l99 -41l-72 -209l-125 65l56 144zM905 430v-115l-845 -85l-15 115l254 25l40 156l130 -30l-32 -112zM685 48l190 -109l-79 -118l-133 94l-1 92l-104 -186l-63 43l-2 -26l-292 -23v100l-34 92l227 99l-193 -24l-25 119l279 22l1 -93l33 -90
l-197 -101l196 22l166 269l101 -57z" />
    <glyph glyph-name="cid4752" unicode="&#xaced;" 
 />
    <glyph glyph-name="cid3090" unicode="&#xacee;" 
 />
    <glyph glyph-name="cid312" unicode="&#xacef;" horiz-adv-x="950" 
d="M209 569l-45 130l461 74l28 -91l99 -41l-72 -199l-125 65l56 134zM905 440v-115l-845 -85l-15 115l257 25l37 146l130 -30l-29 -102zM779 228l-8 -88l-252 10l5 100zM282 -74l210 22l-5 -111l-287 -22l6 88l-43 74l205 127l-168 -29l-33 107l277 28v-84l43 -66zM774 13
l65 -90l-45 -85l-220 -28l-65 114l104 98l-112 -11l-7 101l297 -5l3 -66l-53 -5l-117 -141l105 19l-26 62z" />
    <glyph glyph-name="cid313" unicode="&#xacf0;" horiz-adv-x="950" 
d="M231 539l-36 135l483 84l13 -104l91 -47l-73 -219l-126 60l61 167zM905 365v-115l-845 -85l-15 115l308 30l38 180l130 -25l-32 -141zM645 -70l180 15l-10 -105l-280 -20l-60 100l180 145l-311 -68l-29 -177l-115 50l45 285h125l-7 -40l347 85l10 -85l90 -75z" />
    <glyph glyph-name="cid314" unicode="&#xacf1;" horiz-adv-x="950" 
d="M231 529l-46 135l483 84l23 -104l91 -47l-73 -209l-126 60l61 157zM905 395v-115l-845 -85l-15 115l305 30l31 150l130 -25l-25 -111zM689 -43l96 9l-13 -115l-322 -31l-31 111l143 14l16 67l-225 -24l-23 -168l-120 50l39 309h130l-11 -84l236 26l24 97l125 -30z" />
    <glyph glyph-name="cid4753" unicode="&#xacf2;" 
 />
    <glyph glyph-name="cid315" unicode="&#xacf3;" horiz-adv-x="950" 
d="M204 544l-45 135l491 84l18 -86l99 -41l-71 -241l-125 40l55 191zM905 374v-125l-845 -85l-15 125l300 30l36 171l130 -25l-30 -133zM535 29l320 -67l-40 -142l-336 94l18 89l-279 -193l-91 126l426 251l69 -97z" />
    <glyph glyph-name="cid4754" unicode="&#xacf4;" 
 />
    <glyph glyph-name="cid316" unicode="&#xacf5;" horiz-adv-x="950" 
d="M204 539l-45 135l476 84l28 -86l104 -41l-77 -239l-130 55l61 174zM905 390v-115l-845 -90l-15 120l276 27l38 164l130 -30l-34 -120zM526 206l262 -142l-27 -91l-4 -88l-469 -85l-34 91l-65 91l186 193l78 5zM676 -12l-204 109l-147 -160z" />
    <glyph glyph-name="cid317" unicode="&#xacf6;" horiz-adv-x="950" 
d="M204 549l-45 135l491 84l18 -86l99 -41l-54 -198l-125 50l38 138zM905 434v-120l-845 -85l-15 120l304 30l32 151l130 -25l-25 -112zM588 -14l257 -31l-35 -135l-313 60l14 71l-291 -134l-70 125l485 181l-355 -58l-35 125l460 45l-2 -90l56 -80z" />
    <glyph glyph-name="cid3091" unicode="&#xacf7;" 
 />
    <glyph glyph-name="cid4755" unicode="&#xacf8;" 
 />
    <glyph glyph-name="cid318" unicode="&#xacf9;" horiz-adv-x="950" 
d="M204 549l-45 135l491 84l18 -86l99 -41l-54 -198l-125 50l38 138zM905 434v-120l-845 -85l-15 120l304 30l32 151l130 -25l-25 -112zM341 -85l450 40v-115l-465 -39l-25 85l-75 39l71 173l-64 -5l-20 105l550 43v-108l-347 -26l-20 -50l345 33v-95l-340 -35l-17 65z" />
    <glyph glyph-name="cid3092" unicode="&#xacfa;" 
 />
    <glyph glyph-name="cid3093" unicode="&#xacfb;" 
 />
    <glyph glyph-name="cid319" unicode="&#xacfc;" horiz-adv-x="950" 
d="M940 365l-132 -27l-93 -518l-120 50l76 440h-1l-30 130l56 11l54 314h135l-52 -286l107 21v-135zM135 517l-35 140l379 53l19 -89l93 -39l-72 -309l-121 50l58 244zM604 86l-524 -91l-30 135l140 19l42 228l128 -23l-46 -188l290 40v-120z" />
    <glyph glyph-name="cid320" unicode="&#xacfd;" horiz-adv-x="950" 
d="M920 485l-112 -18l-38 -240l-125 45l26 173l-30 130l51 8l28 182h135l-25 -160l90 15v-135zM147 563l-40 115l354 58l13 -84l90 -39l-62 -234l-110 40l50 194zM624 276l-549 -101l-25 130l152 20l27 167l110 -16l-25 -136l310 41v-105zM666 137l98 -54l-107 -274l-121 60
l88 224l-382 -61l-40 115l441 69z" />
    <glyph glyph-name="cid4756" unicode="&#xacfe;" 
 />
    <glyph glyph-name="cid4757" unicode="&#xacff;" 
 />
    <glyph glyph-name="cid321" unicode="&#xad00;" horiz-adv-x="950" 
d="M930 420l-136 -20l-55 -334l-130 45l44 273l-29 126l51 7l40 248h140l-38 -227l113 17v-135zM137 553l-40 115l364 58l13 -84l90 -39l-62 -219l-110 40l50 179zM609 256l-529 -101l-30 130l159 22l25 185l115 -16l-27 -154l287 39v-105zM315 -46l455 45l-10 -130
l-455 -45l-35 85l-100 55l78 190l125 -55z" />
    <glyph glyph-name="cid4758" unicode="&#xad01;" 
 />
    <glyph glyph-name="cid4759" unicode="&#xad02;" 
 />
    <glyph glyph-name="cid3094" unicode="&#xad03;" 
 />
    <glyph glyph-name="cid322" unicode="&#xad04;" horiz-adv-x="950" 
d="M920 485l-115 -18l-32 -192l-125 45l21 132l-28 123l50 8l29 182h135l-27 -160l92 15v-135zM157 564l-40 115l344 52l13 -78l80 -39l-62 -199l-110 40l60 159zM619 321l-544 -86l-25 115l143 17l21 145l110 -16l-25 -117l320 37v-95zM341 -73l428 51l-10 -135l-515 -40
l8 121l-35 78l404 156l-367 -62l-30 121l480 52l-5 -91l40 -91z" />
    <glyph glyph-name="cid4760" unicode="&#xad05;" 
 />
    <glyph glyph-name="cid323" unicode="&#xad06;" horiz-adv-x="950" 
d="M920 620v-135l-115 -18l-33 -202l-125 45l23 141l-29 124l50 8l29 182h135l-27 -160zM157 564l-40 115l324 58l23 -84l90 -39l-62 -209l-110 40l50 169zM619 311l-544 -91l-25 115l142 19l27 158l110 -16l-31 -128l321 43v-100zM825 110l-96 -190h72l-10 -100h-140
l-35 90l83 201l-99 -25l-10 -270l-110 25l11 395l115 -1l-1 -26l111 26l25 -76zM270 -61l203 24l-10 -125l-285 -23l5 100l-43 82l219 129l-176 -29l-24 109l258 27l1 -83l51 -80z" />
    <glyph glyph-name="cid4761" unicode="&#xad07;" 
 />
    <glyph glyph-name="cid4762" unicode="&#xad08;" 
 />
    <glyph glyph-name="cid4763" unicode="&#xad09;" 
 />
    <glyph glyph-name="cid4764" unicode="&#xad0a;" 
 />
    <glyph glyph-name="cid4765" unicode="&#xad0b;" 
 />
    <glyph glyph-name="cid324" unicode="&#xad0c;" horiz-adv-x="950" 
d="M930 575v-135l-133 -20l-37 -225l-120 45l28 170l-28 120l48 7l37 228h130l-34 -207zM147 563l-30 115l354 58l13 -84l90 -39l-62 -219l-110 40l50 179zM614 266l-534 -81l-30 125l170 18l24 164l115 -16l-26 -135l281 30v-105zM630 -70l185 15l-10 -105l-280 -20l-60 80
l165 165l-276 -49l-34 -196l-115 40l50 310h125l-7 -42l312 62l10 -80l90 -65z" />
    <glyph glyph-name="cid325" unicode="&#xad0d;" horiz-adv-x="950" 
d="M930 440l-129 -19l-31 -196l-130 45l20 131l-30 129l51 8l34 227h140l-32 -206l107 16v-135zM157 563l-40 115l344 58l23 -84l90 -39l-62 -219l-110 40l50 179zM614 286l-534 -81l-30 125l171 18l23 144l115 -16l-25 -115l280 30v-105zM710 -60l90 5l-10 -105l-341 -20
l-20 105l158 9l16 79l-234 -22l-29 -171l-125 50l55 335h135l-17 -98l239 23l18 85l125 -30z" />
    <glyph glyph-name="cid4766" unicode="&#xad0e;" 
 />
    <glyph glyph-name="cid326" unicode="&#xad0f;" horiz-adv-x="950" 
d="M930 575v-135l-129 -19l-36 -227l-130 45l25 162l-30 129l50 8l35 227h140l-32 -206zM157 568l-40 120l344 58l23 -84l90 -39l-62 -229l-110 40l50 189zM614 276l-534 -81l-30 125l169 18l25 154l115 -16l-27 -125l282 30v-105zM550 46l296 -85l-50 -145l-275 109v96
l-237 -201l-99 118l396 288l72 -93z" />
    <glyph glyph-name="cid327" unicode="&#xad10;" horiz-adv-x="950" 
d="M930 575v-135l-129 -19l-36 -227l-130 45l25 162l-30 129l50 8l35 227h140l-32 -206zM157 573l-40 115l344 58l23 -84l90 -39l-62 -219l-110 40l50 179zM80 205l-30 125l169 18l25 154l115 -16l-27 -125l282 30v-105zM302 -20l-121 -160l-115 85l252 303l100 -75l-52 -69
l83 -32l-60 -100zM635 12l205 -67l-45 -125l-194 80l6 76l-126 -166l-111 90l255 300l96 -75z" />
    <glyph glyph-name="cid328" unicode="&#xad11;" horiz-adv-x="950" 
d="M930 440l-132 -20l-38 -225l-125 45l28 170l-28 120l48 7l37 228h135l-34 -207l109 17v-135zM157 573l-40 115l344 58l23 -84l90 -39l-62 -219l-110 40l50 179zM609 286l-534 -101l-25 130l166 23l28 174l115 -16l-31 -143l281 38v-105zM531 221l247 -137l-27 -101
l-4 -88l-417 -75l-34 76l-65 91l149 203l78 5zM671 8l-194 109l-115 -175z" />
    <glyph glyph-name="cid329" unicode="&#xad12;" horiz-adv-x="950" 
d="M930 575v-135l-129 -19l-26 -168l-130 45l15 102l-30 130l51 8l34 227h140l-32 -206zM157 568l-40 120l344 58l23 -84l90 -39l-52 -199l-110 40l40 159zM614 298l-534 -83l-30 125l169 19l25 153l115 -16l-27 -124l282 31v-105zM566 -11l259 -34l-20 -135l-308 60l15 81
l-272 -144l-70 125l445 186l-305 -48l-35 125l400 35l8 -90l56 -70z" />
    <glyph glyph-name="cid4767" unicode="&#xad13;" 
 />
    <glyph glyph-name="cid4768" unicode="&#xad14;" 
 />
    <glyph glyph-name="cid4769" unicode="&#xad15;" 
 />
    <glyph glyph-name="cid4770" unicode="&#xad16;" 
 />
    <glyph glyph-name="cid4771" unicode="&#xad17;" 
 />
    <glyph glyph-name="cid330" unicode="&#xad18;" horiz-adv-x="950" 
d="M920 350l-51 -14l-68 -476l-118 44l54 395l-84 -23l-54 -456l-116 50l100 863h125l-38 -317l86 22l44 327h130l-43 -302zM138 516l-36 130l308 48l16 -93l80 -35l-73 -298l-111 40l64 248zM489 113l-409 -74l-30 125l102 14l35 199l118 -19l-37 -165l221 30v-110z" />
    <glyph glyph-name="cid3095" unicode="&#xad19;" 
 />
    <glyph glyph-name="cid4772" unicode="&#xad1a;" 
 />
    <glyph glyph-name="cid4773" unicode="&#xad1b;" 
 />
    <glyph glyph-name="cid331" unicode="&#xad1c;" horiz-adv-x="950" 
d="M922 416l-50 -11l-44 -299l-120 45l32 225l-68 -15l-31 -265l-115 35l69 604h120l-28 -242l71 14l37 258h130l-34 -232zM127 528l-40 120l324 58l23 -84l75 -39l-57 -199l-95 40l45 159zM519 253l-434 -83l-30 120l135 19l22 157l108 -14l-25 -129l224 31v-101zM370 -50
l450 45l-10 -130l-440 -45l-40 85l-100 55l86 211l125 -55z" />
    <glyph glyph-name="cid4774" unicode="&#xad1d;" 
 />
    <glyph glyph-name="cid4775" unicode="&#xad1e;" 
 />
    <glyph glyph-name="cid3096" unicode="&#xad1f;" 
 />
    <glyph glyph-name="cid332" unicode="&#xad20;" horiz-adv-x="950" 
d="M888 518l-42 -277l-120 45l29 203l-71 -16l-26 -222l-115 35l52 449h120l-17 -141l75 15l22 156h130l-20 -131l31 -106zM127 548l-40 110l329 58l18 -74l75 -34l-57 -194l-95 40l45 149zM519 286l-443 -76l-30 115l146 19l27 138l105 -16l-24 -108l219 29v-101zM406 -75
l428 42l-10 -120l-515 -38l8 102l-40 84l409 122l-367 -38l-30 106l485 35l-10 -84l45 -82z" />
    <glyph glyph-name="cid4776" unicode="&#xad21;" 
 />
    <glyph glyph-name="cid333" unicode="&#xad22;" horiz-adv-x="950" 
d="M661 275l-115 35l49 425h120l-16 -141l75 15l23 156h128l-20 -130l31 -107l-49 -11l-40 -262l-118 45l28 189l-73 -16zM127 558l-40 110l324 58l23 -74l75 -39l-57 -189l-95 40l45 149zM519 316l-428 -86l-30 115l137 18l21 149l105 -16l-20 -118l215 29v-91zM855 110
l-96 -190h72l-10 -100h-140l-35 90l83 201l-99 -25l-10 -270l-110 25l11 395l115 -1l-1 -26l111 26l25 -76zM300 -61l203 24l-10 -125l-285 -23l5 100l-43 82l219 129l-176 -29l-24 109l258 27l1 -83l51 -80z" />
    <glyph glyph-name="cid4777" unicode="&#xad23;" 
 />
    <glyph glyph-name="cid4778" unicode="&#xad24;" 
 />
    <glyph glyph-name="cid4779" unicode="&#xad25;" 
 />
    <glyph glyph-name="cid4780" unicode="&#xad26;" 
 />
    <glyph glyph-name="cid4781" unicode="&#xad27;" 
 />
    <glyph glyph-name="cid3097" unicode="&#xad28;" 
 />
    <glyph glyph-name="cid334" unicode="&#xad29;" horiz-adv-x="950" 
d="M888 518l-38 -257l-120 45l26 183l-71 -16l-23 -202l-115 35l48 429h120l-16 -140l74 14l22 156h130l-20 -131l31 -106zM127 543l-40 110l324 58l23 -74l75 -39l-57 -189l-95 40l45 149zM519 296l-438 -86l-30 115l141 19l27 138l105 -16l-24 -108l219 29v-91zM733 -60
l97 5l-10 -105l-355 -20l-20 105l157 8l19 83l-237 -25l-29 -171l-125 50l55 335h135l-17 -102l244 26l22 96l131 -40z" />
    <glyph glyph-name="cid4782" unicode="&#xad2a;" 
 />
    <glyph glyph-name="cid3098" unicode="&#xad2b;" 
 />
    <glyph glyph-name="cid335" unicode="&#xad2c;" horiz-adv-x="950" 
d="M660 231l-115 35l50 469h120l-15 -140l74 14l21 156h130l-19 -134l30 -103l-46 -10l-42 -297l-120 45l30 223l-72 -15zM127 543l-40 110l324 58l23 -74l75 -39l-57 -189l-95 40l45 149zM519 281l-438 -76l-30 120l140 16l28 141l105 -16l-26 -114l221 25v-96zM334 -16
l-113 -164l-115 85l252 308l90 -65l-55 -79l96 -37l-60 -100zM664 11l211 -71l-55 -120l-194 80l6 66l-111 -151l-111 85l255 295l86 -65z" />
    <glyph glyph-name="cid336" unicode="&#xad2d;" horiz-adv-x="950" 
d="M890 518l-42 -297l-120 45l30 223l-72 -15l-26 -243l-115 35l50 469h120l-15 -140l74 14l21 156h130l-19 -134l30 -103zM127 543l-40 110l324 58l23 -74l85 -39l-57 -189l-105 40l45 149zM519 281l-438 -76l-30 120l140 16l28 141l105 -16l-26 -114l221 25v-96zM531 221
l247 -137l-27 -101l-4 -88l-417 -75l-34 76l-65 91l149 203l78 5zM671 8l-194 109l-115 -175z" />
    <glyph glyph-name="cid4783" unicode="&#xad2e;" 
 />
    <glyph glyph-name="cid4784" unicode="&#xad2f;" 
 />
    <glyph glyph-name="cid4785" unicode="&#xad30;" 
 />
    <glyph glyph-name="cid4786" unicode="&#xad31;" 
 />
    <glyph glyph-name="cid4787" unicode="&#xad32;" 
 />
    <glyph glyph-name="cid4788" unicode="&#xad33;" 
 />
    <glyph glyph-name="cid337" unicode="&#xad34;" horiz-adv-x="950" 
d="M930 765l-165 -945l-124 55l154 890h135zM163 522l-36 140l388 63l18 -89l103 -39l-92 -335l-120 50l78 275zM644 92l-544 -92l-30 130l124 18l52 252l129 -26l-49 -207l318 45v-120z" />
    <glyph glyph-name="cid338" unicode="&#xad35;" horiz-adv-x="950" 
d="M920 765l-96 -559l-125 45l86 514h135zM175 567l-40 120l365 58l18 -84l93 -44l-59 -211l-111 47l45 164zM687 283l-581 -105l-31 130l170 24l32 164l113 -24l-28 -124l318 45zM721 132l98 -54l-102 -274l-121 70l83 214l-362 -61l-40 115l421 69z" />
    <glyph glyph-name="cid4789" unicode="&#xad36;" 
 />
    <glyph glyph-name="cid4790" unicode="&#xad37;" 
 />
    <glyph glyph-name="cid339" unicode="&#xad38;" horiz-adv-x="950" 
d="M805 86l-125 45l105 634h135zM187 553l-40 115l364 68l23 -84l90 -29l-62 -229l-110 40l50 179zM677 273l-572 -100l-35 125l167 22l25 156l128 -24l-24 -115l304 41zM355 -50l465 45l-10 -130l-460 -45l-40 85l-100 55l88 210l125 -55z" />
    <glyph glyph-name="cid4791" unicode="&#xad39;" 
 />
    <glyph glyph-name="cid4792" unicode="&#xad3a;" 
 />
    <glyph glyph-name="cid3099" unicode="&#xad3b;" 
 />
    <glyph glyph-name="cid340" unicode="&#xad3c;" horiz-adv-x="950" 
d="M920 765l-81 -489l-125 45l71 444h135zM175 567l-40 120l370 58l18 -84l93 -44l-64 -191l-111 47l50 144zM687 333l-581 -105l-31 110l173 27l29 131l113 -24l-22 -88l312 49zM401 -73l428 51l-10 -135l-515 -40l8 121l-35 78l404 156l-367 -62l-30 121l480 52l-5 -91
l40 -91z" />
    <glyph glyph-name="cid4793" unicode="&#xad3d;" 
 />
    <glyph glyph-name="cid3100" unicode="&#xad3e;" 
 />
    <glyph glyph-name="cid4794" unicode="&#xad3f;" 
 />
    <glyph glyph-name="cid4795" unicode="&#xad40;" 
 />
    <glyph glyph-name="cid4796" unicode="&#xad41;" 
 />
    <glyph glyph-name="cid4797" unicode="&#xad42;" 
 />
    <glyph glyph-name="cid4798" unicode="&#xad43;" 
 />
    <glyph glyph-name="cid341" unicode="&#xad44;" horiz-adv-x="950" 
d="M825 195l-120 45l85 525h130zM165 567l-30 120l375 58l18 -84l83 -44l-59 -206l-111 47l45 159zM687 288l-581 -100l-31 125l163 22l29 161l123 -24l-30 -121l320 42zM680 -70l175 15l-10 -105l-290 -20l-60 80l175 150l-279 -55l-31 -175l-115 40l50 295h125l-8 -44
l313 74l10 -75l90 -80z" />
    <glyph glyph-name="cid342" unicode="&#xad45;" horiz-adv-x="950" 
d="M833 235l-125 45l77 485h135zM175 567l-40 120l365 58l18 -84l93 -44l-59 -206l-111 47l45 159zM687 308l-581 -100l-31 125l174 22l28 141l113 -24l-23 -103l313 39zM755 -60l85 5l-10 -105l-341 -20l-20 105l163 9l16 79l-239 -22l-29 -171l-125 50l55 335h135l-17 -98
l244 23l18 85l125 -30z" />
    <glyph glyph-name="cid4799" unicode="&#xad46;" 
 />
    <glyph glyph-name="cid343" unicode="&#xad47;" horiz-adv-x="950" 
d="M819 165l-125 45l91 555h135zM175 567l-40 120l365 58l18 -84l93 -44l-59 -216l-111 47l45 169zM687 278l-581 -100l-31 135l175 22l27 161l113 -24l-24 -123l314 39zM550 46l296 -85l-50 -145l-275 109v96l-237 -201l-99 118l396 288l72 -93z" />
    <glyph glyph-name="cid3101" unicode="&#xad48;" 
 />
    <glyph glyph-name="cid344" unicode="&#xad49;" horiz-adv-x="950" 
d="M920 765l-98 -585l-125 45l88 540h135zM175 567l-40 120l365 58l18 -84l93 -44l-59 -206l-111 47l45 159zM687 288l-581 -100l-31 135l176 22l26 151l113 -24l-22 -113l312 39zM531 221l247 -137l-27 -101l-4 -88l-417 -75l-34 76l-65 91l149 203l78 5zM671 8l-194 109
l-115 -175z" />
    <glyph glyph-name="cid4800" unicode="&#xad4a;" 
 />
    <glyph glyph-name="cid4801" unicode="&#xad4b;" 
 />
    <glyph glyph-name="cid4802" unicode="&#xad4c;" 
 />
    <glyph glyph-name="cid4803" unicode="&#xad4d;" 
 />
    <glyph glyph-name="cid4804" unicode="&#xad4e;" 
 />
    <glyph glyph-name="cid4805" unicode="&#xad4f;" 
 />
    <glyph glyph-name="cid345" unicode="&#xad50;" horiz-adv-x="950" 
d="M219 501l-45 145l518 79l23 -96l109 -41l-96 -373l-130 50l80 312zM905 114v-136l-845 -75l-15 131l117 11l22 228l130 -25l-32 -192l99 9l39 269l135 -25l-49 -232z" />
    <glyph glyph-name="cid3102" unicode="&#xad51;" 
 />
    <glyph glyph-name="cid4806" unicode="&#xad52;" 
 />
    <glyph glyph-name="cid4807" unicode="&#xad53;" 
 />
    <glyph glyph-name="cid346" unicode="&#xad54;" horiz-adv-x="950" 
d="M231 509l-46 130l483 84l23 -99l91 -42l-53 -194l-116 50l41 147zM905 335v-120l-845 -85l-15 120l211 21l37 178l120 -30l-31 -136l110 11l29 142l115 -30l-23 -100zM330 -50l470 45v-130l-495 -45l-20 85l-100 55l83 184l125 -55z" />
    <glyph glyph-name="cid4808" unicode="&#xad55;" 
 />
    <glyph glyph-name="cid4809" unicode="&#xad56;" 
 />
    <glyph glyph-name="cid3103" unicode="&#xad57;" 
 />
    <glyph glyph-name="cid347" unicode="&#xad58;" horiz-adv-x="950" 
d="M231 564l-46 120l483 79l23 -89l91 -42l-53 -184l-116 50l41 137zM905 420v-115l-845 -85l-15 115l211 21l38 153l111 -30l-28 -111l106 10l28 108l111 -31l-18 -65zM346 -75l448 47l-10 -125l-535 -37l8 107l-30 73l419 144l-387 -63l-30 122l500 49l-5 -89l30 -85z" />
    <glyph glyph-name="cid4810" unicode="&#xad59;" 
 />
    <glyph glyph-name="cid4811" unicode="&#xad5a;" 
 />
    <glyph glyph-name="cid4812" unicode="&#xad5b;" 
 />
    <glyph glyph-name="cid4813" unicode="&#xad5c;" 
 />
    <glyph glyph-name="cid4814" unicode="&#xad5d;" 
 />
    <glyph glyph-name="cid4815" unicode="&#xad5e;" 
 />
    <glyph glyph-name="cid4816" unicode="&#xad5f;" 
 />
    <glyph glyph-name="cid348" unicode="&#xad60;" horiz-adv-x="950" 
d="M231 529l-36 130l473 84l23 -99l91 -42l-53 -194l-116 50l41 147zM905 355v-115l-845 -85l-15 115l206 20l38 169l120 -30l-28 -126l107 11l33 142l115 -30l-23 -100zM645 -70l180 15l-10 -105l-280 -20l-60 100l180 125l-311 -58l-29 -167l-115 50l45 265h125l-7 -38
l347 83l10 -85l90 -75z" />
    <glyph glyph-name="cid349" unicode="&#xad61;" horiz-adv-x="950" 
d="M231 534l-46 130l483 84l23 -99l91 -42l-50 -189l-116 50l38 142zM905 385v-115l-845 -85l-15 115l211 21l33 148l120 -30l-23 -105l107 10l28 122l115 -30l-18 -79zM693 -43l92 9l-13 -115l-322 -31l-31 111l147 14l15 67l-228 -24l-23 -168l-120 50l39 309h130l-11 -84
l238 26l22 97l125 -30z" />
    <glyph glyph-name="cid4817" unicode="&#xad62;" 
 />
    <glyph glyph-name="cid350" unicode="&#xad63;" horiz-adv-x="950" 
d="M231 539l-46 130l483 84l23 -99l91 -42l-53 -194l-116 50l41 147zM905 365v-115l-845 -85l-15 115l196 19l38 170l120 -30l-28 -127l117 12l33 142l115 -30l-23 -100zM507 28l298 -66l-40 -142l-316 94l16 83l-247 -187l-91 126l406 256l69 -92z" />
    <glyph glyph-name="cid4818" unicode="&#xad64;" 
 />
    <glyph glyph-name="cid351" unicode="&#xad65;" horiz-adv-x="950" 
d="M231 539l-46 130l483 84l23 -99l91 -42l-53 -194l-116 50l41 147zM905 370v-115l-845 -85l-15 115l197 19l37 165l120 -30l-27 -122l117 12l32 137l115 -30l-22 -95zM526 196l262 -132l-27 -91l-4 -88l-474 -85l-34 91l-65 91l191 183l78 5zM676 -12l-204 99l-152 -150z
" />
    <glyph glyph-name="cid4819" unicode="&#xad66;" 
 />
    <glyph glyph-name="cid4820" unicode="&#xad67;" 
 />
    <glyph glyph-name="cid4821" unicode="&#xad68;" 
 />
    <glyph glyph-name="cid4822" unicode="&#xad69;" 
 />
    <glyph glyph-name="cid4823" unicode="&#xad6a;" 
 />
    <glyph glyph-name="cid4824" unicode="&#xad6b;" 
 />
    <glyph glyph-name="cid352" unicode="&#xad6c;" horiz-adv-x="950" 
d="M189 501l-45 145l518 79l23 -96l109 -41l-96 -303l-130 50l80 242zM905 150l-336 -32l-59 -303l-140 35l54 254l-364 -34l-15 125l860 80v-125z" />
    <glyph glyph-name="cid353" unicode="&#xad6d;" horiz-adv-x="950" 
d="M577 305l-35 -114l148 19l8 -84l93 -59l-112 -258l-116 77l88 196l-425 -56l-35 120l203 26l41 117l-373 -40l-17 115l500 53l79 198l-413 -76l-36 135l483 84l13 -94l91 -52l-70 -180l213 23v-115z" />
    <glyph glyph-name="cid4825" unicode="&#xad6e;" 
 />
    <glyph glyph-name="cid4826" unicode="&#xad6f;" 
 />
    <glyph glyph-name="cid354" unicode="&#xad70;" horiz-adv-x="950" 
d="M905 422v-120l-287 -31l-55 -205l-130 40l48 150l-419 -45l-17 120l523 55l58 210l-404 -72l-50 135l463 79l33 -96l99 -31l-57 -210zM295 -56l520 35l-20 -130l-515 -35l-30 85l-100 55l91 219l126 -55z" />
    <glyph glyph-name="cid4827" unicode="&#xad71;" 
 />
    <glyph glyph-name="cid4828" unicode="&#xad72;" 
 />
    <glyph glyph-name="cid355" unicode="&#xad73;" horiz-adv-x="950" 
d="M583 305l-38 -127l229 17v-120l-379 -27l-41 -107l436 30v-121l-464 -30l-19 84l-80 48l33 86l-46 -3l-30 115l214 16l44 124l-380 -41l-17 115l488 52l78 200l-389 -72l-50 135l448 79l33 -96l104 -46l-71 -184l219 23v-115z" />
    <glyph glyph-name="cid356" unicode="&#xad74;" horiz-adv-x="950" 
d="M579 355l-34 -102l183 17l-10 -87l40 -80l-442 -178l472 42l-10 -123l-554 -37l8 115l-30 73l453 169l-421 -53l-30 110l203 19l36 100l-381 -41l-17 120l506 54l60 155l-399 -72l-40 135l458 74l23 -91l94 -46l-47 -140l205 22v-120z" />
    <glyph glyph-name="cid357" unicode="&#xad75;" horiz-adv-x="950" 
d="M552 332l-39 -116l210 35l23 -89l98 -64l-107 -294l-116 70l88 244l-195 -34l-29 92l-30 11l1 -57l33 -90l-197 -101l211 24l-10 -125l-292 -23v100l-34 92l227 99l-193 -24l-25 119l202 16l37 100l-353 -38l-17 120l506 54l60 175l-399 -72l-40 135l458 74l23 -91
l94 -46l-49 -160l207 22v-120z" />
    <glyph glyph-name="cid358" unicode="&#xad76;" horiz-adv-x="950" 
d="M583 335l-37 -110l95 -1l-2 -30l107 30l25 -76l84 -49l-106 -179h72l-10 -100h-140l-35 90l83 190l-85 -21l-14 -263l-110 25l10 333l-65 24l1 -68l33 -90l-197 -101l211 24l-10 -125l-292 -23v100l-34 92l227 99l-193 -24l-25 119l233 18l37 101l-384 -41l-17 120
l506 54l60 175l-399 -72l-40 135l458 74l23 -91l94 -46l-49 -160l207 22v-120z" />
    <glyph glyph-name="cid4829" unicode="&#xad77;" 
 />
    <glyph glyph-name="cid3104" unicode="&#xad78;" 
 />
    <glyph glyph-name="cid4830" unicode="&#xad79;" 
 />
    <glyph glyph-name="cid4831" unicode="&#xad7a;" 
 />
    <glyph glyph-name="cid359" unicode="&#xad7b;" horiz-adv-x="950" 
d="M905 490v-120l-352 -38l-50 -161l-59 21v-66l43 -66l-205 -134l210 22l-5 -111l-287 -22l6 88l-43 74l205 127l-168 -29l-33 107l238 24l-27 10l37 101l-353 -38l-17 120l506 54l60 175l-399 -72l-40 135l458 74l23 -91l94 -46l-49 -160zM764 228l-8 -83h-217l5 95z
M769 10l55 -87l-45 -85l-215 -28l-65 114l97 97l-95 -10l-7 101h282l3 -71l-53 -6l-112 -140l100 19l-16 68z" />
    <glyph glyph-name="cid360" unicode="&#xad7c;" horiz-adv-x="950" 
d="M583 275l-25 -121l137 26l10 -83l90 -72l-165 -100l195 20l-10 -105l-290 -20l-50 100l170 130l-310 -48l-30 -182l-115 50l42 268h125l-4 -23l68 13l32 133l-391 -42l-17 115l501 53l-3 1l81 227l-413 -76l-36 135l483 84l13 -94l91 -52l-74 -210l217 23v-115z" />
    <glyph glyph-name="cid361" unicode="&#xad7d;" horiz-adv-x="950" 
d="M905 455v-119l-322 -35l-35 -177l-135 35l30 127l-381 -41l-17 119l509 54l70 197l-413 -76l-36 135l483 84l13 -94l91 -52l-63 -179zM700 -55l107 5l-10 -110l-375 -20l-20 110l173 9l19 67l-267 -26l-30 -160l-120 50l55 295h130l-16 -84l277 28l24 86l125 -40z" />
    <glyph glyph-name="cid4832" unicode="&#xad7e;" 
 />
    <glyph glyph-name="cid362" unicode="&#xad7f;" horiz-adv-x="950" 
d="M581 291l-29 -148l61 30l47 -93l-114 -66l295 -68l-37 -126l-301 98l4 74l-298 -172l-69 120l357 176l-88 23l33 137l-380 -41l-17 119l505 53l74 208l-413 -76l-36 135l483 84l13 -94l91 -52l-67 -189l210 22v-119z" />
    <glyph glyph-name="cid4833" unicode="&#xad80;" 
 />
    <glyph glyph-name="cid363" unicode="&#xad81;" horiz-adv-x="950" 
d="M591 302l-38 -134l235 -109l-27 -91l-4 -83l-469 -85l-34 86l-65 91l186 173l78 5l4 1l-49 13l42 118l-388 -42l-17 119l509 54l70 197l-413 -76l-36 135l483 84l13 -94l91 -52l-63 -179l206 22v-119zM676 -17l-204 94l-147 -145z" />
    <glyph glyph-name="cid364" unicode="&#xad82;" horiz-adv-x="950" 
d="M602 303l-27 -92l120 9l-12 -80l56 -80l-159 -73l250 -32l-20 -135l-313 60l14 75l-301 -138l-60 125l465 176l-355 -48l-25 115l194 15l31 88l-398 -43l-17 119l509 54l70 197l-413 -76l-36 135l483 84l13 -94l91 -52l-63 -179l206 22v-119z" />
    <glyph glyph-name="cid365" unicode="&#xad83;" horiz-adv-x="950" 
d="M905 510v-120l-327 -35l-22 -95l128 -3l-5 -90l-407 -11l-5 110l158 -3l22 78l-385 -42l-17 120l506 54l60 155l-389 -72l-50 135l448 74l33 -91l94 -46l-47 -140zM601 -51l226 -20l-25 -122l-275 54v62l-330 -116l-40 110l470 132l-382 -37l-20 98l483 26l-1 -74l40 -62
z" />
    <glyph glyph-name="cid4834" unicode="&#xad84;" 
 />
    <glyph glyph-name="cid4835" unicode="&#xad85;" 
 />
    <glyph glyph-name="cid3105" unicode="&#xad86;" 
 />
    <glyph glyph-name="cid4836" unicode="&#xad87;" 
 />
    <glyph glyph-name="cid366" unicode="&#xad88;" horiz-adv-x="950" 
d="M921 765l-160 -945l-120 50l26 163l-182 -33l-15 125l217 29l99 611h135zM171 548l-40 130l368 55l23 -94l96 -42l-68 -232l-119 46l64 189zM420 207l-85 -317l-135 45l80 249l-180 -30l-30 135l600 75v-115z" />
    <glyph glyph-name="cid367" unicode="&#xad89;" horiz-adv-x="950" 
d="M920 765l-90 -612l-125 45l4 29l-169 -37l-20 115l204 30l61 430h135zM160 180l53 115l-128 -20l-25 125l372 44l74 163l-331 -50l-40 130l390 58l13 -84l98 -44l-63 -157l123 15v-105l-332 -52l-79 -193zM721 92l98 -54l-92 -234l-121 70l73 174l-362 -56l-40 115
l421 64z" />
    <glyph glyph-name="cid4837" unicode="&#xad8a;" 
 />
    <glyph glyph-name="cid4838" unicode="&#xad8b;" 
 />
    <glyph glyph-name="cid368" unicode="&#xad8c;" horiz-adv-x="950" 
d="M717 314l68 451h135l-110 -712l-125 45l16 106l-161 -39l-20 115zM165 125l77 153l-167 -28l-25 135l399 46l62 176l-336 -55l-40 125l385 58l23 -84l98 -34l-56 -170l111 13v-105l-313 -53l-93 -232zM410 -60l413 35l-10 -125l-421 -35l-30 90l-85 45l89 205l115 -45z
" />
    <glyph glyph-name="cid4839" unicode="&#xad8d;" 
 />
    <glyph glyph-name="cid4840" unicode="&#xad8e;" 
 />
    <glyph glyph-name="cid3106" unicode="&#xad8f;" 
 />
    <glyph glyph-name="cid369" unicode="&#xad90;" horiz-adv-x="950" 
d="M733 404l52 361h135l-76 -500l-113 41l-220 -35l-20 105zM357 382l-72 -197l-120 55l55 121l-135 -21l-25 125l399 41l43 121l-327 -45l-40 125l390 48l13 -84l88 -44l-36 -108l106 11v-95zM431 -68l418 42l-10 -125l-505 -37l8 117l-35 83l394 139l-357 -43l-30 117
l470 39l-5 -94l40 -90z" />
    <glyph glyph-name="cid4841" unicode="&#xad91;" 
 />
    <glyph glyph-name="cid4842" unicode="&#xad92;" 
 />
    <glyph glyph-name="cid4843" unicode="&#xad93;" 
 />
    <glyph glyph-name="cid4844" unicode="&#xad94;" 
 />
    <glyph glyph-name="cid4845" unicode="&#xad95;" 
 />
    <glyph glyph-name="cid4846" unicode="&#xad96;" 
 />
    <glyph glyph-name="cid4847" unicode="&#xad97;" 
 />
    <glyph glyph-name="cid3107" unicode="&#xad98;" 
 />
    <glyph glyph-name="cid3108" unicode="&#xad99;" 
 />
    <glyph glyph-name="cid4848" unicode="&#xad9a;" 
 />
    <glyph glyph-name="cid3109" unicode="&#xad9b;" 
 />
    <glyph glyph-name="cid370" unicode="&#xad9c;" horiz-adv-x="950" 
d="M724 340l61 425h135l-92 -603l-123 43l6 39l-171 -29l-20 100zM165 165l82 158l-162 -23l-25 115l372 41l64 171l-321 -50l-40 120l375 58l18 -84l93 -44l-56 -156l131 14v-100l-310 -43l-106 -232zM403 -29l-122 -161l-105 75l252 303l90 -65l-50 -66l71 -25l-60 -100z
M706 2l194 -67l-45 -115l-184 80l6 63l-116 -153l-101 80l237 279l86 -65z" />
    <glyph glyph-name="cid371" unicode="&#xad9d;" horiz-adv-x="950" 
d="M920 765l-90 -612l-125 45l6 40l-181 -38l-20 105l214 30l61 430h135zM160 160l66 142l-141 -22l-25 125l377 44l59 168l-321 -50l-40 120l380 58l13 -84l93 -44l-52 -152l127 15v-105l-320 -50l-91 -220zM581 166l247 -112l-27 -86l-4 -88l-419 -79l-34 80l-65 81
l151 173l78 5zM731 -17l-204 94l-122 -160z" />
    <glyph glyph-name="cid4849" unicode="&#xad9e;" 
 />
    <glyph glyph-name="cid4850" unicode="&#xad9f;" 
 />
    <glyph glyph-name="cid4851" unicode="&#xada0;" 
 />
    <glyph glyph-name="cid4852" unicode="&#xada1;" 
 />
    <glyph glyph-name="cid4853" unicode="&#xada2;" 
 />
    <glyph glyph-name="cid4854" unicode="&#xada3;" 
 />
    <glyph glyph-name="cid372" unicode="&#xada4;" horiz-adv-x="950" 
d="M920 765l-125 -905l-115 45l110 860h130zM718 730l-98 -910l-115 45l18 182l-123 -32l-25 115l160 34l58 566h125zM128 531l-36 130l293 48l21 -93l80 -40l-98 -255l-111 50l79 200zM348 192l-82 -298l-120 40l69 235l-135 -24l-30 130l460 60v-115z" />
    <glyph glyph-name="cid3110" unicode="&#xada5;" 
 />
    <glyph glyph-name="cid4855" unicode="&#xada6;" 
 />
    <glyph glyph-name="cid4856" unicode="&#xada7;" 
 />
    <glyph glyph-name="cid3111" unicode="&#xada8;" 
 />
    <glyph glyph-name="cid4857" unicode="&#xada9;" 
 />
    <glyph glyph-name="cid4858" unicode="&#xadaa;" 
 />
    <glyph glyph-name="cid3112" unicode="&#xadab;" 
 />
    <glyph glyph-name="cid3113" unicode="&#xadac;" 
 />
    <glyph glyph-name="cid4859" unicode="&#xadad;" 
 />
    <glyph glyph-name="cid4860" unicode="&#xadae;" 
 />
    <glyph glyph-name="cid4861" unicode="&#xadaf;" 
 />
    <glyph glyph-name="cid4862" unicode="&#xadb0;" 
 />
    <glyph glyph-name="cid4863" unicode="&#xadb1;" 
 />
    <glyph glyph-name="cid4864" unicode="&#xadb2;" 
 />
    <glyph glyph-name="cid4865" unicode="&#xadb3;" 
 />
    <glyph glyph-name="cid3114" unicode="&#xadb4;" 
 />
    <glyph glyph-name="cid3115" unicode="&#xadb5;" 
 />
    <glyph glyph-name="cid4866" unicode="&#xadb6;" 
 />
    <glyph glyph-name="cid373" unicode="&#xadb7;" horiz-adv-x="950" 
d="M925 765l-88 -619l-125 50l78 569h135zM559 298l46 437h125l-60 -555l-87 25l-173 -40l-20 105zM135 115l97 177l-147 -32l-25 125l284 36l62 166l-261 -40l-40 120l315 48l18 -84l93 -44l-55 -150l69 9v-85l-165 -36l-130 -275zM551 17l274 -65l-40 -132l-296 94l15 70
l-236 -164l-81 116l396 226l59 -82z" />
    <glyph glyph-name="cid374" unicode="&#xadb8;" horiz-adv-x="950" 
d="M712 196l78 569h135l-88 -619zM559 296l46 439h125l-60 -555l-86 25l-144 -30l-20 95zM155 115l90 172l-160 -37l-25 125l276 37l70 175l-261 -40l-40 120l315 48l18 -84l93 -44l-59 -157l73 10v-85l-151 -34l-124 -271zM393 -49l-102 -141l-105 75l233 276l80 -65
l-43 -59l73 -25l-60 -100zM706 1l194 -66l-45 -115l-184 80l6 63l-116 -153l-101 80l228 266l86 -65z" />
    <glyph glyph-name="cid3116" unicode="&#xadb9;" 
 />
    <glyph glyph-name="cid4867" unicode="&#xadba;" 
 />
    <glyph glyph-name="cid4868" unicode="&#xadbb;" 
 />
    <glyph glyph-name="cid4869" unicode="&#xadbc;" 
 />
    <glyph glyph-name="cid4870" unicode="&#xadbd;" 
 />
    <glyph glyph-name="cid4871" unicode="&#xadbe;" 
 />
    <glyph glyph-name="cid4872" unicode="&#xadbf;" 
 />
    <glyph glyph-name="cid375" unicode="&#xadc0;" horiz-adv-x="950" 
d="M918 765l-160 -945l-120 50l145 895h135zM171 538l-40 130l368 55l23 -94l96 -42l-68 -252l-119 46l64 209zM463 185l-73 -364l-140 40l76 300l-236 -41l-30 135l605 80v-115z" />
    <glyph glyph-name="cid376" unicode="&#xadc1;" horiz-adv-x="950" 
d="M811 219l-125 45l79 501h135zM368 288l-108 -243l-125 65l93 159l-148 -20l-30 125l381 40l65 183l-321 -55l-50 135l385 58l18 -94l103 -39l-58 -173l92 10v-110zM751 138l93 -44l-82 -285l-116 60l63 215l-342 -66l-40 125l406 74z" />
    <glyph glyph-name="cid4873" unicode="&#xadc2;" 
 />
    <glyph glyph-name="cid4874" unicode="&#xadc3;" 
 />
    <glyph glyph-name="cid377" unicode="&#xadc4;" horiz-adv-x="950" 
d="M660 131l105 634h135l-115 -679zM140 120l79 146l-139 -17l-30 125l395 35l51 193l-321 -55l-40 130l385 58l18 -94l93 -44l-48 -175l82 7v-110l-302 -36l-103 -218zM400 -50l400 45l-10 -130l-390 -45l-40 85l-100 50l102 231l120 -50z" />
    <glyph glyph-name="cid4875" unicode="&#xadc5;" 
 />
    <glyph glyph-name="cid4876" unicode="&#xadc6;" 
 />
    <glyph glyph-name="cid3117" unicode="&#xadc7;" 
 />
    <glyph glyph-name="cid378" unicode="&#xadc8;" horiz-adv-x="950" 
d="M830 321l-125 40l60 404h135zM375 310l-77 -192l-114 55l56 115l-160 -27l-30 120l389 53l57 188l-331 -60l-30 130l375 58l18 -84l93 -44l-52 -170l106 14v-106zM472 -65l407 40l-10 -123l-495 -30l8 100l-45 84l392 161l-355 -60l-30 116l470 56l-5 -98l45 -76z" />
    <glyph glyph-name="cid4877" unicode="&#xadc9;" 
 />
    <glyph glyph-name="cid3118" unicode="&#xadca;" 
 />
    <glyph glyph-name="cid4878" unicode="&#xadcb;" 
 />
    <glyph glyph-name="cid4879" unicode="&#xadcc;" 
 />
    <glyph glyph-name="cid4880" unicode="&#xadcd;" 
 />
    <glyph glyph-name="cid4881" unicode="&#xadce;" 
 />
    <glyph glyph-name="cid4882" unicode="&#xadcf;" 
 />
    <glyph glyph-name="cid379" unicode="&#xadd0;" horiz-adv-x="950" 
d="M810 218l-120 50l80 497h130zM385 291l-114 -247l-118 61l115 171l-188 -25l-30 100l386 52l60 199l-331 -60l-30 130l375 58l18 -84l93 -44l-55 -181l109 15v-106zM710 -70l160 15l-10 -105l-260 -20l-55 80l160 160l-264 -48l-31 -192l-112 40l45 305h122l-5 -34
l290 59l10 -80l90 -80z" />
    <glyph glyph-name="cid380" unicode="&#xadd1;" horiz-adv-x="950" 
d="M818 245l-125 45l72 475h135zM389 312l-128 -232l-109 65l92 143l-164 -27l-30 120l389 53l57 188l-331 -60l-30 130l375 58l18 -84l93 -44l-52 -170l106 14v-106zM752 -51l103 6l-10 -115l-335 -20l-20 115l132 7l23 88l-200 -26l-30 -184l-120 50l55 345h130l-15 -94
l210 28l25 96l125 -40z" />
    <glyph glyph-name="cid4883" unicode="&#xadd2;" 
 />
    <glyph glyph-name="cid381" unicode="&#xadd3;" horiz-adv-x="950" 
d="M811 181l-125 45l79 539h135zM152 145l92 143l-164 -27l-30 120l389 53l57 188l-331 -60l-30 130l375 58l18 -84l93 -44l-52 -170l106 14v-106l-283 -47l-121 -233zM549 54l300 -107l-53 -134l-280 116l-10 86l-210 -195l-103 118l389 301l81 -79z" />
    <glyph glyph-name="cid3119" unicode="&#xadd4;" 
 />
    <glyph glyph-name="cid382" unicode="&#xadd5;" horiz-adv-x="950" 
d="M811 181l-125 45l79 539h135zM392 313l-121 -233l-119 65l92 143l-164 -27l-30 120l389 53l57 188l-331 -60l-30 130l375 58l18 -84l93 -44l-52 -170l106 14v-106zM581 201l252 -137l-27 -86l-4 -88l-429 -79l-34 80l-65 81l156 198l78 5zM731 -7l-204 109l-122 -175z
" />
    <glyph glyph-name="cid4884" unicode="&#xadd6;" 
 />
    <glyph glyph-name="cid4885" unicode="&#xadd7;" 
 />
    <glyph glyph-name="cid4886" unicode="&#xadd8;" 
 />
    <glyph glyph-name="cid4887" unicode="&#xadd9;" 
 />
    <glyph glyph-name="cid4888" unicode="&#xadda;" 
 />
    <glyph glyph-name="cid4889" unicode="&#xaddb;" 
 />
    <glyph glyph-name="cid383" unicode="&#xaddc;" horiz-adv-x="950" 
d="M206 511l-51 145l462 84l38 -96l119 -56l-106 -290l-140 63l90 226zM905 160l-191 -18l-55 -318l-135 40l54 265l-159 -15l-90 -294l-130 55l78 226l-217 -21l-15 130l860 80v-130z" />
    <glyph glyph-name="cid3120" unicode="&#xaddd;" 
 />
    <glyph glyph-name="cid4890" unicode="&#xadde;" 
 />
    <glyph glyph-name="cid4891" unicode="&#xaddf;" 
 />
    <glyph glyph-name="cid384" unicode="&#xade0;" horiz-adv-x="950" 
d="M905 435v-125l-184 -20l-50 -264l-118 38l53 214l-118 -13l-51 -187l-115 40l41 133l-301 -32l-17 125l524 55l57 207l-414 -72l-40 135l473 79l23 -96l99 -31l-56 -206zM310 -66l490 35l-10 -120l-505 -35l-15 85l-95 50l73 169l120 -50z" />
    <glyph glyph-name="cid4892" unicode="&#xade1;" 
 />
    <glyph glyph-name="cid4893" unicode="&#xade2;" 
 />
    <glyph glyph-name="cid4894" unicode="&#xade3;" 
 />
    <glyph glyph-name="cid385" unicode="&#xade4;" horiz-adv-x="950" 
d="M699 358l-28 -131l58 4l-5 -91l35 -83l-423 -141l458 54l-10 -122l-555 -38l8 103l-30 72l439 136l-407 -44l-30 114l140 11l-70 24l26 89l-243 -26l-17 110l518 55l61 161l-383 -66l-46 135l453 74l23 -94l96 -52l-51 -142l189 20v-110zM542 235l27 109l-131 -14
l-38 -124l190 14z" />
    <glyph glyph-name="cid4895" unicode="&#xade5;" 
 />
    <glyph glyph-name="cid4896" unicode="&#xade6;" 
 />
    <glyph glyph-name="cid4897" unicode="&#xade7;" 
 />
    <glyph glyph-name="cid3121" unicode="&#xade8;" 
 />
    <glyph glyph-name="cid4898" unicode="&#xade9;" 
 />
    <glyph glyph-name="cid4899" unicode="&#xadea;" 
 />
    <glyph glyph-name="cid4900" unicode="&#xadeb;" 
 />
    <glyph glyph-name="cid386" unicode="&#xadec;" horiz-adv-x="950" 
d="M713 289l-32 -127l14 -77l75 -68l-145 -92l178 14l-13 -104l-295 -15l-40 90l180 140l-306 -76l-27 -154l-122 30l47 255h125l-4 -24l285 77l-79 24l27 93l-154 -17l-38 -137l-115 30l28 94l-240 -26l-17 125l527 56l54 196l-404 -72l-50 135l463 79l33 -96l99 -31
l-53 -196l191 20v-125z" />
    <glyph glyph-name="cid387" unicode="&#xaded;" horiz-adv-x="950" 
d="M707 309l-27 -133l73 -18l-63 -206l110 9l-13 -110l-387 -31l-31 106l202 16l16 59l-250 -22l-22 -159l-115 50l39 269h120l-9 -69l260 25l19 75l-75 17l32 109l-142 -16l-42 -132l-123 40l32 78l-249 -27l-17 125l530 56l51 186l-404 -72l-50 135l463 79l33 -96l99 -31
l-50 -186l188 20v-125z" />
    <glyph glyph-name="cid4901" unicode="&#xadee;" 
 />
    <glyph glyph-name="cid3122" unicode="&#xadef;" 
 />
    <glyph glyph-name="cid4902" unicode="&#xadf0;" 
 />
    <glyph glyph-name="cid3123" unicode="&#xadf1;" 
 />
    <glyph glyph-name="cid4903" unicode="&#xadf2;" 
 />
    <glyph glyph-name="cid4904" unicode="&#xadf3;" 
 />
    <glyph glyph-name="cid4905" unicode="&#xadf4;" 
 />
    <glyph glyph-name="cid4906" unicode="&#xadf5;" 
 />
    <glyph glyph-name="cid4907" unicode="&#xadf6;" 
 />
    <glyph glyph-name="cid4908" unicode="&#xadf7;" 
 />
    <glyph glyph-name="cid388" unicode="&#xadf8;" horiz-adv-x="950" 
d="M143 639l495 84l23 -109l106 -52l-156 -379l-136 70l144 322l-436 -76zM45 65l860 80v-140l-845 -75z" />
    <glyph glyph-name="cid389" unicode="&#xadf9;" horiz-adv-x="950" 
d="M905 440v-120l-845 -90l-15 125l505 50l74 205l-393 -56l-36 135l453 64l23 -94l91 -47l-67 -193zM709 132l95 -64l-97 -264l-126 60l78 224l-417 -56l-40 120l494 64z" />
    <glyph glyph-name="cid4909" unicode="&#xadfa;" 
 />
    <glyph glyph-name="cid4910" unicode="&#xadfb;" 
 />
    <glyph glyph-name="cid390" unicode="&#xadfc;" horiz-adv-x="950" 
d="M905 410v-120l-845 -90l-15 125l510 50l71 241l-404 -72l-50 135l463 79l33 -96l104 -36l-67 -236zM330 -50l470 45l-10 -130l-475 -45l-40 84l-90 56l83 214l130 -55z" />
    <glyph glyph-name="cid4911" unicode="&#xadfd;" 
 />
    <glyph glyph-name="cid3124" unicode="&#xadfe;" 
 />
    <glyph glyph-name="cid391" unicode="&#xadff;" horiz-adv-x="950" 
d="M905 430v-120l-845 -90l-15 125l525 52l56 219l-404 -72l-50 135l463 79l33 -96l104 -36l-54 -215zM354 -54l431 30v-126l-459 -30l-19 84l-80 63l36 102l-49 -4l-30 115l585 45v-120l-371 -27z" />
    <glyph glyph-name="cid392" unicode="&#xae00;" horiz-adv-x="950" 
d="M905 488v-115l-845 -83l-15 110l478 49l77 181l-380 -65l-50 124l445 71l25 -95l95 -45l-64 -156zM327 -80l452 47l-10 -120l-545 -37l8 97l-40 78l442 189l-400 -53l-30 122l509 49l-4 -99l45 -80z" />
    <glyph glyph-name="cid393" unicode="&#xae01;" horiz-adv-x="950" 
d="M905 478v-115l-845 -83l-15 110l477 49l78 191l-380 -65l-50 124l445 71l25 -95l95 -45l-65 -166zM756 182l98 -64l-107 -314l-116 70l88 264l-195 -34l-40 125l249 42zM302 -61l211 24l-10 -125l-282 -23v100l-44 77l227 144l-183 -24l-25 119l279 22l-9 -93l43 -80z
" />
    <glyph glyph-name="cid394" unicode="&#xae02;" horiz-adv-x="950" 
d="M905 478v-115l-845 -83l-15 110l477 49l78 191l-380 -65l-50 124l445 71l25 -95l95 -45l-65 -166zM855 124l-106 -204h72l-10 -100h-140l-35 90l83 215l-85 -21l-14 -288l-110 25l11 409l120 -1l-1 -30l106 30l25 -76zM292 -61l211 24l-10 -125l-292 -23v100l-34 92
l227 124l-193 -24l-25 119l279 22l1 -93l33 -90z" />
    <glyph glyph-name="cid3125" unicode="&#xae03;" 
 />
    <glyph glyph-name="cid3126" unicode="&#xae04;" 
 />
    <glyph glyph-name="cid4912" unicode="&#xae05;" 
 />
    <glyph glyph-name="cid4913" unicode="&#xae06;" 
 />
    <glyph glyph-name="cid395" unicode="&#xae07;" horiz-adv-x="950" 
d="M905 478v-115l-845 -83l-15 110l477 49l78 191l-380 -65l-50 124l445 71l25 -95l95 -45l-65 -166zM784 268l-8 -83h-217l5 95zM282 -74l210 22l-5 -111l-287 -22l6 88l-43 74l205 147l-168 -29l-33 107l277 28v-84l43 -66zM789 13l55 -90l-45 -85l-215 -28l-65 114
l107 128l-105 -11l-7 111h282l3 -81l-50 -5l-115 -171l100 19l-26 62z" />
    <glyph glyph-name="cid396" unicode="&#xae08;" horiz-adv-x="950" 
d="M905 420v-115l-845 -90l-15 120l497 49l82 226l-393 -56l-36 135l453 64l23 -94l91 -47l-75 -213zM645 -70l180 15l-10 -105l-280 -20l-60 100l180 165l-310 -68l-30 -192l-115 40l45 310h125l-6 -40l346 85l10 -85l90 -75z" />
    <glyph glyph-name="cid397" unicode="&#xae09;" horiz-adv-x="950" 
d="M905 420v-125l-845 -90l-15 130l501 49l78 226l-393 -56l-46 135l463 64l23 -94l91 -47l-72 -213zM715 -49l92 4l-10 -115l-380 -20l-20 115l190 9l17 72l-273 -30l-29 -166l-125 50l55 320h135l-17 -97l279 31l23 96l130 -35z" />
    <glyph glyph-name="cid4914" unicode="&#xae0a;" 
 />
    <glyph glyph-name="cid398" unicode="&#xae0b;" horiz-adv-x="950" 
d="M905 440v-125l-845 -90l-15 130l508 50l71 205l-393 -56l-46 135l463 64l23 -94l91 -47l-65 -193zM552 49l289 -93l-37 -136l-301 118l3 76l-264 -200l-88 127l424 276l68 -97z" />
    <glyph glyph-name="cid4915" unicode="&#xae0c;" 
 />
    <glyph glyph-name="cid399" unicode="&#xae0d;" horiz-adv-x="950" 
d="M905 440v-125l-845 -90l-15 130l508 50l71 205l-393 -56l-46 135l463 64l23 -94l91 -47l-65 -193zM526 216l262 -152l-27 -91l-4 -88l-474 -85l-34 91l-65 91l191 203l78 5zM676 -12l-204 129l-152 -180z" />
    <glyph glyph-name="cid3127" unicode="&#xae0e;" 
 />
    <glyph glyph-name="cid400" unicode="&#xae0f;" horiz-adv-x="950" 
d="M905 495v-125l-845 -90l-15 130l520 51l59 152l-393 -56l-46 132l473 64l13 -94l91 -47l-56 -137zM659 187l-367 -31l-5 110l377 11zM564 -48l263 -23l-25 -122l-285 54l8 76l-308 -120l-60 120l450 117l-342 -52l-20 108l443 31l-1 -54l40 -72z" />
    <glyph glyph-name="cid4916" unicode="&#xae10;" 
 />
    <glyph glyph-name="cid401" unicode="&#xae11;" horiz-adv-x="950" 
d="M905 470v-120l-845 -90l-15 125l509 50l70 175l-393 -56l-46 135l473 64l13 -94l91 -47l-61 -162zM351 -75l445 40v-125l-470 -39l-25 85l-75 49l72 184l-65 -6l-20 110l565 53v-113l-350 -32l-22 -58l350 32v-95l-355 -35l-13 49z" />
    <glyph glyph-name="cid3128" unicode="&#xae12;" 
 />
    <glyph glyph-name="cid402" unicode="&#xae13;" horiz-adv-x="950" 
d="M905 475v-120l-845 -90l-15 125l508 50l71 170l-393 -56l-46 135l473 64l13 -94l91 -47l-61 -157zM695 166l-365 -15l-2 108l372 -5zM676 126l143 -145l-42 -52l-17 -72l-372 -57l-24 82l-55 64l108 65l-186 -43l-22 119l352 34l23 -72l-127 -142l228 34l-91 134z" />
    <glyph glyph-name="cid403" unicode="&#xae14;" horiz-adv-x="950" 
d="M918 765l-160 -945l-120 50l145 895h135zM116 658l403 70l18 -109l81 -47l-121 -324l-126 50l104 282l-319 -62zM60 140l593 79v-125l-563 -84z" />
    <glyph glyph-name="cid3129" unicode="&#xae15;" 
 />
    <glyph glyph-name="cid4917" unicode="&#xae16;" 
 />
    <glyph glyph-name="cid4918" unicode="&#xae17;" 
 />
    <glyph glyph-name="cid404" unicode="&#xae18;" horiz-adv-x="950" 
d="M672 114l103 651h140l-113 -701zM678 318l-578 -88l-35 125l363 40l63 212l-316 -50l-40 130l385 58l18 -84l88 -44l-60 -206l112 12v-105zM360 -46l470 35l-10 -130l-460 -35l-40 85l-100 55l88 210l120 -55z" />
    <glyph glyph-name="cid4919" unicode="&#xae19;" 
 />
    <glyph glyph-name="cid4920" unicode="&#xae1a;" 
 />
    <glyph glyph-name="cid4921" unicode="&#xae1b;" 
 />
    <glyph glyph-name="cid3130" unicode="&#xae1c;" 
 />
    <glyph glyph-name="cid4922" unicode="&#xae1d;" 
 />
    <glyph glyph-name="cid4923" unicode="&#xae1e;" 
 />
    <glyph glyph-name="cid4924" unicode="&#xae1f;" 
 />
    <glyph glyph-name="cid3131" unicode="&#xae20;" 
 />
    <glyph glyph-name="cid4925" unicode="&#xae21;" 
 />
    <glyph glyph-name="cid4926" unicode="&#xae22;" 
 />
    <glyph glyph-name="cid4927" unicode="&#xae23;" 
 />
    <glyph glyph-name="cid3132" unicode="&#xae24;" 
 />
    <glyph glyph-name="cid3133" unicode="&#xae25;" 
 />
    <glyph glyph-name="cid4928" unicode="&#xae26;" 
 />
    <glyph glyph-name="cid3134" unicode="&#xae27;" 
 />
    <glyph glyph-name="cid4929" unicode="&#xae28;" 
 />
    <glyph glyph-name="cid405" unicode="&#xae29;" horiz-adv-x="950" 
d="M920 765l-95 -570l-130 45l85 525h140zM678 318l-578 -88l-35 125l363 40l63 212l-316 -50l-40 130l385 58l18 -84l88 -44l-60 -206l112 12v-105zM561 211l247 -137l-27 -101l-4 -88l-429 -79l-34 80l-65 91l161 203l78 5zM701 -2l-194 114l-122 -180z" />
    <glyph glyph-name="cid4930" unicode="&#xae2a;" 
 />
    <glyph glyph-name="cid4931" unicode="&#xae2b;" 
 />
    <glyph glyph-name="cid4932" unicode="&#xae2c;" 
 />
    <glyph glyph-name="cid4933" unicode="&#xae2d;" 
 />
    <glyph glyph-name="cid4934" unicode="&#xae2e;" 
 />
    <glyph glyph-name="cid4935" unicode="&#xae2f;" 
 />
    <glyph glyph-name="cid406" unicode="&#xae30;" horiz-adv-x="950" 
d="M920 765l-155 -943l-125 50l145 893h135zM103 651l379 56l18 -106l89 -64l-358 -526l-134 99l353 451l-307 -70z" />
    <glyph glyph-name="cid407" unicode="&#xae31;" horiz-adv-x="950" 
d="M837 248l-130 50l73 467h140zM126 673l404 57l4 -98l73 -72l-379 -358l-99 112l349 282l-301 -67zM282 172l426 64l18 -84l98 -59l-107 -289l-126 70l88 234l-357 -56z" />
    <glyph glyph-name="cid4936" unicode="&#xae32;" 
 />
    <glyph glyph-name="cid4937" unicode="&#xae33;" 
 />
    <glyph glyph-name="cid408" unicode="&#xae34;" horiz-adv-x="950" 
d="M819 144l-130 50l90 571h140zM103 659l404 50l1 -96l69 -74l-378 -373l-98 109l346 298l-294 -60zM323 200l125 -55l-79 -195l451 45l-10 -130l-446 -45l-40 85l-100 55z" />
    <glyph glyph-name="cid4938" unicode="&#xae35;" 
 />
    <glyph glyph-name="cid4939" unicode="&#xae36;" 
 />
    <glyph glyph-name="cid409" unicode="&#xae37;" horiz-adv-x="950" 
d="M837 248l-130 50l73 467h140zM607 550l-369 -368l-99 112l339 292l-301 -67l-51 144l404 57l4 -98zM449 -49l421 20v-131l-449 -20l-19 94l-80 53l40 100l-43 -2l-30 120l565 35v-125l-357 -20z" />
    <glyph glyph-name="cid410" unicode="&#xae38;" horiz-adv-x="950" 
d="M847 318l-130 50l63 397h140zM126 678l404 52l4 -88l73 -72l-389 -343l-94 107l355 272l-302 -67zM309 265l465 35l-10 -99l45 -92l-402 -174l427 42l-10 -127l-500 -38l13 119l-40 84l407 167l-365 -43z" />
    <glyph glyph-name="cid3135" unicode="&#xae39;" 
 />
    <glyph glyph-name="cid411" unicode="&#xae3a;" horiz-adv-x="950" 
d="M838 262l-130 50l72 453h140zM149 359l329 242l-301 -67l-51 139l404 57l4 -93l73 -72l-359 -318zM885 109l-96 -189h72l-10 -100h-140l-35 90l83 200l-99 -25l-10 -269l-110 25l11 394l115 -1l-1 -22l111 22l25 -76zM330 -61l204 24l-10 -125l-286 -23l5 100l-43 82
l219 129l-176 -29l-24 109l258 27l1 -83l52 -80z" />
    <glyph glyph-name="cid4940" unicode="&#xae3b;" 
 />
    <glyph glyph-name="cid3136" unicode="&#xae3c;" 
 />
    <glyph glyph-name="cid4941" unicode="&#xae3d;" 
 />
    <glyph glyph-name="cid4942" unicode="&#xae3e;" 
 />
    <glyph glyph-name="cid4943" unicode="&#xae3f;" 
 />
    <glyph glyph-name="cid412" unicode="&#xae40;" horiz-adv-x="950" 
d="M835 240l-125 50l75 475h135zM607 540l-389 -368l-99 122l359 282l-311 -67l-41 139l404 62l4 -98zM660 -65l185 15l-10 -110l-290 -20l-60 100l175 165l-279 -70l-31 -195l-115 40l50 340h125l-9 -57l304 82l20 -85l90 -75z" />
    <glyph glyph-name="cid413" unicode="&#xae41;" horiz-adv-x="950" 
d="M840 270l-135 50l70 445h145zM607 560l-389 -348l-99 117l359 272l-301 -67l-51 139l404 57l4 -93zM754 -60l106 5l-10 -105l-365 -20l-20 105l153 8l23 91l-237 -28l-29 -176l-130 50l55 345h140l-17 -102l248 30l23 92l131 -40z" />
    <glyph glyph-name="cid4944" unicode="&#xae42;" 
 />
    <glyph glyph-name="cid414" unicode="&#xae43;" horiz-adv-x="950" 
d="M819 144l-130 50l90 571h140zM101 295l346 298l-294 -60l-50 146l394 50l11 -96l79 -69l-378 -388zM517 72l304 -111l-50 -145l-285 119v107l-229 -222l-107 115l370 323l93 -93z" />
    <glyph glyph-name="cid415" unicode="&#xae44;" horiz-adv-x="950" 
d="M832 207l-130 50l77 508h140zM153 533l-50 146l394 50l11 -96l79 -69l-368 -363l-108 114l336 278zM322 -30l-106 -154l-112 87l231 296l96 -72l-42 -60l100 -24l-61 -112zM677 27l191 -93l-67 -118l-152 102v71l-132 -183l-114 87l251 304l93 -72z" />
    <glyph glyph-name="cid416" unicode="&#xae45;" horiz-adv-x="950" 
d="M830 226l-130 50l79 489h140zM103 674l394 50l11 -96l79 -69l-358 -378l-108 119l326 288l-294 -60zM249 -18l171 223l78 5l73 26l257 -157l-27 -96l-4 -93l-449 -79l-34 80zM385 -63l336 66l-204 124z" />
    <glyph glyph-name="cid417" unicode="&#xae46;" horiz-adv-x="950" 
d="M839 266l-130 50l70 449h140zM111 315l336 278l-294 -60l-50 146l394 50l11 -96l79 -69l-368 -368zM596 -10l269 -35l-20 -135l-308 60l17 87l-284 -155l-60 130l445 206l-305 -58l-35 130l400 40l8 -90l56 -80z" />
    <glyph glyph-name="cid3137" unicode="&#xae47;" 
 />
    <glyph glyph-name="cid4945" unicode="&#xae48;" 
 />
    <glyph glyph-name="cid3138" unicode="&#xae49;" 
 />
    <glyph glyph-name="cid418" unicode="&#xae4a;" horiz-adv-x="950" 
d="M919 765l-80 -499l-130 50l70 449h140zM587 564l-368 -368l-108 119l336 278l-294 -60l-50 146l394 50l11 -96zM304 96l-20 121l520 22v-115zM704 -51l125 3v-109l-535 -23l-10 117l121 3l-43 106l118 36l30 -116l-83 -25l162 4l35 146l120 -27z" />
    <glyph glyph-name="cid3139" unicode="&#xae4b;" 
 />
    <glyph glyph-name="cid419" unicode="&#xae4c;" horiz-adv-x="950" 
d="M930 363l-153 -28l-87 -515l-125 50l74 440h-1l-30 130l54 10l53 315h135l-49 -290l129 23v-135zM590 610l-195 -555l-135 60l195 470l-129 -24l-34 135l185 30l24 -81zM336 505l-197 -440l-127 70l206 395l-124 -29l-45 135l206 35z" />
    <glyph glyph-name="cid420" unicode="&#xae4d;" horiz-adv-x="950" 
d="M930 443l-146 -23l-34 -190l-125 55l19 116l-29 122l51 8l39 234h140l-38 -211l123 19v-130zM346 576l-34 135l180 30l24 -81l89 -35l-140 -352l-130 60l140 267zM356 520l-195 -292l-104 87l191 230l-129 -29l-45 135l201 35zM666 152l98 -64l-107 -284l-126 70l88 234
l-387 -60l-40 125l451 68z" />
    <glyph glyph-name="cid421" unicode="&#xae4e;" horiz-adv-x="950" 
d="M930 443l-146 -23l-29 -167l-125 50l15 95l-30 125l52 8l38 234h140l-37 -211l122 19v-130zM346 581l-34 135l180 30l24 -81l89 -35l-140 -347l-130 60l140 262zM57 325l191 225l-129 -29l-45 135l201 35l81 -166l-195 -287zM681 167l99 -55l-93 -304l-130 60l83 239
l-159 -24l-24 130l200 30zM400 193l66 -136l-84 -241l-116 60l77 196l-159 -29l-35 115z" />
    <glyph glyph-name="cid4946" unicode="&#xae4f;" 
 />
    <glyph glyph-name="cid422" unicode="&#xae50;" horiz-adv-x="950" 
d="M920 423l-134 -21l-48 -278l-130 50l35 205l-3 -1l-30 125l56 9l44 253h140l-40 -230l110 18v-130zM346 561l-34 135l170 30l24 -81l89 -35l-155 -408l-130 60l155 323zM75 276l173 254l-129 -29l-45 135l201 35l81 -156l-164 -319zM325 -50l430 45l-10 -130l-425 -45
l-40 85l-100 55l89 215l125 -55z" />
    <glyph glyph-name="cid4947" unicode="&#xae51;" 
 />
    <glyph glyph-name="cid4948" unicode="&#xae52;" 
 />
    <glyph glyph-name="cid3140" unicode="&#xae53;" 
 />
    <glyph glyph-name="cid423" unicode="&#xae54;" horiz-adv-x="950" 
d="M930 493l-140 -23l-33 -176l-120 50l18 104l-30 125l53 9l32 183h135l-30 -161l115 19v-130zM351 586l-34 120l200 30l14 -76l79 -55l-165 -320l-120 70l165 255zM361 530l-168 -280l-117 80l177 225l-142 -29l-45 120l214 35zM376 -65l413 42l-10 -127l-500 -38l8 119
l-35 84l389 137l-347 -43l-30 126l460 40l-5 -104l40 -92z" />
    <glyph glyph-name="cid4949" unicode="&#xae55;" 
 />
    <glyph glyph-name="cid424" unicode="&#xae56;" horiz-adv-x="950" 
d="M930 623v-130l-140 -23l-39 -212l-120 50l24 140l-30 125l53 9l32 183h135l-30 -161zM336 591l-34 120l205 30l14 -76l84 -55l-165 -320l-125 70l165 255zM66 335l172 225l-127 -29l-45 120l199 35l81 -151l-163 -280zM470 62l-165 -127l160 13l-5 -110l-250 -18l5 95
l-40 70l175 135l-150 -30l-30 115l250 30v-90zM825 109l-96 -189h72l-10 -100h-140l-35 90l83 200l-99 -25l-10 -269l-110 25l11 394l115 -1l-1 -26l111 26l25 -76z" />
    <glyph glyph-name="cid4950" unicode="&#xae57;" 
 />
    <glyph glyph-name="cid4951" unicode="&#xae58;" 
 />
    <glyph glyph-name="cid4952" unicode="&#xae59;" 
 />
    <glyph glyph-name="cid4953" unicode="&#xae5a;" 
 />
    <glyph glyph-name="cid4954" unicode="&#xae5b;" 
 />
    <glyph glyph-name="cid425" unicode="&#xae5c;" horiz-adv-x="950" 
d="M930 573v-130l-147 -24l-33 -186l-120 50l19 117l-29 123l51 8l39 234h135l-38 -212zM336 581l-34 120l205 30l14 -76l84 -55l-188 -342l-125 70l188 277zM346 525l-186 -302l-117 80l195 247l-127 -24l-45 115l199 35zM620 -65l175 15l-10 -110l-290 -20l-60 100
l175 165l-268 -59l-32 -206l-115 40l50 340h125l-8 -48l293 73l20 -85l90 -75z" />
    <glyph glyph-name="cid426" unicode="&#xae5d;" horiz-adv-x="950" 
d="M930 573v-130l-147 -23l-33 -187l-125 50l19 117l-29 123l51 8l39 234h140l-38 -211zM336 592l-34 120l205 30l14 -76l84 -55l-188 -343l-125 70l188 278zM346 536l-186 -303l-117 80l195 248l-127 -24l-45 115l199 35zM697 -60l93 5l-10 -105l-335 -20l-20 105l141 8
l19 87l-226 -29l-29 -171l-130 50l55 335h140l-16 -97l232 31l18 86l131 -40z" />
    <glyph glyph-name="cid4955" unicode="&#xae5e;" 
 />
    <glyph glyph-name="cid427" unicode="&#xae5f;" horiz-adv-x="950" 
d="M930 573v-130l-146 -23l-42 -237l-125 50l28 167l-30 123l51 8l39 234h140l-37 -211zM336 587l-34 120l205 30l14 -76l84 -55l-193 -368l-125 70l193 303zM38 283l200 273l-127 -24l-45 115l199 35l81 -151l-191 -328zM508 61l298 -100l-50 -145l-285 119v94l-246 -213
l-99 113l389 302l85 -90z" />
    <glyph glyph-name="cid428" unicode="&#xae60;" horiz-adv-x="950" 
d="M930 616v-130l-133 -22l-40 -229l-125 50l26 158l-30 123l51 8l31 191h140l-29 -167zM336 587l-34 120l205 30l14 -76l84 -55l-193 -368l-125 70l193 303zM38 283l200 273l-127 -24l-45 115l199 35l81 -151l-191 -328zM310 -20l-119 -160l-115 85l257 315l100 -75
l-54 -72l80 -31l-60 -110zM651 28l199 -83l-45 -125l-194 100l5 63l-135 -173l-101 84l270 312l86 -69z" />
    <glyph glyph-name="cid429" unicode="&#xae61;" horiz-adv-x="950" 
d="M930 443l-146 -23l-39 -217l-125 50l24 147l-29 123l51 8l39 234h140l-38 -211l123 19v-130zM341 582l-34 120l205 30l14 -76l84 -55l-193 -358l-125 70l193 293zM351 526l-191 -318l-117 80l200 263l-127 -24l-45 115l199 35zM521 226l247 -142l-27 -101l-4 -88
l-409 -75l-34 76l-65 91l141 208l78 5zM661 8l-194 114l-107 -180z" />
    <glyph glyph-name="cid3141" unicode="&#xae62;" 
 />
    <glyph glyph-name="cid3142" unicode="&#xae63;" 
 />
    <glyph glyph-name="cid4956" unicode="&#xae64;" 
 />
    <glyph glyph-name="cid430" unicode="&#xae65;" horiz-adv-x="950" 
d="M930 463l-144 -23l-31 -169l-125 50l17 101l-29 121l51 8l36 214h140l-35 -191l120 19v-130zM336 586l-34 120l205 30l14 -76l84 -55l-165 -320l-125 70l165 255zM346 530l-163 -280l-117 80l172 225l-127 -29l-45 120l199 35zM343 -73l426 40l-10 -116l-444 -40l-24 89
l-70 48l68 162l-51 -4l-25 105l545 35l-10 -105l-328 -23l-19 -47l325 28l-10 -95l-315 -25l-15 55z" />
    <glyph glyph-name="cid4957" unicode="&#xae66;" 
 />
    <glyph glyph-name="cid4958" unicode="&#xae67;" 
 />
    <glyph glyph-name="cid431" unicode="&#xae68;" horiz-adv-x="950" 
d="M920 364l-54 -15l-75 -490l-128 45l60 407l-76 -21l-56 -470l-121 35l100 875h130l-36 -298l80 19l46 314h140l-43 -282zM515 570l-165 -515l-130 60l175 440l-109 -24l-34 130l160 30l24 -81zM296 485l-152 -420l-117 50l161 385l-89 -29l-45 130l171 35z" />
    <glyph glyph-name="cid432" unicode="&#xae69;" horiz-adv-x="950" 
d="M920 479l-57 -13l-44 -231l-115 45l26 156l-73 -17l-23 -174l-120 35l61 455h125l-25 -182l77 16l33 196h135l-33 -175zM276 561l-34 125l175 30l24 -81l74 -45l-148 -362l-115 60l148 297zM286 515l-136 -322l-107 60l145 277l-87 -24l-45 120l159 35zM726 132l98 -64
l-107 -264l-126 70l88 214l-392 -56l-40 120l461 64z" />
    <glyph glyph-name="cid3143" unicode="&#xae6a;" 
 />
    <glyph glyph-name="cid4959" unicode="&#xae6b;" 
 />
    <glyph glyph-name="cid433" unicode="&#xae6c;" horiz-adv-x="950" 
d="M915 430l-57 -13l-58 -323l-115 45l42 248l-71 -16l-36 -267l-115 35l80 596h120l-30 -226l75 15l40 241h130l-39 -218zM280 551l-34 125l175 30l24 -81l74 -45l-152 -362l-115 60l152 297zM290 505l-140 -322l-107 60l149 277l-96 -24l-45 120l168 35zM340 -46l460 45
l-10 -130l-455 -45l-40 85l-95 55l93 224l125 -55z" />
    <glyph glyph-name="cid4960" unicode="&#xae6d;" 
 />
    <glyph glyph-name="cid4961" unicode="&#xae6e;" 
 />
    <glyph glyph-name="cid434" unicode="&#xae6f;" horiz-adv-x="950" 
d="M920 479l-57 -13l-44 -231l-115 45l26 156l-73 -17l-23 -174l-120 35l61 455h125l-25 -182l77 16l33 196h135l-33 -175zM276 561l-34 125l175 30l24 -81l74 -45l-148 -362l-115 60l148 297zM286 515l-136 -322l-107 60l145 277l-87 -24l-45 120l159 35zM404 -50l406 41
v-131l-434 -40l-19 94l-80 63l39 91l-42 -3l-30 110l550 45v-115l-341 -26z" />
    <glyph glyph-name="cid435" unicode="&#xae70;" horiz-adv-x="950" 
d="M636 284l-120 35l55 416h125l-20 -147l86 17l29 160h130l-26 -134l35 -116l-60 -13l-44 -228l-115 45l27 153l-79 -18zM357 250l-115 60l158 287l-124 -24l-34 120l175 30l24 -76l74 -45zM286 527l-136 -312l-107 60l145 267l-87 -24l-45 115l159 35zM431 -68l408 42
l-10 -125l-495 -37l8 117l-35 83l384 134l-347 -43l-30 117l460 39l-5 -94l40 -90z" />
    <glyph glyph-name="cid4962" unicode="&#xae71;" 
 />
    <glyph glyph-name="cid4963" unicode="&#xae72;" 
 />
    <glyph glyph-name="cid3144" unicode="&#xae73;" 
 />
    <glyph glyph-name="cid4964" unicode="&#xae74;" 
 />
    <glyph glyph-name="cid4965" unicode="&#xae75;" 
 />
    <glyph glyph-name="cid3145" unicode="&#xae76;" 
 />
    <glyph glyph-name="cid4966" unicode="&#xae77;" 
 />
    <glyph glyph-name="cid436" unicode="&#xae78;" horiz-adv-x="950" 
d="M920 479l-57 -13l-44 -231l-110 45l26 157l-83 -19l-23 -173l-110 35l61 455h115l-25 -183l87 18l33 195h130l-33 -175zM276 561l-34 120l175 30l24 -76l74 -45l-158 -352l-115 60l158 287zM286 515l-136 -312l-107 60l145 267l-87 -24l-45 115l159 35zM640 -70l195 15
l-10 -105l-290 -20l-60 100l185 165l-279 -70l-31 -195l-115 40l50 340h125l-9 -59l294 84l20 -85l90 -75z" />
    <glyph glyph-name="cid437" unicode="&#xae79;" horiz-adv-x="950" 
d="M920 479l-57 -13l-44 -231l-115 45l26 156l-73 -17l-23 -174l-120 35l61 455h125l-25 -182l77 16l33 196h135l-33 -175zM276 571l-34 120l175 30l24 -76l74 -45l-158 -356l-115 60l158 291zM286 525l-146 -316l-107 70l155 261l-87 -24l-45 115l159 35zM735 -61l110 6
l-10 -105l-365 -20l-20 105l160 8l22 82l-247 -29l-30 -166l-120 50l55 315h130l-16 -92l257 30l24 92l125 -40z" />
    <glyph glyph-name="cid4967" unicode="&#xae7a;" 
 />
    <glyph glyph-name="cid438" unicode="&#xae7b;" horiz-adv-x="950" 
d="M920 479l-57 -13l-44 -231l-115 45l26 156l-73 -17l-23 -174l-120 35l61 455h125l-25 -182l77 16l33 196h135l-33 -175zM276 566l-34 120l175 30l24 -76l74 -45l-158 -356l-115 60l158 291zM33 274l155 261l-87 -24l-45 115l159 35l71 -141l-146 -316zM507 55l309 -104
l-60 -135l-275 119v96l-244 -219l-99 116l385 299l79 -87z" />
    <glyph glyph-name="cid439" unicode="&#xae7c;" horiz-adv-x="950" 
d="M920 479l-57 -13l-44 -231l-115 45l26 156l-73 -17l-23 -174l-120 35l61 455h125l-25 -182l77 16l33 196h135l-33 -175zM286 573l-34 120l165 30l24 -76l74 -45l-148 -346l-115 60l148 281zM43 291l155 251l-87 -24l-45 115l159 35l71 -141l-146 -306zM318 -18l-117 -162
l-115 85l262 308l90 -65l-59 -81l90 -35l-60 -100zM648 16l207 -76l-55 -120l-184 84l6 76l-121 -165l-111 85l255 305l91 -70z" />
    <glyph glyph-name="cid440" unicode="&#xae7d;" horiz-adv-x="950" 
d="M920 479l-57 -13l-44 -231l-115 45l26 156l-73 -17l-23 -174l-120 35l61 455h125l-25 -182l77 16l33 196h135l-33 -175zM286 551l-34 120l170 30l24 -76l74 -45l-158 -352l-115 60l158 287zM296 505l-151 -312l-107 70l160 257l-102 -24l-45 115l174 35zM561 221
l267 -137l-27 -101l-4 -88l-469 -89l-34 80l-65 91l181 213l78 5zM721 8l-214 114l-142 -190z" />
    <glyph glyph-name="cid4968" unicode="&#xae7e;" 
 />
    <glyph glyph-name="cid4969" unicode="&#xae7f;" 
 />
    <glyph glyph-name="cid4970" unicode="&#xae80;" 
 />
    <glyph glyph-name="cid3146" unicode="&#xae81;" 
 />
    <glyph glyph-name="cid4971" unicode="&#xae82;" 
 />
    <glyph glyph-name="cid4972" unicode="&#xae83;" 
 />
    <glyph glyph-name="cid441" unicode="&#xae84;" horiz-adv-x="950" 
d="M801 426l-24 -138l153 27v-130l-176 -28l-59 -337l-125 55l93 532l-30 123l52 8l40 227h135l-36 -206l106 16v-130zM615 590l-195 -535l-130 60l195 470l-129 -24l-34 135l190 30l14 -81zM366 505l-197 -440l-127 70l206 395l-129 -29l-45 135l211 35z" />
    <glyph glyph-name="cid442" unicode="&#xae85;" horiz-adv-x="950" 
d="M792 525l-13 -75l146 20v-110l-166 -23l-18 -99l-125 50l36 217l-27 110l46 7l24 143h140l-22 -122l112 16v-115zM346 571l-34 135l170 30l24 -81l89 -35l-140 -357l-130 60l140 272zM356 515l-195 -297l-104 87l191 235l-129 -29l-45 135l201 35zM666 152l98 -64
l-107 -284l-126 70l88 234l-357 -56l-40 125l421 64z" />
    <glyph glyph-name="cid443" unicode="&#xae86;" horiz-adv-x="950" 
d="M792 525l-13 -75l146 20v-110l-166 -23l-16 -89l-125 50l34 206l-27 111l46 7l24 143h140l-22 -122l112 16v-115zM346 571l-34 135l170 30l24 -81l89 -35l-140 -357l-130 60l140 272zM57 305l191 235l-129 -29l-45 135l201 35l81 -166l-195 -297zM681 167l99 -55
l-93 -304l-130 60l83 239l-159 -24l-24 130l210 30zM400 193l66 -136l-84 -241l-116 60l77 196l-159 -29l-35 115z" />
    <glyph glyph-name="cid4973" unicode="&#xae87;" 
 />
    <glyph glyph-name="cid3147" unicode="&#xae88;" 
 />
    <glyph glyph-name="cid4974" unicode="&#xae89;" 
 />
    <glyph glyph-name="cid4975" unicode="&#xae8a;" 
 />
    <glyph glyph-name="cid3148" unicode="&#xae8b;" 
 />
    <glyph glyph-name="cid444" unicode="&#xae8c;" horiz-adv-x="950" 
d="M796 544l-9 -53l138 19v-110l-158 -22l-16 -90l-120 50l30 186l-27 111l46 7l20 123h135l-18 -102l108 16v-115zM346 596l-34 120l200 30l14 -76l84 -55l-165 -330l-125 70l165 265zM356 540l-168 -280l-117 80l177 225l-142 -29l-45 120l214 35zM371 -65l418 42
l-10 -127l-505 -38l8 119l-35 84l394 137l-352 -43l-30 121l465 40l-5 -99l40 -92z" />
    <glyph glyph-name="cid445" unicode="&#xae8d;" horiz-adv-x="950" 
d="M796 544l-9 -53l138 19v-110l-158 -22l-21 -120l-120 50l35 216l-27 111l46 7l20 123h135l-18 -102l108 16v-115zM346 596l-34 120l200 30l14 -76l84 -55l-165 -340l-125 70l165 275zM71 340l177 225l-142 -29l-45 120l214 35l81 -151l-168 -280zM689 177l90 -54
l-94 -309l-118 50l86 269l-170 -34l-39 115l222 42zM270 -61l204 24l-10 -125l-286 -23l5 100l-43 82l219 129l-176 -29l-24 109l258 27l1 -83l52 -80z" />
    <glyph glyph-name="cid4976" unicode="&#xae8e;" 
 />
    <glyph glyph-name="cid4977" unicode="&#xae8f;" 
 />
    <glyph glyph-name="cid4978" unicode="&#xae90;" 
 />
    <glyph glyph-name="cid4979" unicode="&#xae91;" 
 />
    <glyph glyph-name="cid4980" unicode="&#xae92;" 
 />
    <glyph glyph-name="cid4981" unicode="&#xae93;" 
 />
    <glyph glyph-name="cid4982" unicode="&#xae94;" 
 />
    <glyph glyph-name="cid4983" unicode="&#xae95;" 
 />
    <glyph glyph-name="cid4984" unicode="&#xae96;" 
 />
    <glyph glyph-name="cid3149" unicode="&#xae97;" 
 />
    <glyph glyph-name="cid4985" unicode="&#xae98;" 
 />
    <glyph glyph-name="cid3150" unicode="&#xae99;" 
 />
    <glyph glyph-name="cid4986" unicode="&#xae9a;" 
 />
    <glyph glyph-name="cid4987" unicode="&#xae9b;" 
 />
    <glyph glyph-name="cid4988" unicode="&#xae9c;" 
 />
    <glyph glyph-name="cid4989" unicode="&#xae9d;" 
 />
    <glyph glyph-name="cid4990" unicode="&#xae9e;" 
 />
    <glyph glyph-name="cid4991" unicode="&#xae9f;" 
 />
    <glyph glyph-name="cid446" unicode="&#xaea0;" horiz-adv-x="950" 
d="M893 216l-53 -14l-48 -342l-120 45l36 260l-86 -24l-35 -321l-110 35l88 878h120l-21 -193l98 24l28 201h130l-61 -430zM520 580l-165 -515l-120 60l165 430l-104 -24l-34 130l155 30l24 -81zM306 485l-157 -400l-117 60l166 355l-109 -29l-45 130l191 35zM727 303
l16 122l-94 -26l-13 -118z" />
    <glyph glyph-name="cid4992" unicode="&#xaea1;" 
 />
    <glyph glyph-name="cid4993" unicode="&#xaea2;" 
 />
    <glyph glyph-name="cid4994" unicode="&#xaea3;" 
 />
    <glyph glyph-name="cid447" unicode="&#xaea4;" horiz-adv-x="950" 
d="M878 328l-39 -6l-38 -210l-115 45l25 144l-76 -12l-24 -177l-115 35l79 588h120l-18 -130l88 12l25 148h130l-61 -336zM290 571l-34 125l170 30l24 -81l74 -45l-152 -362l-115 60l152 297zM300 525l-145 -322l-107 70l154 267l-106 -24l-45 120l178 35zM730 415l15 88
l-83 -12l-12 -88zM335 -46l465 45l-10 -130l-465 -45l-30 85l-95 55l93 224l115 -55z" />
    <glyph glyph-name="cid4995" unicode="&#xaea5;" 
 />
    <glyph glyph-name="cid4996" unicode="&#xaea6;" 
 />
    <glyph glyph-name="cid4997" unicode="&#xaea7;" 
 />
    <glyph glyph-name="cid4998" unicode="&#xaea8;" 
 />
    <glyph glyph-name="cid4999" unicode="&#xaea9;" 
 />
    <glyph glyph-name="cid5000" unicode="&#xaeaa;" 
 />
    <glyph glyph-name="cid5001" unicode="&#xaeab;" 
 />
    <glyph glyph-name="cid5002" unicode="&#xaeac;" 
 />
    <glyph glyph-name="cid5003" unicode="&#xaead;" 
 />
    <glyph glyph-name="cid5004" unicode="&#xaeae;" 
 />
    <glyph glyph-name="cid5005" unicode="&#xaeaf;" 
 />
    <glyph glyph-name="cid5006" unicode="&#xaeb0;" 
 />
    <glyph glyph-name="cid5007" unicode="&#xaeb1;" 
 />
    <glyph glyph-name="cid5008" unicode="&#xaeb2;" 
 />
    <glyph glyph-name="cid5009" unicode="&#xaeb3;" 
 />
    <glyph glyph-name="cid5010" unicode="&#xaeb4;" 
 />
    <glyph glyph-name="cid3151" unicode="&#xaeb5;" 
 />
    <glyph glyph-name="cid5011" unicode="&#xaeb6;" 
 />
    <glyph glyph-name="cid5012" unicode="&#xaeb7;" 
 />
    <glyph glyph-name="cid5013" unicode="&#xaeb8;" 
 />
    <glyph glyph-name="cid5014" unicode="&#xaeb9;" 
 />
    <glyph glyph-name="cid5015" unicode="&#xaeba;" 
 />
    <glyph glyph-name="cid5016" unicode="&#xaebb;" 
 />
    <glyph glyph-name="cid448" unicode="&#xaebc;" horiz-adv-x="950" 
d="M907 365l-54 -10l-88 -533l-125 50l74 458l-149 -27l-9 81l-126 -339l-130 60l195 460l-119 -24l-34 130l180 30l14 -81l89 -50l-47 -127l159 28l48 294h135l-45 -272zM381 495l-197 -440l-122 70l196 385l-119 -29l-45 130l211 35z" />
    <glyph glyph-name="cid449" unicode="&#xaebd;" horiz-adv-x="950" 
d="M744 566l33 199h140l-31 -177l34 -123l-58 -10l-40 -225l-125 55l24 145l-116 -20l-20 130zM326 586l-34 125l210 30l14 -81l79 -45l-178 -372l-115 70l173 297zM336 530l-171 -332l-117 75l180 282l-112 -24l-45 120l184 35zM736 152l98 -64l-107 -284l-126 70l88 234
l-357 -56l-40 125l421 64z" />
    <glyph glyph-name="cid450" unicode="&#xaebe;" horiz-adv-x="950" 
d="M862 455l-40 -225l-125 55l24 145l-116 -20l-20 130l159 26l33 199h140l-31 -177l34 -123zM326 596l-34 125l210 30l14 -81l79 -45l-178 -372l-115 70l173 297zM336 540l-171 -332l-117 75l180 282l-112 -24l-45 120l184 35zM721 167l99 -55l-93 -304l-130 60l83 239
l-159 -24l-24 130l200 30zM440 193l66 -136l-84 -241l-116 60l77 196l-159 -29l-35 115z" />
    <glyph glyph-name="cid5017" unicode="&#xaebf;" 
 />
    <glyph glyph-name="cid451" unicode="&#xaec0;" horiz-adv-x="950" 
d="M914 412l-55 -9l-44 -281l-130 50l32 209l-148 -24l-20 130l188 29l38 249h140l-36 -229zM326 576l-34 125l210 30l14 -81l79 -45l-188 -392l-115 70l183 317zM336 520l-181 -352l-117 75l190 302l-112 -24l-45 120l184 35zM380 -45l455 45l-10 -135l-460 -45l-30 85
l-110 55l97 225l130 -55z" />
    <glyph glyph-name="cid5018" unicode="&#xaec1;" 
 />
    <glyph glyph-name="cid3152" unicode="&#xaec2;" 
 />
    <glyph glyph-name="cid3153" unicode="&#xaec3;" 
 />
    <glyph glyph-name="cid452" unicode="&#xaec4;" horiz-adv-x="950" 
d="M868 476l-33 -201l-130 50l20 126l-120 -21l-20 130l162 27l28 178h140l-27 -166l32 -114zM326 596l-34 120l220 30l14 -76l84 -55l-188 -342l-115 80l178 267zM336 540l-171 -312l-117 80l180 257l-112 -24l-45 115l184 35zM421 -68l408 37l-10 -125l-500 -32l13 107
l-40 93l389 134l-347 -38l-30 117l465 39l-10 -99l44 -90z" />
    <glyph glyph-name="cid5019" unicode="&#xaec5;" 
 />
    <glyph glyph-name="cid5020" unicode="&#xaec6;" 
 />
    <glyph glyph-name="cid5021" unicode="&#xaec7;" 
 />
    <glyph glyph-name="cid5022" unicode="&#xaec8;" 
 />
    <glyph glyph-name="cid5023" unicode="&#xaec9;" 
 />
    <glyph glyph-name="cid5024" unicode="&#xaeca;" 
 />
    <glyph glyph-name="cid5025" unicode="&#xaecb;" 
 />
    <glyph glyph-name="cid453" unicode="&#xaecc;" horiz-adv-x="950" 
d="M749 567l31 198h135l-29 -179l34 -121l-55 -10l-35 -220l-125 50l23 146l-123 -21l-20 130zM336 581l-34 120l210 30l14 -76l84 -55l-180 -353l-125 70l180 288zM346 525l-171 -322l-117 80l180 267l-122 -24l-45 115l194 35zM680 -70l175 15l-10 -105l-280 -20l-70 100
l175 165l-268 -59l-32 -206l-115 40l50 340h125l-9 -57l294 82l20 -85l90 -75z" />
    <glyph glyph-name="cid454" unicode="&#xaecd;" horiz-adv-x="950" 
d="M744 566l31 199h140l-29 -179l34 -121l-55 -10l-35 -220l-130 50l23 146l-118 -21l-20 130zM336 571l-34 120l210 30l14 -76l84 -55l-180 -353l-125 70l180 288zM346 515l-171 -322l-117 80l180 267l-122 -24l-45 115l194 35zM748 -61l118 6l-10 -105l-355 -20l-20 105
l141 7l27 93l-243 -29l-30 -176l-125 50l55 330h135l-17 -98l257 32l25 86l125 -40z" />
    <glyph glyph-name="cid5026" unicode="&#xaece;" 
 />
    <glyph glyph-name="cid455" unicode="&#xaecf;" horiz-adv-x="950" 
d="M749 567l31 198h135l-29 -180l34 -120l-54 -9l-45 -282l-125 50l32 208l-123 -22l-20 130zM336 571l-34 120l210 30l14 -76l84 -55l-180 -353l-125 70l180 288zM346 515l-171 -322l-117 80l180 267l-122 -24l-45 115l194 35zM542 60l294 -99l-50 -145l-285 119v88
l-226 -207l-99 113l389 316l80 -90z" />
    <glyph glyph-name="cid456" unicode="&#xaed0;" horiz-adv-x="950" 
d="M749 567l31 198h135l-29 -180l34 -120l-54 -9l-40 -252l-125 50l27 178l-123 -22l-20 130zM336 581l-34 120l210 30l14 -76l84 -55l-180 -353l-125 70l180 288zM58 283l180 267l-122 -24l-45 115l194 35l81 -151l-171 -322zM330 -20l-119 -160l-115 85l257 315l100 -75
l-54 -72l80 -31l-60 -110zM671 28l199 -83l-45 -125l-194 100l5 63l-135 -173l-101 84l270 312l86 -69z" />
    <glyph glyph-name="cid457" unicode="&#xaed1;" horiz-adv-x="950" 
d="M866 456l-45 -282l-125 50l32 208l-123 -22l-20 130l164 27l31 198h135l-29 -180l34 -120zM336 576l-34 120l210 30l14 -76l84 -55l-180 -353l-125 70l180 288zM346 520l-171 -322l-117 80l180 267l-122 -24l-45 115l194 35zM561 221l257 -137l-27 -101l-4 -88l-449 -79
l-34 80l-65 91l171 203l78 5zM711 8l-204 114l-132 -180z" />
    <glyph glyph-name="cid3154" unicode="&#xaed2;" 
 />
    <glyph glyph-name="cid458" unicode="&#xaed3;" horiz-adv-x="950" 
d="M753 568l32 197h130l-30 -177l35 -123l-57 -10l-39 -235l-120 50l26 162l-125 -22l-20 130zM336 591l-34 120l210 30l14 -76l84 -55l-180 -353l-125 70l180 288zM346 535l-171 -322l-117 80l180 267l-122 -24l-45 115l194 35zM347 238l357 -8l-5 -85l-347 -10zM630 -59
l237 -19l-25 -106l-285 42l7 58l-287 -109l-50 113l420 110l-322 -40l-20 101l432 21v-61l30 -58z" />
    <glyph glyph-name="cid5027" unicode="&#xaed4;" 
 />
    <glyph glyph-name="cid459" unicode="&#xaed5;" horiz-adv-x="950" 
d="M867 465l-34 -211l-125 50l22 138l-130 -22l-20 130l171 28l29 187h135l-27 -165h2l35 -125zM336 591l-34 120l210 30l14 -76l84 -55l-180 -353l-125 70l180 288zM346 535l-171 -322l-117 80l180 267l-122 -24l-45 115l194 35zM403 -78l421 40l-10 -116l-439 -40l-24 89
l-70 48l68 162l-51 -4l-25 105l540 35l-10 -105l-323 -22l-19 -48l320 28l-10 -95l-310 -25l-15 55z" />
    <glyph glyph-name="cid5028" unicode="&#xaed6;" 
 />
    <glyph glyph-name="cid5029" unicode="&#xaed7;" 
 />
    <glyph glyph-name="cid460" unicode="&#xaed8;" horiz-adv-x="950" 
d="M915 765l-128 -905l-120 45l118 860h130zM710 733l-98 -913l-114 36l48 460l-77 -22l-15 75l-99 -314l-130 60l175 450l-104 -24l-34 130l145 30l34 -81l79 -40l-49 -156l89 22l30 287h120zM306 495l-157 -420l-127 60l186 375l-109 -29l-45 130l181 35z" />
    <glyph glyph-name="cid461" unicode="&#xaed9;" horiz-adv-x="950" 
d="M920 765l-80 -540l-115 45l65 495h130zM301 571l-34 120l175 30l14 -76l74 -45l-34 -91l86 19l23 207h120l-55 -480l-115 35l14 121l-99 -22l-7 28l-81 -219l-115 60l148 337zM311 525l-156 -352l-107 60l165 307l-107 -24l-45 115l179 35zM726 132l98 -64l-107 -264
l-126 70l88 214l-397 -61l-40 115l471 69z" />
    <glyph glyph-name="cid3155" unicode="&#xaeda;" 
 />
    <glyph glyph-name="cid5030" unicode="&#xaedb;" 
 />
    <glyph glyph-name="cid462" unicode="&#xaedc;" horiz-adv-x="950" 
d="M713 166l87 599h125l-97 -649zM301 561l-34 120l175 30l14 -76l74 -45l-44 -120l93 15l31 250h118l-77 -625l-113 35l27 225l-127 -29l-56 -153l-115 60l148 337zM311 515l-156 -352l-107 60l165 307l-107 -24l-45 115l179 35zM360 -46l470 45l-10 -130l-475 -45l-20 85
l-100 55l93 224l120 -55z" />
    <glyph glyph-name="cid5031" unicode="&#xaedd;" 
 />
    <glyph glyph-name="cid5032" unicode="&#xaede;" 
 />
    <glyph glyph-name="cid3156" unicode="&#xaedf;" 
 />
    <glyph glyph-name="cid3157" unicode="&#xaee0;" 
 />
    <glyph glyph-name="cid5033" unicode="&#xaee1;" 
 />
    <glyph glyph-name="cid5034" unicode="&#xaee2;" 
 />
    <glyph glyph-name="cid5035" unicode="&#xaee3;" 
 />
    <glyph glyph-name="cid5036" unicode="&#xaee4;" 
 />
    <glyph glyph-name="cid5037" unicode="&#xaee5;" 
 />
    <glyph glyph-name="cid5038" unicode="&#xaee6;" 
 />
    <glyph glyph-name="cid5039" unicode="&#xaee7;" 
 />
    <glyph glyph-name="cid463" unicode="&#xaee8;" horiz-adv-x="950" 
d="M920 765l-80 -530l-115 45l65 485h130zM301 581l-34 120l175 30l14 -76l74 -45l-44 -103l91 20l23 208h120l-55 -490l-115 35l14 130l-94 -21l-13 50l-85 -201l-115 60l158 307zM311 535l-156 -332l-107 70l165 277l-107 -24l-45 115l179 35zM640 -70l195 15l-10 -105
l-290 -20l-60 100l185 165l-279 -70l-31 -195l-115 40l50 340h125l-9 -59l294 84l20 -85l90 -75z" />
    <glyph glyph-name="cid3158" unicode="&#xaee9;" 
 />
    <glyph glyph-name="cid5040" unicode="&#xaeea;" 
 />
    <glyph glyph-name="cid464" unicode="&#xaeeb;" horiz-adv-x="950" 
d="M920 765l-86 -589l-115 45l71 544h130zM301 591l-34 120l175 30l14 -76l74 -45l-42 -113l93 21l24 207h120l-61 -529l-115 35l19 169l-98 -21l-10 40l-78 -211l-115 60l148 337zM48 253l165 307l-107 -24l-45 115l179 35l71 -141l-156 -352zM501 35l305 -89l-50 -130
l-285 99v95l-236 -194l-94 108l396 282l70 -84z" />
    <glyph glyph-name="cid3159" unicode="&#xaeec;" 
 />
    <glyph glyph-name="cid465" unicode="&#xaeed;" horiz-adv-x="950" 
d="M920 765l-80 -540l-115 45l65 495h130zM301 571l-34 120l175 30l14 -76l74 -45l-33 -91l85 19l23 207h120l-55 -480l-115 35l14 121l-99 -22l-7 27l-76 -208l-120 50l148 337zM311 525l-156 -352l-107 60l165 307l-107 -24l-45 115l179 35zM561 211l257 -127l-27 -101
l-4 -88l-449 -79l-34 80l-65 91l171 193l78 5zM711 8l-204 104l-132 -170z" />
    <glyph glyph-name="cid5041" unicode="&#xaeee;" 
 />
    <glyph glyph-name="cid5042" unicode="&#xaeef;" 
 />
    <glyph glyph-name="cid5043" unicode="&#xaef0;" 
 />
    <glyph glyph-name="cid3160" unicode="&#xaef1;" 
 />
    <glyph glyph-name="cid5044" unicode="&#xaef2;" 
 />
    <glyph glyph-name="cid5045" unicode="&#xaef3;" 
 />
    <glyph glyph-name="cid466" unicode="&#xaef4;" horiz-adv-x="950" 
d="M879 220l-49 -5l-65 -393l-124 50l53 328l-139 -15l-15 124l175 20l15 96l-125 -15l-11 98l-169 -463l-130 60l195 470l-119 -24l-34 130l170 30l24 -81l89 -50l-14 -38l146 16l33 207h135l-70 -425zM381 495l-197 -440l-122 70l196 395l-119 -29l-45 130l211 35z" />
    <glyph glyph-name="cid3161" unicode="&#xaef5;" 
 />
    <glyph glyph-name="cid5046" unicode="&#xaef6;" 
 />
    <glyph glyph-name="cid5047" unicode="&#xaef7;" 
 />
    <glyph glyph-name="cid467" unicode="&#xaef8;" horiz-adv-x="950" 
d="M900 333l-54 -10l-31 -201l-130 50l19 126l-119 -22l-20 120l158 27l14 91l-112 -19l-20 120l151 24l19 126h140l-50 -319zM316 581l-34 120l210 30l14 -76l84 -55l-180 -373l-125 70l180 308zM326 525l-171 -342l-117 80l180 287l-122 -24l-45 115l194 35zM390 -45
l445 45l-10 -135l-440 -45l-40 85l-110 55l87 225l130 -55z" />
    <glyph glyph-name="cid5048" unicode="&#xaef9;" 
 />
    <glyph glyph-name="cid5049" unicode="&#xaefa;" 
 />
    <glyph glyph-name="cid3162" unicode="&#xaefb;" 
 />
    <glyph glyph-name="cid468" unicode="&#xaefc;" horiz-adv-x="950" 
d="M907 383l-52 -9l-19 -120l-120 50l7 47l-131 -23l-20 120l171 28l13 82l-124 -21l-20 120l163 25l13 83h130l-44 -274zM336 591l-34 120l210 30l14 -76l74 -55l-180 -353l-115 70l180 288zM346 535l-171 -322l-117 80l180 267l-122 -24l-45 115l194 35zM391 -65l448 42
l-10 -127l-525 -38l8 119l-35 84l414 127l-372 -43l-30 111l485 40l-5 -89l40 -82z" />
    <glyph glyph-name="cid5050" unicode="&#xaefd;" 
 />
    <glyph glyph-name="cid5051" unicode="&#xaefe;" 
 />
    <glyph glyph-name="cid5052" unicode="&#xaeff;" 
 />
    <glyph glyph-name="cid5053" unicode="&#xaf00;" 
 />
    <glyph glyph-name="cid5054" unicode="&#xaf01;" 
 />
    <glyph glyph-name="cid5055" unicode="&#xaf02;" 
 />
    <glyph glyph-name="cid5056" unicode="&#xaf03;" 
 />
    <glyph glyph-name="cid3163" unicode="&#xaf04;" 
 />
    <glyph glyph-name="cid3164" unicode="&#xaf05;" 
 />
    <glyph glyph-name="cid5057" unicode="&#xaf06;" 
 />
    <glyph glyph-name="cid469" unicode="&#xaf07;" horiz-adv-x="950" 
d="M910 383l-57 -10l-32 -199l-125 50l19 125l-130 -23l-20 120l170 28l12 82l-122 -21l-20 120l162 25l13 85h135l-43 -267h3zM316 581l-34 120l210 30l14 -76l84 -55l-180 -353l-125 70l180 288zM326 525l-171 -322l-117 80l180 267l-122 -24l-45 115l194 35zM542 60
l294 -99l-50 -145l-285 119v88l-226 -207l-99 113l389 316l80 -90z" />
    <glyph glyph-name="cid470" unicode="&#xaf08;" horiz-adv-x="950" 
d="M875 498l35 -115l-55 -10l-26 -170l-125 50l14 97l-143 -25l-20 120l182 30l12 81l-134 -22l-20 120l172 26l13 85h135l-41 -267h1zM316 581l-34 120l210 30l14 -76l84 -55l-180 -353l-125 70l180 288zM38 283l180 267l-122 -24l-45 115l194 35l81 -151l-171 -322z
M330 -20l-119 -160l-115 85l257 315l100 -75l-54 -72l80 -31l-60 -110zM671 28l199 -83l-45 -125l-194 100l5 63l-135 -173l-101 84l270 312l86 -69z" />
    <glyph glyph-name="cid471" unicode="&#xaf09;" horiz-adv-x="950" 
d="M910 383l-57 -10l-32 -199l-125 50l19 125l-120 -21l-20 120l160 27l13 81l-113 -19l-20 120l152 23l13 85h135l-43 -267h3zM316 581l-34 120l210 30l14 -76l84 -55l-180 -353l-125 70l180 288zM326 525l-171 -322l-117 80l180 267l-122 -24l-45 115l194 35zM561 221
l257 -137l-27 -101l-4 -88l-449 -79l-34 80l-65 91l171 203l78 5zM711 8l-204 114l-132 -180z" />
    <glyph glyph-name="cid5058" unicode="&#xaf0a;" 
 />
    <glyph glyph-name="cid5059" unicode="&#xaf0b;" 
 />
    <glyph glyph-name="cid5060" unicode="&#xaf0c;" 
 />
    <glyph glyph-name="cid472" unicode="&#xaf0d;" horiz-adv-x="950" 
d="M907 383l-52 -9l-19 -120l-125 50l7 46l-126 -22l-20 120l166 28l12 81l-118 -20l-20 120l158 24l13 84h135l-44 -274zM336 591l-34 120l210 30l14 -76l84 -55l-180 -353l-125 70l180 288zM346 535l-171 -322l-117 80l180 267l-122 -24l-45 115l194 35zM403 -78l421 40
l-10 -116l-439 -40l-24 89l-70 48l68 162l-51 -4l-25 105l540 35l-10 -105l-323 -22l-19 -48l320 28l-10 -95l-310 -25l-15 55z" />
    <glyph glyph-name="cid5061" unicode="&#xaf0e;" 
 />
    <glyph glyph-name="cid5062" unicode="&#xaf0f;" 
 />
    <glyph glyph-name="cid473" unicode="&#xaf10;" horiz-adv-x="950" 
d="M920 765l-128 -905l-120 45l118 860h130zM715 733l-98 -913l-114 36l39 368l-86 -14l-15 112l113 16l9 91l-69 -10l-8 62l-136 -411l-120 55l165 430l-99 -24l-34 130l150 30l24 -81l79 -40l-12 -36l72 7l20 192h120zM306 485l-157 -400l-117 60l166 355l-109 -29
l-45 130l191 35z" />
    <glyph glyph-name="cid5063" unicode="&#xaf11;" 
 />
    <glyph glyph-name="cid5064" unicode="&#xaf12;" 
 />
    <glyph glyph-name="cid5065" unicode="&#xaf13;" 
 />
    <glyph glyph-name="cid5066" unicode="&#xaf14;" 
 />
    <glyph glyph-name="cid5067" unicode="&#xaf15;" 
 />
    <glyph glyph-name="cid5068" unicode="&#xaf16;" 
 />
    <glyph glyph-name="cid3165" unicode="&#xaf17;" 
 />
    <glyph glyph-name="cid5069" unicode="&#xaf18;" 
 />
    <glyph glyph-name="cid5070" unicode="&#xaf19;" 
 />
    <glyph glyph-name="cid5071" unicode="&#xaf1a;" 
 />
    <glyph glyph-name="cid5072" unicode="&#xaf1b;" 
 />
    <glyph glyph-name="cid5073" unicode="&#xaf1c;" 
 />
    <glyph glyph-name="cid5074" unicode="&#xaf1d;" 
 />
    <glyph glyph-name="cid5075" unicode="&#xaf1e;" 
 />
    <glyph glyph-name="cid5076" unicode="&#xaf1f;" 
 />
    <glyph glyph-name="cid5077" unicode="&#xaf20;" 
 />
    <glyph glyph-name="cid5078" unicode="&#xaf21;" 
 />
    <glyph glyph-name="cid5079" unicode="&#xaf22;" 
 />
    <glyph glyph-name="cid5080" unicode="&#xaf23;" 
 />
    <glyph glyph-name="cid5081" unicode="&#xaf24;" 
 />
    <glyph glyph-name="cid3166" unicode="&#xaf25;" 
 />
    <glyph glyph-name="cid5082" unicode="&#xaf26;" 
 />
    <glyph glyph-name="cid5083" unicode="&#xaf27;" 
 />
    <glyph glyph-name="cid5084" unicode="&#xaf28;" 
 />
    <glyph glyph-name="cid5085" unicode="&#xaf29;" 
 />
    <glyph glyph-name="cid5086" unicode="&#xaf2a;" 
 />
    <glyph glyph-name="cid5087" unicode="&#xaf2b;" 
 />
    <glyph glyph-name="cid474" unicode="&#xaf2c;" horiz-adv-x="950" 
d="M458 533l-39 145l290 36l24 -106l92 -50l-88 -314l-140 60l85 259zM120 473l-40 135l269 43l120 -169l-116 -292l-140 60l109 260zM905 108v-135l-845 -75l-15 130l354 33l54 202l135 -30l-37 -158z" />
    <glyph glyph-name="cid475" unicode="&#xaf2d;" horiz-adv-x="950" 
d="M458 583l-39 135l280 36l24 -96l92 -50l-88 -224l-130 60l75 169zM170 523l-40 125l229 43l95 -159l-116 -172l-105 70l99 130zM905 375v-115l-845 -85l-15 115l373 37l37 147l115 -30l-30 -105zM706 102l98 -64l-97 -234l-126 70l78 184l-417 -56l-40 120l481 64z" />
    <glyph glyph-name="cid5088" unicode="&#xaf2e;" 
 />
    <glyph glyph-name="cid5089" unicode="&#xaf2f;" 
 />
    <glyph glyph-name="cid476" unicode="&#xaf30;" horiz-adv-x="950" 
d="M458 573l-39 135l280 36l24 -96l92 -50l-88 -234l-130 60l75 179zM170 513l-40 125l229 43l95 -159l-116 -182l-105 70l99 140zM905 355v-120l-845 -85l-15 120l371 37l39 157l115 -30l-32 -115zM325 -56l475 45l-10 -130l-470 -45l-40 85l-100 55l86 199l125 -55z" />
    <glyph glyph-name="cid3167" unicode="&#xaf31;" 
 />
    <glyph glyph-name="cid477" unicode="&#xaf32;" horiz-adv-x="950" 
d="M458 598l-39 125l280 36l24 -86l87 -50l-78 -204l-115 60l60 149zM170 538l-40 115l229 43l95 -149l-96 -152l-100 70l79 110zM905 415v-105l-845 -85l-15 105l399 39l25 140l119 -25l-23 -103zM774 228l-8 -88l-257 10l5 100zM284 -60l205 16l-10 -117l-215 -19l-20 85
l-95 50l94 249l120 -50zM769 13l65 -90l-45 -85l-225 -28l-65 114l104 98l-112 -11l-7 101l302 -5l3 -66l-53 -5l-122 -141l110 19l-26 62z" />
    <glyph glyph-name="cid478" unicode="&#xaf33;" horiz-adv-x="950" 
d="M458 583l-39 135l280 36l24 -96l92 -50l-88 -234l-130 60l75 179zM170 523l-40 125l229 43l95 -159l-116 -182l-105 70l99 140zM905 365v-115l-845 -85l-15 115l373 37l37 147l115 -30l-30 -105zM359 -55l436 41v-131l-469 -40l-19 84l-80 49l43 85l-46 -3l-30 110
l585 45v-115l-374 -27z" />
    <glyph glyph-name="cid479" unicode="&#xaf34;" horiz-adv-x="950" 
d="M458 598l-39 125l280 36l24 -86l87 -50l-78 -204l-115 60l60 149zM170 538l-40 115l229 43l95 -149l-96 -152l-100 70l79 110zM905 415v-105l-845 -85l-15 105l399 39l25 140l119 -25l-23 -103zM341 -80l458 62l-10 -125l-545 -47l8 107l-30 73l429 144l-397 -63l-30 122
l510 49l-5 -89l30 -85z" />
    <glyph glyph-name="cid5090" unicode="&#xaf35;" 
 />
    <glyph glyph-name="cid3168" unicode="&#xaf36;" 
 />
    <glyph glyph-name="cid5091" unicode="&#xaf37;" 
 />
    <glyph glyph-name="cid3169" unicode="&#xaf38;" 
 />
    <glyph glyph-name="cid5092" unicode="&#xaf39;" 
 />
    <glyph glyph-name="cid5093" unicode="&#xaf3a;" 
 />
    <glyph glyph-name="cid3170" unicode="&#xaf3b;" 
 />
    <glyph glyph-name="cid480" unicode="&#xaf3c;" horiz-adv-x="950" 
d="M458 583l-39 135l280 36l24 -96l92 -50l-88 -234l-130 60l75 179zM170 523l-40 125l229 43l95 -159l-116 -182l-105 70l99 140zM905 365v-115l-845 -85l-15 115l373 37l37 147l115 -30l-30 -105zM645 -70l180 15l-10 -105l-280 -20l-60 100l180 135l-312 -68l-28 -167
l-115 50l45 275h125l-7 -40l347 85l10 -85l90 -75z" />
    <glyph glyph-name="cid481" unicode="&#xaf3d;" horiz-adv-x="950" 
d="M458 583l-39 135l280 36l24 -96l92 -50l-78 -214l-130 60l65 159zM170 523l-40 125l229 43l95 -159l-106 -162l-105 70l89 120zM905 390v-115l-845 -85l-15 115l387 38l33 131l115 -30l-25 -89zM699 -43l96 9l-13 -115l-332 -31l-31 111l153 14l16 67l-235 -24l-23 -168
l-120 50l39 309h130l-11 -84l246 26l24 97l125 -30z" />
    <glyph glyph-name="cid5094" unicode="&#xaf3e;" 
 />
    <glyph glyph-name="cid482" unicode="&#xaf3f;" horiz-adv-x="950" 
d="M458 593l-39 135l280 36l24 -96l92 -50l-78 -214l-130 60l65 159zM170 533l-40 125l229 43l95 -159l-106 -162l-105 70l89 120zM905 375v-120l-845 -85l-15 120l383 38l37 156l119 -30l-30 -114zM543 27l292 -65l-40 -142l-316 94l15 78l-256 -182l-91 126l416 251
l69 -97z" />
    <glyph glyph-name="cid5095" unicode="&#xaf40;" 
 />
    <glyph glyph-name="cid483" unicode="&#xaf41;" horiz-adv-x="950" 
d="M458 588l-39 130l280 36l24 -91l92 -50l-88 -224l-130 60l75 169zM170 528l-40 120l229 43l95 -154l-116 -172l-105 70l99 130zM905 380v-115l-845 -85l-15 115l373 37l37 147l115 -30l-30 -105zM526 196l267 -132l-27 -91l-4 -83l-479 -85l-34 86l-65 91l191 183l78 5z
M681 -12l-209 104l-152 -155z" />
    <glyph glyph-name="cid484" unicode="&#xaf42;" horiz-adv-x="950" 
d="M458 598l-39 130l280 36l24 -91l92 -50l-78 -214l-130 60l65 159zM170 538l-40 120l229 43l95 -154l-106 -162l-105 70l89 120zM905 405v-120l-845 -85l-15 120l380 38l30 131l119 -25l-24 -94zM581 -21l264 -24l-35 -135l-313 60l14 68l-291 -131l-70 125l465 166
l-305 -48l-35 125l410 35l-2 -90l56 -80z" />
    <glyph glyph-name="cid485" unicode="&#xaf43;" horiz-adv-x="950" 
d="M458 608l-39 125l280 36l24 -86l87 -50l-78 -204l-115 60l60 149zM150 548l-40 115l249 43l95 -149l-96 -152l-100 70l79 110zM905 425v-105l-845 -85l-15 105l401 40l23 129l119 -25l-21 -92zM694 156l-417 -21l-5 95l427 11zM617 -52l245 -24l-25 -122l-305 59l6 58
l-336 -122l-50 120l480 117l-382 -42l-20 102l487 22v-60l30 -61z" />
    <glyph glyph-name="cid5096" unicode="&#xaf44;" 
 />
    <glyph glyph-name="cid486" unicode="&#xaf45;" horiz-adv-x="950" 
d="M458 598l-39 125l280 36l24 -86l87 -50l-78 -204l-115 60l60 149zM150 538l-40 115l249 43l95 -149l-96 -152l-100 70l79 110zM905 415v-110l-845 -85l-15 110l399 39l25 140l119 -25l-23 -103zM331 -85l470 40v-115l-485 -39l-25 85l-75 59l70 153l-63 -5l-20 100
l570 43v-103l-367 -27l-20 -49l365 33v-95l-360 -35l-17 65z" />
    <glyph glyph-name="cid5097" unicode="&#xaf46;" 
 />
    <glyph glyph-name="cid3171" unicode="&#xaf47;" 
 />
    <glyph glyph-name="cid487" unicode="&#xaf48;" horiz-adv-x="950" 
d="M940 365l-132 -27l-93 -518l-120 50l76 440h-1l-30 130l56 11l54 314h135l-52 -286l107 21v-135zM346 566l-34 125l205 30l19 -81l89 -45l-133 -306l-120 60l113 241zM109 506l-45 125l211 35l81 -156l-164 -289l-117 70l173 244zM599 91l-519 -96l-30 135l214 30l32 150
l123 -28l-27 -105l207 29v-115z" />
    <glyph glyph-name="cid488" unicode="&#xaf49;" horiz-adv-x="950" 
d="M920 485l-111 -18l-39 -250l-125 45l27 183h-1l-30 130l52 8l27 182h135l-25 -159l90 14v-135zM346 576l-34 125l200 30l19 -81l73 -30l-58 -215l-110 45l54 150zM109 516l-45 125l201 35l71 -136l-93 -189l-97 65l87 129zM624 276l-549 -91l-25 115l249 33l21 116
l110 -16l-18 -85l212 28v-100zM666 137l98 -54l-107 -274l-121 60l88 224l-382 -61l-40 115l441 69z" />
    <glyph glyph-name="cid5098" unicode="&#xaf4a;" 
 />
    <glyph glyph-name="cid5099" unicode="&#xaf4b;" 
 />
    <glyph glyph-name="cid489" unicode="&#xaf4c;" horiz-adv-x="950" 
d="M918 430l-125 -20l-53 -304l-125 45l46 272l-22 97l40 6l41 239h135l-38 -216l101 16v-135zM346 571l-34 125l200 30l19 -81l73 -30l-58 -215l-110 45l54 150zM109 511l-45 125l201 35l71 -136l-93 -189l-97 65l87 129zM624 266l-549 -91l-25 115l242 32l23 127l110 -16
l-20 -96l219 29v-100zM320 -45l465 45l-10 -135l-460 -45l-40 85l-105 55l72 220l130 -50z" />
    <glyph glyph-name="cid5100" unicode="&#xaf4d;" 
 />
    <glyph glyph-name="cid5101" unicode="&#xaf4e;" 
 />
    <glyph glyph-name="cid3172" unicode="&#xaf4f;" 
 />
    <glyph glyph-name="cid490" unicode="&#xaf50;" horiz-adv-x="950" 
d="M920 485l-115 -19l-35 -208l-120 45l24 149l-28 123l49 8l30 182h130l-27 -160l92 15v-135zM346 596l-34 125l200 30l19 -81l73 -30l-58 -215l-110 45l54 150zM109 536l-45 125l201 35l71 -136l-93 -189l-97 65l87 129zM619 311l-539 -81l-30 115l251 27l19 107l110 -16
l-17 -79l206 22v-95zM361 -68l408 42l-10 -125l-495 -37l8 117l-35 83l384 134l-347 -43l-30 112l460 39l-5 -89l40 -90z" />
    <glyph glyph-name="cid5102" unicode="&#xaf51;" 
 />
    <glyph glyph-name="cid5103" unicode="&#xaf52;" 
 />
    <glyph glyph-name="cid5104" unicode="&#xaf53;" 
 />
    <glyph glyph-name="cid5105" unicode="&#xaf54;" 
 />
    <glyph glyph-name="cid5106" unicode="&#xaf55;" 
 />
    <glyph glyph-name="cid5107" unicode="&#xaf56;" 
 />
    <glyph glyph-name="cid5108" unicode="&#xaf57;" 
 />
    <glyph glyph-name="cid3173" unicode="&#xaf58;" 
 />
    <glyph glyph-name="cid3174" unicode="&#xaf59;" 
 />
    <glyph glyph-name="cid5109" unicode="&#xaf5a;" 
 />
    <glyph glyph-name="cid3175" unicode="&#xaf5b;" 
 />
    <glyph glyph-name="cid491" unicode="&#xaf5c;" horiz-adv-x="950" 
d="M920 620v-135l-111 -18l-39 -250l-125 45l27 183h-1l-30 130l52 8l27 182h135l-25 -159zM346 581l-34 125l200 30l19 -81l73 -30l-58 -215l-110 45l54 150zM109 521l-45 125l201 35l71 -136l-93 -189l-97 65l87 129zM624 276l-549 -91l-25 115l242 32l23 127l110 -16
l-20 -96l219 29v-100zM314 -22l-113 -158l-115 75l257 315l90 -65l-52 -73l78 -30l-60 -110zM646 30l214 -85l-55 -125l-194 100l6 71l-136 -181l-101 84l260 312l86 -69z" />
    <glyph glyph-name="cid492" unicode="&#xaf5d;" horiz-adv-x="950" 
d="M920 485l-111 -18l-39 -250l-125 45l27 183h-1l-30 130l52 8l27 182h135l-25 -159l90 14v-135zM346 586l-34 125l200 30l19 -81l73 -30l-58 -215l-110 45l54 150zM109 526l-45 125l201 35l71 -136l-93 -189l-97 65l87 129zM624 276l-549 -91l-25 115l247 33l23 126
l110 -16l-20 -95l214 28v-100zM531 216l252 -142l-27 -101l-4 -83l-424 -75l-34 81l-65 91l151 198l78 5zM676 3l-199 109l-102 -170z" />
    <glyph glyph-name="cid5110" unicode="&#xaf5e;" 
 />
    <glyph glyph-name="cid5111" unicode="&#xaf5f;" 
 />
    <glyph glyph-name="cid5112" unicode="&#xaf60;" 
 />
    <glyph glyph-name="cid5113" unicode="&#xaf61;" 
 />
    <glyph glyph-name="cid5114" unicode="&#xaf62;" 
 />
    <glyph glyph-name="cid5115" unicode="&#xaf63;" 
 />
    <glyph glyph-name="cid493" unicode="&#xaf64;" horiz-adv-x="950" 
d="M920 350l-51 -14l-68 -476l-118 44l54 395l-84 -23l-54 -456l-116 50l100 863h125l-38 -317l86 22l44 327h130l-43 -302zM286 536l-34 125l175 30l19 -81l74 -40l-103 -306l-115 55l103 241zM89 476l-45 125l181 35l81 -156l-134 -259l-117 70l143 214zM299 47l-4 1
l-215 -39l-30 125l163 22l17 139l109 -13l-19 -112l169 23v-110l-190 -34v-2z" />
    <glyph glyph-name="cid494" unicode="&#xaf65;" horiz-adv-x="950" 
d="M881 468l-41 -279l-120 45l29 205l-70 -15l-25 -215l-115 35l56 491h120l-21 -179l73 14l28 195h130l-25 -172l30 -114zM286 566l-34 125l175 30l19 -81l69 -30l-64 -215l-110 45l64 150zM99 506l-45 125l161 35l81 -136l-93 -199l-97 65l92 139zM519 238l-434 -68
l-25 115l201 21l32 111l99 -26l-22 -73l149 16v-96zM706 112l98 -44l-92 -262l-116 60l68 202l-382 -61l-40 110l451 69z" />
    <glyph glyph-name="cid5116" unicode="&#xaf66;" 
 />
    <glyph glyph-name="cid5117" unicode="&#xaf67;" 
 />
    <glyph glyph-name="cid495" unicode="&#xaf68;" horiz-adv-x="950" 
d="M874 414l-49 -330l-120 45l36 255l-69 -16l-32 -269l-115 35l70 601h120l-28 -239l72 14l36 255h130l-34 -228h2l35 -110zM291 566l-34 125l175 30l19 -81l69 -30l-74 -225l-110 45l74 160zM104 506l-45 125l161 35l81 -136l-93 -199l-97 65l92 139zM519 238l-434 -68
l-25 115l180 19l33 113l99 -26l-23 -75l170 18v-96zM340 -46l460 45l-10 -130l-455 -45l-40 85l-100 55l93 224l130 -55z" />
    <glyph glyph-name="cid5118" unicode="&#xaf69;" 
 />
    <glyph glyph-name="cid5119" unicode="&#xaf6a;" 
 />
    <glyph glyph-name="cid3176" unicode="&#xaf6b;" 
 />
    <glyph glyph-name="cid3177" unicode="&#xaf6c;" 
 />
    <glyph glyph-name="cid5120" unicode="&#xaf6d;" 
 />
    <glyph glyph-name="cid5121" unicode="&#xaf6e;" 
 />
    <glyph glyph-name="cid5122" unicode="&#xaf6f;" 
 />
    <glyph glyph-name="cid5123" unicode="&#xaf70;" 
 />
    <glyph glyph-name="cid5124" unicode="&#xaf71;" 
 />
    <glyph glyph-name="cid5125" unicode="&#xaf72;" 
 />
    <glyph glyph-name="cid5126" unicode="&#xaf73;" 
 />
    <glyph glyph-name="cid3178" unicode="&#xaf74;" 
 />
    <glyph glyph-name="cid3179" unicode="&#xaf75;" 
 />
    <glyph glyph-name="cid5127" unicode="&#xaf76;" 
 />
    <glyph glyph-name="cid5128" unicode="&#xaf77;" 
 />
    <glyph glyph-name="cid496" unicode="&#xaf78;" horiz-adv-x="950" 
d="M654 209l-115 35l56 491h120l-21 -179l73 14l28 195h130l-25 -172l30 -114l-49 -11l-41 -279l-120 45l29 205l-70 -15zM291 566l-34 125l175 30l19 -81l69 -30l-74 -225l-110 45l74 160zM104 506l-45 125l161 35l81 -136l-93 -199l-97 65l92 139zM519 243l-434 -73
l-25 115l185 20l33 112l99 -26l-23 -75l165 18v-91zM330 -27l-114 -153l-110 85l246 276l85 -65l-45 -60l90 -49l-72 -92zM667 20l209 -89l-63 -116l-183 94l11 75l-120 -169l-111 75l239 290l86 -65z" />
    <glyph glyph-name="cid497" unicode="&#xaf79;" horiz-adv-x="950" 
d="M880 468l-40 -269l-120 45l28 195l-69 -15l-23 -205l-115 35l54 481h120l-20 -179l72 14l28 195h130l-26 -170l31 -116zM291 566l-34 125l175 30l19 -81l69 -30l-74 -225l-110 45l74 160zM104 506l-45 125l161 35l81 -136l-93 -199l-97 65l92 139zM519 253l-434 -73
l-25 115l183 20l30 102l99 -26l-20 -65l167 18v-91zM561 221l267 -137l-27 -101l-4 -88l-469 -89l-34 80l-65 91l181 213l78 5zM721 8l-214 114l-142 -190z" />
    <glyph glyph-name="cid5129" unicode="&#xaf7a;" 
 />
    <glyph glyph-name="cid5130" unicode="&#xaf7b;" 
 />
    <glyph glyph-name="cid5131" unicode="&#xaf7c;" 
 />
    <glyph glyph-name="cid5132" unicode="&#xaf7d;" 
 />
    <glyph glyph-name="cid5133" unicode="&#xaf7e;" 
 />
    <glyph glyph-name="cid5134" unicode="&#xaf7f;" 
 />
    <glyph glyph-name="cid498" unicode="&#xaf80;" horiz-adv-x="950" 
d="M930 765l-165 -945l-124 55l154 890h135zM381 551l-34 135l205 30l19 -81l89 -35l-87 -321l-125 50l82 246zM124 491l-45 135l231 35l76 -146l-108 -276l-122 50l107 231zM644 52l-544 -92l-30 130l242 37l33 185l123 -29l-31 -137l207 31v-125z" />
    <glyph glyph-name="cid3180" unicode="&#xaf81;" 
 />
    <glyph glyph-name="cid5135" unicode="&#xaf82;" 
 />
    <glyph glyph-name="cid5136" unicode="&#xaf83;" 
 />
    <glyph glyph-name="cid499" unicode="&#xaf84;" horiz-adv-x="950" 
d="M686 118l104 647h130l-114 -692zM379 568l-36 126l204 31l20 -69l88 -37l-78 -235l-120 53l67 156zM167 516l-47 120l180 32l74 -122l-89 -196l-110 52l86 139zM687 238l-582 -100l-35 115l247 36l35 147l118 -24l-25 -104l235 35zM390 -45l445 45l-10 -135l-440 -45
l-40 85l-110 55l72 190l130 -55z" />
    <glyph glyph-name="cid5137" unicode="&#xaf85;" 
 />
    <glyph glyph-name="cid5138" unicode="&#xaf86;" 
 />
    <glyph glyph-name="cid3181" unicode="&#xaf87;" 
 />
    <glyph glyph-name="cid500" unicode="&#xaf88;" horiz-adv-x="950" 
d="M920 765l-86 -502l-120 45l76 457h130zM379 593l-36 126l214 31l10 -79l88 -37l-68 -205l-110 43l57 146zM157 541l-37 120l180 32l74 -122l-89 -196l-100 52l86 139zM692 323l-592 -100l-30 115l258 34l24 89l118 -24l-16 -49l231 30zM391 -75l438 40l-10 -118l-505 -35
l8 110l-35 79l414 146l-387 -40l-20 116l470 36l-5 -98l40 -76z" />
    <glyph glyph-name="cid5139" unicode="&#xaf89;" 
 />
    <glyph glyph-name="cid5140" unicode="&#xaf8a;" 
 />
    <glyph glyph-name="cid5141" unicode="&#xaf8b;" 
 />
    <glyph glyph-name="cid5142" unicode="&#xaf8c;" 
 />
    <glyph glyph-name="cid5143" unicode="&#xaf8d;" 
 />
    <glyph glyph-name="cid5144" unicode="&#xaf8e;" 
 />
    <glyph glyph-name="cid5145" unicode="&#xaf8f;" 
 />
    <glyph glyph-name="cid501" unicode="&#xaf90;" horiz-adv-x="950" 
d="M825 195l-120 45l85 525h130zM379 578l-36 126l204 31l20 -69l88 -37l-78 -235l-105 53l67 156zM167 526l-47 120l180 32l69 -122l-89 -196l-100 52l86 139zM677 268l-572 -110l-35 125l253 34l29 129l118 -24l-25 -89l225 30zM680 -70l175 15l-10 -105l-290 -20l-60 80
l175 150l-279 -55l-31 -175l-115 40l50 295h125l-8 -44l313 74l10 -75l90 -80z" />
    <glyph glyph-name="cid502" unicode="&#xaf91;" horiz-adv-x="950" 
d="M828 215l-130 45l82 505h140zM379 588l-36 126l204 31l20 -69l88 -37l-78 -235l-120 53l67 156zM167 536l-47 120l180 32l74 -122l-89 -196l-110 52l86 139zM677 278l-572 -100l-35 115l254 38l28 125l118 -24l-18 -82l218 33zM747 -61l113 6l-10 -105l-365 -20l-20 105
l145 7l23 82l-231 -28l-27 -166l-130 50l50 315h140l-14 -87l244 29l24 88l131 -40z" />
    <glyph glyph-name="cid5146" unicode="&#xaf92;" 
 />
    <glyph glyph-name="cid3182" unicode="&#xaf93;" 
 />
    <glyph glyph-name="cid3183" unicode="&#xaf94;" 
 />
    <glyph glyph-name="cid503" unicode="&#xaf95;" horiz-adv-x="950" 
d="M825 195l-130 45l85 525h140zM379 593l-36 126l204 31l20 -69l88 -37l-78 -235l-120 53l67 156zM167 541l-47 120l180 32l74 -122l-89 -196l-110 52l86 139zM677 283l-572 -100l-35 115l254 38l28 125l118 -24l-18 -82l218 33zM571 221l257 -137l-27 -101l-4 -88
l-449 -79l-34 80l-65 91l171 203l78 5zM721 8l-204 114l-132 -180z" />
    <glyph glyph-name="cid5147" unicode="&#xaf96;" 
 />
    <glyph glyph-name="cid5148" unicode="&#xaf97;" 
 />
    <glyph glyph-name="cid5149" unicode="&#xaf98;" 
 />
    <glyph glyph-name="cid5150" unicode="&#xaf99;" 
 />
    <glyph glyph-name="cid5151" unicode="&#xaf9a;" 
 />
    <glyph glyph-name="cid5152" unicode="&#xaf9b;" 
 />
    <glyph glyph-name="cid504" unicode="&#xaf9c;" horiz-adv-x="950" 
d="M458 533l-39 145l280 36l34 -106l92 -45l-78 -284l-140 55l75 229zM120 473l-40 135l269 43l115 -164l-106 -252l-135 55l99 220zM905 103v-125l-845 -75l-15 120l223 21l24 171l135 -20l-26 -139l121 11l43 203l135 -25l-42 -165z" />
    <glyph glyph-name="cid5153" unicode="&#xaf9d;" 
 />
    <glyph glyph-name="cid5154" unicode="&#xaf9e;" 
 />
    <glyph glyph-name="cid5155" unicode="&#xaf9f;" 
 />
    <glyph glyph-name="cid3184" unicode="&#xafa0;" 
 />
    <glyph glyph-name="cid5156" unicode="&#xafa1;" 
 />
    <glyph glyph-name="cid5157" unicode="&#xafa2;" 
 />
    <glyph glyph-name="cid3185" unicode="&#xafa3;" 
 />
    <glyph glyph-name="cid3186" unicode="&#xafa4;" 
 />
    <glyph glyph-name="cid5158" unicode="&#xafa5;" 
 />
    </font>
</defs>
</svg>
