<?xml version="1.0" standalone="no"?>
<!DOCTYPE svg PUBLIC "-//W3C//DTD SVG 1.1//EN" "http://www.w3.org/Graphics/SVG/1.1/DTD/svg11.dtd" >
<svg xmlns="http://www.w3.org/2000/svg" xmlns:xlink="http://www.w3.org/1999/xlink" version="1.1">
<metadata>
Created by FontForge 20170731 at Mon Oct 21 01:41:14 2019
 By Aleksey,,,
Copyright 2019. Mapo-Gu All rignts Reserved.
</metadata>
<defs>
<font id="MapoBackpacking" horiz-adv-x="1000" >
  <font-face 
    font-family="MapoBackpacking"
    font-weight="400"
    font-stretch="normal"
    units-per-em="1000"
    panose-1="2 0 5 0 0 0 0 0 0 0"
    ascent="800"
    descent="-200"
    x-height="468.5"
    cap-height="670"
    bbox="10 -176 1985 889"
    underline-thickness="50"
    underline-position="-150"
    unicode-range="U+0020-FF5D"
  />
<missing-glyph horiz-adv-x="840" 
d="M782 748v-896h-724v896h724zM154 693l266 -342l266 342h-532zM370 300l-256 332v-674zM726 632l-256 -332l256 -342v674zM420 259l-256 -347h512z" />
    <glyph glyph-name="cid3001" unicode="ff" horiz-adv-x="626" 
d="M455 457q41 2 74 4.5t56 6.5v-96q-23 -3 -56.5 -5t-75.5 -4q0 -84 3 -174.5t10 -172.5h-100q-6 82 -10 169t-3 175q-35 -1 -70.5 -1h-70.5q0 -83 3 -172.5t10 -170.5h-99q-6 82 -10 169t-3 175q-52 0 -83 3v96q16 -2 37 -3t47 -2l3 65q4 65 25 104.5t69 51.5
q32 8 63.5 6.5t58.5 -12.5l-9 -95q-17 4 -36 5t-36 -5q-11 -4 -17.5 -9.5t-10.5 -14.5t-5.5 -23.5t-2.5 -36.5l-2 -38h69.5t70.5 1l3 66q4 65 25 104.5t69 51.5q29 8 68.5 8t76.5 -12l-19 -99q-19 6 -42.5 7.5t-40.5 -2.5q-22 -5 -28.5 -24t-8.5 -63z" />
    <glyph glyph-name="cid3002" unicode="fi" horiz-adv-x="495" 
d="M457 468q-3 -52 -4 -109.5t0.5 -116.5t4 -116.5t7.5 -109.5h-96q-6 82 -9.5 172t-3.5 176q-66 -4 -136 -6q-1 -82 2.5 -171.5t10.5 -170.5h-100q-6 84 -10.5 170.5t-3.5 171.5q-23 1 -45 2t-44 3v96q45 -4 92 -6l3 50q6 72 41.5 116t83.5 58q50 15 101 11.5t102 -23.5
l-23 -99q-40 18 -77.5 23.5t-72.5 -8.5q-26 -11 -38.5 -33t-15.5 -58l-3 -38q62 1 121 5t113 11z" />
    <glyph glyph-name="cid3003" unicode="fl" horiz-adv-x="506" 
d="M476 661q-9 -72 -14 -153.5t-5.5 -166t2 -167.5t7.5 -158h-98q-3 66 -5 139.5t-2 148t2 147t7 136.5q-24 5 -47 3.5t-43 -9.5q-26 -11 -38.5 -33t-15.5 -58l-3 -36q20 1 39 2t38 3v-94q-20 -2 -40 -3l-40 -2q-1 -83 2.5 -173t10.5 -171h-100q-6 84 -10.5 171t-3.5 172
q-24 0 -46.5 1t-42.5 3v96q42 -4 92 -6l3 50q6 72 41.5 116t83.5 58q25 7 54 9.5t59 0t59 -9t54 -16.5z" />
    <glyph glyph-name="cid3004" unicode="ffi" horiz-adv-x="723" 
d="M685 468q-3 -52 -4 -109.5t0.5 -116.5t4 -116.5t7.5 -109.5h-96q-6 83 -9.5 173t-3.5 176q-66 -4 -134 -6q-1 -83 2.5 -172.5t10.5 -170.5h-100q-6 83 -10.5 169.5t-3.5 171.5q-69 -1 -137 0q0 -82 3 -171t10 -170h-99q-6 82 -10 169t-3 174l-83 4v96l84 -5l3 65
q4 65 25 104.5t69 51.5q32 8 67.5 6.5t62.5 -12.5l-17 -95q-17 4 -36 5t-36 -5q-11 -4 -17.5 -9.5t-10.5 -14.5t-5.5 -23.5t-2.5 -36.5l-2 -39q35 -1 69 -1.5t69 0.5q0 14 1 27l2 26q6 72 40.5 116t82.5 58q50 15 101 11.5t102 -23.5l-23 -99q-40 18 -77.5 23.5t-72.5 -8.5
q-26 -11 -37.5 -33t-14.5 -58l-3 -38q59 2 116.5 6t115.5 10z" />
    <glyph glyph-name="cid3005" unicode="ffl" horiz-adv-x="737" 
d="M704 661q-9 -72 -14 -153.5t-5.5 -166t2 -167.5t7.5 -158h-100q-3 66 -4.5 139.5t-1 148t2.5 147t7 136.5q-24 5 -47 3.5t-43 -9.5q-26 -11 -38.5 -33t-15.5 -58l-3 -37l71 6v-96q-17 -2 -35.5 -2.5t-38.5 -1.5q-1 -83 2.5 -172.5t10.5 -170.5h-100q-6 83 -10.5 169
t-3.5 170h-135q0 -82 3 -170t10 -169h-99q-6 81 -9.5 168t-3.5 174q-23 1 -43.5 2t-39.5 3v96q37 -4 84 -6l3 66q4 65 25 104.5t69 51.5q32 8 67.5 6.5t62.5 -12.5l-17 -95q-17 4 -36 5t-36 -5q-11 -4 -17.5 -9.5t-10.5 -14.5t-5.5 -23.5t-2.5 -36.5l-2 -41q66 -2 136 0
q0 14 1 27t2 27q6 72 41.5 116t83.5 58q25 7 54 9.5t59 0t59 -9t54 -16.5z" />
    <glyph glyph-name=".notdef" horiz-adv-x="840" 
d="M782 748v-896h-724v896h724zM154 693l266 -342l266 342h-532zM370 300l-256 332v-674zM726 632l-256 -332l256 -342v674zM420 259l-256 -347h512z" />
    <glyph glyph-name=".null" horiz-adv-x="0" 
 />
    <glyph glyph-name="nonmarkingreturn" horiz-adv-x="280" 
 />
    <glyph glyph-name="cid1" unicode=" " horiz-adv-x="280" 
 />
    <glyph glyph-name="cid1" unicode="&#xa0;" horiz-adv-x="280" 
 />
    <glyph glyph-name="cid2" unicode="!" horiz-adv-x="280" 
d="M80 174q6 60 8 127t0.5 135t-6 134.5t-11.5 124.5l122 10q6 -57 9 -125.5t2.5 -139.5t-5 -139.5t-12.5 -125.5zM71 75h120q5 -32 4 -60.5t-6 -60.5l-118 -4v125z" />
    <glyph glyph-name="cid3" unicode="&#x22;" horiz-adv-x="409" 
d="M208 540q5 20 9 46t6 54.5t1 58t-5 55.5l110 -1q1 -26 -2 -57.5t-9 -63t-15 -61t-19 -50.5zM60 559q14 41 16 91t-7 103h109q-2 -60 -13.5 -113.5t-29.5 -98.5z" />
    <glyph glyph-name="cid4" unicode="#" horiz-adv-x="610" 
d="M545 390q-22 2 -45 4t-47 4l-25 -138q26 -2 51 -4t51 -4l-10 -83q-53 6 -105 9q-7 -39 -12 -75.5t-9 -67.5l-85 20q4 28 9 60.5t11 68.5q-32 2 -62.5 2.5t-59.5 1.5q-6 -37 -10.5 -70.5t-8.5 -62.5l-82 22l15 110q-37 0 -71 -3l10 83q19 1 37.5 1.5t37.5 0.5
q5 32 11 65.5t12 65.5l-83 -5l10 83q21 1 43 2t46 1q8 42 15.5 76.5t13.5 57.5l87 -17q-6 -21 -13 -50.5t-15 -64.5h60.5t60.5 -1q8 39 15.5 73t14.5 60l85 -15q-7 -25 -13.5 -55.5t-14.5 -65.5q23 -2 45.5 -3t44.5 -3zM367 401q-30 1 -60.5 1.5t-60.5 -0.5
q-7 -32 -13 -65.5t-12 -66.5q31 -1 61 -1.5t61 -2.5z" />
    <glyph glyph-name="cid5" unicode="$" horiz-adv-x="560" 
d="M493 196q1 -34 -11.5 -62t-34.5 -49t-52 -34.5t-64 -19.5l-3 -73h-81l3 73q-39 6 -70 24t-54.5 42.5t-38.5 54t-21 59.5l86 33q11 -47 36 -81t64 -47q2 48 2 94.5v93.5l-17 6q-32 12 -57 26t-42.5 32t-27 41t-9.5 55q0 51 37.5 91t101.5 54q-2 24 -4 47.5t-4 46.5h81
q2 -22 3.5 -44t3.5 -45q37 -4 66 -19t50.5 -37t34.5 -48.5t17 -53.5l-78 -31q-4 16 -11 32.5t-17 31t-24 25.5t-32 16q4 -84 6 -170l33 -14q60 -25 93 -59.5t35 -90.5zM189 464q0 -26 17 -41.5t46 -28.5l-6 133q-28 -8 -42.5 -25.5t-14.5 -37.5zM333 115q30 8 51 27t21 46
q0 24 -16.5 45t-54.5 39v-79t-1 -78z" />
    <glyph glyph-name="cid6" unicode="%" horiz-adv-x="840" 
d="M155 55q55 63 114 144.5t113 168t98.5 171t71.5 152.5l78 -37q-36 -80 -84 -168t-101.5 -174.5t-109.5 -168t-108 -148.5zM210 391q-29 0 -54.5 11t-44.5 30t-30 44.5t-11 54.5t11 54.5t30 44.5t44.5 30t54.5 11t54.5 -11t44.5 -30t30 -44.5t11 -54.5t-11 -54.5
t-30 -44.5t-44.5 -30t-54.5 -11zM209 468q25 0 42.5 18t17.5 44q0 24 -17.5 42t-42.5 18q-26 0 -43 -18t-17 -42q0 -26 17 -44t43 -18zM634 5q-29 0 -54.5 11t-44.5 30t-30 44.5t-11 54.5t11 54.5t30 44.5t44.5 30t54.5 11t54.5 -11t44.5 -30t30 -44.5t11 -54.5t-11 -54.5
t-30 -44.5t-44.5 -30t-54.5 -11zM633 82q25 0 42.5 18t17.5 44q0 24 -17.5 42t-42.5 18q-26 0 -43 -18t-17 -42q0 -26 17 -44t43 -18z" />
    <glyph glyph-name="cid7" unicode="&#x26;" horiz-adv-x="741" 
d="M651 0q-38 15 -73 32.5t-67 37.5q-25 -28 -54 -51t-60 -39.5t-63.5 -25.5t-64.5 -8q-46 1 -85.5 13.5t-68.5 36t-45.5 58t-16.5 79.5q0 33 14.5 63t36.5 55.5t47.5 47t48.5 36.5q-32 39 -54 80.5t-22 82.5q0 86 51 136t139 50q30 0 59 -10.5t52 -30.5t37 -48t14 -63
q0 -41 -12 -74.5t-31 -59.5t-43 -46t-48 -35l29 -26q26 -23 53.5 -46t59.5 -45q14 28 26 58.5t20 64.5l93 -41q-15 -66 -52 -130q53 -24 118 -42zM305 596q-14 0 -29 -6t-27.5 -17.5t-21 -29t-8.5 -39.5q0 -29 17.5 -60.5t43.5 -61.5l8 4q39 22 66 55.5t27 78.5
q0 15 -6.5 28.5t-17 24t-24 17t-28.5 6.5zM268 42q47 0 88 21.5t75 59.5q-36 27 -69 55t-65 57l-35 33q-18 -12 -37 -27t-34 -31.5t-25 -35t-10 -37.5q0 -48 30.5 -71.5t81.5 -23.5z" />
    <glyph glyph-name="cid8" unicode="'" horiz-adv-x="267" 
d="M62 550q17 41 22.5 96t-2.5 108l115 -1q1 -26 -2 -56t-9.5 -60t-17 -57.5t-25.5 -48.5z" />
    <glyph glyph-name="cid9" unicode="(" horiz-adv-x="420" 
d="M295 -135q-51 43 -92.5 97t-71 114.5t-45.5 125t-16 128.5q0 55 14.5 112t42.5 112t70 106t98 95l63 -70q-52 -40 -89 -81t-60.5 -84.5t-34.5 -90.5t-11 -99q0 -104 50 -207t146 -188z" />
    <glyph glyph-name="cid10" unicode=")" horiz-adv-x="420" 
d="M61 -65q96 85 146 188t50 207q0 103 -46 189t-149 166l63 70q55 -44 97.5 -95t70.5 -106t42.5 -112t14.5 -112q0 -64 -16 -128.5t-45.5 -125t-71 -114.5t-92.5 -97z" />
    <glyph glyph-name="cid11" unicode="*" horiz-adv-x="420" 
d="M356 595q-20 -7 -42 -16t-45 -20q26 -15 46 -30t41 -34l-45 -60q-17 20 -33 35.5t-34 29.5q-1 -27 -2 -53t-3 -47l-70 5q5 22 8 47.5t4 52.5q-22 -17 -41.5 -33t-36.5 -33l-40 60q20 17 42 30t46 27q-42 19 -85 29l30 70q18 -8 39.5 -18.5t43.5 -23.5q-5 50 -15 87l75 10
q2 -22 4 -46t2 -50q23 14 44.5 25.5t41.5 20.5l25 -65v0z" />
    <glyph glyph-name="cid12" unicode="+" horiz-adv-x="638" 
d="M538 281q-37 -4 -80 -6.5t-90 -4.5v-177h-98v175q-46 1 -89 2.5t-81 5.5v93q38 -4 81.5 -6t88.5 -3v171h98v-169q47 2 90 4.5t80 7.5v-93z" />
    <glyph glyph-name="cid13" unicode="," horiz-adv-x="280" 
d="M60 -100q18 41 26.5 97.5t3.5 112.5h125q-2 -28 -8 -62t-15.5 -67t-23 -62.5t-28.5 -48.5z" />
    <glyph glyph-name="cid14" unicode="-" horiz-adv-x="555" 
d="M475 276q-93 -10 -196 -12.5t-199 7.5v109q99 -11 201.5 -8.5t193.5 13.5v-109z" />
    <glyph glyph-name="cid14" unicode="&#x2011;" horiz-adv-x="555" 
d="M475 276q-93 -10 -196 -12.5t-199 7.5v109q99 -11 201.5 -8.5t193.5 13.5v-109z" />
    <glyph glyph-name="cid14" unicode="&#x2010;" horiz-adv-x="555" 
d="M475 276q-93 -10 -196 -12.5t-199 7.5v109q99 -11 201.5 -8.5t193.5 13.5v-109z" />
    <glyph glyph-name="cid14" unicode="&#xad;" horiz-adv-x="555" 
d="M475 276q-93 -10 -196 -12.5t-199 7.5v109q99 -11 201.5 -8.5t193.5 13.5v-109z" />
    <glyph glyph-name="cid15" unicode="." horiz-adv-x="280" 
d="M65 -15l-5 125h130q4 -29 1.5 -63t-11.5 -67z" />
    <glyph glyph-name="cid16" unicode="/" horiz-adv-x="590" 
d="M513 698q-61 -196 -148.5 -396t-199.5 -385l-85 53q55 87 105 181.5t93.5 191t79.5 194t62 190.5z" />
    <glyph glyph-name="cid17" unicode="0" horiz-adv-x="545" 
d="M318 599q39 -3 73.5 -21.5t60 -52.5t39.5 -83.5t14 -113.5q-1 -165 -65 -250t-173 -85q-51 0 -93 20.5t-72 62t-46.5 103t-16.5 142.5q0 66 19 125t54.5 105t86.5 74t116 31zM401 328q1 92 -31.5 138t-104.5 39l-5 43q-30 -13 -52.5 -37t-37 -54.5t-21.5 -65.5t-7 -70
q0 -107 29.5 -169t97.5 -62q36 0 60.5 18.5t40.5 50.5t23.5 75.5t7.5 93.5z" />
    <glyph glyph-name="cid18" unicode="1" horiz-adv-x="459" 
d="M298 118q35 -1 67 -3t59 -6l-10 -96q-33 5 -78.5 6.5t-93.5 0.5t-93.5 -4t-78.5 -8l-10 96q29 5 65.5 7.5t76.5 4.5q3 49 4.5 101t1.5 103t-1 100t-4 93q-27 -24 -61.5 -43.5t-66.5 -31.5l-40 87q50 16 92 47t59 70h111q9 -136 8.5 -270t-7.5 -254z" />
    <glyph glyph-name="cid19" unicode="2" horiz-adv-x="545" 
d="M219 115q77 13 152.5 11.5t138.5 -9.5l-15 -104q-45 9 -99.5 13t-111.5 3.5t-113.5 -6t-106.5 -15.5l-15 82q100 66 176 142.5t118 161.5q16 34 17 65t-11 54.5t-35.5 37.5t-55.5 14t-53 -11.5t-34.5 -31t-21.5 -44t-13 -50.5l-102 32q4 33 18 68.5t41 64t68.5 47
t98.5 18.5q64 0 109 -26t68 -68t23 -95.5t-27 -107.5q-33 -68 -89.5 -130.5t-124.5 -115.5z" />
    <glyph glyph-name="cid20" unicode="3" horiz-adv-x="545" 
d="M384 361q54 -14 88.5 -54t34.5 -113q0 -49 -20.5 -85.5t-54.5 -60.5t-77.5 -35.5t-89.5 -11.5q-44 0 -81.5 13.5t-67 35t-49.5 50t-30 60.5l98 42q6 -21 17.5 -41t28 -35.5t38 -25t46.5 -9.5t50 6t45.5 19.5t33 35.5t12.5 54q0 59 -49.5 81t-133.5 10l-5 87
q82 5 114.5 36.5t32.5 76.5q0 38 -29 58t-72 19q-48 -1 -83 -31.5t-46 -83.5l-97 36q21 81 78.5 122t146.5 41q51 0 89.5 -14t64 -36.5t37.5 -51.5t12 -60q-1 -42 -22.5 -76.5t-59.5 -58.5z" />
    <glyph glyph-name="cid21" unicode="4" horiz-adv-x="545" 
d="M513 196q-40 4 -89 6q-2 -54 -4.5 -104.5t-7.5 -97.5h-98q5 44 8 95t5 107q-71 -2 -143 -9.5t-136 -22.5l-27 81q21 40 40 89.5t35 102t27.5 106t18.5 101.5l98 -15q-8 -43 -19 -91t-24 -95.5t-27 -92t-29 -79.5q45 9 92 13.5t97 6.5q2 94 -1.5 182.5t-12.5 156.5l97 10
q8 -74 11.5 -163.5t1.5 -184.5q25 0 49 -0.5t48 -1.5z" />
    <glyph glyph-name="cid22" unicode="5" horiz-adv-x="545" 
d="M159 389q29 17 65 26.5t74 7.5q41 -2 76.5 -15t61 -38t40 -62t14.5 -86q0 -45 -16 -85t-45 -70.5t-70 -48t-92 -17.5q-42 0 -76 9.5t-60 26t-45 39t-32 47.5l89 53q16 -38 45.5 -60t80.5 -22q27 0 50 10t40 27.5t27 41t10 50.5q0 21 -6.5 41.5t-19.5 37t-34 26t-49 9.5
q-47 -1 -81 -18.5t-60 -41.5l-82 55l27 310q105 -9 203.5 -7.5t175.5 12.5l-4 -93q-38 -5 -77.5 -7.5t-77.5 -3.5t-72.5 -0.5t-62.5 3.5z" />
    <glyph glyph-name="cid23" unicode="6" horiz-adv-x="545" 
d="M295 405q50 0 87 -16t61 -43t35.5 -62.5t11.5 -73.5q0 -41 -16.5 -79t-44.5 -67t-66 -46t-82 -17q-56 0 -98.5 22.5t-72 63t-44.5 96.5t-15 124q0 81 15.5 146t46.5 110.5t77.5 70t107.5 24.5q41 0 74 -12t57 -31.5t40 -45t24 -52.5l-95 -37q-11 39 -34.5 65t-68.5 26
q-42 0 -70.5 -20.5t-46 -54.5t-25 -78.5t-8.5 -93.5q26 35 64 58t86 23zM271 90q24 0 46.5 9t39.5 25.5t27.5 39t10.5 50.5q0 20 -6 38.5t-18 33t-30.5 23t-44.5 8.5q-42 0 -81 -29t-60 -74q12 -56 40 -90t76 -34z" />
    <glyph glyph-name="cid24" unicode="7" horiz-adv-x="545" 
d="M482 553q-34 -53 -66.5 -120t-58 -139.5t-42 -145.5t-17.5 -138h-104q3 57 19 128t40.5 143.5t54.5 141t62 121.5q-35 -5 -75 -7.5t-81 -3t-80.5 1t-73.5 5.5l-3 101q39 -6 89 -8.5t104 -2t108.5 4.5t103.5 11z" />
    <glyph glyph-name="cid25" unicode="8" horiz-adv-x="545" 
d="M379 352q25 -8 47.5 -24.5t38.5 -38.5t25.5 -48.5t9.5 -54.5q0 -38 -14 -71.5t-42 -59t-69.5 -40t-96.5 -14.5q-58 0 -101.5 14.5t-73 40t-44 59t-14.5 71.5q0 27 11 53.5t29 49t42.5 39t51.5 23.5q-49 20 -80 54t-31 85q0 34 17.5 64.5t50 54.5t77 38t98.5 15l2 -35
q33 2 64 -6.5t54.5 -26.5t37.5 -44.5t14 -59.5q0 -45 -27 -78.5t-77 -59.5zM163 490q-1 -37 29 -58.5t85 -38.5q23 7 45 17t38.5 22t26.5 26.5t10 31.5q0 15 -10.5 25.5t-27 16t-37.5 5.5t-42 -6l-5 38q-22 -1 -42 -7.5t-35.5 -17t-25 -24.5t-9.5 -30zM273 93q27 0 49.5 7
t39.5 20t26.5 29.5t9.5 36.5q0 22 -10 41.5t-27.5 35.5t-40.5 29t-49 21q-24 -6 -47 -19t-41 -30t-28.5 -37t-10.5 -41q0 -37 33.5 -65t95.5 -28z" />
    <glyph glyph-name="cid26" unicode="9" horiz-adv-x="545" 
d="M280 658q59 0 99 -22t64 -62t34.5 -96.5t10.5 -125.5q0 -77 -12 -141.5t-38.5 -111t-68.5 -72.5t-102 -26q-43 0 -76 10.5t-57 29t-41 43t-28 52.5l88 44q14 -40 44 -65t75 -25q35 0 58 18.5t36.5 50.5t19 73.5t6.5 88.5q-27 -26 -62.5 -41t-73.5 -15q-49 0 -86.5 16
t-63 42.5t-38.5 61t-13 71.5t16 73.5t45 65t70.5 46t93.5 17.5zM255 352q40 0 77 22.5t57 65.5q-3 27 -9.5 49.5t-19.5 39.5t-32.5 26.5t-49.5 9.5q-24 0 -46 -7.5t-39.5 -22t-28 -34.5t-10.5 -44q0 -21 6.5 -40t19 -33.5t31.5 -23t44 -8.5z" />
    <glyph glyph-name="cid27" unicode=":" horiz-adv-x="300" 
d="M87 465l-5 125h130q7 -66 -10 -130zM87 65l-5 125h130q5 -32 1.5 -67t-11.5 -63z" />
    <glyph glyph-name="cid28" unicode=";" horiz-adv-x="300" 
d="M100 465l-5 125h130q3 -15 3 -33.5t-1.5 -37t-4.5 -34.5t-7 -25zM77 -20q21 49 25 102.5t-5 107.5h125q1 -68 -17.5 -129t-47.5 -111z" />
    <glyph glyph-name="cid29" unicode="&#x3c;" horiz-adv-x="582" 
d="M507 520l-342 -184l342 -185v-105l-427 242v91l427 246v-105z" />
    <glyph glyph-name="cid30" unicode="=" horiz-adv-x="580" 
d="M475 366q-94 -13 -187.5 -14t-187.5 9v92q94 -11 187.5 -8.5t187.5 13.5v-92zM475 190q-94 -13 -187.5 -14t-187.5 9v93q94 -12 187.5 -9t187.5 14v-93z" />
    <glyph glyph-name="cid31" unicode="&#x3e;" horiz-adv-x="582" 
d="M502 379v-91l-427 -242v105l342 185l-342 184v105z" />
    <glyph glyph-name="cid32" unicode="?" horiz-adv-x="560" 
d="M350 165l-106 -3v86q0 38 14 70.5t39 58.5l48 51q23 24 36 45.5t13 56.5q0 31 -27 55.5t-81 24.5q-26 0 -49 -8.5t-41 -25.5t-29.5 -43t-13.5 -62l-107 10q3 66 25.5 110.5t57 71t76 37.5t81.5 11q46 0 86.5 -13t70.5 -36.5t47.5 -56.5t17.5 -72q0 -50 -19.5 -87
t-47.5 -65l-36 -36q-20 -20 -37.5 -43.5t-17.5 -53.5v-83zM231 75h120q5 -32 4 -60.5t-6 -60.5l-118 -4v125z" />
    <glyph glyph-name="cid33" unicode="@" horiz-adv-x="743" 
d="M514 257q-7 -59 30 -59q31 0 50 32t19 109q0 39 -12 78t-36.5 69.5t-60.5 50t-84 19.5q-47 0 -95 -21t-87 -58.5t-64 -90t-25 -115.5q0 -59 19.5 -102t51 -71t70 -41.5t77.5 -13.5q82 0 166 33l10 -71q-35 -19 -84.5 -29t-107.5 -10q-56 0 -109.5 21t-95 59.5t-66.5 93
t-25 121.5q0 94 34.5 164t88 116t119 69t127.5 23q64 0 114 -25.5t84.5 -67t52 -94t17.5 -107.5q0 -50 -13.5 -89.5t-36 -67t-50.5 -42t-58 -14.5q-29 0 -54.5 16.5t-34.5 58.5q-19 -32 -48.5 -53t-61.5 -21q-21 0 -42.5 7.5t-38.5 25t-27.5 46t-10.5 69.5q0 42 14 74.5
t35 54.5t46.5 33.5t48.5 11.5q26 0 50 -18t38 -43l8 53l80 -5zM351 200q15 0 30 8t27.5 21t22.5 30.5t16 37.5q-12 35 -31.5 55t-40.5 20q-28 0 -50.5 -25t-22.5 -73q0 -38 13 -56t36 -18z" />
    <glyph glyph-name="cid34" unicode="A" horiz-adv-x="622" 
d="M425 230l-232 -8q-20 -59 -35 -112t-24 -94h-104q9 45 25.5 101.5t37.5 117.5t45.5 124t49.5 120.5t49 107t45 83.5h111l202 -654h-108zM397 329l-67 231q-26 -50 -51.5 -110.5t-49.5 -125.5z" />
    <glyph glyph-name="cid35" unicode="B" horiz-adv-x="622" 
d="M442 381q74 -8 109.5 -38.5t35.5 -97.5q0 -65 -29 -108.5t-78.5 -70.5t-115.5 -38.5t-141 -11.5h-120q-3 69 -4 139.5t0 140t3.5 136t7.5 126.5l-32 -2l-10 104l198 10q137 7 205 -33t68 -131q0 -49 -26.5 -78.5t-70.5 -46.5zM215 565q-4 -39 -6.5 -79.5t-4.5 -82.5l80 5
q69 4 111.5 29t42.5 66q0 24 -8.5 38.5t-28 22t-52 8t-80.5 -2.5zM222 117q58 1 106.5 7.5t83 21t54 37.5t19.5 56q0 49 -54.5 67t-148.5 9l-81 -8q-1 -48 -0.5 -95t2.5 -95h19z" />
    <glyph glyph-name="cid36" unicode="C" horiz-adv-x="610" 
d="M583 222q-10 -47 -33.5 -87t-57.5 -69.5t-76 -46.5t-88 -17q-68 0 -119 27.5t-85.5 73.5t-52 106.5t-17.5 126.5q0 67 18.5 129.5t54.5 110.5t88.5 76.5t119.5 28.5q48 0 87 -15.5t69 -40.5t50.5 -56.5t31.5 -63.5l-94 -51q-16 52 -53.5 88t-90.5 36q-44 0 -76 -24
t-54 -60t-32.5 -78.5t-10.5 -79.5q0 -47 10 -89.5t30.5 -74.5t52 -51t75.5 -19q28 0 53.5 13t46 34.5t35.5 49.5t23 58z" />
    <glyph glyph-name="cid37" unicode="D" horiz-adv-x="664" 
d="M276 672q74 4 133.5 -14t101.5 -56t64.5 -95.5t22.5 -132.5q0 -76 -27.5 -141.5t-77 -113.5t-117 -75.5t-147.5 -27.5h-126q-3 54 -4.5 122.5t-1 141t3 144.5t6.5 134l-29 -2l-10 104zM226 122q63 1 112.5 22.5t84 57t52.5 81.5t18 96t-15.5 87.5t-43 62.5t-66.5 36
t-86 7l-66 -5q-4 -50 -6.5 -105.5t-4 -112.5t-1.5 -115t2 -112h20z" />
    <glyph glyph-name="cid38" unicode="E" horiz-adv-x="553" 
d="M200 126q37 3 78 5.5t82 3t80.5 0t74.5 -3.5v-102q-100 10 -199.5 8t-213.5 -18q-3 67 -4 136.5t0 138t3.5 134t7.5 124.5q-12 -1 -23 -2t-22 -3l-5 107q56 6 116 9.5t119 4.5t116.5 0t108.5 -4l-10 -104q-58 5 -135.5 5.5t-155.5 -4.5q-4 -38 -6.5 -77.5t-4.5 -80.5
q63 8 133 9.5t136 -0.5l-5 -103q-73 4 -138.5 2.5t-130.5 -8.5q-2 -48 -2.5 -92.5t0.5 -84.5z" />
    <glyph glyph-name="cid39" unicode="F" horiz-adv-x="563" 
d="M518 560q-59 5 -136 5.5t-156 -4.5q-6 -76 -9 -163q63 8 132.5 9.5t135.5 -0.5l-5 -103q-72 4 -137 2.5t-129 -8.5q-2 -73 -1.5 -144t3.5 -135h-102q-3 60 -5 127.5t-1.5 137t2.5 138t7 130.5l-22 -2t-22 -3l-5 107q56 6 116 9.5t119 4.5t116.5 0t108.5 -4l-10 -104v0z
" />
    <glyph glyph-name="cid40" unicode="G" horiz-adv-x="648" 
d="M364 259l-4 99h238q2 -73 -15 -138t-51.5 -113.5t-86.5 -76.5t-120 -28t-118.5 27.5t-84.5 73.5t-51 106.5t-17 126.5q0 67 18.5 129.5t54.5 110.5t88.5 76.5t119.5 28.5q45 0 84 -13t69.5 -34t52 -48t32.5 -55l-92 -50q-25 52 -61.5 74.5t-84.5 22.5q-44 0 -76.5 -24
t-54 -60t-32.5 -78.5t-11 -79.5q0 -47 10 -89.5t30 -75t51.5 -51.5t74.5 -19q36 0 64.5 13.5t49.5 35.5t33.5 50.5t17.5 58.5h-128z" />
    <glyph glyph-name="cid41" unicode="H" horiz-adv-x="619" 
d="M554 666q-19 -158 -20 -317.5t5 -332.5h-104q-3 69 -4.5 143.5t-0.5 149.5q-64 3 -128 1.5t-129 -9.5q-1 -69 0.5 -140t3.5 -145h-104q-4 81 -5 168.5t1 173.5t6.5 166.5t11.5 146.5l105 -5q-7 -63 -11 -128t-6 -133q60 6 127.5 8t130.5 0q2 72 6 137t10 121l105 -5v0z
" />
    <glyph glyph-name="cid42" unicode="I" horiz-adv-x="257" 
d="M192 665q-9 -72 -14 -152.5t-6.5 -164.5t0 -168.5t5.5 -163.5h-104q-4 81 -5 168.5t1 173.5t6.5 166t11.5 146z" />
    <glyph glyph-name="cid43" unicode="J" horiz-adv-x="440" 
d="M270 670l105 -5v-451q0 -53 -15 -92.5t-40 -66t-57.5 -40t-67.5 -13.5q-21 0 -44 4t-45 12t-41.5 19.5t-34.5 25.5l52 93q29 -27 56 -38.5t60 -9.5q32 2 54 35.5t21 92.5z" />
    <glyph glyph-name="cid44" unicode="K" horiz-adv-x="579" 
d="M454 11q-25 33 -50 71.5t-48.5 78.5t-43.5 80.5t-34 76.5q-28 -23 -54.5 -42t-52.5 -34q0 -118 6 -226h-104q-4 81 -5 168.5t1 173.5t6.5 166t11.5 146l105 -5q-9 -71 -13.5 -149.5t-6.5 -161.5q38 29 77 65t75 76.5t67 83.5t54 85l92 -68q-36 -55 -85.5 -111.5
t-105.5 -107.5q18 -35 40 -73t47.5 -75.5t53.5 -72.5t57 -63l-90 -82v0z" />
    <glyph glyph-name="cid45" unicode="L" horiz-adv-x="525" 
d="M172 128q37 3 78.5 5.5t83 3t81.5 0t75 -3.5v-104q-100 10 -201.5 8t-216.5 -18q-3 80 -4 165t0.5 169t6.5 165t13 152l107 -5q-6 -65 -11 -135.5t-8 -141t-4 -137t0 -123.5z" />
    <glyph glyph-name="cid46" unicode="M" horiz-adv-x="787" 
d="M710 665q-9 -159 -9.5 -320.5t7.5 -328.5h-104q-2 125 0 250t9 228l-176 -392h-109l-163 403q-2 -51 -1.5 -113t2 -127t4.5 -129t7 -120h-104q-4 81 -5 168.5t1 173.5t6.5 166.5t11.5 146.5l121 -5l177 -461l201 465l124 -5v0z" />
    <glyph glyph-name="cid47" unicode="N" horiz-adv-x="629" 
d="M567 666q-6 -60 -9.5 -139.5t-5.5 -166.5t-2 -176t2 -168h-111l-273 488q-2 -54 -2.5 -116t0 -126.5t3 -127.5t5.5 -118h-104q-4 81 -5 168.5t1 173.5t6.5 166.5t11.5 146.5l104 -5l270 -490q-4 61 -5.5 126t-0.5 129.5t3.5 125.5t6.5 114l105 -5v0z" />
    <glyph glyph-name="cid48" unicode="O" horiz-adv-x="670" 
d="M386 644q55 -5 96 -31.5t68 -68t40.5 -94.5t13.5 -111q0 -63 -18 -123.5t-52.5 -108t-85.5 -76.5t-117 -29q-68 0 -119.5 27t-86.5 72.5t-53 106t-18 127.5q0 58 17.5 123t57 119t103.5 89.5t157 36.5zM331 103q43 0 74.5 20t51.5 53t30 75.5t10 87.5q0 48 -10 88.5
t-31.5 68t-55 40t-81.5 5.5l2 50q-46 -12 -77 -40t-49.5 -64.5t-26 -76.5t-7.5 -75q0 -49 11 -91.5t33 -74t53.5 -49t72.5 -17.5z" />
    <glyph glyph-name="cid49" unicode="P" horiz-adv-x="605" 
d="M318 672q49 2 92.5 -9t76 -36t51.5 -62.5t19 -87.5q0 -59 -25 -99t-65 -65.5t-90 -38.5t-100 -16l-76 -5q0 -120 6 -237h-104q-3 69 -4 139.5t0 140t3.5 136t7.5 126.5l-32 -2l-10 104zM274 358q34 1 67 8.5t58.5 22t41 37.5t15.5 56q0 25 -10 43t-28 29.5t-43 16
t-54 2.5l-106 -7q-5 -51 -8 -104t-5 -107z" />
    <glyph glyph-name="cid50" unicode="Q" horiz-adv-x="698" 
d="M539 117q29 -26 56 -53.5t50 -55.5l-79 -76q-20 29 -43.5 57.5t-51.5 56.5q-30 -20 -65 -32t-77 -12q-68 0 -119 27t-86 72.5t-52.5 106t-17.5 127.5q0 58 17.5 123t57 119t103.5 89.5t157 36.5l-3 -59q55 -5 96 -31.5t68 -68t40.5 -94.5t13.5 -111q0 -60 -16.5 -117.5
t-48.5 -104.5zM329 103q33 0 62 13q-16 12 -31.5 23t-32.5 22l63 68q17 -11 34.5 -22.5t35.5 -24.5q19 32 28 72.5t9 84.5q0 48 -10 88.5t-31.5 68t-55 40t-81.5 5.5l2 50q-46 -12 -77 -40t-49.5 -64.5t-26 -76.5t-7.5 -75q0 -49 11 -91.5t32 -74t52.5 -49t72.5 -17.5z" />
    <glyph glyph-name="cid51" unicode="R" horiz-adv-x="622" 
d="M487 11q-22 25 -45 58.5t-45 70t-42 74.5t-36 73q-11 -2 -22.5 -3t-22.5 -2l-73 -6q-1 -65 1 -130t5 -130h-104q-3 69 -4 139.5t0 140t3.5 136t7.5 126.5l-32 -2l-10 104l250 12q49 2 92.5 -9t76 -36t51.5 -62.5t19 -87.5q0 -36 -11 -64t-30.5 -48.5t-46 -35t-56.5 -23.5
q32 -61 77 -119.5t94 -103.5zM271 382q34 2 67.5 6.5t59.5 15t42 29t16 49.5q0 25 -10 43t-28 29.5t-43 16t-54 2.5l-106 -7q-9 -91 -12 -188z" />
    <glyph glyph-name="cid52" unicode="S" horiz-adv-x="600" 
d="M141 245q9 -30 25 -57t38 -47.5t50 -32t63 -11.5q25 0 47.5 6.5t39 18.5t26.5 28.5t10 36.5q0 32 -22.5 55.5t-77.5 44.5l-90 34q-40 15 -69 32t-48 39t-28.5 50t-9.5 65q0 36 16 67.5t46 55t72 37.5t93 14q48 0 86 -16t66 -42.5t45 -59.5t22 -66l-91 -36q-6 22 -15.5 44
t-24.5 40.5t-36.5 30t-51.5 12.5q-31 1 -53.5 -6t-37.5 -18.5t-22 -26.5t-7 -31q0 -19 8.5 -34t23 -27.5t34.5 -22.5t43 -19l88 -35q70 -28 108 -67.5t40 -104.5q1 -45 -18.5 -81t-52.5 -61t-76.5 -38.5t-91.5 -13.5q-55 0 -98 16t-75 43t-54 62.5t-35 74.5l95 47v0z" />
    <glyph glyph-name="cid53" unicode="T" horiz-adv-x="565" 
d="M520 559q-82 4 -178 6q-5 -60 -8 -130t-4.5 -142t-1 -143t3.5 -134h-104q-3 63 -4 135t0.5 144.5t5 142t8.5 126.5q-50 -2 -99.5 -5t-98.5 -10l-5 102q57 6 119 8.5t125.5 3.5t127 0t123.5 -2l-10 -102v0z" />
    <glyph glyph-name="cid54" unicode="U" horiz-adv-x="616" 
d="M309 2q-98 1 -161.5 59t-71.5 167l-4 54q-7 88 -2.5 188.5t15.5 200.5l107 -5q-6 -48 -10 -100t-6.5 -101.5t-2 -94t3.5 -78.5l7 -68q3 -29 14.5 -51.5t29 -37.5t38.5 -23t43 -8q55 0 90.5 34t37.5 107l11 426l107 -5l-13 -429q-2 -56 -19.5 -100t-47.5 -74t-72.5 -45.5
t-93.5 -15.5z" />
    <glyph glyph-name="cid55" unicode="V" horiz-adv-x="579" 
d="M534 658l-181 -642h-140q-32 74 -60 157.5t-50.5 167.5t-39.5 164.5t-28 147.5l103 15q9 -55 24.5 -123.5t34.5 -141.5t41 -146.5t45 -138.5l135 556z" />
    <glyph glyph-name="cid56" unicode="W" horiz-adv-x="836" 
d="M795 660q-5 -40 -13.5 -91t-20 -108.5t-24.5 -118t-27 -119t-29 -111.5t-30 -96h-130l-102 477l-103 -477h-130q-24 72 -45.5 152.5t-40.5 163.5t-35.5 166t-28.5 159l115 10q6 -60 15 -129t21 -140t26.5 -141t31.5 -133l109 503h129l112 -513q16 63 30.5 136.5t25.5 148
t18.5 144.5t10.5 127z" />
    <glyph glyph-name="cid57" unicode="X" horiz-adv-x="620" 
d="M499 6l-192 268q-51 -67 -98.5 -134.5t-89.5 -133.5l-84 66q44 69 95.5 141t108.5 143l-179 242l79 69l168 -225q53 65 104 125t99 114l72 -73q-49 -56 -101.5 -118.5t-106.5 -129.5l211 -284z" />
    <glyph glyph-name="cid58" unicode="Y" horiz-adv-x="641" 
d="M611 602l-221 -306l-7 -280h-113l5 274q-33 33 -68 72.5t-68 82.5t-61.5 87t-47.5 86l96 53q16 -38 37.5 -76t47.5 -74.5t54.5 -70.5t57.5 -64l196 279z" />
    <glyph glyph-name="cid59" unicode="Z" horiz-adv-x="558" 
d="M514 545l-337 -417q74 9 158 11t176 -4v-111q-50 6 -108 8t-119.5 1t-123 -5.5t-116.5 -13.5l-10 101l356 439q-36 2 -79.5 2t-88.5 -2t-88.5 -6t-79.5 -10l-5 110q110 13 229 14.5t246 -9.5z" />
    <glyph glyph-name="cid60" unicode="[" horiz-adv-x="420" 
d="M94 -111v850h286v-87h-194v-678h194v-85h-286z" />
    <glyph glyph-name="cid61" unicode="\" horiz-adv-x="590" 
d="M173 727q26 -93 62 -190.5t79.5 -194t93.5 -191t105 -181.5l-85 -53q-112 185 -199.5 385t-148.5 396l93 29v0z" />
    <glyph glyph-name="cid62" unicode="]" horiz-adv-x="420" 
d="M325 -111h-286v85h194v678h-194v87h286v-850z" />
    <glyph glyph-name="cid63" unicode="^" horiz-adv-x="519" 
d="M464 393h-102l-104 187l-104 -187h-99l148 269v2h106v-2z" />
    <glyph glyph-name="cid64" unicode="_" horiz-adv-x="575" 
d="M495 14q-46 -5 -99 -8t-107 -4t-107.5 0.5t-101.5 6.5v109q49 -5 103 -7t108 -1.5t106.5 4t97.5 9.5v-109z" />
    <glyph glyph-name="cid65" unicode="`" horiz-adv-x="339" 
d="M279 615q-59 11 -120.5 36t-118.5 64l51 77q48 -41 102.5 -71t105.5 -46z" />
    <glyph glyph-name="cid66" unicode="a" horiz-adv-x="523" 
d="M468 467q-5 -51 -8 -107.5t-4.5 -114.5t-1 -116t2.5 -113h-104l1 74q-26 -34 -62 -58.5t-79 -24.5q-24 0 -52.5 12t-53 39.5t-41 73t-16.5 113.5q0 59 17.5 103t45 73.5t61 44t64.5 14.5q38 0 69 -20t54 -55l2 67zM239 105q20 0 41 13.5t39.5 34.5t32.5 47.5t20 52.5
q-17 57 -49.5 90.5t-76.5 34.5q-39 1 -66 -32t-27 -96q0 -31 6 -57.5t17 -46t27 -30.5t36 -11z" />
    <glyph glyph-name="cid67" unicode="b" horiz-adv-x="542" 
d="M306 482q84 0 134.5 -61.5t50.5 -178.5q0 -38 -11.5 -79.5t-34.5 -76t-56.5 -57t-76.5 -22.5q-40 -1 -74.5 16.5t-59.5 45.5l1 -53h-104q-4 81 -5 172.5t1 182t6.5 175t11.5 150.5l105 -5l-22 -289q24 35 59.5 57.5t74.5 22.5zM295 106q42 -1 67.5 35.5t25.5 103.5
q0 65 -20 102t-70 37q-20 0 -40.5 -12.5t-39 -32.5t-33 -45.5t-21.5 -51.5q8 -28 21.5 -52.5t30.5 -43t37 -29.5t42 -11z" />
    <glyph glyph-name="cid68" unicode="c" horiz-adv-x="499" 
d="M365 334q-14 25 -39 42t-62 17q-48 0 -78.5 -41.5t-30.5 -110.5q0 -66 31.5 -104.5t77.5 -38.5q38 0 66.5 24t40.5 54l87 -50q-25 -50 -75 -86t-115 -37q-49 -1 -89 17.5t-68.5 51t-44.5 76t-16 93.5q0 53 16.5 98t45 77.5t68 51t84.5 18.5q70 0 113 -28.5t69 -68.5z" />
    <glyph glyph-name="cid69" unicode="d" horiz-adv-x="549" 
d="M489 691q-6 -66 -10.5 -149.5t-7 -174t-2.5 -181.5t3 -170h-104l1 79q-27 -38 -64.5 -63t-85.5 -25q-26 0 -55 14t-53 43.5t-40 74t-16 106.5q0 54 18 98t46.5 74.5t63 47.5t68.5 17q39 0 71.5 -22.5t52.5 -58.5l9 295zM246 106q22 0 43 12.5t39 32.5t31 46t19 55
q-6 26 -17.5 50t-27 42t-33.5 29t-38 11q-21 0 -40 -10.5t-33 -29.5t-22.5 -44t-8.5 -55q0 -67 26.5 -103.5t61.5 -35.5z" />
    <glyph glyph-name="cid70" unicode="e" horiz-adv-x="532" 
d="M483 110q-16 -21 -38 -40.5t-48.5 -34.5t-56.5 -23.5t-63 -8.5q-50 0 -92 17.5t-72.5 49t-47.5 75.5t-17 97q0 51 16 95.5t45 77.5t69.5 52t89.5 19q51 0 89.5 -18.5t64.5 -49t41 -71t18 -84.5l-326 -65q9 -48 39 -75t78 -27q45 0 85 23t61 55zM273 395
q-45 0 -76.5 -27.5t-41.5 -79.5l217 36q-9 27 -33.5 49t-65.5 22z" />
    <glyph glyph-name="cid71" unicode="f" horiz-adv-x="389" 
d="M213 456q87 3 148 14v-98q-32 -4 -70 -7t-80 -5q0 -83 3 -172.5t10 -171.5h-103q-6 81 -10 168t-3 174q-24 1 -47 1.5t-45 2.5v98q22 -2 45.5 -3.5t47.5 -1.5l3 64q4 65 25 104t69 52q19 5 41.5 6.5t45.5 -1t45 -7t40 -11.5l-19 -97q-13 5 -28.5 9t-30.5 5.5t-28.5 1
t-22.5 -3.5q-11 -4 -17 -10t-9.5 -15.5t-5 -24.5t-2.5 -37z" />
    <glyph glyph-name="cid72" unicode="g" horiz-adv-x="522" 
d="M462 467q-8 -88 -10.5 -174.5t-2.5 -180.5v-70q0 -52 -17 -91t-46.5 -64.5t-69.5 -38.5t-86 -12q-25 0 -49.5 4t-47 10.5t-41.5 14.5t-32 17l40 93q27 -20 63.5 -32t72.5 -12q19 0 40.5 4.5t39.5 16.5t30 33t12 54l1 62q-24 -29 -56 -43t-70 -15q-36 -1 -69 10.5
t-58.5 37.5t-40.5 66t-15 96q0 36 12 75t36.5 71.5t61 54t85.5 22.5q32 1 61 -17t52 -46l-1 59zM236 126q24 0 44.5 10t37 27.5t28.5 40.5t20 49q-17 57 -46 90.5t-73 34.5q-39 1 -66 -32t-27 -96t24.5 -93.5t57.5 -30.5z" />
    <glyph glyph-name="cid73" unicode="h" horiz-adv-x="525" 
d="M162 402q23 35 56 54.5t74 19.5q76 0 121.5 -48t55.5 -156q3 -29 3.5 -63.5t-0.5 -70.5t-4.5 -71.5t-8.5 -66.5h-106q4 28 7.5 62t5.5 68t2 65t-2 54q-7 60 -22 92.5t-54 32.5q-24 1 -47 -9t-40.5 -29t-28 -45t-9.5 -57l4 -218h-104q-4 81 -5 172.5t1 182t6.5 175
t11.5 150.5l105 -5z" />
    <glyph glyph-name="cid74" unicode="i" horiz-adv-x="234" 
d="M70 585q-2 26 -2 55t5 56l111 -5q-4 -26 -6.5 -55t-0.5 -56zM168 476q-7 -111 -4.5 -231.5t8.5 -228.5h-104q-3 52 -5 110.5t-2.5 119.5t0 121t3.5 114z" />
    <glyph glyph-name="cid75" unicode="j" horiz-adv-x="292" 
d="M125 585q-2 26 -2 55t5 56l111 -5q-4 -26 -6.5 -55t-0.5 -56zM238 39q0 -45 -14 -80t-40 -58t-63 -35t-82 -11l-19 106q54 2 84.5 22.5t29.5 72.5l-4 425l104 -5z" />
    <glyph glyph-name="cid76" unicode="k" horiz-adv-x="514" 
d="M298 280q19 -26 42 -53t48 -51.5t49.5 -46t46.5 -36.5l-81 -85q-25 22 -50 50t-48.5 59t-44.5 62.5t-36 60.5q-23 -12 -47 -19q1 -51 2 -101t3 -104h-104q-4 81 -5 172.5t1 182t6.5 175t11.5 150.5l105 -5q-9 -105 -13.5 -194t-5.5 -175q60 32 114.5 76t98.5 98l73 -85
q-34 -35 -76.5 -69t-89.5 -62z" />
    <glyph glyph-name="cid77" unicode="l" horiz-adv-x="224" 
d="M174 691q-9 -72 -15 -157t-7.5 -174t0 -177.5t7.5 -166.5h-104q-4 81 -5 172.5t1 182t6.5 175t11.5 150.5z" />
    <glyph glyph-name="cid78" unicode="m" horiz-adv-x="804" 
d="M741 294q2 -29 3 -64.5t-0.5 -73t-4.5 -74t-8 -66.5h-104q4 27 7.5 60t5.5 66t2.5 63t-1.5 52q-3 29 -6.5 51.5t-10.5 38.5t-19.5 24t-31.5 8q-24 0 -44.5 -13t-35.5 -35.5t-24.5 -52.5t-10.5 -64l-5 -173h-96l2 209q1 60 -16.5 93.5t-49.5 33.5q-26 0 -47.5 -14.5
t-37 -37.5t-24 -53t-7.5 -61l4 -195h-104q-3 51 -4.5 113.5t-2 125t0 119.5t2.5 98l105 -5l-4 -74q20 36 53 59.5t75 23.5q50 0 80.5 -26t43.5 -70q24 45 61.5 70.5t82.5 25.5q42 0 72.5 -9.5t51 -31t32 -56t15.5 -85.5z" />
    <glyph glyph-name="cid79" unicode="n" horiz-adv-x="538" 
d="M178 467l-6 -71q23 37 56 58.5t75 21.5q74 0 117.5 -46.5t53.5 -150.5q3 -29 3.5 -62t-0.5 -68t-4.5 -69t-8.5 -64h-102q4 27 7.5 60t5 66t1.5 63t-2 52q-6 58 -20.5 89t-52.5 31q-26 0 -49 -12t-40 -32.5t-27 -47.5t-9 -58l4 -211h-104q-3 51 -4 113.5t-1.5 125t0 119.5
t2.5 98z" />
    <glyph glyph-name="cid80" unicode="o" horiz-adv-x="544" 
d="M310 440q40 -1 73.5 -17.5t58 -45t37.5 -66t13 -80.5q0 -47 -16 -88.5t-45 -72.5t-69.5 -49t-89.5 -18q-50 0 -90.5 18t-69.5 49t-44.5 72.5t-15.5 88.5q0 44 14.5 88.5t46 81t80.5 61t117 29.5v-51zM272 98q27 0 48.5 10t36.5 28t22.5 42.5t7.5 52.5q0 27 -7.5 49.5
t-23 38t-39.5 22.5t-57 3v39q-32 -11 -52 -28t-31.5 -37.5t-15.5 -43t-4 -43.5q0 -28 7.5 -52.5t22 -42.5t36 -28t49.5 -10z" />
    <glyph glyph-name="cid81" unicode="p" horiz-adv-x="550" 
d="M321 476q26 0 55.5 -11t55 -37t42 -68t16.5 -103q0 -53 -17 -97t-44 -75t-61.5 -48t-70.5 -17q-38 0 -72 18t-57 49l15 -247h-98q-6 66 -10 143t-5.5 159t0 166t4.5 164l105 -5l-4 -73q27 35 64 58.5t82 23.5zM290 118q18 0 35.5 10t31 28t22 43.5t8.5 57.5
q0 63 -23.5 90.5t-62.5 26.5q-20 0 -41.5 -11t-41 -29.5t-34.5 -43.5t-21 -53q6 -26 19.5 -48t30.5 -37.5t37 -24.5t40 -9z" />
    <glyph glyph-name="cid82" unicode="q" horiz-adv-x="532" 
d="M471 471q-6 -81 -9.5 -165.5t-4.5 -166.5t0 -158.5t4 -140.5h-104l2 252q-22 -35 -56.5 -55t-72.5 -20q-33 0 -64.5 15t-56 44t-39.5 71.5t-15 97.5q0 38 13 78.5t37 74t59 55t80 22.5q32 1 65 -17.5t59 -47.5l-1 61h104zM240 115q24 0 45 11.5t39 30t31 43t21 50.5
q-17 57 -49 91t-76 35q-39 1 -66 -35.5t-27 -98.5q0 -63 24.5 -95t57.5 -32z" />
    <glyph glyph-name="cid83" unicode="r" horiz-adv-x="408" 
d="M340 340q-32 18 -62.5 18t-55 -15t-39 -42t-13.5 -63l7 -222h-98q-8 109 -8.5 222t4.5 229l106 -5l-6 -89q15 32 37 55.5t49.5 33t61 4t72.5 -31.5z" />
    <glyph glyph-name="cid84" unicode="s" horiz-adv-x="472" 
d="M351 333q-17 32 -43 50t-64 18q-37 0 -56 -12t-19 -31q0 -20 15 -31.5t46 -21.5l77 -24q25 -8 47.5 -20t39 -29t26 -39t9.5 -49q0 -35 -17 -61t-44 -44t-60 -27t-65 -9q-75 0 -128 33.5t-78 85.5l90 48q6 -16 17 -31t26.5 -26t34 -18t38.5 -7q35 0 58 14.5t23 39.5
q0 13 -3 21.5t-11 15.5t-21 12.5t-34 11.5l-77 24q-51 16 -82 48t-31 83q0 25 12.5 48t35.5 41t56 28.5t75 10.5q69 0 115 -27.5t73 -70.5z" />
    <glyph glyph-name="cid85" unicode="t" horiz-adv-x="396" 
d="M378 113q-8 -17 -22 -35.5t-32.5 -33.5t-42.5 -25t-51 -10q-52 0 -80.5 35t-34.5 92q-5 43 -7 101t0 121q-23 1 -45.5 1.5t-44.5 2.5v98q45 -4 92 -6q2 39 4.5 76t6.5 70l102 -5q-4 -34 -7.5 -69.5t-5.5 -70.5q78 3 153 15v-98q-39 -5 -78.5 -8t-80.5 -5
q-3 -62 -3 -114.5t5 -86.5q5 -33 13 -42.5t22 -9.5q18 0 35 17t31 44z" />
    <glyph glyph-name="cid86" unicode="u" horiz-adv-x="523" 
d="M356 16l1 73q-21 -36 -51 -59t-71 -23q-74 0 -118 46t-54 150q-3 28 -3.5 62.5t1 70.5t5 71t8.5 65l105 -5q-4 -27 -8 -60t-6 -66t-2.5 -63.5t2.5 -52.5q7 -58 21.5 -88t50.5 -31q25 0 46.5 13t38 35.5t26 51t9.5 59.5l1 207l105 -5q-3 -45 -5 -104.5t-2.5 -122
t0.5 -121.5t4 -103h-104z" />
    <glyph glyph-name="cid87" unicode="v" horiz-adv-x="487" 
d="M462 461l-168 -445h-97q-23 44 -47 95.5t-47 107.5t-43 116t-35 121l102 10q20 -71 49.5 -156t66.5 -170l115 331z" />
    <glyph glyph-name="cid88" unicode="w" horiz-adv-x="747" 
d="M722 461q-31 -125 -70.5 -235.5t-90.5 -209.5h-96l-87 320l-95 -320h-95q-48 95 -90.5 207t-72.5 233l107 10q18 -89 42.5 -175t54.5 -166l86 322h121l86 -323q14 41 27 85t25 89t22 88.5t19 84.5z" />
    <glyph glyph-name="cid89" unicode="x" horiz-adv-x="504" 
d="M407 11l-159 174q-43 -47 -80.5 -92t-66.5 -83l-76 68q32 40 68.5 83t76.5 87l-144 163l78 68l137 -155q42 44 83 83.5t77 71.5l69 -70q-34 -29 -74 -68.5t-82 -83.5l165 -174z" />
    <glyph glyph-name="cid90" unicode="y" horiz-adv-x="499" 
d="M464 467q-15 -90 -47.5 -181.5t-78 -176t-102.5 -158t-122 -127.5l-63 90q43 31 84.5 78.5t79.5 104.5q-61 75 -110 163t-75 176l101 43q23 -83 58 -155t80 -132q35 69 59 141.5t31 138.5z" />
    <glyph glyph-name="cid91" unicode="z" horiz-adv-x="484" 
d="M179 112q55 9 121.5 9.5t129.5 -4.5v-96q-45 5 -94 7.5t-99 2t-99.5 -3.5t-94.5 -9l-6 78l264 281q-52 5 -116.5 -0.5t-124.5 -16.5l-5 97q40 5 85.5 8t93.5 3.5t95 -1.5t90 -6v-88l-240 -261v0z" />
    <glyph glyph-name="cid92" unicode="{" horiz-adv-x="420" 
d="M47 349q40 13 64 44t24 88v135q0 59 35.5 92t99.5 31l100 -3v-89h-100q-33 0 -44 -18t-11 -47v-79q0 -75 -18 -124.5t-56 -64.5q19 -8 33 -27t23 -45t13.5 -56.5t4.5 -60.5v-79q0 -29 11 -47t44 -18h100v-89l-100 -3q-64 -2 -99.5 31t-35.5 92v135q0 56 -24 82.5
t-64 39.5v80z" />
    <glyph glyph-name="cid93" unicode="|" horiz-adv-x="272" 
d="M182 764v-908h-92v908h92z" />
    <glyph glyph-name="cid94" unicode="}" horiz-adv-x="420" 
d="M373 269q-40 -13 -64 -39.5t-24 -82.5v-135q0 -59 -35.5 -92t-99.5 -31l-100 3v89h100q33 0 44 18t11 47v79q0 30 4.5 60.5t13.5 56.5t23 45t33 27q-38 15 -56 64.5t-18 124.5v79q0 29 -11 47t-44 18h-100v89l100 3q64 2 99.5 -31t35.5 -92v-135q0 -57 24 -88t64 -44v-80
z" />
    <glyph glyph-name="cid95" unicode="~" horiz-adv-x="743" 
d="M237 377q-18 0 -33 -11t-25.5 -28.5t-17.5 -39t-10 -41.5l-86 34q7 34 22 64.5t36.5 53.5t48.5 37t60 14q23 0 42 -4.5t35.5 -13t32 -18.5t31.5 -20q32 -20 65 -38.5t65 -18.5q16 0 31 10.5t28 27.5t23 39t16 46l85 -44q-12 -38 -32 -69t-45 -53t-53 -33.5t-56 -11.5
q-21 0 -42 6.5t-41.5 16t-39 21t-33.5 21.5q-29 19 -55 35.5t-52 17.5z" />
    <glyph glyph-name="cid96" unicode="&#xa2;" horiz-adv-x="560" 
d="M469 207q-22 -44 -66.5 -75.5t-104.5 -35.5l-18 -118l-87 13l18 120q-56 24 -93.5 78.5t-37.5 129.5q0 47 16 87t43 69t62 47t74 21l19 128l87 -14l-18 -124q33 -11 56 -31t39 -46l-70 -49q-7 11 -16.5 22t-21.5 19l-40 -271q30 6 55 28.5t35 46.5zM166 319
q0 -42 16.5 -72t41.5 -48l39 263q-19 -6 -36.5 -18.5t-31 -31t-21.5 -42t-8 -51.5z" />
    <glyph glyph-name="cid97" unicode="&#xa3;" horiz-adv-x="560" 
d="M485 52q-21 -13 -44.5 -16.5t-55.5 -2.5q-17 0 -31.5 3.5t-30 7t-32 6.5t-36.5 3q-38 0 -82.5 -7t-85.5 -19v75q24 10 44.5 33t34.5 51t20 56.5t2 49.5h-112v82h64q-13 24 -21 49t-8 48q0 42 16 72.5t41.5 51t57.5 30t65 9.5q26 0 52 -5.5t48.5 -17t41 -30t30.5 -44.5
l-68 -54q-12 27 -40.5 45.5t-65.5 18.5q-14 0 -28 -3.5t-25.5 -12t-18.5 -22.5t-7 -36q0 -53 30 -99h172v-82h-134q1 -18 -2 -39t-10 -42.5t-17 -42t-23 -38.5q23 5 38 5t28.5 -2.5t27.5 -6t28.5 -6.5t30.5 -3q26 0 46 7.5t43 21.5z" />
    <glyph glyph-name="cid98" unicode="&#xa4;" horiz-adv-x="560" 
d="M486 95l-75 70q-27 -20 -60.5 -31.5t-71.5 -11.5t-71 11t-60 31l-75 -69l-58 68l75 70q-26 46 -26 105q0 32 8.5 61.5t23.5 54.5l-67 63l58 68l73 -66q51 34 119 34q34 0 64.5 -9t56.5 -26l72 67l58 -68l-68 -62q33 -53 33 -117q0 -58 -26 -105l75 -69zM279 210
q27 0 50.5 9.5t41 27t27 41t9.5 50.5t-9.5 50t-27 40.5t-41 27t-50.5 9.5t-50 -9.5t-40.5 -27t-27 -40.5t-9.5 -50t9.5 -50.5t27 -41t40.5 -27t50 -9.5z" />
    <glyph glyph-name="cid99" unicode="&#xa5;" horiz-adv-x="636" 
d="M379 331q34 1 67 3t64 4v-87q-33 -3 -68.5 -4.5t-71.5 -2.5v-47q36 1 71.5 2.5t68.5 4.5v-80q-33 -3 -68.5 -4.5t-71.5 -3.5l-1 -99h-102l1 99q-38 1 -72 3t-63 5v80q29 -4 63.5 -5.5t72.5 -2.5l1 48q-38 1 -73 2.5t-64 4.5v87q26 -3 57.5 -5t66.5 -3
q-58 57 -111.5 124.5t-95.5 141.5l87 50q39 -71 85 -133t97 -110l185 239l82 -60z" />
    <glyph glyph-name="cid22482" unicode="&#xa7;" horiz-adv-x="840" 
d="M532 178q40 -24 63 -53t23 -71q0 -30 -15 -56t-41 -44.5t-60 -29.5t-73 -11q-74 0 -122.5 32t-67.5 93l89 41q13 -34 35 -59.5t65 -25.5q42 0 66.5 13.5t24.5 49.5q0 23 -24.5 42.5t-62.5 38.5l-59 30q-68 34 -109 69.5t-41 85.5q0 38 24 62.5t62 38.5q-40 24 -63 53
t-23 71q0 30 15 56t41 44.5t60 29.5t73 11q74 0 122.5 -32t67.5 -93l-89 -41q-13 34 -35 59.5t-65 25.5q-42 0 -66.5 -13.5t-24.5 -49.5q0 -23 24.5 -42.5t62.5 -38.5l59 -30q34 -17 61.5 -34t47 -35.5t30.5 -39.5t11 -46q0 -38 -24 -62.5t-62 -38.5zM319 333
q0 -17 9.5 -31.5t24.5 -26.5t32.5 -22.5t32.5 -17.5l39 -19q30 7 47.5 20.5t17.5 32.5q0 16 -9.5 31t-24.5 27t-32.5 22t-32.5 18l-39 19q-30 -7 -47.5 -20.5t-17.5 -32.5z" />
    <glyph glyph-name="cid100" unicode="&#xa9;" horiz-adv-x="840" 
d="M420 107q-61 0 -114.5 23t-93.5 63t-63 93.5t-23 114.5t23 114.5t63 93.5t93.5 63t114.5 23t114 -23t93 -63t63 -93.5t23 -114.5t-23 -114.5t-63 -93.5t-93 -63t-114 -23zM420 174q47 0 88 17.5t72 48.5t48.5 72.5t17.5 88.5t-17.5 88.5t-48.5 72t-72 48.5t-88 18
t-88.5 -18t-72.5 -48.5t-48.5 -72t-17.5 -88.5t17.5 -88.5t48.5 -72.5t72.5 -48.5t88.5 -17.5zM423 235q-33 -1 -60.5 11.5t-47 35t-30 52t-10.5 63.5q0 36 11 66t30.5 52.5t46 35t57.5 12.5q48 0 77 -20t46 -46l-55 -37q-10 16 -26.5 27.5t-41.5 11.5q-32 0 -53 -28
t-21 -74q0 -45 21.5 -71t52.5 -26q26 0 45 16t28 37l58 -34q-17 -34 -50.5 -58.5t-77.5 -25.5z" />
    <glyph glyph-name="cid101" unicode="&#xae;" horiz-adv-x="840" 
d="M420 695q61 0 114 -23t93 -63t63 -93.5t23 -114.5t-23 -114.5t-63 -93.5t-93 -63t-114 -23t-114.5 23t-93.5 63t-63 93.5t-23 114.5t23 114.5t63 93.5t93.5 63t114.5 23zM420 174q47 0 88 17.5t72 48.5t48.5 72.5t17.5 88.5t-17.5 88.5t-48.5 72t-72 48.5t-88 18
t-88.5 -18t-72.5 -48.5t-48.5 -72t-17.5 -88.5t17.5 -88.5t48.5 -72.5t72.5 -48.5t88.5 -17.5zM544 461q0 -25 -15.5 -46.5t-40.5 -35.5q15 -25 34.5 -48.5t39.5 -43.5l-58 -36q-20 24 -37 51.5t-31 57.5q-15 -3 -30 -3h-22q0 -30 1 -58t3 -50h-60q-2 24 -2.5 54t-0.5 62
t1.5 63.5t3.5 60.5l-20 -1l-4 62l121 5q21 1 42 -4.5t37.5 -17t27 -29.5t10.5 -43zM405 415q40 0 60 13t20 35q0 20 -16 27.5t-41 5.5l-38 -3q-2 -17 -2.5 -37t-1.5 -41h19z" />
    <glyph glyph-name="cid102" unicode="&#xb0;" horiz-adv-x="329" 
d="M162 447q-24 0 -46 10t-39 26.5t-27 39t-10 47.5t10 46.5t26.5 37.5t39 25t46.5 9q25 0 48 -9t40.5 -25t28 -37.5t10.5 -46.5t-10.5 -47.5t-28 -39t-40.5 -26.5t-48 -10zM164 514q21 0 37.5 16.5t16.5 37.5q0 22 -16.5 37.5t-37.5 15.5t-37 -15.5t-16 -37.5
q0 -21 16 -37.5t37 -16.5z" />
    <glyph glyph-name="cid103" unicode="&#xb1;" horiz-adv-x="840" 
d="M373 376q-51 0 -99 2t-93 6v93q45 -5 93.5 -6.5t98.5 -2.5v163h94v-161q51 1 99.5 4t92.5 8v-93q-44 -4 -92.5 -6.5t-99.5 -4.5v-175h-94v173zM172 120q49 -5 114.5 -7t134.5 -1t134.5 4.5t114.5 8.5v-90q-50 -7 -116 -10.5t-135 -4t-134 2t-113 7.5v90z" />
    <glyph glyph-name="cid104" unicode="&#xb6;" horiz-adv-x="840" 
d="M692 576h-72v-644h-85v644h-66v-644h-85v391h-37q-38 0 -68 13.5t-51 36.5t-32.5 53.5t-11.5 64.5q0 37 8.5 69.5t28 57t51 38.5t77.5 14h343v-94z" />
    <glyph glyph-name="cid105" unicode="&#xb7;" horiz-adv-x="280" 
d="M73 294l-5 125h130q4 -29 1.5 -63t-11.5 -67z" />
    <glyph glyph-name="cid22496" unicode="&#xc5;" horiz-adv-x="625" 
d="M337 710q-37 0 -63 26.5t-26 63.5q0 18 7 34t19 28.5t28.5 19.5t34.5 7t34.5 -7t28.5 -19.5t19 -28.5t7 -34q0 -37 -26 -63.5t-63 -26.5zM337 835q-15 0 -25 -10.5t-10 -24.5q0 -15 10 -25.5t25 -10.5t25 10.5t10 25.5q0 14 -10 24.5t-25 10.5zM425 230l-232 -8
q-20 -59 -35 -111.5t-24 -94.5h-104q9 45 25.5 101.5t37.5 117.5t45.5 124t49.5 120.5t49 107t45 83.5h111l202 -654h-108zM396 329l-66 231q-26 -50 -51.5 -111t-49.5 -125z" />
    <glyph glyph-name="cid106" unicode="&#xd7;" horiz-adv-x="578" 
d="M417 119q-29 26 -62 56.5t-67 63.5l-126 -131l-69 72l125 129q-32 33 -61 64.5t-52 60.5l70 68q23 -29 50 -59t57 -61l113 120l69 -73l-111 -118q35 -34 69.5 -65t65.5 -57z" />
    <glyph glyph-name="cid107" unicode="&#xf7;" horiz-adv-x="638" 
d="M326 422q-27 0 -46.5 19.5t-19.5 46.5t19.5 46.5t46.5 19.5t46.5 -19.5t19.5 -46.5t-19.5 -46.5t-46.5 -19.5zM538 281q-46 -5 -102.5 -8t-115 -4t-115.5 0.5t-105 6.5v93q49 -5 106.5 -7t116 -1.5t114.5 4t101 9.5v-93zM326 78q-27 0 -46.5 19t-19.5 46t19.5 46.5
t46.5 19.5t46.5 -19.5t19.5 -46.5t-19.5 -46t-46.5 -19z" />
    <glyph glyph-name="cid11888" unicode="&#x2d0;" horiz-adv-x="303" 
d="M249 516l-100 -189l-99 189h199zM149 185l100 -189h-199z" />
    <glyph glyph-name="cid22598" unicode="&#x3a9;" horiz-adv-x="840" 
d="M743 97v-81h-278v81q69 45 105.5 113.5t36.5 157.5q0 42 -10.5 83.5t-33.5 74.5t-58.5 53.5t-84.5 20.5q-50 0 -85 -20.5t-58 -53.5t-33.5 -74.5t-10.5 -83.5q0 -89 38.5 -159.5t103.5 -111.5v-81h-278v81h168q-30 25 -56.5 54.5t-46.5 63t-31.5 72t-11.5 81.5
q0 69 25 127t66.5 100t96 66t113.5 24t113.5 -24t96 -66t66.5 -100t25 -127q0 -43 -11.5 -81.5t-31.5 -72t-46.5 -63t-56.5 -54.5h168z" />
    <glyph glyph-name="cid108" unicode="&#x2002;" horiz-adv-x="629" 
 />
    <glyph glyph-name="cid109" unicode="&#x2003;" horiz-adv-x="787" 
 />
    <glyph glyph-name="cid110" unicode="&#x2004;" horiz-adv-x="262" 
 />
    <glyph glyph-name="cid111" unicode="&#x2005;" horiz-adv-x="196" 
 />
    <glyph glyph-name="cid112" unicode="&#x2006;" horiz-adv-x="131" 
 />
    <glyph glyph-name="cid113" unicode="&#x2007;" horiz-adv-x="455" 
 />
    <glyph glyph-name="cid114" unicode="&#x2009;" horiz-adv-x="157" 
 />
    <glyph glyph-name="cid115" unicode="&#x200a;" horiz-adv-x="140" 
 />
    <glyph glyph-name="cid116" unicode="&#x2012;" horiz-adv-x="535" 
d="M455 380v-100h-375v100h375z" />
    <glyph glyph-name="cid117" unicode="&#x2013;" horiz-adv-x="658" 
d="M578 380v-100h-498v100h498z" />
    <glyph glyph-name="cid118" unicode="&#x2014;" horiz-adv-x="795" 
d="M715 380v-100h-635v100h635z" />
    <glyph glyph-name="cid119" unicode="&#x2015;" horiz-adv-x="795" 
d="M715 380v-100h-635v100h635z" />
    <glyph glyph-name="cid120" unicode="&#x2018;" horiz-adv-x="276" 
d="M204 748q-23 -46 -18.5 -97t32.5 -99l-109 -18q-20 51 -19 110.5t35 109.5z" />
    <glyph glyph-name="cid121" unicode="&#x2019;" horiz-adv-x="292" 
d="M58 544q29 41 38.5 91t-8.5 103l110 -1q11 -53 -5.5 -111t-58.5 -101z" />
    <glyph glyph-name="cid122" unicode="&#x201c;" horiz-adv-x="420" 
d="M178 748q-23 -46 -18.5 -97t32.5 -99l-109 -18q-20 51 -19 110.5t35 109.5zM372 748q-23 -46 -18.5 -97t32.5 -99l-109 -18q-20 51 -19 110.5t35 109.5z" />
    <glyph glyph-name="cid123" unicode="&#x201d;" horiz-adv-x="420" 
d="M34 554q29 41 38.5 91t-8.5 103l110 -1q11 -53 -5.5 -111t-58.5 -101zM212 554q29 41 38.5 91t-8.5 103l110 -1q11 -53 -5.5 -111t-58.5 -101z" />
    <glyph glyph-name="cid124" unicode="&#x2020;" horiz-adv-x="448" 
d="M398 437h-126v-581h-96v581h-126v89h126v238h96v-238h126v-89z" />
    <glyph glyph-name="cid125" unicode="&#x2021;" horiz-adv-x="448" 
d="M272 447v-271h126v-89h-126v-231h-96v231h-126v89h126v271h-126v89h126v228h96v-228h126v-89h-126z" />
    <glyph glyph-name="cid126" unicode="&#x2022;" horiz-adv-x="280" 
d="M139 270q-15 0 -29.5 6.5t-25.5 17t-17.5 25t-6.5 30.5t6.5 30t17.5 24t25 16t30 6t31 -6t26 -16t18 -24t7 -30t-7 -30.5t-18 -25t-26 -17t-31 -6.5z" />
    <glyph glyph-name="cid127" unicode="&#x2023;" horiz-adv-x="288" 
d="M261 344l-231 -155v309z" />
    <glyph glyph-name="cid128" unicode="&#x2025;" horiz-adv-x="560" 
d="M76 -15l-5 125h130q4 -29 1.5 -63t-11.5 -67zM352 -16l-5 125h130q4 -29 1.5 -63t-11.5 -67z" />
    <glyph glyph-name="cid129" unicode="&#x2026;" horiz-adv-x="840" 
d="M633 -12l-5 125h130q4 -29 1.5 -63t-11.5 -67zM366 -14l-5 125h130q4 -29 1.5 -63t-11.5 -67zM83 -17l-5 125h130q4 -29 1.5 -63t-11.5 -67z" />
    <glyph glyph-name="cid11896" unicode="&#x2030;" horiz-adv-x="840" 
d="M28 67q56 64 117 144t116.5 164.5t101 167t72.5 150.5l71 -32q-36 -81 -85.5 -166t-104.5 -168.5t-112.5 -162.5t-109.5 -147zM163 403q-26 0 -49 10t-39.5 27.5t-26 41t-9.5 49.5t9.5 49.5t26 41t39.5 27.5t49 10t48.5 -10t39 -27.5t25.5 -41t9 -49.5t-9 -49.5
t-25.5 -41t-39 -27.5t-48.5 -10zM162 473q23 0 36.5 16.5t13.5 40.5q0 23 -13.5 39.5t-36.5 16.5q-24 0 -38 -16.5t-14 -39.5q0 -24 14 -40.5t38 -16.5zM390 3q-26 0 -48.5 10t-39 27.5t-25.5 41t-9 49.5t9 49.5t25.5 41t39 27.5t48.5 10t49 -10t39.5 -27.5t26 -41
t9.5 -49.5t-9.5 -49.5t-26 -41t-39.5 -27.5t-49 -10zM670 3q-26 0 -48.5 10t-39 27.5t-25.5 41t-9 49.5t9 49.5t25.5 41t39 27.5t48.5 10t49 -10t39.5 -27.5t26 -41t9.5 -49.5t-9.5 -49.5t-26 -41t-39.5 -27.5t-49 -10zM389 73q23 0 37.5 16.5t14.5 40.5q0 23 -14.5 39.5
t-37.5 16.5q-24 0 -37 -16.5t-13 -39.5q0 -24 13 -40.5t37 -16.5zM669 73q23 0 37.5 16.5t14.5 40.5q0 23 -14.5 39.5t-37.5 16.5q-24 0 -37 -16.5t-13 -39.5q0 -24 13 -40.5t37 -16.5z" />
    <glyph glyph-name="cid130" unicode="&#x2032;" horiz-adv-x="219" 
d="M174 740l-71 -234h-73l51 234h93z" />
    <glyph glyph-name="cid131" unicode="&#x2033;" horiz-adv-x="374" 
d="M174 740l-71 -234h-73l51 234h93zM329 740l-71 -234h-73l51 234h93z" />
    <glyph glyph-name="cid132" unicode="&#x203b;" horiz-adv-x="840" 
d="M421 517q-26 0 -44 18t-18 42t18 42t44 18q24 0 41.5 -18t17.5 -42t-17.5 -42t-41.5 -18zM482 332l199 -199l-64 -66l-196 203l-194 -200l-62 63l190 196l-184 186l62 60l182 -185l182 187l62 -63zM228 333q0 -26 -18 -44t-42 -18t-42 18t-18 44q0 24 18 41.5t42 17.5
t42 -17.5t18 -41.5zM671 392q24 0 42 -17.5t18 -41.5q0 -26 -18 -44t-42 -18t-42 18t-18 44q0 24 18 41.5t42 17.5zM421 139q24 0 41.5 -18t17.5 -42t-17.5 -42t-41.5 -18q-26 0 -44 18t-18 42t18 42t44 18z" />
    <glyph glyph-name="cid133" unicode="&#x20a9;" horiz-adv-x="840" 
d="M791 322q-24 -2 -48 -3.5t-47 -3.5q-16 -72 -34 -140.5t-36 -120.5h-112l-54 253h-68l-55 -253h-113q-20 60 -37.5 126t-34.5 135q-26 2 -51.5 3.5t-51.5 3.5v83l85 -7q-11 54 -21 106.5t-18 102.5l106 9q5 -50 11.5 -106.5t15.5 -116.5l100 -3l41 191h112l42 -190l100 3
q8 62 13.5 119.5t7.5 104.5l106 -8q-5 -42 -14.5 -96t-21.5 -115l77 6v-83zM442 389l-16 78l-17 -78h33zM577 141q10 38 18 81.5t16 88.5q-18 -1 -35.5 -1.5t-34.5 -0.5zM310 308l-69 3q15 -87 35 -163z" />
    <glyph glyph-name="cid134" unicode="&#x20ac;" horiz-adv-x="571" 
d="M521 104q-34 -24 -73.5 -39.5t-90.5 -16.5q-87 -2 -147 43.5t-84 126.5h-81l14 75h54q-1 7 -1 14v15v14t1 14h-60l14 75h61q13 40 36 73.5t53 57t66.5 36.5t77.5 13q47 0 80 -10t61 -36l-44 -73q-19 18 -43 24t-53 6q-43 0 -78.5 -24.5t-56.5 -66.5h196l-14 -75h-203
q-1 -7 -1.5 -13.5t-0.5 -14.5v-15t1 -14h208l-14 -75h-175q38 -80 126 -80q43 0 73.5 13t48.5 30z" />
    <glyph glyph-name="cid135" unicode="&#x2103;" horiz-adv-x="867" 
d="M166 447q-24 0 -46 10t-39 26.5t-27 39t-10 47.5t10 46.5t26.5 37.5t39 25t46.5 9q25 0 48 -9t40.5 -25t28 -37.5t10.5 -46.5t-10.5 -47.5t-28 -39t-40.5 -26.5t-48 -10zM833 232q-10 -47 -33.5 -87t-57.5 -69.5t-76 -46.5t-88 -17q-68 0 -119 26.5t-85.5 72t-52 105
t-17.5 125.5q0 67 18.5 127t54.5 105t88.5 71.5t119.5 26.5q48 0 87 -15.5t69 -40.5t50.5 -56.5t31.5 -63.5l-94 -51q-16 52 -53.5 88t-90.5 36q-44 0 -76 -21.5t-54 -55t-32.5 -73.5t-10.5 -77q0 -47 10 -88.5t30.5 -73t52 -49.5t75.5 -18q28 0 53.5 13t46 34.5t35.5 49.5
t23 58zM168 514q21 0 37.5 16.5t16.5 37.5q0 22 -16.5 37.5t-37.5 15.5t-37 -15.5t-16 -37.5q0 -21 16 -37.5t37 -16.5z" />
    <glyph glyph-name="cid136" unicode="&#x2109;" horiz-adv-x="840" 
d="M156 688q25 0 48 -9t40.5 -25t28 -37.5t10.5 -46.5t-10.5 -47.5t-28 -39t-40.5 -26.5t-48 -10q-24 0 -46 10t-39 26.5t-27 39t-10 47.5t10 46.5t26.5 37.5t39 25t46.5 9zM768 550q-58 5 -132 5.5t-150 -4.5q-6 -71 -9 -153q62 8 127 9.5t131 -0.5l-5 -103q-72 4 -133 2.5
t-123 -8.5q-2 -69 -1 -137.5t3 -131.5h-102q-3 60 -5 125t-1.5 131.5t2.5 131.5t7 125l-22 -2t-22 -3l-5 107q113 11 230 14t220 -4zM158 514q21 0 37.5 16.5t16.5 37.5q0 22 -16.5 37.5t-37.5 15.5t-37 -15.5t-16 -37.5q0 -21 16 -37.5t37 -16.5z" />
    <glyph glyph-name="cid11921" unicode="&#x2113;" horiz-adv-x="540" 
d="M435 63q-8 -19 -23.5 -36t-35.5 -29.5t-43.5 -19.5t-48.5 -6q-27 1 -49 11.5t-39 29.5q-47 -31 -107 -51l-35 80q52 17 99 47q-11 30 -17.5 63.5t-10 68t-4.5 68t1 62.5q3 65 15.5 121t34.5 97.5t52.5 65t70.5 23.5q39 0 65 -21t40 -60t16 -94.5t-7 -124.5
q-5 -39 -17.5 -79t-31.5 -78.5t-45.5 -74.5t-59.5 -67q14 -14 30 -14q18 0 32.5 6.5t26.5 17t20.5 24t13.5 26.5zM211 350q-4 -60 -1.5 -112.5t10.5 -93.5q87 92 104 217q6 41 7.5 79t-2 67t-12.5 46.5t-25 17.5q-34 0 -54.5 -59.5t-26.5 -161.5z" />
    <glyph glyph-name="cid137" unicode="&#x2122;" horiz-adv-x="599" 
d="M568 660q-7 -72 -5.5 -148t6.5 -148h-60q-1 48 0 99t3 96l-65 -156h-52l-65 169q-1 -51 1.5 -105.5t7.5 -102.5h-60q-2 31 -2.5 69t0 78t3 79t5.5 73l58 -3l79 -192l82 195zM30 653q52 6 111.5 6.5t114.5 -1.5l-5 -60q-17 1 -36.5 1.5t-39.5 0.5q-2 -27 -3 -57
t-1.5 -60.5t-0.5 -61t1 -57.5h-61q-2 27 -2 57.5t0.5 61.5t1.5 61t3 56q-20 -1 -40.5 -2.5t-40.5 -4.5z" />
    <glyph glyph-name="cid11925" unicode="&#x212b;" horiz-adv-x="840" 
d="M437 710q-37 0 -63 26.5t-26 63.5q0 18 7 34t19 28.5t28.5 19.5t34.5 7t34.5 -7t28.5 -19.5t19 -28.5t7 -34q0 -37 -26 -63.5t-63 -26.5zM437 835q-15 0 -25 -10.5t-10 -24.5q0 -15 10 -25.5t25 -10.5t25 10.5t10 25.5q0 14 -10 24.5t-25 10.5zM525 230l-232 -8
q-20 -59 -35 -111.5t-24 -94.5h-104q9 45 25.5 101.5t37.5 117.5t45.5 124t49.5 120.5t49 107t45 83.5h111l202 -654h-108zM496 329l-66 231q-26 -50 -51.5 -111t-49.5 -125z" />
    <glyph glyph-name="cid138" unicode="&#x2190;" horiz-adv-x="840" 
d="M703 303h-490q35 -29 68.5 -64t56.5 -69l-71 -56q-35 55 -89.5 116.5t-127.5 115.5q73 54 127.5 115.5t89.5 116.5l71 -56q-23 -35 -57 -69.5t-70 -63.5h492v-86z" />
    <glyph glyph-name="cid139" unicode="&#x2191;" horiz-adv-x="564" 
d="M282 663q54 -73 115.5 -127.5t116.5 -89.5l-56 -71q-35 23 -68.5 56t-62.5 69v-490h-90v488q-29 -35 -63 -67.5t-68 -55.5l-56 71q55 35 116.5 89.5t115.5 127.5z" />
    <glyph glyph-name="cid140" unicode="&#x2192;" horiz-adv-x="840" 
d="M530 578q35 -55 89.5 -116.5t127.5 -115.5q-73 -54 -127.5 -115.5t-89.5 -116.5l-71 56q23 35 57 69.5t70 63.5h-492v86h490q-35 29 -68.5 64t-56.5 69l71 56v0z" />
    <glyph glyph-name="cid141" unicode="&#x2193;" horiz-adv-x="564" 
d="M514 227q-55 -35 -116.5 -89.5t-115.5 -127.5q-54 73 -115.5 127.5t-116.5 89.5l56 71q34 -23 68 -55.5t63 -67.5v488h90v-490q29 36 62.5 69t68.5 56z" />
    <glyph glyph-name="cid142" unicode="&#x2194;" horiz-adv-x="840" 
d="M583 568q35 -55 84.5 -116.5t122.5 -115.5q-73 -54 -122.5 -115.5t-84.5 -116.5l-71 56q23 34 54 69t65 64h-422q34 -29 65 -64t54 -69l-71 -56q-35 55 -84.5 116.5t-122.5 115.5q73 54 122.5 115.5t84.5 116.5l71 -56q-23 -35 -54.5 -69.5t-65.5 -63.5h424
q-34 29 -65.5 63.5t-54.5 69.5zM685 336l1 1l-1 1v-2z" />
    <glyph glyph-name="cid143" unicode="&#x2195;" horiz-adv-x="564" 
d="M327 82q29 35 63 67.5t68 55.5l56 -71q-55 -35 -116.5 -89.5t-115.5 -127.5q-54 73 -115.5 127.5t-116.5 89.5l56 71q35 -23 68.5 -56t62.5 -69v472q-29 -36 -62.5 -69t-68.5 -56l-56 71q55 35 116.5 89.5t115.5 127.5q54 -73 115.5 -127.5t116.5 -89.5l-56 -71
q-34 23 -68 55.5t-63 67.5v-468zM281 610h1l-1 1v-1z" />
    <glyph glyph-name="cid144" unicode="&#x2196;" horiz-adv-x="840" 
d="M606 74l-345 344q4 -45 3 -92t-9 -87l-89 11q14 63 19 145t-9 172q91 -13 172.5 -8t145.5 19l10 -90q-41 -8 -88 -8.5t-93 4.5l347 -347z" />
    <glyph glyph-name="cid145" unicode="&#x2197;" horiz-adv-x="840" 
d="M664 567q-14 -90 -9 -172t19 -145l-89 -11q-8 41 -9 87.5t4 92.5l-346 -345l-64 63l345 345q-45 -4 -92 -3t-87 9l10 90q64 -14 145.5 -19t172.5 8z" />
    <glyph glyph-name="cid146" unicode="&#x2198;" horiz-adv-x="840" 
d="M655 413q-15 -64 -20 -145.5t9 -172.5q-91 14 -172.5 9t-145.5 -20l-10 90q41 8 87.5 9t92.5 -4l-346 346l64 64l345 -345q-4 45 -3 92t9 87l90 -10v0z" />
    <glyph glyph-name="cid147" unicode="&#x2199;" horiz-adv-x="840" 
d="M327 180q45 4 92 3t87 -9l-10 -90q-64 15 -145.5 20t-172.5 -9q14 91 9 172.5t-20 145.5l90 10q8 -41 9 -87.5t-4 -92.5l346 346l64 -64l-345 -345v0z" />
    <glyph glyph-name="cid11954" unicode="&#x2200;" horiz-adv-x="840" 
d="M691 670l-208 -654h-111q-20 34 -43 83.5t-47.5 107t-48.5 120.5t-44.5 124t-37 117.5t-25.5 101.5h104q9 -42 24 -94.5t35 -111.5l230 -8l64 214h108zM490 357l-166 5q23 -64 48 -124.5t49 -110.5z" />
    <glyph glyph-name="cid11955" unicode="&#x2202;" horiz-adv-x="631" 
d="M200 690q81 -18 142.5 -54t103 -86t62 -112.5t20.5 -133.5q0 -65 -17 -126.5t-49 -109.5t-78 -77.5t-104 -29.5q-40 0 -79 13.5t-69.5 40.5t-49.5 68t-19 97q0 43 15 81.5t43 67t68.5 45t91.5 16.5q59 0 103 -30t73 -71v21q0 58 -18.5 107.5t-54.5 88.5t-88 65.5
t-119 37.5zM284 35q54 0 96.5 44.5t62.5 117.5q-14 26 -32.5 48.5t-39.5 39.5t-44.5 27t-47.5 10q-65 0 -101 -40.5t-36 -101.5q0 -37 11 -64t30 -45t45 -27t56 -9z" />
    <glyph glyph-name="cid11956" unicode="&#x2203;" horiz-adv-x="658" 
d="M594 547q-11 2 -22.5 3t-22.5 2q3 -58 5 -123.5t1 -134.5t-3.5 -139t-8.5 -136q-114 16 -213.5 18t-199.5 -8v102q35 3 75 3.5t81 0t82 -3t79 -6.5q2 41 3 86t1 93q-63 6 -127.5 7.5t-136.5 -2.5l-5 103q66 2 135 0.5t132 -9.5q-1 42 -3 81t-4 77q-79 5 -156.5 4.5
t-136.5 -5.5l-10 104q51 3 108.5 4t116.5 0t119 -4.5t116 -9.5z" />
    <glyph glyph-name="cid11957" unicode="&#x2207;" horiz-adv-x="840" 
d="M143 646h552l-238 -596h-74zM420 137l158 431h-316z" />
    <glyph glyph-name="cid11960" unicode="&#x220f;" horiz-adv-x="840" 
d="M725 583h-124v-747h-93v747h-175v-747h-93v747h-125v87h610v-87z" />
    <glyph glyph-name="cid11961" unicode="&#x2211;" horiz-adv-x="612" 
d="M532 589h-358l235 -334l-237 -339h360v-76h-452v76l235 339l-235 334v76h452v-76z" />
    <glyph glyph-name="cid148" unicode="&#x2212;" horiz-adv-x="638" 
d="M538 280q-46 -5 -102.5 -8t-115 -4t-115.5 0.5t-105 6.5v95q49 -5 106.5 -7t116 -1.5t114.5 4t101 9.5v-95z" />
    <glyph glyph-name="cid11962" unicode="&#x221a;" horiz-adv-x="840" 
d="M790 623h-292l-147 -590h-85l-95 351h-101v73h153l85 -319l129 559h353v-74z" />
    <glyph glyph-name="cid11963" unicode="&#x221d;" horiz-adv-x="840" 
d="M692 406q-24 -1 -52.5 -8.5t-56.5 -22t-54 -35.5t-45 -50l8 -11q21 -29 45.5 -48.5t50.5 -31t52.5 -17t51.5 -5.5v-83q-34 -2 -68.5 7.5t-67 27.5t-61.5 44t-51 57l-30 -45t-37 -44t-48 -33.5t-61 -13.5q-39 0 -71.5 15t-56.5 42t-37 64.5t-13 82.5t13 80t37 60t56.5 38
t71.5 13q31 0 56 -12t45.5 -31.5t37.5 -43.5t32 -47q20 32 46.5 54.5t58.5 37.5t69 25t79 17v-83zM262 169q18 0 36.5 10.5t36.5 28t35 39.5t32 46q-10 15 -23.5 35t-30 37.5t-36.5 30t-44 12.5q-38 0 -66.5 -27.5t-28.5 -82.5q0 -57 25.5 -93t63.5 -36z" />
    <glyph glyph-name="cid11964" unicode="&#x221e;" horiz-adv-x="840" 
d="M623 489q44 0 80.5 -14t62.5 -39.5t40 -60.5t14 -77q0 -50 -14 -88t-38.5 -63.5t-57.5 -39t-72 -13.5q-36 0 -67 10t-57 27.5t-49 40t-43 47.5q-20 -25 -42 -47.5t-47.5 -40t-55 -27.5t-65.5 -10q-89 0 -140.5 52t-51.5 152q0 42 13.5 77t38.5 60.5t60.5 39.5t79.5 14
q34 0 63 -10.5t54.5 -28t48 -40.5t43.5 -48q19 25 40 48t46 40.5t53.5 28t62.5 10.5zM212 175q24 0 45 9t40 24.5t36.5 36.5t34.5 44q-18 24 -36 45.5t-37 38t-39.5 26t-43.5 9.5q-22 0 -42 -6.5t-35.5 -20t-24.5 -34.5t-9 -49q0 -27 9 -49.5t24.5 -39t35.5 -25.5t42 -9z
M638 175q16 0 34 9t33 25.5t24.5 39t9.5 49.5q0 28 -10 49t-26.5 34.5t-37 20t-42.5 6.5t-41.5 -9.5t-37.5 -25.5t-35 -37t-34 -44q18 -24 37 -45t38.5 -37t41.5 -25.5t46 -9.5z" />
    <glyph glyph-name="cid11965" unicode="&#x2220;" horiz-adv-x="840" 
d="M669 556l-392 -443l457 4v-87h-636l495 588z" />
    <glyph glyph-name="cid11966" unicode="&#x2225;" horiz-adv-x="840" 
d="M376 661v-657h-76v657h76zM536 661v-657h-76v657h76z" />
    <glyph glyph-name="cid11967" unicode="&#x2227;" horiz-adv-x="840" 
d="M703 54h-87l-196 413l-197 -413h-87l284 570z" />
    <glyph glyph-name="cid11968" unicode="&#x2228;" horiz-adv-x="840" 
d="M703 624l-283 -570l-284 570h87l197 -413l196 413h87z" />
    <glyph glyph-name="cid11971" unicode="&#x222b;" horiz-adv-x="840" 
d="M258 24q7 -17 18 -29.5t23 -12.5q24 0 32 44l115 606q4 24 16 44t29 34.5t37.5 22t42.5 7.5q23 0 40 -7.5t29.5 -18t20.5 -23t12 -21.5l-59 -43q-15 35 -42 35q-38 0 -47 -50l-117 -614q-9 -48 -37 -75t-72 -27q-20 0 -36 6.5t-28.5 17.5t-21.5 25t-16 29z" />
    <glyph glyph-name="cid11973" unicode="&#x222e;" horiz-adv-x="840" 
d="M506 510q30 -11 55 -29t42.5 -42t26.5 -52.5t7 -60.5q-2 -41 -17.5 -76t-42 -61.5t-63 -42.5t-80.5 -17l-26 -141q-9 -48 -37 -75t-72 -27q-20 0 -36 6.5t-28.5 17.5t-21.5 25t-16 29l61 50q7 -17 18 -29.5t23 -12.5q24 0 32 44l23 125q-31 10 -56 28t-43 42t-27 53.5
t-7 61.5q2 41 17.5 76.5t42.5 62t63.5 42t81.5 16.5l20 109q4 24 16 44t29 34.5t37.5 22t42.5 7.5q23 0 40 -7.5t29.5 -18t20.5 -23t12 -21.5l-59 -43q-15 35 -42 35q-38 0 -47 -50zM296 326q-3 -38 17 -68t55 -45l44 237q-53 -5 -82 -40t-34 -84zM563 326q3 38 -16.5 67.5
t-54.5 44.5l-44 -236q51 6 81 41t34 83z" />
    <glyph glyph-name="cid11974" unicode="&#x2234;" horiz-adv-x="840" 
d="M420 413q-29 0 -49 20t-20 49t20 48.5t49 19.5t48.5 -19.5t19.5 -48.5t-19.5 -49t-48.5 -20zM230 93q-29 0 -49 20t-20 49t20 48.5t49 19.5t48.5 -19.5t19.5 -48.5t-19.5 -49t-48.5 -20zM600 93q-29 0 -49 20t-20 49t20 48.5t49 19.5t48.5 -19.5t19.5 -48.5t-19.5 -49
t-48.5 -20z" />
    <glyph glyph-name="cid11979" unicode="&#x2252;" horiz-adv-x="840" 
d="M304 486q-27 0 -46.5 19.5t-19.5 46.5t19.5 46.5t46.5 19.5t46.5 -19.5t19.5 -46.5t-19.5 -46.5t-46.5 -19.5zM652 368q-51 -6 -109.5 -9.5t-119.5 -4t-121.5 1.5t-114.5 7v84q54 -5 114.5 -7t121.5 -1t119.5 4t109.5 9v-84zM652 215q-51 -6 -109.5 -9.5t-119.5 -4
t-121.5 1.5t-114.5 7v86q54 -6 114.5 -8t121.5 -1t119.5 4.5t109.5 9.5v-86zM524 27q-27 0 -46.5 19t-19.5 46t19.5 46.5t46.5 19.5t46.5 -19.5t19.5 -46.5t-19.5 -46t-46.5 -19z" />
    <glyph glyph-name="cid149" unicode="&#x2260;" horiz-adv-x="645" 
d="M545 370q-71 -9 -153 -12l-43 -84q52 2 101 5t95 8v-89q-56 -7 -116.5 -10.5t-123.5 -2.5l-57 -113l-76 39l38 75q-29 2 -56 3.5t-54 3.5v89q73 -7 153 -9l42 84q-50 0 -99 2t-96 6v88q57 -5 118 -7t122 -1l65 130l76 -39l-44 -87q57 3 108 9v-88v0z" />
    <glyph glyph-name="cid11980" unicode="&#x2261;" horiz-adv-x="900" 
d="M673 425q-47 -6 -105 -9.5t-118 -4t-118 1.5t-105 7v83q47 -5 105 -7t118 -1.5t118 4t105 9.5v-83zM673 285q-47 -6 -105 -9.5t-118 -4t-118 1.5t-105 7v83q47 -5 105 -7t118 -1.5t118 4t105 9.5v-83zM673 141q-47 -6 -105 -9.5t-118 -4t-118 1.5t-105 7v83q47 -5 105 -7
t118 -1.5t118 4t105 9.5v-83z" />
    <glyph glyph-name="cid150" unicode="&#x2264;" horiz-adv-x="597" 
d="M491 168l-387 169v96l387 174v-100l-302 -119l302 -120v-100zM518 93v-85h-442v85h442z" />
    <glyph glyph-name="cid151" unicode="&#x2265;" horiz-adv-x="597" 
d="M493 337l-387 -169v100l302 120l-302 119v100l387 -174v-96zM521 93v-85h-442v85h442z" />
    <glyph glyph-name="cid11983" unicode="&#x226a;" horiz-adv-x="840" 
d="M190 336l271 -202v-97l-351 259v75l351 263v-97zM691 537l-271 -201l271 -202v-97l-351 259v75l351 263v-97z" />
    <glyph glyph-name="cid11984" unicode="&#x226b;" horiz-adv-x="840" 
d="M476 296l-351 -259v97l271 202l-271 201v97l351 -263v-75zM706 371v-75l-351 -259v97l271 202l-271 201v97z" />
    <glyph glyph-name="cid11985" unicode="&#x2282;" horiz-adv-x="671" 
d="M80 336q0 67 21 112.5t55 73t78 39t90 11.5h272v-86h-272q-69 0 -111 -38.5t-42 -111.5v-7q0 -73 42 -111t111 -38h272v-86h-272q-46 0 -90 11.5t-78 38.5t-55 72t-21 113v7z" />
    <glyph glyph-name="cid11986" unicode="&#x2283;" horiz-adv-x="671" 
d="M596 329q0 -68 -21 -113t-55 -72t-78 -38.5t-90 -11.5h-272v86h272q69 0 111 38t42 111v7q0 73 -42 111.5t-111 38.5h-272v86h272q46 0 90 -11.5t78 -39t55 -73t21 -112.5v-7v0z" />
    <glyph glyph-name="cid11989" unicode="&#x2299;" horiz-adv-x="840" 
d="M420 17q-61 0 -114.5 23t-93.5 63t-63 93.5t-23 114.5t23 114.5t63 93.5t93.5 63t114.5 23t114 -23t93 -63t63 -93.5t23 -114.5t-23 -114.5t-63 -93.5t-93 -63t-114 -23zM420 88q46 0 86.5 17.5t70.5 47.5t47.5 70.5t17.5 87.5q0 46 -17.5 87t-47.5 71t-70.5 47.5
t-86.5 17.5q-47 0 -87.5 -17.5t-70.5 -47.5t-47.5 -71t-17.5 -87q0 -47 17.5 -87.5t47.5 -70.5t70.5 -47.5t87.5 -17.5zM420 224q-18 0 -34 7t-27.5 18.5t-18.5 27t-7 33.5q0 36 25.5 61.5t61.5 25.5q17 0 32.5 -7t27 -18.5t18.5 -27.5t7 -34t-7 -33.5t-18.5 -27t-27 -18.5
t-32.5 -7z" />
    <glyph glyph-name="cid11990" unicode="&#x22a5;" horiz-adv-x="840" 
d="M742 134v-89h-644v89h277v509h91v-509h276z" />
    <glyph glyph-name="cid11992" unicode="&#x2312;" horiz-adv-x="840" 
d="M638 59q-21 57 -79.5 89.5t-138.5 32.5q-78 0 -136 -32.5t-84 -89.5h-99q9 38 39 74.5t73.5 65t97 46t109.5 17.5q64 0 118 -17.5t95 -46t68.5 -65t37.5 -74.5h-101z" />
    <glyph glyph-name="cid158" unicode="&#x2329;" horiz-adv-x="420" 
d="M54 306l220 439h99l-213 -439l214 -439h-100z" />
    <glyph glyph-name="cid158" unicode="&#x3008;" horiz-adv-x="420" 
d="M54 306l220 439h99l-213 -439l214 -439h-100z" />
    <glyph glyph-name="cid159" unicode="&#x232a;" horiz-adv-x="420" 
d="M374 306l-220 -439h-99l213 439l-214 439h100z" />
    <glyph glyph-name="cid159" unicode="&#x3009;" horiz-adv-x="420" 
d="M374 306l-220 -439h-99l213 439l-214 439h100z" />
    <glyph glyph-name="cid152" unicode="&#x25a1;" horiz-adv-x="840" 
d="M146 582h547v-551h-547v551zM618 102v409h-397v-409h397z" />
    <glyph glyph-name="cid12063" unicode="&#x25a3;" horiz-adv-x="840" 
d="M146 582h547v-551h-547v551zM618 102v409h-397v-409h397zM290 438l257 3l5 -266l-266 2z" />
    <glyph glyph-name="cid12071" unicode="&#x25b3;" horiz-adv-x="840" 
d="M419 621l328 -577h-654zM623 111l-204 375l-201 -375h405z" />
    <glyph glyph-name="cid12076" unicode="&#x25c0;" horiz-adv-x="840" 
d="M162 300l483 291v-582z" />
    <glyph glyph-name="cid12077" unicode="&#x25c1;" horiz-adv-x="840" 
d="M83 316l577 348v-694zM586 539l-370 -223l370 -222v445z" />
    <glyph glyph-name="cid12079" unicode="&#x25c7;" horiz-adv-x="840" 
d="M420 686l379 -379l-374 -380l-385 379zM425 29l272 277l-277 278l-278 -278z" />
    <glyph glyph-name="cid12080" unicode="&#x25c8;" horiz-adv-x="840" 
d="M420 686l379 -379l-374 -380l-385 379zM425 21l280 285l-285 286l-286 -286zM220 306l200 200l199 -200l-194 -199z" />
    <glyph glyph-name="cid153" unicode="&#x25cb;" horiz-adv-x="840" 
d="M420 17q-61 0 -114.5 23t-93.5 63t-63 93.5t-23 114.5t23 114.5t63 93.5t93.5 63t114.5 23t114 -23t93 -63t63 -93.5t23 -114.5t-23 -114.5t-63 -93.5t-93 -63t-114 -23zM420 88q46 0 86.5 17.5t70.5 47.5t47.5 70.5t17.5 87.5q0 46 -17.5 87t-47.5 71t-70.5 47.5
t-86.5 17.5q-47 0 -87.5 -17.5t-70.5 -47.5t-47.5 -71t-17.5 -87q0 -47 17.5 -87.5t47.5 -70.5t70.5 -47.5t87.5 -17.5z" />
    <glyph glyph-name="cid12082" unicode="&#x25ce;" horiz-adv-x="840" 
d="M420 17q-61 0 -114.5 23t-93.5 63t-63 93.5t-23 114.5t23 114.5t63 93.5t93.5 63t114.5 23t114 -23t93 -63t63 -93.5t23 -114.5t-23 -114.5t-63 -93.5t-93 -63t-114 -23zM420 88q46 0 86.5 17.5t70.5 47.5t47.5 70.5t17.5 87.5q0 46 -17.5 87t-47.5 71t-70.5 47.5
t-86.5 17.5q-47 0 -87.5 -17.5t-70.5 -47.5t-47.5 -71t-17.5 -87q0 -47 17.5 -87.5t47.5 -70.5t70.5 -47.5t87.5 -17.5zM421 177q-29 0 -53.5 10t-42.5 28t-28 42.5t-10 53.5q0 28 10 52.5t28 42.5t42.5 28.5t53.5 10.5q27 0 51 -10.5t42 -28.5t28 -42.5t10 -52.5
q0 -29 -10 -53.5t-28 -42.5t-42 -28t-51 -10zM420 242q28 0 48 20t20 49t-20 49t-48 20q-29 0 -49 -20t-20 -49t20 -49t49 -20z" />
    <glyph glyph-name="cid12084" unicode="&#x25d0;" horiz-adv-x="840" 
d="M420 17q-61 0 -114.5 23t-93.5 63t-63 93.5t-23 114.5t23 114.5t63 93.5t93.5 63t114.5 23t114 -23t93 -63t63 -93.5t23 -114.5t-23 -114.5t-63 -93.5t-93 -63t-114 -23zM420 88q46 0 86.5 17.5t70.5 47.5t47.5 70.5t17.5 87.5q0 46 -17.5 87t-47.5 71t-70.5 47.5
t-86.5 17.5v-446z" />
    <glyph glyph-name="cid154" unicode="&#x25e6;" horiz-adv-x="840" 
d="M418 224q-21 0 -40.5 8.5t-34 23t-23.5 33.5t-9 41t8.5 41t23.5 32.5t34.5 21.5t40.5 8q22 0 42 -8t35 -21.5t24 -32.5t9 -41t-9 -41t-24 -33.5t-35 -23t-42 -8.5zM419 278q21 0 37 15t16 36t-16 35.5t-37 14.5t-36.5 -14.5t-15.5 -35.5t16 -36t36 -15z" />
    <glyph glyph-name="cid12086" unicode="&#x2605;" horiz-adv-x="840" 
d="M256 298l-219 166l280 16l104 240l102 -240l280 -16l-219 -166l85 -297l-248 174l-250 -174z" />
    <glyph glyph-name="cid12087" unicode="&#x2606;" horiz-adv-x="840" 
d="M256 298l-219 166l280 16l104 240l102 -240l280 -16l-219 -166l85 -297l-248 174l-250 -174zM421 257l138 -97l-48 166l122 92l-156 9l-56 134l-58 -134l-156 -9l122 -92l-48 -166z" />
    <glyph glyph-name="cid12092" unicode="&#x2640;" horiz-adv-x="840" 
d="M461 179h160v-70h-160v-160h-79v160h-162v70h162v67q-39 6 -72.5 24t-58 45.5t-38.5 63.5t-14 77q0 49 20 92t54 73.5t79 46t95 10.5l-3 -30q42 -1 78 -16t62 -40.5t41 -60t15 -75.5t-13.5 -76.5t-37.5 -63t-57 -45.5t-71 -25v-67zM278 456q0 -29 11 -53.5t30.5 -42.5
t45.5 -28t55 -10t54.5 10t45 28t30.5 42.5t11 53.5q0 30 -13 53t-35.5 38t-52.5 20.5t-64 -0.5l3 31q-26 -4 -48 -17t-38 -32t-25.5 -43t-9.5 -50z" />
    <glyph glyph-name="cid12093" unicode="&#x2642;" horiz-adv-x="840" 
d="M661 504l-137 -137q19 -27 29 -58.5t10 -64t-11 -65t-33 -61.5q-27 -36 -67 -57.5t-86 -26t-95 9t-95 46.5l15 24q-31 27 -48 60t-20 68t8.5 71.5t37.5 71.5q27 36 63.5 56.5t77 25.5t81.5 -5.5t77 -37.5l140 141l-106 4l7 65l212 -9l10 -213l-66 -6zM456 166
q18 23 24.5 49.5t2 52.5t-19 49.5t-37.5 40.5q-24 18 -51 25.5t-53 5t-50 -15.5t-41 -36q-18 -25 -25 -50.5t-2.5 -49.5t21 -45.5t44.5 -37.5l-12 -20q60 -27 114 -17.5t85 49.5z" />
    <glyph glyph-name="cid12095" unicode="&#x2661;" horiz-adv-x="840" 
d="M420 -30q-49 41 -106.5 101.5t-107 129.5t-82.5 141t-33 136q0 89 41.5 138t109.5 49q31 0 59 -16.5t51 -42t40 -55t26 -54.5h4q9 25 26 54.5t39.5 55t50.5 42t59 16.5q68 0 109.5 -49t41.5 -138q0 -64 -33 -136t-82 -141t-106.5 -129.5t-106.5 -101.5zM420 71
q33 28 76.5 72.5t81.5 97.5t64.5 112t26.5 116q0 32 -6 53t-16.5 33.5t-24 17.5t-28.5 5q-20 0 -43 -19.5t-46.5 -49.5t-44.5 -67t-36 -71h-6q-15 34 -36.5 70.5t-45 66t-46.5 48.5t-41 19q-29 0 -51.5 -28t-22.5 -79q0 -44 24 -99.5t60.5 -111t79.5 -105t81 -81.5z" />
    <glyph glyph-name="cid12098" unicode="&#x2665;" horiz-adv-x="840" 
d="M422 490q9 25 25.5 53.5t39 53t49.5 41t58 16.5q66 0 105 -45.5t39 -133.5q0 -63 -31.5 -133t-79.5 -137t-103.5 -125.5t-103.5 -98.5q-48 40 -104 98.5t-103.5 125.5t-79.5 137t-32 133q0 88 39 133.5t105 45.5q31 0 58.5 -16.5t50 -41t39 -53t25.5 -53.5h4v0z" />
    <glyph glyph-name="cid12101" unicode="&#x2669;" horiz-adv-x="840" 
d="M558 680q-12 -59 -20 -127t-12.5 -141.5t-5 -149.5t4.5 -149q-1 -26 -18.5 -52.5t-43.5 -47.5t-55.5 -34t-53.5 -13q-31 0 -54.5 17t-23.5 49q0 19 12.5 36.5t34.5 33t52 28t65 21.5q-3 70 -2 143.5t5.5 145t12.5 137t19 120.5l83 -17v0z" />
    <glyph glyph-name="cid12102" unicode="&#x266a;" horiz-adv-x="840" 
d="M360 697q80 -20 140.5 -50t100 -70.5t57 -93t13.5 -118.5q-1 -16 -7 -23.5t-13 -8t-13 5.5t-8 18q-6 41 -24 73.5t-45 58t-61.5 43.5t-73.5 30q-5 -53 -5 -111t2.5 -116.5t7 -115t9.5 -106.5q-1 -26 -18.5 -52.5t-43 -47.5t-55 -34t-54.5 -13q-31 0 -54.5 17t-23.5 49
q0 19 12.5 36.5t34 33t51.5 28t65 21.5q-5 62 -9 135t-4 146t4 142t15 123z" />
    <glyph glyph-name="cid12103" unicode="&#x266c;" horiz-adv-x="840" 
d="M716 695q-9 -59 -14.5 -124.5t-8 -133t-2.5 -135t3 -129.5q-1 -26 -18.5 -52.5t-43.5 -47.5t-55.5 -34t-53.5 -13q-31 0 -54.5 17t-23.5 49q0 19 13 37t35.5 33.5t53 28t65.5 21.5q-2 51 -3.5 102t0.5 103l-310 -63q-2 -55 -0.5 -115t5.5 -126q-1 -26 -18.5 -52.5
t-43.5 -47.5t-55.5 -34t-53.5 -13q-31 0 -54.5 17t-23.5 49q0 19 13 37t35.5 34t53.5 28.5t67 20.5q-8 137 -6 256t18 205zM613 524l6 60l-308 -60q-2 -15 -3.5 -30.5t-2.5 -32.5z" />
    <glyph glyph-name="cid12104" unicode="&#x266d;" horiz-adv-x="840" 
d="M503 437q25 0 48 -11t40 -31t27 -48t10 -62q0 -52 -29 -97.5t-75.5 -80t-105.5 -57t-119 -29.5q10 80 14 163.5t2.5 164.5t-7.5 156t-15 138l85 20q9 -65 13.5 -135t5.5 -142q19 23 45 37t61 14zM389 127q34 12 63 27.5t50 35t33 42t12 49.5q0 72 -59 72q-23 0 -47.5 -19
t-43.5 -46q-1 -42 -3 -82t-5 -79z" />
    <glyph glyph-name="cid155" unicode="&#x274c;" horiz-adv-x="840" 
d="M502 323l198 -198l-82 -82l-191 191l-198 -198l-82 82l198 198l-205 205l82 82l198 -198l198 198l82 -82z" />
    <glyph glyph-name="cid156" unicode="&#x2e3a;" horiz-adv-x="1430" 
d="M1350 389v-108h-1270v108h1270z" />
    <glyph glyph-name="cid157" unicode="&#x2e3b;" horiz-adv-x="2065" 
d="M1985 389v-108h-1905v108h1905z" />
    <glyph glyph-name="cid11731" unicode="&#x3001;" horiz-adv-x="330" 
d="M195 -109q-26 46 -64 88.5t-81 77.5l57 69q51 -33 95 -73t78 -84z" />
    <glyph glyph-name="cid11732" unicode="&#x3002;" horiz-adv-x="323" 
d="M158 -73q-21 0 -40.5 8.5t-33.5 22.5t-22.5 33.5t-8.5 40.5t8.5 40.5t22.5 33.5t33.5 22.5t40.5 8.5t40.5 -8.5t33.5 -22.5t22.5 -33.5t8.5 -40.5t-8.5 -40.5t-22.5 -33.5t-33.5 -22.5t-40.5 -8.5zM158 -22q22 0 38 16t16 38t-16 38t-38 16t-38 -16t-16 -38t16 -38
t38 -16z" />
    <glyph glyph-name="cid160" unicode="&#x300a;" horiz-adv-x="560" 
d="M265 740h85l-222 -425l222 -425h-80l-225 425zM419 740h80l-220 -425l220 -425h-80l-225 425z" />
    <glyph glyph-name="cid161" unicode="&#x300b;" horiz-adv-x="560" 
d="M141 740l225 -425l-225 -425h-80l220 425l-220 425h80zM295 740l220 -425l-225 -425h-80l222 425l-222 425h85z" />
    <glyph glyph-name="cid162" unicode="&#x300c;" horiz-adv-x="420" 
d="M75 764l290 5v-98q-18 3 -40.5 4.5t-47.5 1.5t-50.5 -1t-48.5 -4q-2 -18 -2.5 -43t0.5 -54.5t3 -61.5t6 -64h-105z" />
    <glyph glyph-name="cid163" unicode="&#x300d;" horiz-adv-x="420" 
d="M361 -162l-286 -5v101q50 -6 100.5 -7t88.5 5q1 22 1 49t-1.5 56.5t-4 58t-6.5 53.5h103z" />
    <glyph glyph-name="cid164" unicode="&#x300e;" horiz-adv-x="420" 
d="M68 771l304 5v-104q-52 3 -106 3t-93 -2v-52.5t0.5 -60.5t2 -62t3.5 -56h-107zM108 736l-1 -261h35l-5 233l199 2v31z" />
    <glyph glyph-name="cid165" unicode="&#x300f;" horiz-adv-x="420" 
d="M368 -169l-310 -5v111q57 -7 109 -7.5t99 1.5q2 53 0.5 109t-8.5 116h105zM332 -136l-3 259h-33l4 -229l-210 1v-35z" />
    <glyph glyph-name="cid166" unicode="&#x3010;" horiz-adv-x="420" 
d="M90 732h295q-106 -80 -159.5 -186.5t-53.5 -238.5t53.5 -238.5t159.5 -186.5h-295v850z" />
    <glyph glyph-name="cid167" unicode="&#x3011;" horiz-adv-x="420" 
d="M50 -118q106 80 159.5 186.5t53.5 238.5t-53.5 238.5t-159.5 186.5h295v-850h-295z" />
    <glyph glyph-name="cid168" unicode="&#x3014;" horiz-adv-x="420" 
d="M100 -40v694l225 122l46 -76l-176 -97v-592l176 -97l-46 -76z" />
    <glyph glyph-name="cid169" unicode="&#x3015;" horiz-adv-x="420" 
d="M320 -40l-225 -122l-46 76l176 97v592l-176 97l46 76l225 -122v-694z" />
    <glyph glyph-name="cid170" unicode="&#x3131;" horiz-adv-x="840" 
d="M480 133q29 48 47.5 102.5t19.5 109.5q1 44 -22.5 68.5t-79.5 25.5q-59 1 -123.5 -20t-126.5 -56l-43 109q34 17 72 30.5t78.5 22.5t82 13t81.5 2q48 -3 83.5 -17.5t58.5 -39.5t34.5 -57.5t11.5 -71.5q-1 -71 -19 -137t-46 -123z" />
    <glyph glyph-name="cid170" unicode="&#xffa1;" horiz-adv-x="840" 
d="M480 133q29 48 47.5 102.5t19.5 109.5q1 44 -22.5 68.5t-79.5 25.5q-59 1 -123.5 -20t-126.5 -56l-43 109q34 17 72 30.5t78.5 22.5t82 13t81.5 2q48 -3 83.5 -17.5t58.5 -39.5t34.5 -57.5t11.5 -71.5q-1 -71 -19 -137t-46 -123z" />
    <glyph glyph-name="cid171" unicode="&#x3132;" horiz-adv-x="840" 
d="M527 152q16 22 30.5 51t25 60t16.5 61.5t6 57.5q1 51 -15.5 68.5t-44.5 18.5q-30 1 -62 -9t-56 -27l-38 108q32 16 79 26t94 8q76 -2 112.5 -54.5t35.5 -137.5q0 -31 -6.5 -68t-17 -74.5t-24.5 -74t-31 -66.5zM193 171q35 47 59 101t30 99q11 74 -56 73q-31 -1 -63 -11.5
t-61 -29.5l-40 98q38 19 80.5 32.5t96.5 13.5q47 0 78 -14.5t48 -40t21.5 -59t-2.5 -71.5q-5 -30 -14.5 -62.5t-21.5 -65t-26.5 -63t-29.5 -55.5z" />
    <glyph glyph-name="cid171" unicode="&#xffa2;" horiz-adv-x="840" 
d="M527 152q16 22 30.5 51t25 60t16.5 61.5t6 57.5q1 51 -15.5 68.5t-44.5 18.5q-30 1 -62 -9t-56 -27l-38 108q32 16 79 26t94 8q76 -2 112.5 -54.5t35.5 -137.5q0 -31 -6.5 -68t-17 -74.5t-24.5 -74t-31 -66.5zM193 171q35 47 59 101t30 99q11 74 -56 73q-31 -1 -63 -11.5
t-61 -29.5l-40 98q38 19 80.5 32.5t96.5 13.5q47 0 78 -14.5t48 -40t21.5 -59t-2.5 -71.5q-5 -30 -14.5 -62.5t-21.5 -65t-26.5 -63t-29.5 -55.5z" />
    <glyph glyph-name="cid172" unicode="&#x3133;" horiz-adv-x="840" 
d="M222 565q40 0 68.5 -13.5t46.5 -36.5t25.5 -54.5t7.5 -68.5q0 -31 -5 -67t-14.5 -73.5t-24.5 -75.5t-35 -73l-104 52q41 53 63 115.5t23 116.5q1 43 -16 59t-52 16q-30 0 -62 -10.5t-56 -27.5l-38 107q32 16 79 25.5t94 8.5zM621 366q54 -29 103 -83t80 -114l-91 -63
q-21 56 -55.5 100t-77.5 75q-28 -51 -62 -98.5t-72 -86.5l-71 77q42 42 76 89t59 96t40 99.5t19 98.5l98 -17q-6 -78 -46 -173z" />
    <glyph glyph-name="cid172" unicode="&#xffa3;" horiz-adv-x="840" 
d="M222 565q40 0 68.5 -13.5t46.5 -36.5t25.5 -54.5t7.5 -68.5q0 -31 -5 -67t-14.5 -73.5t-24.5 -75.5t-35 -73l-104 52q41 53 63 115.5t23 116.5q1 43 -16 59t-52 16q-30 0 -62 -10.5t-56 -27.5l-38 107q32 16 79 25.5t94 8.5zM621 366q54 -29 103 -83t80 -114l-91 -63
q-21 56 -55.5 100t-77.5 75q-28 -51 -62 -98.5t-72 -86.5l-71 77q42 42 76 89t59 96t40 99.5t19 98.5l98 -17q-6 -78 -46 -173z" />
    <glyph glyph-name="cid173" unicode="&#x3134;" horiz-adv-x="840" 
d="M332 512q-22 -52 -33 -107.5t-11 -96.5q0 -51 28.5 -72t88.5 -19q49 2 109 19.5t124 43.5l30 -111q-68 -21 -137.5 -36.5t-131.5 -17.5q-56 -2 -97 12t-68 40t-40 61t-13 75q0 58 10.5 120t35.5 124z" />
    <glyph glyph-name="cid173" unicode="&#xffa4;" horiz-adv-x="840" 
d="M332 512q-22 -52 -33 -107.5t-11 -96.5q0 -51 28.5 -72t88.5 -19q49 2 109 19.5t124 43.5l30 -111q-68 -21 -137.5 -36.5t-131.5 -17.5q-56 -2 -97 12t-68 40t-40 61t-13 75q0 58 10.5 120t35.5 124z" />
    <glyph glyph-name="cid174" unicode="&#x3135;" horiz-adv-x="840" 
d="M638 314q45 -23 86 -55t70 -64l-71 -79q-29 40 -64 76.5t-71 61.5q-36 -39 -78.5 -75t-85.5 -62l-40 60q-35 -16 -76.5 -25t-77.5 -9q-41 0 -69 11.5t-45.5 33.5t-26 53.5t-10.5 71.5q-1 23 1.5 51t8 57t13.5 58t17 55l99 -17q-23 -50 -34 -106.5t-9 -98.5
q2 -44 18.5 -60t41.5 -15q16 0 34.5 3t37.5 7.5t37 11t33 14.5l19 -49q67 37 117.5 83.5t72.5 85.5q15 27 10 43.5t-30 19.5q-36 5 -81 -4.5t-85 -30.5l-24 94q18 10 44.5 17.5t54.5 12t55.5 5.5t47.5 -2q44 -6 70 -24t36.5 -43t6.5 -55t-20 -60q-6 -12 -14.5 -25t-18.5 -27
z" />
    <glyph glyph-name="cid174" unicode="&#xffa5;" horiz-adv-x="840" 
d="M638 314q45 -23 86 -55t70 -64l-71 -79q-29 40 -64 76.5t-71 61.5q-36 -39 -78.5 -75t-85.5 -62l-40 60q-35 -16 -76.5 -25t-77.5 -9q-41 0 -69 11.5t-45.5 33.5t-26 53.5t-10.5 71.5q-1 23 1.5 51t8 57t13.5 58t17 55l99 -17q-23 -50 -34 -106.5t-9 -98.5
q2 -44 18.5 -60t41.5 -15q16 0 34.5 3t37.5 7.5t37 11t33 14.5l19 -49q67 37 117.5 83.5t72.5 85.5q15 27 10 43.5t-30 19.5q-36 5 -81 -4.5t-85 -30.5l-24 94q18 10 44.5 17.5t54.5 12t55.5 5.5t47.5 -2q44 -6 70 -24t36.5 -43t6.5 -55t-20 -60q-6 -12 -14.5 -25t-18.5 -27
z" />
    <glyph glyph-name="cid175" unicode="&#x3136;" horiz-adv-x="840" 
d="M675 510q-53 -11 -109.5 -9.5t-110.5 14.5l14 87q49 -16 103 -19.5t101 4.5zM232 235q29 0 58 13t51 30l51 -78q-33 -28 -76 -43.5t-88 -15.5q-29 0 -54.5 7t-45.5 25t-33 48.5t-16 76.5q-2 24 1 54.5t9 62t14 62.5t17 57l98 -17q-24 -57 -33.5 -114t-7.5 -102
q1 -20 6 -32.5t12.5 -20t17 -10.5t19.5 -3zM768 400q-16 -2 -36 -4t-43 -4q39 -41 39 -94q0 -32 -11.5 -60.5t-33 -50t-51.5 -34t-67 -12.5q-35 0 -64 12.5t-51 33.5t-34.5 49.5t-12.5 60.5q0 23 8.5 45.5t23.5 41.5q-20 1 -38 1.5t-32 2.5v80q42 -4 94.5 -5.5t107.5 -1
t107 4t94 9.5v-75zM639 297q1 34 -14.5 58.5t-56.5 24.5q-38 0 -55 -24t-17 -59q0 -27 16.5 -50.5t53.5 -23.5q38 0 55 23.5t18 50.5z" />
    <glyph glyph-name="cid175" unicode="&#xffa6;" horiz-adv-x="840" 
d="M675 510q-53 -11 -109.5 -9.5t-110.5 14.5l14 87q49 -16 103 -19.5t101 4.5zM232 235q29 0 58 13t51 30l51 -78q-33 -28 -76 -43.5t-88 -15.5q-29 0 -54.5 7t-45.5 25t-33 48.5t-16 76.5q-2 24 1 54.5t9 62t14 62.5t17 57l98 -17q-24 -57 -33.5 -114t-7.5 -102
q1 -20 6 -32.5t12.5 -20t17 -10.5t19.5 -3zM768 400q-16 -2 -36 -4t-43 -4q39 -41 39 -94q0 -32 -11.5 -60.5t-33 -50t-51.5 -34t-67 -12.5q-35 0 -64 12.5t-51 33.5t-34.5 49.5t-12.5 60.5q0 23 8.5 45.5t23.5 41.5q-20 1 -38 1.5t-32 2.5v80q42 -4 94.5 -5.5t107.5 -1
t107 4t94 9.5v-75zM639 297q1 34 -14.5 58.5t-56.5 24.5q-38 0 -55 -24t-17 -59q0 -27 16.5 -50.5t53.5 -23.5q38 0 55 23.5t18 50.5z" />
    <glyph glyph-name="cid176" unicode="&#x3137;" horiz-adv-x="840" 
d="M666 166q-76 -27 -159 -40t-155 -8q-48 3 -79 15.5t-49 32.5t-24.5 46t-3.5 56q3 32 15.5 70.5t32.5 74.5q-17 1 -33.5 1.5t-33.5 2.5v100q63 -3 119.5 -3.5t111 1.5t108.5 7.5t111 13.5v-100q-65 -10 -134.5 -16.5t-143.5 -8.5q-20 -37 -29.5 -72.5t-11.5 -61.5
q-4 -59 63 -63q52 -4 124 10t147 41z" />
    <glyph glyph-name="cid176" unicode="&#xffa7;" horiz-adv-x="840" 
d="M666 166q-76 -27 -159 -40t-155 -8q-48 3 -79 15.5t-49 32.5t-24.5 46t-3.5 56q3 32 15.5 70.5t32.5 74.5q-17 1 -33.5 1.5t-33.5 2.5v100q63 -3 119.5 -3.5t111 1.5t108.5 7.5t111 13.5v-100q-65 -10 -134.5 -16.5t-143.5 -8.5q-20 -37 -29.5 -72.5t-11.5 -61.5
q-4 -59 63 -63q52 -4 124 10t147 41z" />
    <glyph glyph-name="cid177" unicode="&#x3138;" horiz-adv-x="840" 
d="M748 176q-48 -23 -100 -37t-97 -12q-71 2 -115 42q-34 -20 -82.5 -35.5t-105.5 -13.5q-75 3 -117 41.5t-35 113.5q7 82 41 152q-14 1 -27 2t-27 3v100q58 -7 122 -7.5t127 4.5v-97q-23 -3 -46.5 -4.5t-48.5 -2.5q-18 -35 -27 -70t-10 -69t13 -51t52 -19q37 -2 70.5 10
t58.5 31q-1 12 0 25q2 32 12 73t21 76l-50 3v104q37 -3 81 -4t88.5 1t85.5 6.5t73 10.5v-103q-36 -8 -81.5 -12t-93.5 -6q-11 -36 -19 -74t-10 -67q-1 -22 5 -34.5t16.5 -18.5t23.5 -7t25 -1q35 0 69 11t75 33z" />
    <glyph glyph-name="cid177" unicode="&#xffa8;" horiz-adv-x="840" 
d="M748 176q-48 -23 -100 -37t-97 -12q-71 2 -115 42q-34 -20 -82.5 -35.5t-105.5 -13.5q-75 3 -117 41.5t-35 113.5q7 82 41 152q-14 1 -27 2t-27 3v100q58 -7 122 -7.5t127 4.5v-97q-23 -3 -46.5 -4.5t-48.5 -2.5q-18 -35 -27 -70t-10 -69t13 -51t52 -19q37 -2 70.5 10
t58.5 31q-1 12 0 25q2 32 12 73t21 76l-50 3v104q37 -3 81 -4t88.5 1t85.5 6.5t73 10.5v-103q-36 -8 -81.5 -12t-93.5 -6q-11 -36 -19 -74t-10 -67q-1 -22 5 -34.5t16.5 -18.5t23.5 -7t25 -1q35 0 69 11t75 33z" />
    <glyph glyph-name="cid178" unicode="&#x3139;" horiz-adv-x="840" 
d="M675 131q-82 -26 -173.5 -36t-175.5 -6q-75 4 -108 35.5t-23 85.5q6 33 22 62h-17t-17 1l-3 89q86 -5 169 -2t164 15q10 20 14 37q6 24 -3.5 40t-44.5 18q-58 2 -130 -9.5t-146 -35.5l-20 103q85 23 167.5 29.5t148.5 0.5q75 -7 108 -43.5t17 -90.5q-2 -8 -5 -15.5
t-6 -15.5l40 10l5 -89q-81 -20 -170.5 -30.5t-179.5 -12.5q-5 -13 -9 -24.5t-5 -20.5q-2 -17 8 -31t42 -16q34 -2 73 1t79.5 9.5t81.5 17t80 24.5z" />
    <glyph glyph-name="cid178" unicode="&#xffa9;" horiz-adv-x="840" 
d="M675 131q-82 -26 -173.5 -36t-175.5 -6q-75 4 -108 35.5t-23 85.5q6 33 22 62h-17t-17 1l-3 89q86 -5 169 -2t164 15q10 20 14 37q6 24 -3.5 40t-44.5 18q-58 2 -130 -9.5t-146 -35.5l-20 103q85 23 167.5 29.5t148.5 0.5q75 -7 108 -43.5t17 -90.5q-2 -8 -5 -15.5
t-6 -15.5l40 10l5 -89q-81 -20 -170.5 -30.5t-179.5 -12.5q-5 -13 -9 -24.5t-5 -20.5q-2 -17 8 -31t42 -16q34 -2 73 1t79.5 9.5t81.5 17t80 24.5z" />
    <glyph glyph-name="cid179" unicode="&#x313a;" horiz-adv-x="840" 
d="M783 408q1 -32 -3.5 -70.5t-12 -77.5t-17.5 -76.5t-19 -68.5l-108 32q13 28 23.5 60t18.5 64t13 62.5t5 55.5q1 35 -11.5 54t-50.5 23q-14 1 -34 -0.5t-41 -5.5t-41 -9.5t-34 -11.5l-20 103q18 6 42 11.5t50 9.5t51.5 6t46.5 0q63 -5 101.5 -43t40.5 -118zM236 178
q22 0 50 3.5t59.5 11.5t64.5 20.5t63 30.5l37 -94q-29 -15 -64 -27.5t-73.5 -21.5t-79 -13t-80.5 -2q-42 2 -68 13t-39.5 27.5t-16.5 38.5t1 47q5 35 17 69l-44 3l-1 87q55 -5 117.5 -3t122.5 10q4 13 6.5 25t4.5 24q6 43 -42 50q-17 3 -40.5 2.5t-50.5 -4.5t-55 -12
t-54 -21l-23 96q27 7 59.5 14t66.5 10.5t66.5 4t59.5 -3.5q127 -21 109 -122q-2 -13 -5.5 -25t-8.5 -24l37 9v-82q-46 -15 -107 -24.5t-124 -12.5q-6 -16 -9 -30.5t-5 -26.5q-2 -22 9 -34t40 -13z" />
    <glyph glyph-name="cid179" unicode="&#xffaa;" horiz-adv-x="840" 
d="M783 408q1 -32 -3.5 -70.5t-12 -77.5t-17.5 -76.5t-19 -68.5l-108 32q13 28 23.5 60t18.5 64t13 62.5t5 55.5q1 35 -11.5 54t-50.5 23q-14 1 -34 -0.5t-41 -5.5t-41 -9.5t-34 -11.5l-20 103q18 6 42 11.5t50 9.5t51.5 6t46.5 0q63 -5 101.5 -43t40.5 -118zM236 178
q22 0 50 3.5t59.5 11.5t64.5 20.5t63 30.5l37 -94q-29 -15 -64 -27.5t-73.5 -21.5t-79 -13t-80.5 -2q-42 2 -68 13t-39.5 27.5t-16.5 38.5t1 47q5 35 17 69l-44 3l-1 87q55 -5 117.5 -3t122.5 10q4 13 6.5 25t4.5 24q6 43 -42 50q-17 3 -40.5 2.5t-50.5 -4.5t-55 -12
t-54 -21l-23 96q27 7 59.5 14t66.5 10.5t66.5 4t59.5 -3.5q127 -21 109 -122q-2 -13 -5.5 -25t-8.5 -24l37 9v-82q-46 -15 -107 -24.5t-124 -12.5q-6 -16 -9 -30.5t-5 -26.5q-2 -22 9 -34t40 -13z" />
    <glyph glyph-name="cid180" unicode="&#x313b;" horiz-adv-x="840" 
d="M619 561q34 5 64 -0.5t52 -23.5t34.5 -48.5t11.5 -75.5q-1 -50 -9 -97t-22 -92q6 1 12 1.5t11 2.5l-2 -84q-48 -10 -111.5 -14t-122.5 -2q0 -7 -0.5 -13.5t-1.5 -12.5h-81q3 49 1 106.5t-8 116t-15.5 114t-21.5 102.5l103 23l9 -48q23 17 48 29t49 16zM243 175
q35 5 77.5 18.5t75.5 33.5l27 -87q-36 -20 -87 -34.5t-108 -19.5q-73 -7 -115.5 19t-38.5 80q2 26 9.5 51t18.5 48q-11 0 -21.5 0.5t-20.5 1.5l-1 86q51 -3 108 -2.5t113 6.5q5 14 8.5 27.5t4.5 24.5q1 24 -8.5 37t-44.5 15q-19 1 -41.5 -2t-45 -8.5t-42.5 -12.5t-35 -14
l-24 93q48 17 103.5 23t102.5 4q69 -3 98 -36.5t23 -87.5q-3 -26 -11 -50l28 7v-82q-41 -11 -94.5 -18.5t-110.5 -10.5q-10 -18 -15.5 -34.5t-7.5 -30.5q-5 -34 14 -42.5t61 -2.5zM540 209q29 0 59 1t59 3q31 93 31 178q0 27 -7 42.5t-18 23.5t-24 9.5t-25 0.5
q-22 -2 -43.5 -13t-39.5 -27q5 -54 7 -110t1 -108z" />
    <glyph glyph-name="cid180" unicode="&#xffab;" horiz-adv-x="840" 
d="M619 561q34 5 64 -0.5t52 -23.5t34.5 -48.5t11.5 -75.5q-1 -50 -9 -97t-22 -92q6 1 12 1.5t11 2.5l-2 -84q-48 -10 -111.5 -14t-122.5 -2q0 -7 -0.5 -13.5t-1.5 -12.5h-81q3 49 1 106.5t-8 116t-15.5 114t-21.5 102.5l103 23l9 -48q23 17 48 29t49 16zM243 175
q35 5 77.5 18.5t75.5 33.5l27 -87q-36 -20 -87 -34.5t-108 -19.5q-73 -7 -115.5 19t-38.5 80q2 26 9.5 51t18.5 48q-11 0 -21.5 0.5t-20.5 1.5l-1 86q51 -3 108 -2.5t113 6.5q5 14 8.5 27.5t4.5 24.5q1 24 -8.5 37t-44.5 15q-19 1 -41.5 -2t-45 -8.5t-42.5 -12.5t-35 -14
l-24 93q48 17 103.5 23t102.5 4q69 -3 98 -36.5t23 -87.5q-3 -26 -11 -50l28 7v-82q-41 -11 -94.5 -18.5t-110.5 -10.5q-10 -18 -15.5 -34.5t-7.5 -30.5q-5 -34 14 -42.5t61 -2.5zM540 209q29 0 59 1t59 3q31 93 31 178q0 27 -7 42.5t-18 23.5t-24 9.5t-25 0.5
q-22 -2 -43.5 -13t-39.5 -27q5 -54 7 -110t1 -108z" />
    <glyph glyph-name="cid181" unicode="&#x313c;" horiz-adv-x="840" 
d="M782 307l-18 11q-2 -38 -8 -69.5t-16 -54.5q-18 -41 -47 -62t-60.5 -27.5t-61.5 -0.5t-50 20q-18 12 -32 31l-53 -3q4 49 4.5 102t-3.5 105.5t-12 101.5t-19 90l103 16q8 -34 12.5 -74t6.5 -83q4 2 12 8q25 16 56.5 23t65.5 6q-9 62 -29 124l106 20q10 -35 16.5 -77
t8.5 -87q29 -10 55 -28zM243 175q35 5 77.5 18.5t75.5 33.5l27 -87q-36 -20 -87 -34.5t-108 -19.5q-73 -7 -115.5 19t-38.5 80q2 26 9.5 51t18.5 48q-11 0 -21.5 0.5t-20.5 1.5l-1 86q51 -3 108 -2.5t113 6.5q5 14 8.5 27.5t4.5 24.5q1 24 -8.5 37t-44.5 15q-19 1 -41.5 -2
t-45 -8.5t-42.5 -12.5t-35 -14l-24 93q48 17 103.5 23t102.5 4q69 -3 98 -36.5t23 -87.5q-3 -26 -11 -50l28 7v-82q-41 -11 -94.5 -18.5t-110.5 -10.5q-10 -18 -15.5 -34.5t-7.5 -30.5q-5 -34 14 -42.5t61 -2.5zM655 241q8 20 12 48t3 61q-26 4 -50.5 1t-44.5 -14t-31 -29
t-13.5 -37.5t4 -37t21.5 -26.5q26 -17 55.5 -9t43.5 43z" />
    <glyph glyph-name="cid181" unicode="&#xffac;" horiz-adv-x="840" 
d="M782 307l-18 11q-2 -38 -8 -69.5t-16 -54.5q-18 -41 -47 -62t-60.5 -27.5t-61.5 -0.5t-50 20q-18 12 -32 31l-53 -3q4 49 4.5 102t-3.5 105.5t-12 101.5t-19 90l103 16q8 -34 12.5 -74t6.5 -83q4 2 12 8q25 16 56.5 23t65.5 6q-9 62 -29 124l106 20q10 -35 16.5 -77
t8.5 -87q29 -10 55 -28zM243 175q35 5 77.5 18.5t75.5 33.5l27 -87q-36 -20 -87 -34.5t-108 -19.5q-73 -7 -115.5 19t-38.5 80q2 26 9.5 51t18.5 48q-11 0 -21.5 0.5t-20.5 1.5l-1 86q51 -3 108 -2.5t113 6.5q5 14 8.5 27.5t4.5 24.5q1 24 -8.5 37t-44.5 15q-19 1 -41.5 -2
t-45 -8.5t-42.5 -12.5t-35 -14l-24 93q48 17 103.5 23t102.5 4q69 -3 98 -36.5t23 -87.5q-3 -26 -11 -50l28 7v-82q-41 -11 -94.5 -18.5t-110.5 -10.5q-10 -18 -15.5 -34.5t-7.5 -30.5q-5 -34 14 -42.5t61 -2.5zM655 241q8 20 12 48t3 61q-26 4 -50.5 1t-44.5 -14t-31 -29
t-13.5 -37.5t4 -37t21.5 -26.5q26 -17 55.5 -9t43.5 43z" />
    <glyph glyph-name="cid182" unicode="&#x313d;" horiz-adv-x="840" 
d="M633 394q51 -38 95.5 -94.5t73.5 -117.5l-84 -64q-24 55 -55 104t-66 81q-25 -52 -56 -100t-67 -89l-56 50l5 -17q-36 -20 -87 -34.5t-108 -19.5q-73 -7 -115.5 19t-38.5 80q2 24 8.5 47t16.5 45q-11 0 -20.5 0.5t-18.5 1.5l-1 86q51 -3 108 -2.5t113 6.5q5 14 8.5 27.5
t4.5 24.5q1 24 -8.5 37t-44.5 15q-19 1 -41.5 -2t-45 -8.5t-42.5 -12.5t-35 -14l-24 93q48 17 103.5 23t102.5 4q69 -3 98 -36.5t23 -87.5q-3 -26 -11 -50l28 7v-82q-42 -11 -96.5 -18.5t-112.5 -10.5q-8 -16 -12.5 -30.5t-6.5 -27.5q-5 -34 14 -42.5t61 -2.5
q35 5 77.5 18.5t75.5 33.5l14 -44q33 35 60 78t48 91.5t35.5 100t22.5 104.5l89 -18q-6 -73 -32 -152z" />
    <glyph glyph-name="cid182" unicode="&#xffad;" horiz-adv-x="840" 
d="M633 394q51 -38 95.5 -94.5t73.5 -117.5l-84 -64q-24 55 -55 104t-66 81q-25 -52 -56 -100t-67 -89l-56 50l5 -17q-36 -20 -87 -34.5t-108 -19.5q-73 -7 -115.5 19t-38.5 80q2 24 8.5 47t16.5 45q-11 0 -20.5 0.5t-18.5 1.5l-1 86q51 -3 108 -2.5t113 6.5q5 14 8.5 27.5
t4.5 24.5q1 24 -8.5 37t-44.5 15q-19 1 -41.5 -2t-45 -8.5t-42.5 -12.5t-35 -14l-24 93q48 17 103.5 23t102.5 4q69 -3 98 -36.5t23 -87.5q-3 -26 -11 -50l28 7v-82q-42 -11 -96.5 -18.5t-112.5 -10.5q-8 -16 -12.5 -30.5t-6.5 -27.5q-5 -34 14 -42.5t61 -2.5
q35 5 77.5 18.5t75.5 33.5l14 -44q33 35 60 78t48 91.5t35.5 100t22.5 104.5l89 -18q-6 -73 -32 -152z" />
    <glyph glyph-name="cid183" unicode="&#x313e;" horiz-adv-x="840" 
d="M243 175q35 5 77.5 18.5t75.5 33.5l27 -87q-36 -20 -87 -34.5t-108 -19.5q-73 -7 -115.5 19t-38.5 80q2 26 9.5 51t18.5 48q-11 0 -21.5 0.5t-20.5 1.5l-1 86q51 -3 108 -2.5t113 6.5q5 14 8.5 27.5t4.5 24.5q1 24 -8.5 37t-44.5 15q-19 1 -41.5 -2t-45 -8.5t-42.5 -12.5
t-35 -14l-24 93q48 17 103.5 23t102.5 4q69 -3 98 -36.5t23 -87.5q-3 -26 -11 -50l28 7v-82q-41 -11 -94.5 -18.5t-110.5 -10.5q-10 -18 -15.5 -34.5t-7.5 -30.5q-5 -34 14 -42.5t61 -2.5zM796 149q-22 -12 -49 -21t-55.5 -14.5t-57 -7.5t-53.5 0q-43 2 -71 15t-44 34
t-22 48.5t-6 58.5q1 41 10.5 92t26.5 97l-44 2v93q82 -5 160.5 -0.5t168.5 17.5v-93q-45 -6 -93 -10.5t-98 -6.5q-8 -22 -14 -43t-11 -43q49 -1 98 4t102 13l1 -85q-57 -8 -109 -12t-103 -1q-1 -3 -1 -6.5v-6.5q-2 -42 13.5 -60.5t45.5 -21.5q40 -4 90.5 8t91.5 36z" />
    <glyph glyph-name="cid183" unicode="&#xffae;" horiz-adv-x="840" 
d="M243 175q35 5 77.5 18.5t75.5 33.5l27 -87q-36 -20 -87 -34.5t-108 -19.5q-73 -7 -115.5 19t-38.5 80q2 26 9.5 51t18.5 48q-11 0 -21.5 0.5t-20.5 1.5l-1 86q51 -3 108 -2.5t113 6.5q5 14 8.5 27.5t4.5 24.5q1 24 -8.5 37t-44.5 15q-19 1 -41.5 -2t-45 -8.5t-42.5 -12.5
t-35 -14l-24 93q48 17 103.5 23t102.5 4q69 -3 98 -36.5t23 -87.5q-3 -26 -11 -50l28 7v-82q-41 -11 -94.5 -18.5t-110.5 -10.5q-10 -18 -15.5 -34.5t-7.5 -30.5q-5 -34 14 -42.5t61 -2.5zM796 149q-22 -12 -49 -21t-55.5 -14.5t-57 -7.5t-53.5 0q-43 2 -71 15t-44 34
t-22 48.5t-6 58.5q1 41 10.5 92t26.5 97l-44 2v93q82 -5 160.5 -0.5t168.5 17.5v-93q-45 -6 -93 -10.5t-98 -6.5q-8 -22 -14 -43t-11 -43q49 -1 98 4t102 13l1 -85q-57 -8 -109 -12t-103 -1q-1 -3 -1 -6.5v-6.5q-2 -42 13.5 -60.5t45.5 -21.5q40 -4 90.5 8t91.5 36z" />
    <glyph glyph-name="cid184" unicode="&#x313f;" horiz-adv-x="840" 
d="M243 175q35 5 70 17t66 32l27 -87q-34 -19 -77.5 -32.5t-100.5 -18.5q-73 -7 -115.5 19t-38.5 80q2 26 9.5 51t18.5 48q-11 0 -21.5 0.5t-20.5 1.5l-1 86q51 -3 108 -2.5t113 6.5q5 14 8.5 27.5t4.5 24.5q1 24 -8.5 37t-44.5 15q-19 1 -41.5 -2t-45 -8.5t-42.5 -12.5
t-35 -14l-24 93q48 17 103.5 23t102.5 4q69 -3 98 -36.5t23 -87.5q-3 -26 -11 -50l28 7v-82q-41 -11 -94.5 -18.5t-110.5 -10.5q-10 -18 -15.5 -34.5t-7.5 -30.5q-5 -34 14 -42.5t61 -2.5zM728 214q36 4 72 12v-86q-84 -14 -179 -19t-183 3l-7 87l62 -6l-14 237
q-18 1 -34.5 1.5t-33.5 2.5v92q97 -8 195 -6.5t193 13.5v-92l-61 -6q3 -56 0.5 -116.5t-10.5 -116.5zM643 205q8 58 8.5 118t-7.5 119q-18 -1 -36 -1.5t-36 -0.5l7 -237q16 0 32 0.5t32 1.5z" />
    <glyph glyph-name="cid184" unicode="&#xffaf;" horiz-adv-x="840" 
d="M243 175q35 5 70 17t66 32l27 -87q-34 -19 -77.5 -32.5t-100.5 -18.5q-73 -7 -115.5 19t-38.5 80q2 26 9.5 51t18.5 48q-11 0 -21.5 0.5t-20.5 1.5l-1 86q51 -3 108 -2.5t113 6.5q5 14 8.5 27.5t4.5 24.5q1 24 -8.5 37t-44.5 15q-19 1 -41.5 -2t-45 -8.5t-42.5 -12.5
t-35 -14l-24 93q48 17 103.5 23t102.5 4q69 -3 98 -36.5t23 -87.5q-3 -26 -11 -50l28 7v-82q-41 -11 -94.5 -18.5t-110.5 -10.5q-10 -18 -15.5 -34.5t-7.5 -30.5q-5 -34 14 -42.5t61 -2.5zM728 214q36 4 72 12v-86q-84 -14 -179 -19t-183 3l-7 87l62 -6l-14 237
q-18 1 -34.5 1.5t-33.5 2.5v92q97 -8 195 -6.5t193 13.5v-92l-61 -6q3 -56 0.5 -116.5t-10.5 -116.5zM643 205q8 58 8.5 118t-7.5 119q-18 -1 -36 -1.5t-36 -0.5l7 -237q16 0 32 0.5t32 1.5z" />
    <glyph glyph-name="cid185" unicode="&#x3140;" horiz-adv-x="840" 
d="M738 501q-69 -12 -128 -10t-118 16l13 101q55 -17 115 -23t114 2zM243 175q35 5 77.5 18.5t75.5 33.5l27 -87q-36 -20 -87 -34.5t-108 -19.5q-73 -7 -115.5 19t-38.5 80q2 26 9.5 51t18.5 48q-11 0 -21.5 0.5t-20.5 1.5l-1 86q51 -3 108 -2.5t113 6.5q5 14 8.5 27.5
t4.5 24.5q1 24 -8.5 37t-44.5 15q-19 1 -41.5 -2t-45 -8.5t-42.5 -12.5t-35 -14l-24 93q48 17 103.5 23t102.5 4q69 -3 98 -36.5t23 -87.5q-3 -26 -11 -50l28 7v-82q-41 -11 -94.5 -18.5t-110.5 -10.5q-10 -18 -15.5 -34.5t-7.5 -30.5q-5 -34 14 -42.5t61 -2.5zM816 381
q-33 -6 -69 -9q19 -22 30 -48.5t11 -55.5q0 -34 -12.5 -64.5t-34.5 -53t-53.5 -36t-69.5 -13.5q-39 0 -68.5 13.5t-50 36t-31 53t-10.5 64.5q0 26 9 50t25 45q-16 1 -31.5 1.5t-30.5 2.5v89q51 -5 98 -7.5t93.5 -2t94 4.5t100.5 12v-82zM696 268q1 35 -19 61t-56 26
q-35 0 -54.5 -24t-19.5 -63t19 -62t54 -23q39 0 57 23t19 62z" />
    <glyph glyph-name="cid185" unicode="&#xffb0;" horiz-adv-x="840" 
d="M738 501q-69 -12 -128 -10t-118 16l13 101q55 -17 115 -23t114 2zM243 175q35 5 77.5 18.5t75.5 33.5l27 -87q-36 -20 -87 -34.5t-108 -19.5q-73 -7 -115.5 19t-38.5 80q2 26 9.5 51t18.5 48q-11 0 -21.5 0.5t-20.5 1.5l-1 86q51 -3 108 -2.5t113 6.5q5 14 8.5 27.5
t4.5 24.5q1 24 -8.5 37t-44.5 15q-19 1 -41.5 -2t-45 -8.5t-42.5 -12.5t-35 -14l-24 93q48 17 103.5 23t102.5 4q69 -3 98 -36.5t23 -87.5q-3 -26 -11 -50l28 7v-82q-41 -11 -94.5 -18.5t-110.5 -10.5q-10 -18 -15.5 -34.5t-7.5 -30.5q-5 -34 14 -42.5t61 -2.5zM816 381
q-33 -6 -69 -9q19 -22 30 -48.5t11 -55.5q0 -34 -12.5 -64.5t-34.5 -53t-53.5 -36t-69.5 -13.5q-39 0 -68.5 13.5t-50 36t-31 53t-10.5 64.5q0 26 9 50t25 45q-16 1 -31.5 1.5t-30.5 2.5v89q51 -5 98 -7.5t93.5 -2t94 4.5t100.5 12v-82zM696 268q1 35 -19 61t-56 26
q-35 0 -54.5 -24t-19.5 -63t19 -62t54 -23q39 0 57 23t19 62z" />
    <glyph glyph-name="cid186" unicode="&#x3141;" horiz-adv-x="840" 
d="M612 234q12 2 24 3.5t24 3.5v-97q-37 -5 -84 -8t-97 -4.5t-99 -1t-90 3.5l-2 -29l-92 1q2 36 0.5 87.5t-6.5 107t-13.5 109t-19.5 95.5l107 16q2 -12 4.5 -24t4.5 -26q20 13 46.5 26t55.5 23.5t59.5 16.5t59.5 6q45 0 76.5 -11.5t51 -32t27.5 -49t7 -62.5
q-2 -37 -14.5 -78t-29.5 -76zM292 224q51 -5 104 -5t106 4q18 37 29.5 78.5t13.5 76.5q2 34 -10.5 49.5t-50.5 15.5q-49 0 -103 -20t-96 -49q4 -38 5.5 -76t1.5 -74z" />
    <glyph glyph-name="cid186" unicode="&#xffb1;" horiz-adv-x="840" 
d="M612 234q12 2 24 3.5t24 3.5v-97q-37 -5 -84 -8t-97 -4.5t-99 -1t-90 3.5l-2 -29l-92 1q2 36 0.5 87.5t-6.5 107t-13.5 109t-19.5 95.5l107 16q2 -12 4.5 -24t4.5 -26q20 13 46.5 26t55.5 23.5t59.5 16.5t59.5 6q45 0 76.5 -11.5t51 -32t27.5 -49t7 -62.5
q-2 -37 -14.5 -78t-29.5 -76zM292 224q51 -5 104 -5t106 4q18 37 29.5 78.5t13.5 76.5q2 34 -10.5 49.5t-50.5 15.5q-49 0 -103 -20t-96 -49q4 -38 5.5 -76t1.5 -74z" />
    <glyph glyph-name="cid187" unicode="&#x3142;" horiz-adv-x="840" 
d="M708 306q-25 15 -56 24q-2 -54 -13.5 -99t-34.5 -74q-20 -26 -49 -42.5t-61 -21.5t-64 2.5t-59 28.5q-28 22 -42.5 55.5t-14.5 70.5t16 73t49 63q31 25 74 39.5t91 17.5q-5 28 -12 55.5t-17 54.5l110 15q8 -29 14.5 -62t9.5 -68q24 -4 47 -11t44 -17zM266 533
q17 -94 21.5 -197t-6.5 -197l-98 -1q8 93 1 190t-26 191zM532 221q14 19 19.5 51t4.5 72q-34 0 -63 -7t-47 -21q-17 -13 -25.5 -29t-9 -32t6 -30.5t18.5 -24.5q9 -7 21.5 -10t26 -0.5t26 10t22.5 21.5z" />
    <glyph glyph-name="cid187" unicode="&#xffb2;" horiz-adv-x="840" 
d="M708 306q-25 15 -56 24q-2 -54 -13.5 -99t-34.5 -74q-20 -26 -49 -42.5t-61 -21.5t-64 2.5t-59 28.5q-28 22 -42.5 55.5t-14.5 70.5t16 73t49 63q31 25 74 39.5t91 17.5q-5 28 -12 55.5t-17 54.5l110 15q8 -29 14.5 -62t9.5 -68q24 -4 47 -11t44 -17zM266 533
q17 -94 21.5 -197t-6.5 -197l-98 -1q8 93 1 190t-26 191zM532 221q14 19 19.5 51t4.5 72q-34 0 -63 -7t-47 -21q-17 -13 -25.5 -29t-9 -32t6 -30.5t18.5 -24.5q9 -7 21.5 -10t26 -0.5t26 10t22.5 21.5z" />
    <glyph glyph-name="cid188" unicode="&#x3143;" horiz-adv-x="840" 
d="M764 288q-5 3 -10 5.5t-10 4.5q-3 -33 -8 -59.5t-10 -43.5q-14 -41 -44 -67.5t-66.5 -37.5t-74 -6.5t-66.5 26.5q-23 17 -36 38t-18 44q-18 -47 -52 -72.5t-72 -31.5t-74.5 5.5t-60.5 38.5q-9 9 -16 25l-70 -2q3 35 3.5 81t-1 96.5t-6 102t-11.5 96.5l94 9
q7 -50 10 -101.5t3 -102.5q3 4 6 7.5t7 6.5q16 14 37 25t44 17.5t47.5 8t47.5 -2.5q-1 38 -5 77t-11 71l100 5q8 -48 9 -107.5t-4 -115.5q5 6 8.5 12t8.5 11q28 32 80.5 48t111.5 13q-3 41 -9.5 81.5t-15.5 77.5l107 5q8 -38 10.5 -86.5t1.5 -97.5q13 -5 24.5 -11t22.5 -14z
M641 232q13 37 15 92q-38 6 -71.5 0t-52.5 -28q-28 -32 -30 -61t24 -49q12 -9 28 -12.5t32.5 1t31 18.5t23.5 39zM224 187q11 -11 27.5 -14.5t34 1t33 17.5t23.5 35q6 16 9.5 39t5.5 52q-32 7 -65.5 1.5t-57.5 -29.5q-25 -25 -26.5 -54t16.5 -48z" />
    <glyph glyph-name="cid188" unicode="&#xffb3;" horiz-adv-x="840" 
d="M764 288q-5 3 -10 5.5t-10 4.5q-3 -33 -8 -59.5t-10 -43.5q-14 -41 -44 -67.5t-66.5 -37.5t-74 -6.5t-66.5 26.5q-23 17 -36 38t-18 44q-18 -47 -52 -72.5t-72 -31.5t-74.5 5.5t-60.5 38.5q-9 9 -16 25l-70 -2q3 35 3.5 81t-1 96.5t-6 102t-11.5 96.5l94 9
q7 -50 10 -101.5t3 -102.5q3 4 6 7.5t7 6.5q16 14 37 25t44 17.5t47.5 8t47.5 -2.5q-1 38 -5 77t-11 71l100 5q8 -48 9 -107.5t-4 -115.5q5 6 8.5 12t8.5 11q28 32 80.5 48t111.5 13q-3 41 -9.5 81.5t-15.5 77.5l107 5q8 -38 10.5 -86.5t1.5 -97.5q13 -5 24.5 -11t22.5 -14z
M641 232q13 37 15 92q-38 6 -71.5 0t-52.5 -28q-28 -32 -30 -61t24 -49q12 -9 28 -12.5t32.5 1t31 18.5t23.5 39zM224 187q11 -11 27.5 -14.5t34 1t33 17.5t23.5 35q6 16 9.5 39t5.5 52q-32 7 -65.5 1.5t-57.5 -29.5q-25 -25 -26.5 -54t16.5 -48z" />
    <glyph glyph-name="cid189" unicode="&#x3144;" horiz-adv-x="840" 
d="M615 376q54 -41 100.5 -91t76.5 -113l-84 -64q-26 59 -59.5 105.5t-71.5 81.5q-28 -53 -61 -102t-70 -89l-61 54q-21 -35 -50.5 -52.5t-60.5 -20t-60.5 9t-51.5 35.5q-5 5 -9 11.5t-8 13.5l-69 -2q3 35 3.5 81.5t-1 97t-6 102.5t-11.5 97l94 9q7 -49 10 -101t3 -103
q3 4 6 7.5t7 6.5q29 25 71 40t87 7q-2 39 -6 78t-12 71l100 5q7 -38 9 -85.5t-0.5 -95t-8.5 -91t-15 -73.5q31 36 57.5 79.5t47.5 89.5t36 93t22 90l95 -22q-5 -35 -17.5 -75.5t-31.5 -84.5zM224 185q22 -20 51.5 -12.5t46.5 51.5q6 16 10 39.5t6 52.5q-30 5 -58 -2.5
t-46 -24.5q-12 -11 -18.5 -25.5t-8 -29t2.5 -27.5t14 -22z" />
    <glyph glyph-name="cid189" unicode="&#xffb4;" horiz-adv-x="840" 
d="M615 376q54 -41 100.5 -91t76.5 -113l-84 -64q-26 59 -59.5 105.5t-71.5 81.5q-28 -53 -61 -102t-70 -89l-61 54q-21 -35 -50.5 -52.5t-60.5 -20t-60.5 9t-51.5 35.5q-5 5 -9 11.5t-8 13.5l-69 -2q3 35 3.5 81.5t-1 97t-6 102.5t-11.5 97l94 9q7 -49 10 -101t3 -103
q3 4 6 7.5t7 6.5q29 25 71 40t87 7q-2 39 -6 78t-12 71l100 5q7 -38 9 -85.5t-0.5 -95t-8.5 -91t-15 -73.5q31 36 57.5 79.5t47.5 89.5t36 93t22 90l95 -22q-5 -35 -17.5 -75.5t-31.5 -84.5zM224 185q22 -20 51.5 -12.5t46.5 51.5q6 16 10 39.5t6 52.5q-30 5 -58 -2.5
t-46 -24.5q-12 -11 -18.5 -25.5t-8 -29t2.5 -27.5t14 -22z" />
    <glyph glyph-name="cid190" unicode="&#x3145;" horiz-adv-x="840" 
d="M443 365q72 -30 139.5 -79t123.5 -112l-83 -80q-45 63 -105 112t-129 81q-43 -55 -95 -104t-109 -90l-68 85q57 34 105 78.5t86 95t65.5 105t42.5 108.5l97 -42q-11 -41 -29 -80.5t-41 -77.5z" />
    <glyph glyph-name="cid190" unicode="&#xffb5;" horiz-adv-x="840" 
d="M443 365q72 -30 139.5 -79t123.5 -112l-83 -80q-45 63 -105 112t-129 81q-43 -55 -95 -104t-109 -90l-68 85q57 34 105 78.5t86 95t65.5 105t42.5 108.5l97 -42q-11 -41 -29 -80.5t-41 -77.5z" />
    <glyph glyph-name="cid191" unicode="&#x3146;" horiz-adv-x="840" 
d="M577 339q57 -29 107 -75t81 -103l-84 -67q-23 46 -59.5 88.5t-83.5 72.5q-28 -55 -61.5 -106t-68.5 -93l-84 67q12 14 24 28.5t24 30.5q-21 29 -51 59.5t-68 53.5q-29 -47 -62.5 -88.5t-69.5 -73.5l-73 68q36 31 70 73t61.5 89t47 95.5t27.5 92.5l93 -34
q-6 -32 -19.5 -70t-33.5 -78q42 -20 76 -45.5t57 -54.5q36 65 63 135t39 136l96 -29q-5 -39 -17 -83t-31 -89z" />
    <glyph glyph-name="cid191" unicode="&#xffb6;" horiz-adv-x="840" 
d="M577 339q57 -29 107 -75t81 -103l-84 -67q-23 46 -59.5 88.5t-83.5 72.5q-28 -55 -61.5 -106t-68.5 -93l-84 67q12 14 24 28.5t24 30.5q-21 29 -51 59.5t-68 53.5q-29 -47 -62.5 -88.5t-69.5 -73.5l-73 68q36 31 70 73t61.5 89t47 95.5t27.5 92.5l93 -34
q-6 -32 -19.5 -70t-33.5 -78q42 -20 76 -45.5t57 -54.5q36 65 63 135t39 136l96 -29q-5 -39 -17 -83t-31 -89z" />
    <glyph glyph-name="cid192" unicode="&#x3147;" horiz-adv-x="840" 
d="M461 504q43 0 79.5 -13t63 -38t41 -60.5t14.5 -78.5q0 -50 -19 -90.5t-51.5 -68.5t-76 -43t-93.5 -15q-59 0 -105 17.5t-77 47t-47 69t-16 83.5q0 46 18.5 90.5t54.5 78.5t89.5 53t124.5 14v-46zM419 190q31 0 57 10.5t44 27.5t28 39.5t10 46.5q0 26 -12 46.5t-32 33.5
t-46.5 17t-55.5 -4l-5 49q-31 -5 -55.5 -19.5t-41 -34.5t-25 -43t-8.5 -45q0 -24 9 -46.5t27 -40t44.5 -27.5t61.5 -10z" />
    <glyph glyph-name="cid192" unicode="&#xffb7;" horiz-adv-x="840" 
d="M461 504q43 0 79.5 -13t63 -38t41 -60.5t14.5 -78.5q0 -50 -19 -90.5t-51.5 -68.5t-76 -43t-93.5 -15q-59 0 -105 17.5t-77 47t-47 69t-16 83.5q0 46 18.5 90.5t54.5 78.5t89.5 53t124.5 14v-46zM419 190q31 0 57 10.5t44 27.5t28 39.5t10 46.5q0 26 -12 46.5t-32 33.5
t-46.5 17t-55.5 -4l-5 49q-31 -5 -55.5 -19.5t-41 -34.5t-25 -43t-8.5 -45q0 -24 9 -46.5t27 -40t44.5 -27.5t61.5 -10z" />
    <glyph glyph-name="cid193" unicode="&#x3148;" horiz-adv-x="840" 
d="M662 80q-23 20 -50.5 38t-58 34t-62 29t-60.5 22q-58 -36 -127.5 -66.5t-137.5 -50.5l-39 105q51 12 100.5 28.5t93 36.5t78.5 41.5t57 43.5q38 38 32.5 64.5t-46.5 28.5q-38 2 -92 -9t-120 -40l-25 110q70 26 135.5 35t123.5 3q60 -6 91.5 -31.5t38.5 -61t-9 -77
t-50 -79.5q-5 -5 -10.5 -11t-12.5 -11q51 -11 103.5 -31.5t106.5 -52.5z" />
    <glyph glyph-name="cid193" unicode="&#xffb8;" horiz-adv-x="840" 
d="M662 80q-23 20 -50.5 38t-58 34t-62 29t-60.5 22q-58 -36 -127.5 -66.5t-137.5 -50.5l-39 105q51 12 100.5 28.5t93 36.5t78.5 41.5t57 43.5q38 38 32.5 64.5t-46.5 28.5q-38 2 -92 -9t-120 -40l-25 110q70 26 135.5 35t123.5 3q60 -6 91.5 -31.5t38.5 -61t-9 -77
t-50 -79.5q-5 -5 -10.5 -11t-12.5 -11q51 -11 103.5 -31.5t106.5 -52.5z" />
    <glyph glyph-name="cid194" unicode="&#x3149;" horiz-adv-x="840" 
d="M631 275q42 -26 83 -63.5t70 -80.5l-76 -74q-26 43 -59.5 82.5t-66.5 68.5q-32 -41 -73.5 -82.5t-89.5 -80.5l-69 84q11 8 20.5 15.5t18.5 15.5q-23 26 -51.5 47.5t-59.5 38.5q-37 -37 -80.5 -72.5t-83.5 -59.5l-62 89q36 17 70.5 39.5t63.5 46t51 46.5t35 41
q18 25 14.5 37.5t-21.5 14.5q-38 5 -77 -5.5t-71 -24.5l-22 94q21 9 44 15t46.5 9.5t45 4.5t39.5 0q42 -3 68.5 -18.5t37 -39.5t6 -55t-23.5 -65l-10 -16t-12 -16q35 -15 66 -36t61 -49q43 42 70.5 79.5t40.5 68.5q8 19 7.5 31.5t-6.5 20.5t-16.5 11.5t-22.5 4.5
q-10 1 -23.5 0t-28.5 -3.5t-29.5 -6t-26.5 -7.5l-17 99q29 8 69.5 11.5t73.5 0.5q40 -3 69 -18.5t45 -40t18 -56t-13 -67.5q-7 -17 -17.5 -37t-24.5 -42z" />
    <glyph glyph-name="cid194" unicode="&#xffb9;" horiz-adv-x="840" 
d="M631 275q42 -26 83 -63.5t70 -80.5l-76 -74q-26 43 -59.5 82.5t-66.5 68.5q-32 -41 -73.5 -82.5t-89.5 -80.5l-69 84q11 8 20.5 15.5t18.5 15.5q-23 26 -51.5 47.5t-59.5 38.5q-37 -37 -80.5 -72.5t-83.5 -59.5l-62 89q36 17 70.5 39.5t63.5 46t51 46.5t35 41
q18 25 14.5 37.5t-21.5 14.5q-38 5 -77 -5.5t-71 -24.5l-22 94q21 9 44 15t46.5 9.5t45 4.5t39.5 0q42 -3 68.5 -18.5t37 -39.5t6 -55t-23.5 -65l-10 -16t-12 -16q35 -15 66 -36t61 -49q43 42 70.5 79.5t40.5 68.5q8 19 7.5 31.5t-6.5 20.5t-16.5 11.5t-22.5 4.5
q-10 1 -23.5 0t-28.5 -3.5t-29.5 -6t-26.5 -7.5l-17 99q29 8 69.5 11.5t73.5 0.5q40 -3 69 -18.5t45 -40t18 -56t-13 -67.5q-7 -17 -17.5 -37t-24.5 -42z" />
    <glyph glyph-name="cid195" unicode="&#x314a;" horiz-adv-x="840" 
d="M528 533q-65 -7 -129.5 -0.5t-120.5 25.5l25 97q62 -23 115.5 -32.5t114.5 -7.5zM656 67q-58 42 -120.5 70t-127.5 39q-55 -31 -118 -55.5t-128 -41.5l-43 105q53 9 103 23t93.5 32t79 38.5t61.5 41.5q29 23 26 43t-45 23q-45 3 -95.5 -7t-112.5 -31l-25 102
q69 19 139 26.5t141 -5.5q42 -8 67.5 -28.5t31.5 -49.5t-8.5 -64t-51.5 -70l-20 -18q56 -7 111.5 -27t105.5 -49z" />
    <glyph glyph-name="cid195" unicode="&#xffba;" horiz-adv-x="840" 
d="M528 533q-65 -7 -129.5 -0.5t-120.5 25.5l25 97q62 -23 115.5 -32.5t114.5 -7.5zM656 67q-58 42 -120.5 70t-127.5 39q-55 -31 -118 -55.5t-128 -41.5l-43 105q53 9 103 23t93.5 32t79 38.5t61.5 41.5q29 23 26 43t-45 23q-45 3 -95.5 -7t-112.5 -31l-25 102
q69 19 139 26.5t141 -5.5q42 -8 67.5 -28.5t31.5 -49.5t-8.5 -64t-51.5 -70l-20 -18q56 -7 111.5 -27t105.5 -49z" />
    <glyph glyph-name="cid196" unicode="&#x314b;" horiz-adv-x="840" 
d="M655 355q0 -28 -5.5 -64.5t-15 -75t-22 -75.5t-25.5 -65l-104 40q19 33 35.5 75t27.5 81q-75 -28 -167 -47.5t-189 -30.5l-20 100q101 7 198 23.5t188 45.5q-5 42 -30.5 62.5t-70.5 22.5q-28 1 -60.5 -3t-66.5 -11.5t-67 -18t-61 -23.5l-28 105q62 24 144 38.5t164 9.5
q49 -3 82.5 -18.5t54 -40.5t29.5 -58t9 -72z" />
    <glyph glyph-name="cid196" unicode="&#xffbb;" horiz-adv-x="840" 
d="M655 355q0 -28 -5.5 -64.5t-15 -75t-22 -75.5t-25.5 -65l-104 40q19 33 35.5 75t27.5 81q-75 -28 -167 -47.5t-189 -30.5l-20 100q101 7 198 23.5t188 45.5q-5 42 -30.5 62.5t-70.5 22.5q-28 1 -60.5 -3t-66.5 -11.5t-67 -18t-61 -23.5l-28 105q62 24 144 38.5t164 9.5
q49 -3 82.5 -18.5t54 -40.5t29.5 -58t9 -72z" />
    <glyph glyph-name="cid197" unicode="&#x314c;" horiz-adv-x="840" 
d="M679 134q-90 -31 -182.5 -39.5t-167.5 1.5q-42 6 -70 18.5t-44.5 32t-22 46t-3.5 59.5q1 21 6.5 46.5t13 52.5t17.5 52.5t21 45.5q-17 1 -35.5 2t-37.5 3v95q129 -12 246 -10.5t227 15.5v-95q-78 -8 -150 -12t-151 -2q-10 -19 -19 -40t-16 -43q71 -4 144.5 2.5
t147.5 21.5l-1 -96q-81 -11 -158 -16t-155 0q-1 -5 -1.5 -9t-0.5 -9q-2 -29 13 -48t60 -24q25 -3 59 -2t73 6t83 15.5t89 26.5z" />
    <glyph glyph-name="cid197" unicode="&#xffbc;" horiz-adv-x="840" 
d="M679 134q-90 -31 -182.5 -39.5t-167.5 1.5q-42 6 -70 18.5t-44.5 32t-22 46t-3.5 59.5q1 21 6.5 46.5t13 52.5t17.5 52.5t21 45.5q-17 1 -35.5 2t-37.5 3v95q129 -12 246 -10.5t227 15.5v-95q-78 -8 -150 -12t-151 -2q-10 -19 -19 -40t-16 -43q71 -4 144.5 2.5
t147.5 21.5l-1 -96q-81 -11 -158 -16t-155 0q-1 -5 -1.5 -9t-0.5 -9q-2 -29 13 -48t60 -24q25 -3 59 -2t73 6t83 15.5t89 26.5z" />
    <glyph glyph-name="cid198" unicode="&#x314d;" horiz-adv-x="840" 
d="M570 226q27 2 53 5t51 6l-5 -96q-131 -17 -256.5 -18t-249.5 10l-5 95q25 -2 51.5 -4t53.5 -4l-10 210q-24 1 -46.5 1.5t-45.5 2.5l-5 96q56 -3 119.5 -4.5t128.5 -1t130.5 3t125.5 7.5v-96q-20 -2 -39.5 -3t-39.5 -2q2 -51 -0.5 -105.5t-10.5 -102.5zM357 218
q29 0 59 0.5t60 1.5q5 48 6 103t-2 107q-33 -2 -65 -2h-64z" />
    <glyph glyph-name="cid198" unicode="&#xffbd;" horiz-adv-x="840" 
d="M570 226q27 2 53 5t51 6l-5 -96q-131 -17 -256.5 -18t-249.5 10l-5 95q25 -2 51.5 -4t53.5 -4l-10 210q-24 1 -46.5 1.5t-45.5 2.5l-5 96q56 -3 119.5 -4.5t128.5 -1t130.5 3t125.5 7.5v-96q-20 -2 -39.5 -3t-39.5 -2q2 -51 -0.5 -105.5t-10.5 -102.5zM357 218
q29 0 59 0.5t60 1.5q5 48 6 103t-2 107q-33 -2 -65 -2h-64z" />
    <glyph glyph-name="cid199" unicode="&#x314e;" horiz-adv-x="840" 
d="M545 533q-65 -7 -137 -0.5t-128 25.5l25 97q31 -14 64 -22.5t65 -13t62 -5.5t54 1zM696 402q-25 -4 -53 -7t-58 -5q39 -45 39 -112q0 -42 -15 -76t-42 -59t-63.5 -38.5t-79.5 -13.5q-44 0 -80.5 13.5t-63.5 38.5t-42 59t-15 76q0 63 34 106q-59 3 -110 9v96
q66 -8 138.5 -11t145 -2t140.5 5.5t125 12.5v-92zM424 184q45 0 72 26t27 68q0 41 -27 70.5t-72 29.5q-23 0 -41 -8t-31.5 -21.5t-20.5 -32t-7 -38.5q0 -42 27.5 -68t72.5 -26z" />
    <glyph glyph-name="cid199" unicode="&#xffbe;" horiz-adv-x="840" 
d="M545 533q-65 -7 -137 -0.5t-128 25.5l25 97q31 -14 64 -22.5t65 -13t62 -5.5t54 1zM696 402q-25 -4 -53 -7t-58 -5q39 -45 39 -112q0 -42 -15 -76t-42 -59t-63.5 -38.5t-79.5 -13.5q-44 0 -80.5 13.5t-63.5 38.5t-42 59t-15 76q0 63 34 106q-59 3 -110 9v96
q66 -8 138.5 -11t145 -2t140.5 5.5t125 12.5v-92zM424 184q45 0 72 26t27 68q0 41 -27 70.5t-72 29.5q-23 0 -41 -8t-31.5 -21.5t-20.5 -32t-7 -38.5q0 -42 27.5 -68t72.5 -26z" />
    <glyph glyph-name="cid200" unicode="&#x314f;" horiz-adv-x="840" 
d="M600 314q-47 -7 -95.5 -10t-96.5 -1q-1 -97 -4.5 -192.5t-8.5 -185.5l-110 5q7 93 10.5 195.5t3.5 208t-3.5 210.5t-10.5 201l110 10q6 -81 9.5 -167.5t3.5 -176.5q92 -2 187 21l5 -118v0z" />
    <glyph glyph-name="cid200" unicode="&#xffc2;" horiz-adv-x="840" 
d="M600 314q-47 -7 -95.5 -10t-96.5 -1q-1 -97 -4.5 -192.5t-8.5 -185.5l-110 5q7 93 10.5 195.5t3.5 208t-3.5 210.5t-10.5 201l110 10q6 -81 9.5 -167.5t3.5 -176.5q92 -2 187 21l5 -118v0z" />
    <glyph glyph-name="cid201" unicode="&#x3150;" horiz-adv-x="840" 
d="M565 745q8 -95 12 -198.5t3.5 -210t-4.5 -213t-11 -208.5l-105 5q7 88 10.5 183.5t3.5 195.5q-56 -6 -112 -6q-1 -79 -4 -160.5t-8 -172.5l-104 5q5 93 7.5 180.5t3 174t-2 174.5t-8.5 181l104 10q5 -80 7.5 -151.5t3.5 -140.5q27 0 56 1.5t57 3.5q-2 88 -5 172.5
t-9 164.5l105 10v0z" />
    <glyph glyph-name="cid201" unicode="&#xffc3;" horiz-adv-x="840" 
d="M565 745q8 -95 12 -198.5t3.5 -210t-4.5 -213t-11 -208.5l-105 5q7 88 10.5 183.5t3.5 195.5q-56 -6 -112 -6q-1 -79 -4 -160.5t-8 -172.5l-104 5q5 93 7.5 180.5t3 174t-2 174.5t-8.5 181l104 10q5 -80 7.5 -151.5t3.5 -140.5q27 0 56 1.5t57 3.5q-2 88 -5 172.5
t-9 164.5l105 10v0z" />
    <glyph glyph-name="cid202" unicode="&#x3151;" horiz-adv-x="840" 
d="M576 181q-40 -5 -83 -5.5t-88 4.5q-2 -66 -4.5 -130t-6.5 -125l-107 5q7 93 10.5 195.5t3.5 208t-3.5 210.5t-10.5 201l107 10q4 -48 6.5 -97.5t4.5 -101.5q43 2 83.5 6.5t78.5 12.5l5 -105q-38 -6 -80 -9t-85 -1q1 -92 0 -186q45 -1 86.5 2t77.5 10l5 -105v0z" />
    <glyph glyph-name="cid202" unicode="&#xffc4;" horiz-adv-x="840" 
d="M576 181q-40 -5 -83 -5.5t-88 4.5q-2 -66 -4.5 -130t-6.5 -125l-107 5q7 93 10.5 195.5t3.5 208t-3.5 210.5t-10.5 201l107 10q4 -48 6.5 -97.5t4.5 -101.5q43 2 83.5 6.5t78.5 12.5l5 -105q-38 -6 -80 -9t-85 -1q1 -92 0 -186q45 -1 86.5 2t77.5 10l5 -105v0z" />
    <glyph glyph-name="cid203" unicode="&#x3152;" horiz-adv-x="840" 
d="M566 745q8 -95 12 -198.5t4.5 -210t-3 -213t-9.5 -208.5l-105 5q4 60 6.5 124t4.5 131q-32 -4 -64 -5t-63 1q-2 -52 -4 -104.5t-5 -109.5l-102 8q19 368 0 710l102 7q2 -45 4 -87.5t4 -84.5q62 -3 125 3q-5 115 -12 222zM351 271q31 -2 62.5 -1t63.5 5q0 35 -0.5 69.5
t-1.5 69.5q-31 -4 -62.5 -5.5t-62.5 0.5q1 -34 1 -68.5v-69.5z" />
    <glyph glyph-name="cid203" unicode="&#xffc5;" horiz-adv-x="840" 
d="M566 745q8 -95 12 -198.5t4.5 -210t-3 -213t-9.5 -208.5l-105 5q4 60 6.5 124t4.5 131q-32 -4 -64 -5t-63 1q-2 -52 -4 -104.5t-5 -109.5l-102 8q19 368 0 710l102 7q2 -45 4 -87.5t4 -84.5q62 -3 125 3q-5 115 -12 222zM351 271q31 -2 62.5 -1t63.5 5q0 35 -0.5 69.5
t-1.5 69.5q-31 -4 -62.5 -5.5t-62.5 0.5q1 -34 1 -68.5v-69.5z" />
    <glyph glyph-name="cid204" unicode="&#x3153;" horiz-adv-x="840" 
d="M505 755q7 -95 10.5 -200t3 -212t-4 -213.5t-9.5 -204.5l-108 5q7 88 10.5 182.5t3.5 194.5q-55 -7 -108.5 -8t-107.5 3l-5 115q55 -6 111 -7.5t110 3.5q-2 86 -5 170t-9 162l108 10v0z" />
    <glyph glyph-name="cid204" unicode="&#xffc6;" horiz-adv-x="840" 
d="M505 755q7 -95 10.5 -200t3 -212t-4 -213.5t-9.5 -204.5l-108 5q7 88 10.5 182.5t3.5 194.5q-55 -7 -108.5 -8t-107.5 3l-5 115q55 -6 111 -7.5t110 3.5q-2 86 -5 170t-9 162l108 10v0z" />
    <glyph glyph-name="cid205" unicode="&#x3154;" horiz-adv-x="840" 
d="M589 745q8 -95 12 -198.5t3.5 -210t-4.5 -213t-11 -208.5l-105 5q7 93 10.5 195.5t3.5 208t-3.5 210.5t-10.5 201zM382 682q5 -93 8 -181t3 -176t-2.5 -178.5t-8.5 -189.5l-100 8q5 85 7 167t3 163q-39 -4 -79 -5t-81 1v104q43 -3 82 -4t77 3q-1 141 -9 281z" />
    <glyph glyph-name="cid205" unicode="&#xffc7;" horiz-adv-x="840" 
d="M589 745q8 -95 12 -198.5t3.5 -210t-4.5 -213t-11 -208.5l-105 5q7 93 10.5 195.5t3.5 208t-3.5 210.5t-10.5 201zM382 682q5 -93 8 -181t3 -176t-2.5 -178.5t-8.5 -189.5l-100 8q5 85 7 167t3 163q-39 -4 -79 -5t-81 1v104q43 -3 82 -4t77 3q-1 141 -9 281z" />
    <glyph glyph-name="cid206" unicode="&#x3155;" horiz-adv-x="840" 
d="M505 755q7 -95 10.5 -200t3 -212t-4 -213.5t-9.5 -204.5l-110 5q5 59 7.5 121.5t4.5 128.5q-50 -7 -103 -10t-104 -2v110q51 -3 104.5 -2t104.5 6q1 43 0.5 86t-1.5 86q-51 -5 -103.5 -6t-106.5 3l-3 110q51 -6 104.5 -7.5t105.5 2.5q-2 49 -4.5 96t-5.5 93l110 10v0z
" />
    <glyph glyph-name="cid206" unicode="&#xffca;" horiz-adv-x="840" 
d="M505 755q7 -95 10.5 -200t3 -212t-4 -213.5t-9.5 -204.5l-110 5q5 59 7.5 121.5t4.5 128.5q-50 -7 -103 -10t-104 -2v110q51 -3 104.5 -2t104.5 6q1 43 0.5 86t-1.5 86q-51 -5 -103.5 -6t-106.5 3l-3 110q51 -6 104.5 -7.5t105.5 2.5q-2 49 -4.5 96t-5.5 93l110 10v0z
" />
    <glyph glyph-name="cid207" unicode="&#x3156;" horiz-adv-x="840" 
d="M585 745q8 -95 12 -198.5t4.5 -210t-3 -213t-9.5 -208.5l-105 5q6 93 9 195.5t2.5 208t-4.5 210.5t-11 201zM382 682q5 -93 8 -181t3 -176t-2.5 -178.5t-8.5 -189.5l-98 8q3 52 4.5 102t3.5 101q-46 -3 -93 -3t-85 3v102q39 -5 86.5 -5.5t92.5 1.5q1 69 0 136
q-46 -4 -94.5 -4.5t-83.5 3.5l-3 99q38 -5 86 -6t93 2q-1 45 -3 89.5t-4 89.5z" />
    <glyph glyph-name="cid207" unicode="&#xffcb;" horiz-adv-x="840" 
d="M585 745q8 -95 12 -198.5t4.5 -210t-3 -213t-9.5 -208.5l-105 5q6 93 9 195.5t2.5 208t-4.5 210.5t-11 201zM382 682q5 -93 8 -181t3 -176t-2.5 -178.5t-8.5 -189.5l-98 8q3 52 4.5 102t3.5 101q-46 -3 -93 -3t-85 3v102q39 -5 86.5 -5.5t92.5 1.5q1 69 0 136
q-46 -4 -94.5 -4.5t-83.5 3.5l-3 99q38 -5 86 -6t93 2q-1 45 -3 89.5t-4 89.5z" />
    <glyph glyph-name="cid208" unicode="&#x3157;" horiz-adv-x="840" 
d="M471 235q93 3 177.5 9.5t151.5 17.5l-5 -103q-83 -9 -179.5 -15t-196 -7.5t-196 1.5t-178.5 11l-5 103q74 -10 157.5 -14t170.5 -4q5 57 2 117t-12 117l110 9q8 -55 8 -119.5t-5 -122.5z" />
    <glyph glyph-name="cid208" unicode="&#xffcc;" horiz-adv-x="840" 
d="M471 235q93 3 177.5 9.5t151.5 17.5l-5 -103q-83 -9 -179.5 -15t-196 -7.5t-196 1.5t-178.5 11l-5 103q74 -10 157.5 -14t170.5 -4q5 57 2 117t-12 117l110 9q8 -55 8 -119.5t-5 -122.5z" />
    <glyph glyph-name="cid209" unicode="&#x3158;" horiz-adv-x="840" 
d="M825 305q-24 -4 -54.5 -6.5t-61.5 -3.5q0 -98 -3.5 -193.5t-10.5 -186.5l-105 5q9 111 12 235q-121 -34 -259 -50.5t-278 -14.5l-10 110q54 -3 107 -3.5t106 2.5q6 99 -6 203h108q4 -47 4 -97.5t-5 -98.5q62 7 120 17.5t115 26.5q2 124 -2 247.5t-12 237.5l105 10
q6 -80 9.5 -166t4.5 -176q30 3 58.5 8.5t52.5 13.5l5 -120v0z" />
    <glyph glyph-name="cid209" unicode="&#xffcd;" horiz-adv-x="840" 
d="M825 305q-24 -4 -54.5 -6.5t-61.5 -3.5q0 -98 -3.5 -193.5t-10.5 -186.5l-105 5q9 111 12 235q-121 -34 -259 -50.5t-278 -14.5l-10 110q54 -3 107 -3.5t106 2.5q6 99 -6 203h108q4 -47 4 -97.5t-5 -98.5q62 7 120 17.5t115 26.5q2 124 -2 247.5t-12 237.5l105 10
q6 -80 9.5 -166t4.5 -176q30 3 58.5 8.5t52.5 13.5l5 -120v0z" />
    <glyph glyph-name="cid210" unicode="&#x3159;" horiz-adv-x="840" 
d="M755 745q8 -93 12 -198.5t3.5 -213.5t-4.5 -215t-11 -203l-100 5q7 93 10.5 195t3.5 208q-43 -4 -89 -6q-1 -93 -5 -184t-11 -173l-97 5q3 45 5.5 93.5t4.5 100.5q-45 -14 -97 -25.5t-106 -20t-108.5 -13.5t-105.5 -5l-10 107q89 -6 175 0q2 41 -0.5 83.5t-10.5 84.5
l102 9q3 -38 2.5 -82t-3.5 -85q43 7 84 16t80 21q2 112 -1.5 222t-11.5 204l99 10q6 -60 9.5 -127.5t4.5 -140.5q23 0 45 1.5t44 3.5q-2 81 -5 159.5t-8 153.5l100 10v0z" />
    <glyph glyph-name="cid210" unicode="&#xffce;" horiz-adv-x="840" 
d="M755 745q8 -93 12 -198.5t3.5 -213.5t-4.5 -215t-11 -203l-100 5q7 93 10.5 195t3.5 208q-43 -4 -89 -6q-1 -93 -5 -184t-11 -173l-97 5q3 45 5.5 93.5t4.5 100.5q-45 -14 -97 -25.5t-106 -20t-108.5 -13.5t-105.5 -5l-10 107q89 -6 175 0q2 41 -0.5 83.5t-10.5 84.5
l102 9q3 -38 2.5 -82t-3.5 -85q43 7 84 16t80 21q2 112 -1.5 222t-11.5 204l99 10q6 -60 9.5 -127.5t4.5 -140.5q23 0 45 1.5t44 3.5q-2 81 -5 159.5t-8 153.5l100 10v0z" />
    <glyph glyph-name="cid211" unicode="&#x315a;" horiz-adv-x="840" 
d="M740 745q7 -95 11 -199.5t4 -211.5t-4 -213.5t-11 -205.5l-105 5q9 109 12 234q-69 -18 -143.5 -32t-149.5 -23.5t-148.5 -14.5t-140.5 -4l-10 110q122 -8 245 0q4 51 2.5 103.5t-7.5 106.5h108q4 -48 4 -100t-5 -100q124 15 247 48q2 125 -2 248.5t-12 238.5l105 10v0z
" />
    <glyph glyph-name="cid211" unicode="&#xffcf;" horiz-adv-x="840" 
d="M740 745q7 -95 11 -199.5t4 -211.5t-4 -213.5t-11 -205.5l-105 5q9 109 12 234q-69 -18 -143.5 -32t-149.5 -23.5t-148.5 -14.5t-140.5 -4l-10 110q122 -8 245 0q4 51 2.5 103.5t-7.5 106.5h108q4 -48 4 -100t-5 -100q124 15 247 48q2 125 -2 248.5t-12 238.5l105 10v0z
" />
    <glyph glyph-name="cid212" unicode="&#x315b;" horiz-adv-x="840" 
d="M612 238q53 3 100 8t88 11l-5 -101q-83 -9 -179.5 -15t-196 -7.5t-196 1.5t-178.5 11l-5 101q43 -5 89 -8.5t95 -5.5q-9 56 -13.5 107t-2.5 102h105q-3 -51 -1 -102.5t10 -109.5q99 -2 194 3q7 57 8 111.5t-5 108.5h105q2 -49 -1 -105.5t-11 -109.5z" />
    <glyph glyph-name="cid212" unicode="&#xffd2;" horiz-adv-x="840" 
d="M612 238q53 3 100 8t88 11l-5 -101q-83 -9 -179.5 -15t-196 -7.5t-196 1.5t-178.5 11l-5 101q43 -5 89 -8.5t95 -5.5q-9 56 -13.5 107t-2.5 102h105q-3 -51 -1 -102.5t10 -109.5q99 -2 194 3q7 57 8 111.5t-5 108.5h105q2 -49 -1 -105.5t-11 -109.5z" />
    <glyph glyph-name="cid213" unicode="&#x315c;" horiz-adv-x="840" 
d="M795 314q-72 -8 -153.5 -13.5t-167.5 -7.5q5 -71 4.5 -146t-8.5 -144l-110 -5q8 78 10 149.5t-2 143.5q-87 -1 -169 2t-154 11l-5 100q88 -11 190.5 -15t204.5 -2.5t196.5 9t168.5 18.5z" />
    <glyph glyph-name="cid213" unicode="&#xffd3;" horiz-adv-x="840" 
d="M795 314q-72 -8 -153.5 -13.5t-167.5 -7.5q5 -71 4.5 -146t-8.5 -144l-110 -5q8 78 10 149.5t-2 143.5q-87 -1 -169 2t-154 11l-5 100q88 -11 190.5 -15t204.5 -2.5t196.5 9t168.5 18.5z" />
    <glyph glyph-name="cid214" unicode="&#x315d;" horiz-adv-x="840" 
d="M740 745q7 -95 11 -199.5t4 -211.5t-4 -213.5t-11 -205.5l-105 5q3 41 5.5 83t4.5 87q-38 -11 -80.5 -16.5t-84.5 -3.5l-10 100q43 -4 88.5 -0.5t89.5 12.5q4 140 1 281.5t-14 271.5zM599 275q-44 -15 -102 -27.5t-122 -22.5q2 -29 3 -65t0.5 -73.5t-2.5 -75.5t-5 -71
l-105 -5q4 33 6 69t3 72.5t1 71t-1 64.5q-61 -6 -118 -9.5t-102 -2.5l-10 110q66 -6 139 -4t145 9.5t138 20.5t117 29z" />
    <glyph glyph-name="cid214" unicode="&#xffd4;" horiz-adv-x="840" 
d="M740 745q7 -95 11 -199.5t4 -211.5t-4 -213.5t-11 -205.5l-105 5q3 41 5.5 83t4.5 87q-38 -11 -80.5 -16.5t-84.5 -3.5l-10 100q43 -4 88.5 -0.5t89.5 12.5q4 140 1 281.5t-14 271.5zM599 275q-44 -15 -102 -27.5t-122 -22.5q2 -29 3 -65t0.5 -73.5t-2.5 -75.5t-5 -71
l-105 -5q4 33 6 69t3 72.5t1 71t-1 64.5q-61 -6 -118 -9.5t-102 -2.5l-10 110q66 -6 139 -4t145 9.5t138 20.5t117 29z" />
    <glyph glyph-name="cid215" unicode="&#x315e;" horiz-adv-x="840" 
d="M755 745q8 -95 11.5 -200t3.5 -212t-4 -213.5t-11 -204.5l-100 5q7 93 11 195.5t4 208t-3.5 210.5t-11.5 201zM585 685q6 -81 9 -171t3 -183t-4 -187t-11 -184l-98 5q6 69 9 144q-23 -5 -45.5 -7t-47.5 -3l-8 100q28 -2 53.5 -0.5t51.5 5.5q3 122 0.5 244t-10.5 227z
M460 283q-62 -23 -148 -38q5 -60 4.5 -133.5t-6.5 -141.5l-100 -5q8 66 10 135t-2 130q-42 -5 -83 -8t-80 -4l-10 105q115 -9 220 2.5t185 37.5z" />
    <glyph glyph-name="cid215" unicode="&#xffd5;" horiz-adv-x="840" 
d="M755 745q8 -95 11.5 -200t3.5 -212t-4 -213.5t-11 -204.5l-100 5q7 93 11 195.5t4 208t-3.5 210.5t-11.5 201zM585 685q6 -81 9 -171t3 -183t-4 -187t-11 -184l-98 5q6 69 9 144q-23 -5 -45.5 -7t-47.5 -3l-8 100q28 -2 53.5 -0.5t51.5 5.5q3 122 0.5 244t-10.5 227z
M460 283q-62 -23 -148 -38q5 -60 4.5 -133.5t-6.5 -141.5l-100 -5q8 66 10 135t-2 130q-42 -5 -83 -8t-80 -4l-10 105q115 -9 220 2.5t185 37.5z" />
    <glyph glyph-name="cid216" unicode="&#x315f;" horiz-adv-x="840" 
d="M740 745q7 -95 11 -199.5t4 -211.5t-4 -213.5t-11 -205.5l-105 5q6 80 9.5 166t4.5 177q-57 -14 -117 -26t-122 -20q1 -30 2 -64.5t0.5 -71t-2 -72.5t-4.5 -69l-105 -5q4 30 6 64t3 69.5t1 70t-1 66.5q-66 -7 -129 -10t-121 -2l-10 110q154 -11 303 -1t296 52
q0 99 -3.5 195t-10.5 186l105 10v0z" />
    <glyph glyph-name="cid216" unicode="&#xffd6;" horiz-adv-x="840" 
d="M740 745q7 -95 11 -199.5t4 -211.5t-4 -213.5t-11 -205.5l-105 5q6 80 9.5 166t4.5 177q-57 -14 -117 -26t-122 -20q1 -30 2 -64.5t0.5 -71t-2 -72.5t-4.5 -69l-105 -5q4 30 6 64t3 69.5t1 70t-1 66.5q-66 -7 -129 -10t-121 -2l-10 110q154 -11 303 -1t296 52
q0 99 -3.5 195t-10.5 186l105 10v0z" />
    <glyph glyph-name="cid217" unicode="&#x3160;" horiz-adv-x="840" 
d="M795 314q-43 -5 -89.5 -9t-95.5 -7q6 -73 6.5 -147t-4.5 -155l-110 -5q9 81 10.5 154.5t-3.5 148.5q-90 -3 -182 -3q2 -68 0.5 -141.5t-7.5 -138.5l-110 -5q10 72 13.5 144t2.5 143q-48 2 -93.5 4t-87.5 7l-5 100q88 -11 190.5 -15t204.5 -2.5t196.5 9t168.5 18.5z" />
    <glyph glyph-name="cid217" unicode="&#xffd7;" horiz-adv-x="840" 
d="M795 314q-43 -5 -89.5 -9t-95.5 -7q6 -73 6.5 -147t-4.5 -155l-110 -5q9 81 10.5 154.5t-3.5 148.5q-90 -3 -182 -3q2 -68 0.5 -141.5t-7.5 -138.5l-110 -5q10 72 13.5 144t2.5 143q-48 2 -93.5 4t-87.5 7l-5 100q88 -11 190.5 -15t204.5 -2.5t196.5 9t168.5 18.5z" />
    <glyph glyph-name="cid218" unicode="&#x3161;" horiz-adv-x="840" 
d="M40 259q88 -11 186 -16t197 -3.5t195.5 9t181.5 20.5l-5 -105q-83 -11 -180 -17t-196 -7t-195.5 2.5t-178.5 11.5z" />
    <glyph glyph-name="cid218" unicode="&#xffda;" horiz-adv-x="840" 
d="M40 259q88 -11 186 -16t197 -3.5t195.5 9t181.5 20.5l-5 -105q-83 -11 -180 -17t-196 -7t-195.5 2.5t-178.5 11.5z" />
    <glyph glyph-name="cid219" unicode="&#x3162;" horiz-adv-x="840" 
d="M740 745q7 -95 11 -199.5t4 -211.5t-4 -213.5t-11 -205.5l-105 5q5 63 8 131t5 139q-69 -17 -142.5 -30.5t-148 -22t-147.5 -13t-140 -3.5l-10 110q154 -10 298.5 2.5t290.5 50.5q1 116 -2.5 230.5t-11.5 220.5l105 10v0z" />
    <glyph glyph-name="cid219" unicode="&#xffdb;" horiz-adv-x="840" 
d="M740 745q7 -95 11 -199.5t4 -211.5t-4 -213.5t-11 -205.5l-105 5q5 63 8 131t5 139q-69 -17 -142.5 -30.5t-148 -22t-147.5 -13t-140 -3.5l-10 110q154 -10 298.5 2.5t290.5 50.5q1 116 -2.5 230.5t-11.5 220.5l105 10v0z" />
    <glyph glyph-name="cid220" unicode="&#x3163;" horiz-adv-x="840" 
d="M462 755q7 -95 11 -201t4 -214t-4 -213.5t-11 -201.5l-104 5q7 93 11 196.5t4 209.5t-4 210.5t-11 198.5z" />
    <glyph glyph-name="cid220" unicode="&#xffdc;" horiz-adv-x="840" 
d="M462 755q7 -95 11 -201t4 -214t-4 -213.5t-11 -201.5l-104 5q7 93 11 196.5t4 209.5t-4 210.5t-11 198.5z" />
    <glyph glyph-name="cid12135" unicode="&#x317f;" horiz-adv-x="840" 
d="M377 578h85l215 -428l-40 -65h-436l-40 65zM564 169l-144 304l-142 -304h286z" />
    <glyph glyph-name="cid12137" unicode="&#x3181;" horiz-adv-x="840" 
d="M473 473q39 -5 72 -21.5t57.5 -42.5t38 -60.5t13.5 -74.5q0 -47 -18.5 -88t-50.5 -71.5t-74.5 -48t-90.5 -17.5t-91 17.5t-74.5 47.5t-50 70.5t-18.5 85.5q0 40 12.5 76.5t36.5 66t59 51t80 31.5q3 52 2.5 103.5t-4.5 103.5h101q9 -115 0 -229zM420 144q62 0 100 35
t38 95q0 31 -12.5 52.5t-33 34.5t-47 17.5t-54.5 1.5v28q-58 -10 -93.5 -47.5t-35.5 -90.5q0 -57 37.5 -91.5t100.5 -34.5z" />
    <glyph glyph-name="cid12142" unicode="&#x3186;" horiz-adv-x="840" 
d="M165 666q128 -11 255 -11.5t255 12.5v-93q-128 -11 -255 -10.5t-255 11.5v91zM435 459q47 1 86 -13t67 -41t43.5 -64.5t15.5 -82.5q0 -47 -18.5 -86t-50 -67t-72.5 -43.5t-86 -15.5t-85.5 15.5t-71.5 43.5t-49.5 67t-18.5 86q0 45 17.5 86t49 72.5t76.5 50.5t99 20z
M420 138q28 0 52 7.5t42 22.5t28.5 37.5t10.5 52.5q0 31 -11.5 53t-31 34.5t-45 17t-54.5 1.5v28q-57 -9 -89.5 -47t-32.5 -87q0 -59 37.5 -89.5t93.5 -30.5z" />
    <glyph glyph-name="cid12149" unicode="&#x318d;" horiz-adv-x="840" 
d="M353 245l-5 139h142q2 -15 2.5 -33t-1 -37t-4.5 -38.5t-7 -35.5z" />
    <glyph glyph-name="cid11688" unicode="&#x327f;" horiz-adv-x="840" 
d="M222 359v-65h-170q0 22 0.5 38t1.5 27q4 45 19 87.5t40 79.5t58 67.5t74 52.5q82 44 174 44q82 0 154 -33.5t124 -93.5q51 -59 74 -136h-80q-16 44 -42.5 79.5t-62 61t-77.5 39t-90 13.5q-75 0 -138 -33.5t-103 -93.5q-40 -59 -49 -134h93zM584 294v65h202q1 -18 1 -34.5
t-2 -30.5q-10 -94 -59.5 -171.5t-130.5 -122.5t-176 -45q-85 0 -156.5 33.5t-122.5 94.5q-50 61 -73 141h81q32 -93 103 -145.5t168 -52.5q78 0 141.5 34.5t103.5 95.5t46 138h-126zM347 353l144 117h101l-133 -110l129 -187h-82l-98 149l-59 -48v-101h-77v297h75v-117z" />
    <glyph glyph-name="cid221" unicode="&#xac00;" horiz-adv-x="841" 
d="M820 331q-27 -5 -61.5 -7.5t-69.5 -1.5q0 -104 -3 -204.5t-11 -192.5l-105 5q8 93 11.5 196.5t3 209.5t-5.5 210.5t-14 198.5l105 10q7 -75 11 -157t6 -167q32 2 64 6.5t64 13.5zM309 591q51 -9 82.5 -34.5t44 -61t6.5 -77.5t-29 -84q-21 -38 -54 -74.5t-74 -69.5
t-88 -62t-96 -52l-50 97q48 19 90 43t77 51t61.5 55.5t42.5 56.5q26 45 10 77.5t-63 37.5q-20 2 -39 0.5t-39.5 -7t-43 -14.5t-50.5 -22l-34 108q70 28 129 35t117 -3z" />
    <glyph glyph-name="cid222" unicode="&#xac01;" horiz-adv-x="840" 
d="M800 452q-26 -5 -59 -7.5t-68 -2.5q-5 -85 -18 -167l-99 5q10 54 15.5 114t6 121t-3.5 119.5t-13 110.5l104 10q12 -107 12 -212q29 2 59 6.5t59 12.5zM400 438q-42 -60 -109.5 -118t-153.5 -101l-57 86q78 33 139.5 82t96.5 101q26 39 18 60.5t-56 23.5q-42 2 -94 -7.5
t-94 -29.5l-30 99q54 22 116 29.5t120 1.5q49 -5 82 -25.5t47.5 -51.5t8.5 -69.5t-34 -80.5zM511 225q90 -5 128 -42.5t40 -98.5q1 -18 -0.5 -41.5t-6 -50.5t-11.5 -55t-17 -55l-101 20q19 41 28.5 88t8.5 85q-1 35 -26.5 45.5t-63.5 11.5q-113 2 -239 -47l-25 95
q33 11 70 20t74 15t73 8.5t68 1.5z" />
    <glyph glyph-name="cid3059" unicode="&#xac02;" 
 />
    <glyph glyph-name="cid3060" unicode="&#xac03;" 
 />
    <glyph glyph-name="cid223" unicode="&#xac04;" horiz-adv-x="840" 
d="M550 152q12 65 19 142.5t9 156.5t-2 155t-14 139l104 10q5 -57 7.5 -120.5t1.5 -130.5q31 2 62 6.5t61 12.5l5 -110q-26 -5 -60.5 -7.5t-69.5 -2.5q-3 -70 -9 -137t-15 -126zM400 428q-42 -60 -109.5 -118t-153.5 -101l-57 86q78 33 139.5 82t96.5 101q26 39 18 60.5
t-56 23.5q-42 2 -94 -7.5t-94 -29.5l-30 99q54 22 116 29.5t120 1.5q49 -5 82 -25.5t47.5 -51.5t8.5 -69.5t-34 -80.5zM458 -25q28 -1 53 1t50.5 7t54 13t63.5 19l17 -92q-71 -23 -131 -32t-124 -7q-43 1 -74 11t-53 25.5t-34.5 37t-18.5 45.5q-11 49 -7 104.5t15 103.5
l102 -10q-5 -18 -8.5 -40t-6 -44.5t-2 -44.5t4.5 -41q7 -31 32 -42.5t67 -13.5z" />
    <glyph glyph-name="cid4637" unicode="&#xac05;" 
 />
    <glyph glyph-name="cid4638" unicode="&#xac06;" 
 />
    <glyph glyph-name="cid224" unicode="&#xac07;" horiz-adv-x="840" 
d="M556 299q20 109 21 225.5t-16 220.5l104 10q7 -56 9.5 -108.5t2.5 -103.5q29 2 59 6.5t59 12.5l5 -110q-26 -5 -59.5 -7.5t-68.5 -2.5q-2 -37 -6.5 -73.5t-10.5 -74.5zM400 438q-42 -60 -109.5 -118t-153.5 -101l-57 86q78 33 139.5 82t96.5 101q26 39 18 60.5t-56 23.5
q-42 2 -94 -7.5t-94 -29.5l-30 99q54 22 116 29.5t120 1.5q49 -5 82 -25.5t47.5 -51.5t8.5 -69.5t-34 -80.5zM426 -28q53 -3 120.5 5t135.5 28l18 -94q-75 -20 -151 -27.5t-145 -4.5q-81 4 -117.5 37t-34.5 96q1 29 6.5 59t13.5 57l-45 3v92q51 -4 106.5 -5.5t112.5 -0.5
t113 4t107 9v-92q-69 -6 -145 -9.5t-151 -2.5q-14 -54 -14 -96q0 -30 16.5 -43t53.5 -15z" />
    <glyph glyph-name="cid225" unicode="&#xac08;" horiz-adv-x="840" 
d="M561 331q9 47 13 99.5t4 106.5t-4.5 107t-13.5 101l105 10q12 -98 12 -193q29 2 59 6.5t59 12.5l5 -110q-26 -5 -58.5 -7.5t-66.5 -2.5q-2 -36 -5.5 -69.5t-8.5 -65.5zM387 444q-21 -26 -52.5 -53.5t-69 -53.5t-80 -49.5t-86.5 -41.5l-42 92q81 29 147.5 70t103.5 86
q30 36 21.5 60t-56.5 26q-42 2 -91.5 -7.5t-91.5 -29.5l-30 95q54 22 113.5 29.5t117.5 1.5q49 -5 82 -26.5t46.5 -52.5t6 -69t-38.5 -77zM408 -34q26 -1 60 1t72.5 7.5t79.5 13t80 18.5l13 -95q-41 -9 -83.5 -15t-83 -10t-78 -5.5t-67.5 -0.5q-46 2 -76 12.5t-47 27
t-21.5 37.5t1.5 44q7 25 16 41q-5 0 -11 0.5t-11 0.5l-6 82q91 -5 167 -3t154 12q2 4 2.5 8t1.5 8q3 20 -6 31t-43 13q-23 1 -52.5 0t-62 -4.5t-66.5 -9t-66 -12.5l-15 100q35 5 73.5 8.5t76.5 5t73 1t64 -3.5q73 -8 99.5 -44t13.5 -82l-2 -6l28 5l-4 -82
q-82 -16 -157.5 -23t-156.5 -7q-10 -17 -13 -33q-3 -17 6 -28t47 -13z" />
    <glyph glyph-name="cid226" unicode="&#xac09;" horiz-adv-x="840" 
d="M561 311q9 47 13 102.5t4 113.5t-4.5 114t-13.5 104l105 10q12 -95 12 -193q29 2 59 6.5t59 12.5l5 -110q-26 -5 -58 -7.5t-66 -2.5q-2 -42 -6 -81t-9 -74zM387 444q-20 -27 -51.5 -53t-69.5 -50t-81 -44t-86 -35l-42 90q39 11 77 26t71 33.5t59.5 39t43.5 43.5
q29 37 21 60.5t-56 25.5q-42 2 -91.5 -7.5t-91.5 -29.5l-30 95q54 22 113.5 29.5t117.5 1.5q49 -5 81 -26t45.5 -52t6.5 -69t-37 -78zM591 248q21 -2 42 -10.5t37 -24.5t26 -40t9 -57q-1 -26 -4.5 -55t-9 -58.5t-12.5 -58t-16 -52.5l-98 22q47 99 50 189q2 57 -47 60
q-23 2 -52 -6t-52 -17l-16 87q29 9 69 17t74 4zM279 -46q45 -2 94 12t106 48l28 -83q-54 -29 -118 -43t-127 -10q-66 4 -90.5 33t-16.5 68q5 23 17 43l-28 2l-1 74q41 -3 89.5 -2t95.5 6q7 15 9 27q3 18 -3.5 26t-20.5 10q-14 1 -34.5 0.5t-43 -3.5t-45 -8.5t-40.5 -12.5
l-18 86q21 6 47 11t52.5 7.5t52 3t46.5 -2.5q50 -7 74 -32t17 -65q-3 -17 -8 -34q19 3 32 7v-71q-37 -12 -89 -19.5t-105 -9.5q-7 -17 -8 -28q-3 -20 4.5 -29.5t31.5 -10.5z" />
    <glyph glyph-name="cid227" unicode="&#xac0a;" horiz-adv-x="840" 
d="M561 315q9 47 13 102t4 112t-4.5 112.5t-13.5 103.5l105 10q12 -95 12 -193q29 2 59 6.5t59 12.5l5 -110q-26 -5 -58 -7.5t-66 -2.5q-2 -41 -6 -79t-9 -72zM387 444q-20 -27 -51.5 -53t-69.5 -50t-81 -44t-86 -35l-42 90q39 11 77 26t71 33.5t59.5 39t43.5 43.5
q29 37 21 60.5t-56 25.5q-42 2 -91.5 -7.5t-91.5 -29.5l-30 95q54 22 113.5 29.5t117.5 1.5q49 -5 81 -26t45.5 -52t6.5 -69t-37 -78zM585 251q27 5 51 0.5t41.5 -18t27 -36t8.5 -55.5t-8 -74.5t-17 -79.5l22 5l-5 -76q-36 -8 -85.5 -11t-94.5 -1q0 -4 -0.5 -7.5t-0.5 -7.5
h-68q2 38 0.5 83t-6.5 91t-12.5 90.5t-17.5 80.5l87 18l6 -34q17 11 35.5 20t36.5 12zM306 -44q22 2 50 12t54 27l21 -75q-29 -19 -60 -28t-70 -13q-38 -4 -66.5 2t-47 19t-27 30.5t-6.5 37.5q2 14 7 29.5t12 29.5l-27 2l-1 75q38 -3 81.5 -2.5t85.5 4.5q7 18 8 33
q1 18 -6 27t-27 11q-15 1 -33 -1t-37 -6t-35.5 -9.5t-28.5 -10.5l-18 83q16 6 37 10t43.5 6.5t45 3t40.5 -0.5q50 -3 75 -29t22 -68q-1 -10 -3.5 -19.5t-6.5 -17.5q9 1 22 5v-72q-30 -9 -71.5 -15t-85.5 -8q-7 -13 -10 -24.5t-4 -21.5q-1 -19 17.5 -24t49.5 -2zM528 -22h43
t43 2q8 38 12 76.5t2 67.5q-2 31 -14 40t-32 7q-16 -2 -31 -9t-29 -18q4 -42 5.5 -84t0.5 -82z" />
    <glyph glyph-name="cid228" unicode="&#xac0b;" horiz-adv-x="840" 
d="M561 324q9 47 13 100.5t4 109t-4.5 109.5t-13.5 102l105 10q12 -96 12 -193q29 2 59 6.5t59 12.5l5 -110q-26 -5 -58 -7.5t-67 -2.5q-2 -38 -5.5 -74t-8.5 -68zM387 444q-21 -25 -52.5 -49.5t-69.5 -47t-80.5 -41.5t-85.5 -34l-42 90q39 11 76.5 25t70.5 31t59.5 36
t44.5 40q31 35 22 59.5t-57 26.5q-42 2 -91.5 -7.5t-91.5 -29.5l-30 95q54 22 113.5 29.5t117.5 1.5q49 -5 82 -26.5t46.5 -53t6.5 -69.5t-39 -76zM682 276q8 -27 12.5 -60.5t6.5 -69.5q26 -11 44 -28l-29 -72q-4 4 -7.5 7t-7.5 6q-2 -30 -7 -55t-13 -43q-14 -32 -36.5 -49
t-46.5 -22.5t-47.5 -1.5t-39.5 15t-26 27l-40 -2q3 38 3 80.5t-3 84.5t-9 81t-15 71l86 12q6 -26 9.5 -57t5.5 -64q7 5 14 8q17 8 37 13t42 6q-3 25 -8.5 49.5t-12.5 47.5zM306 -44q22 2 50 12t54 27l21 -75q-29 -19 -60 -28t-70 -13q-38 -4 -66.5 2t-47 19t-27 30.5
t-6.5 37.5q2 14 7.5 31t13.5 31l-27 2l-1 75q38 -3 79.5 -2.5t83.5 4.5q7 16 9 34q2 37 -32 38q-15 1 -33 -1.5t-37 -6t-35.5 -9t-28.5 -10.5l-18 83q16 6 37 10t43.5 6.5t45 3t40.5 -0.5q50 -3 75 -29t22 -68q-1 -11 -4 -20.5t-7 -18.5l25 6v-72q-30 -9 -71 -15t-84 -8
q-15 -26 -17 -49q-1 -19 17 -24t49 -2zM612 1q5 16 7.5 38t2.5 48q-35 3 -62 -11q-16 -9 -24 -24t-9 -31t3.5 -30t14.5 -20q18 -11 37 -6t30 36z" />
    <glyph glyph-name="cid3061" unicode="&#xac0c;" 
 />
    <glyph glyph-name="cid4639" unicode="&#xac0d;" 
 />
    <glyph glyph-name="cid4640" unicode="&#xac0e;" 
 />
    <glyph glyph-name="cid4641" unicode="&#xac0f;" 
 />
    <glyph glyph-name="cid229" unicode="&#xac10;" horiz-adv-x="840" 
d="M556 287q10 54 15.5 113t6 118.5t-3.5 117t-13 109.5l104 10q12 -108 12 -212q29 2 59 6.5t59 12.5l5 -110q-26 -5 -59 -7.5t-68 -2.5q-6 -80 -18 -160zM400 438q-42 -60 -109.5 -118t-153.5 -101l-57 86q78 33 139.5 82t96.5 101q26 39 18 60.5t-56 23.5q-42 2 -94 -7.5
t-94 -29.5l-30 99q54 22 116 29.5t120 1.5q49 -5 82 -25.5t47.5 -51.5t8.5 -69.5t-34 -80.5zM685 98q-4 -25 -13 -55.5t-24 -58.5l42 6v-90q-93 -12 -173 -14.5t-165 1.5q0 -10 -1 -15h-87q2 32 1 74.5t-5.5 87.5t-12 89t-16.5 79l102 16l6 -30q42 17 93.5 31.5t102.5 13.5
q81 -1 120 -38.5t30 -96.5zM357 -32q48 -1 94 0t93 5q15 29 25.5 61.5t13.5 58.5t-16 38t-52 12q-37 0 -80 -11t-84 -28q8 -66 6 -136z" />
    <glyph glyph-name="cid230" unicode="&#xac11;" horiz-adv-x="840" 
d="M559 307q20 109 19.5 221.5t-17.5 216.5l104 10q7 -57 10 -109t3 -103q29 2 58.5 6.5t58.5 12.5l5 -110q-26 -5 -58.5 -7.5t-67.5 -2.5q-2 -35 -6 -69.5t-10 -70.5zM400 438q-42 -60 -109.5 -118t-153.5 -101l-57 86q78 33 139.5 82t96.5 101q26 39 18 60.5t-56 23.5
q-42 2 -94 -7.5t-94 -29.5l-30 99q54 22 116 29.5t120 1.5q49 -5 82 -25.5t47.5 -51.5t8.5 -69.5t-34 -80.5zM672 247q6 -41 6 -88q26 -10 49 -27l-28 -79q-12 9 -24 14q-2 -29 -6.5 -53.5t-11.5 -44.5q-14 -41 -44 -64t-65 -30t-69.5 0.5t-57.5 27.5q-25 21 -36 52.5
t-8.5 64.5t20 64.5t49.5 52.5q28 18 60 27.5t67 11.5q-3 15 -5.5 29.5t-6.5 28.5zM326 208q14 -77 22 -161.5t5 -158.5l-96 -1q4 74 -6.5 153t-30.5 154zM573 7q10 30 8 83q-26 1 -48.5 -4.5t-39.5 -19.5q-28 -22 -31 -50.5t19 -45.5q23 -18 50.5 -10.5t41.5 47.5z" />
    <glyph glyph-name="cid231" unicode="&#xac12;" horiz-adv-x="840" 
d="M558 285q10 54 15 113.5t5 119t-4 117.5t-13 110l104 10q12 -108 12 -212q29 2 59 6.5t59 12.5l5 -110q-26 -5 -58.5 -7.5t-67.5 -2.5q-2 -41 -6.5 -81.5t-10.5 -80.5zM400 438q-42 -60 -109.5 -114t-153.5 -97l-57 86q78 33 139.5 78t96.5 97q26 39 18 60.5t-56 23.5
q-42 2 -94 -7.5t-94 -29.5l-30 99q54 22 116 29.5t120 1.5q49 -5 82 -25.5t47.5 -51.5t8.5 -69.5t-34 -80.5zM632 85q46 -27 81 -64.5t60 -81.5l-76 -60q-17 34 -41.5 68t-58.5 60q-46 -83 -109 -140l-56 56q-17 -22 -40.5 -35.5t-52.5 -13.5q-28 0 -49 9.5t-36 24.5l-42 -1
q5 66 -2.5 136t-28.5 142l84 14q5 -23 9.5 -47t7.5 -49q15 11 34 17q36 13 81 10q-1 21 -3 43.5t-7 43.5l94 5q2 -25 2.5 -52t-0.5 -53t-3.5 -50t-5.5 -43q-2 -14 -6.5 -28t-9.5 -28q44 48 75 117t36 144l92 -15q-5 -66 -29 -129zM332 -52q15 1 25.5 8.5t17.5 20t11.5 28
t6.5 32.5l2 14q-19 3 -34.5 1t-29.5 -7q-17 -8 -28.5 -20.5t-10.5 -36.5q1 -20 13 -30.5t27 -9.5z" />
    <glyph glyph-name="cid232" unicode="&#xac13;" horiz-adv-x="840" 
d="M552 218q10 58 16 128.5t7.5 141.5t-2 138t-12.5 119l104 10q6 -51 8.5 -107t1.5 -115q30 2 60.5 6.5t59.5 12.5l5 -110q-26 -5 -59.5 -7.5t-68.5 -2.5q-3 -60 -8 -115.5t-13 -103.5zM395 438q-20 -30 -47 -63t-59.5 -65.5t-70.5 -63.5t-81 -57l-57 86q39 21 73.5 47
t64 54.5t53 57t40.5 54.5q26 39 18 60.5t-56 23.5q-42 2 -91.5 -7.5t-91.5 -29.5l-30 99q54 22 113.5 29.5t117.5 1.5q49 -5 82 -25.5t47 -51.5t8.5 -69.5t-33.5 -80.5zM469 125q34 -12 68 -29.5t66.5 -38.5t62 -45t53.5 -50l-71 -85q-51 60 -109 106t-124 67
q-42 -51 -89.5 -96.5t-97.5 -80.5l-62 89q42 25 82 59t75 74.5t64 86.5t50 95l87 -45q-20 -52 -55 -107z" />
    <glyph glyph-name="cid233" unicode="&#xac14;" horiz-adv-x="840" 
d="M561 308q20 117 18.5 225t-18.5 212l104 10q6 -54 9.5 -102.5t4.5 -96.5q29 2 58 6.5t58 12.5l5 -110q-25 -5 -57.5 -7.5t-66.5 -2.5q-2 -38 -6 -75.5t-10 -76.5zM80 300q78 35 137 85.5t94 102.5q54 80 -38 83q-42 2 -91.5 -7.5t-91.5 -29.5l-30 100q54 22 113.5 29.5
t117.5 1.5q49 -5 82 -25.5t47.5 -51.5t9 -70t-33.5 -81q-41 -60 -106.5 -119.5t-151.5 -104.5zM605 116q22 -13 46 -33t47 -42.5t43.5 -47t34.5 -46.5l-81 -71q-20 43 -55 86t-69 72q-25 -53 -53.5 -100t-57.5 -80l-79 62q11 11 20.5 23t19.5 25q-23 24 -52.5 45.5
t-57.5 36.5q-29 -47 -62 -88t-64 -69l-70 65q30 24 59 58t54.5 73.5t45 80.5t31.5 78l88 -34q-7 -22 -17.5 -46t-24.5 -50q32 -14 62.5 -32t56.5 -39q26 49 45 101.5t30 103.5l89 -23q-7 -49 -29 -109z" />
    <glyph glyph-name="cid234" unicode="&#xac15;" horiz-adv-x="840" 
d="M800 452q-26 -5 -58.5 -7.5t-67.5 -2.5q-5 -78 -15 -154l-99 5q9 54 13.5 112t4.5 116.5t-4 115t-13 108.5l104 10q12 -110 12 -212q29 2 59 6.5t59 12.5zM400 438q-42 -60 -109.5 -118t-153.5 -101l-57 86q78 33 139.5 82t96.5 101q26 39 18 60.5t-56 23.5
q-42 2 -94 -7.5t-94 -29.5l-30 99q54 22 116 29.5t120 1.5q49 -5 82 -25.5t47.5 -51.5t8.5 -69.5t-34 -80.5zM518 235q39 -2 69.5 -16t50.5 -37.5t30.5 -53t10.5 -62.5q0 -38 -14.5 -71.5t-41.5 -58.5t-64.5 -40t-82.5 -15q-51 0 -91 14t-67.5 39t-42 58t-14.5 70
q0 42 18 79t51.5 64t81 40.5t106.5 8.5v-19zM476 -29q48 1 77.5 26.5t27.5 72.5q-2 46 -34 67.5t-93 13.5v17q-49 -11 -72.5 -40t-22.5 -65q1 -42 31 -67.5t86 -24.5z" />
    <glyph glyph-name="cid235" unicode="&#xac16;" horiz-adv-x="840" 
d="M556 287q9 47 14 102.5t6 115.5t-2.5 121t-13.5 119l105 10q6 -48 8.5 -99.5t2.5 -103.5q29 2 59.5 6.5t59.5 12.5l5 -110q-26 -5 -59 -7.5t-68 -2.5q-2 -46 -6.5 -88.5t-10.5 -80.5zM389 432q-20 -28 -50 -57t-66 -57t-75.5 -53.5t-78.5 -44.5l-51 89q32 13 68 33.5
t69.5 44.5t61.5 49t45 49q27 38 18 63.5t-57 27.5q-42 2 -92 -9t-92 -31l-29 102q54 22 114.5 29.5t118.5 1.5q49 -5 81 -27.5t45 -55.5t6 -73t-36 -81zM555 24q50 -7 97 -23t92 -40l-59 -96q-51 34 -103 61t-112 40q-54 -32 -115 -58.5t-124 -45.5l-40 98q51 12 97.5 28.5
t86 34.5t71.5 35.5t53 32.5q36 26 29.5 42t-54.5 19q-40 2 -91.5 -9.5t-104.5 -31.5l-27 102q57 19 120.5 28t131.5 3q51 -5 84 -23t45 -44.5t0.5 -60t-48.5 -67.5z" />
    <glyph glyph-name="cid236" unicode="&#xac17;" horiz-adv-x="840" 
d="M561 331q9 47 13 99.5t4 106.5t-4.5 107t-13.5 101l105 10q12 -98 12 -193q29 2 59 6.5t59 12.5l5 -110q-26 -5 -58.5 -7.5t-66.5 -2.5q-2 -36 -5.5 -69.5t-8.5 -65.5zM387 449q-21 -26 -52.5 -53t-69 -52t-80 -47.5t-86.5 -40.5l-42 92q81 29 147.5 67.5t103.5 83.5
q30 36 21.5 60t-56.5 26q-42 2 -91.5 -7.5t-91.5 -29.5l-30 95q54 22 113.5 29.5t117.5 1.5q49 -5 82 -26.5t46.5 -52.5t6 -69t-38.5 -77zM369 311q59 -20 114.5 -26t110.5 0l1 -78q-60 -11 -122.5 -8.5t-118.5 19.5zM571 156q52 -8 79.5 -27.5t32 -43.5t-12 -50.5
t-52.5 -49.5q35 -3 73 -10t78 -19l-40 -91q-107 52 -219 69q-64 -24 -136 -42.5t-135 -29.5l-27 99q49 5 99.5 13.5t97 19t85 22.5t63.5 24q29 14 25.5 23t-35.5 14q-18 3 -47 2t-63.5 -5t-71.5 -11t-70 -17l-17 96q77 17 154.5 20.5t138.5 -6.5z" />
    <glyph glyph-name="cid4642" unicode="&#xac18;" 
 />
    <glyph glyph-name="cid237" unicode="&#xac19;" horiz-adv-x="840" 
d="M561 331q9 47 13 99.5t4 106.5t-4.5 107t-13.5 101l105 10q12 -98 12 -193q29 2 59 6.5t59 12.5l5 -110q-26 -5 -58.5 -7.5t-66.5 -2.5q-2 -36 -5.5 -69.5t-8.5 -65.5zM387 444q-21 -26 -52.5 -53.5t-69 -53.5t-80 -49.5t-86.5 -41.5l-42 92q81 29 147.5 70t103.5 86
q30 36 21.5 60t-56.5 26q-42 2 -91.5 -7.5t-91.5 -29.5l-30 95q54 22 113.5 29.5t117.5 1.5q49 -5 82 -26.5t46.5 -52.5t6 -69t-38.5 -77zM431 -39q57 -5 128.5 5t139.5 36l12 -93q-75 -19 -153 -28t-147 -1q-73 8 -113 44t-35 108q3 37 10 73t19 72l-52 3v86
q109 -9 219.5 -7.5t213.5 9.5v-86q-60 -5 -137.5 -7t-155.5 -1q-5 -15 -9 -29.5t-7 -28.5q70 -4 140.5 -0.5t142.5 15.5l1 -85q-70 -11 -146.5 -13.5t-148.5 3.5v-5q-3 -62 78 -70z" />
    <glyph glyph-name="cid238" unicode="&#xac1a;" horiz-adv-x="840" 
d="M556 292q10 54 15.5 112.5t6 117t-3.5 115t-13 108.5l104 10q12 -110 12 -212q29 2 59 6.5t59 12.5l5 -110q-26 -5 -59 -7.5t-68 -2.5q-6 -76 -18 -155zM400 438q-42 -60 -109.5 -118t-153.5 -101l-57 86q78 33 139.5 82t96.5 101q26 39 18 60.5t-56 23.5q-42 2 -94 -7.5
t-94 -29.5l-30 99q54 22 116 29.5t120 1.5q49 -5 82 -25.5t47.5 -51.5t8.5 -69.5t-34 -80.5zM616 126q0 -32 -3 -71t-8 -73q29 2 54 5t48 6l-2 -93q-47 -6 -108 -10t-126 -5.5t-128 0t-112 6.5l-5 92q23 -2 48 -3.5t51 -3.5l-9 147q-21 1 -42 1.5t-42 2.5l-5 90
q121 -8 238 -7.5t221 12.5v-90zM517 121q-26 0 -53 -0.5t-53 -0.5l4 -145q24 0 48.5 0.5t48.5 1.5q4 34 5.5 73t-0.5 71z" />
    <glyph glyph-name="cid239" unicode="&#xac1b;" horiz-adv-x="840" 
d="M561 341q9 47 13 98t4 103t-4.5 103.5t-13.5 99.5l105 10q12 -101 12 -193q29 2 59 6.5t59 12.5l5 -110q-26 -5 -58.5 -7.5t-66.5 -2.5q-2 -32 -5.5 -63.5t-8.5 -61.5zM387 449q-21 -26 -52.5 -53t-69 -52t-80 -47.5t-86.5 -40.5l-42 92q81 29 147.5 67.5t103.5 83.5
q30 36 21.5 60t-56.5 26q-42 2 -91.5 -7.5t-91.5 -29.5l-30 95q54 22 113.5 29.5t117.5 1.5q49 -5 82 -26.5t46.5 -52.5t6 -69t-38.5 -77zM369 322q59 -20 114.5 -26t110.5 0l1 -78q-60 -11 -122.5 -8.5t-118.5 19.5zM233 177q55 -6 118.5 -7.5t127.5 0t123.5 6t107.5 11.5
l-4 -90q-19 -2 -41 -4t-46 -4q12 -16 19 -35t7 -41q0 -63 -43 -104t-126 -41q-36 0 -67.5 10.5t-54 29t-35.5 45.5t-13 60q0 20 6 37t17 32q-26 1 -48.5 2t-42.5 3zM476 -54q37 0 58 18t21 49q0 29 -22.5 48.5t-56.5 19.5q-32 0 -56 -19.5t-24 -48.5q0 -34 22.5 -50.5
t57.5 -16.5z" />
    <glyph glyph-name="cid240" unicode="&#xac1c;" horiz-adv-x="840" 
d="M745 745q8 -95 12 -198.5t3.5 -210t-4.5 -213t-11 -208.5l-100 5q7 93 10.5 194.5t3.5 207.5q-21 -2 -42 -3.5t-42 -1.5q-1 -85 -4 -172t-8 -185l-98 5q5 93 7.5 180.5t3 174t-2 174.5t-8.5 181l98 10q5 -73 7 -139t4 -129q21 0 42 1.5t42 3.5q-1 81 -4.5 159.5
t-8.5 153.5zM268 574q51 -5 81.5 -30.5t42.5 -61t7 -76.5t-24 -77q-42 -76 -108 -143t-144 -116l-63 88q37 21 71 46t62.5 52.5t51 55t38.5 53.5q12 20 18 40t3 36t-16 26.5t-38 12.5q-38 2 -76.5 -8.5t-65.5 -28.5l-30 93q42 23 92.5 33t97.5 5z" />
    <glyph glyph-name="cid241" unicode="&#xac1d;" horiz-adv-x="840" 
d="M476 300q6 41 8.5 91.5t2.5 104.5t-3 107.5t-9 101.5l99 10q4 -45 5.5 -89.5t1.5 -88.5q21 0 42 1t41 3q-1 54 -3 106t-7 98l101 10q4 -54 5.5 -116t1 -127t-4.5 -129.5t-11 -122.5l-96 5q5 42 8.5 89t4.5 98q-20 -2 -41.5 -3.5t-41.5 -1.5q-2 -40 -4 -78t-6 -74z
M266 651q51 -3 81 -23.5t41.5 -52.5t5.5 -72.5t-26 -83.5q-16 -33 -41 -67.5t-57 -66t-68.5 -59t-74.5 -48.5l-54 83q35 17 68 40.5t61.5 50t50.5 55t34 55.5q9 19 13 37t1 31.5t-14.5 22t-33.5 8.5q-35 1 -72.5 -10.5t-72.5 -34.5l-30 95q42 20 89 31.5t99 8.5zM591 215
q90 -5 128 -42.5t40 -98.5q2 -35 -6.5 -86.5t-28.5 -105.5l-101 20q19 41 28.5 83t8.5 80q-1 35 -26.5 45.5t-63.5 11.5q-28 0 -62.5 -2.5t-71 -8.5t-73 -15t-67.5 -21l-25 95q33 11 75.5 20t86 15t85 8.5t73.5 1.5z" />
    <glyph glyph-name="cid4643" unicode="&#xac1e;" 
 />
    <glyph glyph-name="cid4644" unicode="&#xac1f;" 
 />
    <glyph glyph-name="cid242" unicode="&#xac20;" horiz-adv-x="840" 
d="M476 179q5 52 8.5 120t3.5 140t-3 141.5t-10 124.5l99 10q5 -53 6.5 -109.5t1.5 -116.5q21 0 42 1t42 3q-1 67 -4 131t-8 121l101 10q5 -69 7 -150.5t1 -164t-4.5 -161t-9.5 -140.5l-96 5q5 51 8.5 118.5t4.5 142.5q-42 -6 -85 -6q-2 -61 -4.5 -118t-6.5 -107zM266 641
q51 -3 81 -23.5t41.5 -52.5t5.5 -72.5t-26 -83.5q-32 -67 -95 -134.5t-146 -116.5l-54 83q38 21 71.5 46t61.5 53t48.5 56.5t32.5 55.5q9 19 13 37t1 31.5t-14.5 22t-33.5 8.5q-35 1 -72.5 -10.5t-72.5 -34.5l-30 95q42 20 89 31.5t99 8.5zM779 -77q-74 -23 -151.5 -32
t-141.5 -7q-47 1 -80 11t-54 25.5t-31.5 37t-14.5 45.5q-8 49 -5.5 99.5t13.5 98.5l100 -10q-9 -37 -13.5 -82.5t3.5 -83.5q6 -31 29 -40.5t70 -11.5q57 -2 122 8t137 32z" />
    <glyph glyph-name="cid4645" unicode="&#xac21;" 
 />
    <glyph glyph-name="cid3062" unicode="&#xac22;" 
 />
    <glyph glyph-name="cid243" unicode="&#xac23;" horiz-adv-x="840" 
d="M476 306q6 41 8.5 90.5t2.5 102t-3 105.5t-9 101l99 10q4 -46 5.5 -90t1.5 -88q21 0 42 1t41 3q0 54 -2.5 105t-7.5 99l101 10q8 -109 7 -235t-15 -244l-96 5q5 39 8 82.5t5 88.5q-21 -2 -42.5 -3.5t-41.5 -1.5q-2 -38 -4 -74.5t-6 -71.5zM368 419q-16 -33 -41 -66
t-57 -63.5t-68.5 -57.5t-74.5 -48l-54 83q35 17 68 39.5t61.5 48t50.5 53t34 54.5q9 19 13 37t1 31.5t-14.5 22t-33.5 8.5q-35 1 -72.5 -10.5t-72.5 -34.5l-30 95q42 20 89 31.5t99 8.5q51 -3 81 -23.5t41.5 -52.5t5.5 -72.5t-26 -83.5zM780 -89q-37 -9 -80.5 -16t-88 -11
t-86.5 -5.5t-76 0.5q-81 4 -117.5 37t-34.5 96q1 29 6 55.5t13 50.5l-44 3v92q51 -4 112 -5.5t124.5 -0.5t125 4t112.5 9v-92q-72 -6 -160.5 -9.5t-173.5 -2.5q-6 -23 -9.5 -44.5t-3.5 -41.5q0 -30 17.5 -44t54.5 -16q26 -2 62 -0.5t76 5.5t79.5 11t73.5 17z" />
    <glyph glyph-name="cid244" unicode="&#xac24;" horiz-adv-x="840" 
d="M479 330q8 82 6.5 180.5t-10.5 194.5l99 10q6 -90 6 -168q22 0 43 1t42 3q-1 49 -3.5 97.5t-7.5 96.5l101 10q8 -109 8.5 -220.5t-12.5 -229.5l-96 5q5 37 7 75.5t3 76.5q-21 -2 -42.5 -3.5t-42.5 -1.5q-1 -33 -2.5 -66t-4.5 -66zM358 429q-43 -60 -101.5 -110.5
t-129.5 -91.5l-54 83q32 17 62.5 37t57 41t48 42.5t36.5 41.5q12 17 17.5 33.5t1.5 30t-16.5 22.5t-36.5 9q-35 1 -67.5 -10.5t-67.5 -34.5l-30 95q42 20 84 31.5t94 8.5q51 -3 84 -24.5t46 -54t6 -72t-34 -77.5zM793 -89q-41 -9 -89 -15t-95 -10t-90 -5.5t-73 -0.5
q-46 2 -75.5 12.5t-45.5 26.5t-20.5 35.5t0.5 40.5q7 27 21 50q-8 0 -16.5 0.5t-16.5 0.5l-6 78q94 -5 184 -3t178 13q2 6 2 9q3 20 -7.5 30t-40.5 13q-24 2 -59.5 1t-74.5 -5t-78 -10t-71 -14l-15 99q39 6 83.5 10t88 5t82.5 0t68 -4q36 -4 59.5 -14t36.5 -25t15.5 -33.5
t-2.5 -37.5l-3 -12l14 2t15 3l-4 -78q-82 -16 -168 -23t-175 -7q-12 -19 -15 -36t6 -29t47 -14q26 -1 65.5 1t84.5 7.5t91.5 13t85.5 18.5z" />
    <glyph glyph-name="cid4646" unicode="&#xac25;" 
 />
    <glyph glyph-name="cid4647" unicode="&#xac26;" 
 />
    <glyph glyph-name="cid4648" unicode="&#xac27;" 
 />
    <glyph glyph-name="cid4649" unicode="&#xac28;" 
 />
    <glyph glyph-name="cid4650" unicode="&#xac29;" 
 />
    <glyph glyph-name="cid4651" unicode="&#xac2a;" 
 />
    <glyph glyph-name="cid4652" unicode="&#xac2b;" 
 />
    <glyph glyph-name="cid245" unicode="&#xac2c;" horiz-adv-x="840" 
d="M476 300q6 41 8.5 91.5t2.5 104.5t-3 107.5t-9 101.5l99 10q4 -45 5.5 -89.5t1.5 -88.5q21 0 42 1t41 3q-1 54 -3 106t-7 98l101 10q4 -54 5.5 -116t1 -127t-4.5 -129.5t-11 -122.5l-96 5q5 42 8.5 89t4.5 98q-20 -2 -41.5 -3.5t-41.5 -1.5q-2 -40 -4 -78t-6 -74z
M266 651q51 -3 81 -23.5t41.5 -52.5t5.5 -72.5t-26 -83.5q-16 -33 -41 -67.5t-57 -66t-68.5 -59t-74.5 -48.5l-54 83q35 17 68 40.5t61.5 50t50.5 55t34 55.5q9 19 13 37t1 31.5t-14.5 22t-33.5 8.5q-35 1 -72.5 -10.5t-72.5 -34.5l-30 95q42 20 89 31.5t99 8.5zM770 -10
v-90q-94 -12 -190 -14.5t-183 1.5q0 -10 -1 -15h-87q2 32 1 72t-5.5 82t-12 83.5t-16.5 76.5l102 16l7 -30q22 9 51.5 17t60.5 14.5t62 10t56 3.5q81 -1 120 -38.5t30 -96.5q-4 -24 -12.5 -49t-23.5 -49zM402 -32q52 -1 109.5 0.5t114.5 5.5q17 27 26 52t11 51t-16.5 38
t-51.5 12q-18 0 -43 -3t-51.5 -8t-53.5 -12t-50 -16q3 -29 4 -59t1 -61z" />
    <glyph glyph-name="cid246" unicode="&#xac2d;" horiz-adv-x="840" 
d="M476 300q6 41 8.5 91.5t2.5 104.5t-3 107.5t-9 101.5l99 10q4 -45 5.5 -89.5t1.5 -88.5q21 0 42 1t41 3q0 54 -2.5 105t-7.5 99l101 10q8 -109 6.5 -235t-15.5 -244l-96 5q5 39 8 82.5t5 88.5q-21 -2 -42 -3.5t-41 -1.5q-2 -40 -4 -78t-6 -74zM368 419q-16 -33 -41 -67.5
t-57 -66t-68.5 -59t-74.5 -48.5l-54 83q35 17 68 40.5t61.5 50t50.5 55t34 55.5q9 19 13 37t1 31.5t-14.5 22t-33.5 8.5q-35 1 -72.5 -10.5t-72.5 -34.5l-30 95q42 20 89 31.5t99 8.5q51 -3 81 -23.5t41.5 -52.5t5.5 -72.5t-26 -83.5zM759 17l-21 17q-2 -18 -6.5 -34.5
t-9.5 -30.5q-17 -44 -50 -67t-70 -29t-71.5 3t-55.5 30q-25 25 -35 57t-7 63.5t18 59t40 44.5q31 21 70 27t81 1q-2 14 -5 26.5t-6 25.5l109 13q6 -47 6 -95q14 -7 27 -14.5t24 -16.5zM371 198q14 -77 22 -156.5t5 -153.5l-96 -1q4 74 -6.5 148t-30.5 149zM638 8q8 31 10 68
q-58 14 -99 -10q-15 -9 -22 -21.5t-8 -26t3.5 -26t14.5 -20.5q12 -10 27 -13t30 1t27 16t17 32z" />
    <glyph glyph-name="cid4653" unicode="&#xac2e;" 
 />
    <glyph glyph-name="cid247" unicode="&#xac2f;" horiz-adv-x="840" 
d="M476 303q6 41 8.5 91t2.5 103t-3 106.5t-9 101.5l99 10q4 -45 5.5 -89.5t1.5 -88.5q21 0 41.5 1t41.5 3q-2 58 -4 110.5t-6 93.5l101 10q2 -36 4 -82.5t2.5 -98t0 -106t-2.5 -107t-5 -101t-8 -87.5l-96 5q7 51 10 123.5t4 150.5q-21 -2 -42 -3.5t-42 -1.5
q-2 -39 -4 -76.5t-6 -72.5zM368 419q-16 -33 -41 -68t-57 -67.5t-68.5 -61.5t-74.5 -51l-54 83q35 18 68 42.5t61.5 52.5t50.5 57t34 56q9 19 13 37t1 31.5t-14.5 22t-33.5 8.5q-35 1 -72.5 -10.5t-72.5 -34.5l-30 95q42 20 89 31.5t99 8.5q51 -3 81 -23.5t41.5 -52.5
t5.5 -72.5t-26 -83.5zM541 109q34 -11 70.5 -26.5t70.5 -34.5t64.5 -42t53.5 -48l-70 -81q-50 59 -114 100t-130 62q-44 -50 -96 -92.5t-103 -73.5l-60 87q41 20 81.5 48.5t77 63.5t67 77.5t51.5 91.5l85 -43q-8 -23 -20.5 -45t-27.5 -44z" />
    <glyph glyph-name="cid248" unicode="&#xac30;" horiz-adv-x="840" 
d="M479 300q4 41 5.5 91.5t1 104.5t-3.5 107.5t-7 101.5l99 10q2 -43 4 -84.5t2 -83.5q21 0 42.5 1t42.5 3q-1 51 -3.5 100t-7.5 94l101 10q4 -54 6 -114t2 -121.5t-3 -124t-9 -120.5l-96 5q5 42 7.5 88t3.5 95q-44 -6 -86 -6q0 -43 -2 -83.5t-5 -78.5zM358 429
q-42 -60 -97 -115t-126 -99l-58 84q32 17 62 38.5t55.5 45t46.5 46.5t36 43q12 17 17.5 33.5t1.5 30t-16.5 22.5t-36.5 9q-35 1 -67.5 -10.5t-67.5 -34.5l-30 95q42 20 84 31.5t94 8.5q51 -3 83.5 -24.5t45.5 -54t6.5 -71.5t-33.5 -78zM637 121q22 -12 48 -32t51.5 -44
t48 -49.5t37.5 -48.5l-81 -71q-11 22 -27 45.5t-34.5 45t-38 40.5t-38.5 33q-25 -54 -54.5 -103t-58.5 -83l-79 62q10 11 19.5 22t18.5 23q-23 25 -53.5 47t-59.5 38q-29 -47 -62 -88t-64 -69l-70 65q30 24 59 58t54.5 73.5t45 80.5t31.5 78l88 -34q-7 -22 -17.5 -46
t-24.5 -50q33 -14 64.5 -32.5t57.5 -41.5q27 50 46.5 103.5t30.5 104.5l89 -23q-4 -24 -11 -50t-16 -54z" />
    <glyph glyph-name="cid249" unicode="&#xac31;" horiz-adv-x="840" 
d="M476 300q6 41 8.5 91.5t2.5 104.5t-3 107.5t-9 101.5l99 10q4 -45 5.5 -89.5t1.5 -88.5q21 0 42 1t41 3q-1 54 -3 106t-7 98l101 10q4 -54 5.5 -116t1 -127t-4.5 -129.5t-11 -122.5l-96 5q5 42 8.5 89t4.5 98q-20 -2 -41.5 -3.5t-41.5 -1.5q-2 -40 -4 -78t-6 -74z
M266 651q51 -3 81 -23.5t41.5 -52.5t5.5 -72.5t-26 -83.5q-16 -33 -41 -67.5t-57 -67t-68.5 -61.5t-74.5 -51l-54 83q35 19 68 43.5t61.5 52t50.5 56t34 55.5q9 19 13 37t1 31.5t-14.5 22t-33.5 8.5q-35 1 -72.5 -10.5t-72.5 -34.5l-30 95q42 20 89 31.5t99 8.5zM571 221
q41 -1 74 -14t56.5 -34.5t36 -50.5t12.5 -62q0 -36 -17.5 -68.5t-47.5 -57t-70.5 -39t-85.5 -14.5q-50 0 -93 12t-74 35t-48.5 55.5t-17.5 72.5q0 42 20.5 78t57.5 61t87.5 37t109.5 7v-18zM529 -28q24 0 46.5 7t39.5 19t27 28.5t9 37.5q-2 44 -42.5 61.5t-101.5 9.5v18
q-54 -8 -83.5 -34.5t-28.5 -61.5q1 -46 39.5 -66t94.5 -19z" />
    <glyph glyph-name="cid3063" unicode="&#xac32;" 
 />
    <glyph glyph-name="cid4654" unicode="&#xac33;" 
 />
    <glyph glyph-name="cid4655" unicode="&#xac34;" 
 />
    <glyph glyph-name="cid3064" unicode="&#xac35;" 
 />
    <glyph glyph-name="cid3065" unicode="&#xac36;" 
 />
    <glyph glyph-name="cid4656" unicode="&#xac37;" 
 />
    <glyph glyph-name="cid250" unicode="&#xac38;" horiz-adv-x="840" 
d="M689 294q29 1 57.5 3t53.5 6l5 -105q-27 -3 -56.5 -3.5t-60.5 1.5q-2 -71 -5 -139t-8 -132l-105 5q8 93 11.5 196.5t3 209.5t-5.5 210.5t-14 198.5l105 10q5 -50 8 -102t6 -106q29 2 59.5 7.5t56.5 10.5l5 -105q-26 -5 -57 -7t-61 -2q1 -39 1.5 -78t0.5 -79zM311 591
q51 -10 82.5 -36t44 -61t6.5 -76.5t-29 -83.5q-21 -38 -54 -74.5t-73.5 -69.5t-88 -62t-98.5 -52l-50 97q49 19 92 43t78 51t61 55.5t42 56.5q26 45 10 76.5t-63 38.5q-21 3 -40.5 1.5t-40 -7t-43 -15t-50.5 -22.5l-34 108q70 28 129 36t119 -4z" />
    <glyph glyph-name="cid251" unicode="&#xac39;" horiz-adv-x="840" 
d="M805 361q-64 -6 -139 0q-2 -22 -5 -43.5t-6 -42.5l-99 5q10 54 15.5 114t6 121t-3.5 119.5t-13 110.5l104 10q6 -51 9 -102q29 2 60 6.5t61 12.5l5 -100q-62 -9 -123 -9q0 -57 -3 -112q33 1 66 3.5t60 6.5zM400 438q-42 -60 -109.5 -118t-153.5 -101l-57 86
q78 33 139.5 82t96.5 101q26 39 18 60.5t-56 23.5q-42 2 -94 -7.5t-94 -29.5l-30 99q54 22 116 29.5t120 1.5q49 -5 82 -25.5t47.5 -51.5t8.5 -69.5t-34 -80.5zM511 225q90 -5 128 -42.5t40 -98.5q1 -18 -0.5 -41.5t-6 -50.5t-11.5 -55t-17 -55l-101 20q19 41 28.5 88
t8.5 85q-1 35 -26.5 45.5t-63.5 11.5q-113 2 -239 -47l-25 95q33 11 70 20t74 15t73 8.5t68 1.5z" />
    <glyph glyph-name="cid4657" unicode="&#xac3a;" 
 />
    <glyph glyph-name="cid4658" unicode="&#xac3b;" 
 />
    <glyph glyph-name="cid252" unicode="&#xac3c;" horiz-adv-x="840" 
d="M805 301q-64 -6 -138 0q-3 -43 -7.5 -83.5t-10.5 -77.5l-98 12q12 65 19 142.5t9 156.5t-2 155t-14 139l103 10q3 -33 5 -68.5t3 -73.5q29 2 60 6.5t61 12.5l5 -100q-31 -5 -63 -7t-62 -2q0 -66 -3 -132q34 1 67 3.5t61 6.5zM400 428q-42 -60 -109.5 -118t-153.5 -101
l-57 86q78 33 139.5 82t96.5 101q26 39 18 60.5t-56 23.5q-42 2 -94 -7.5t-94 -29.5l-30 99q54 22 116 29.5t120 1.5q49 -5 82 -25.5t47.5 -51.5t8.5 -69.5t-34 -80.5zM458 -25q28 -1 53 1t50.5 7t54 13t63.5 19l17 -92q-71 -23 -131 -32t-124 -7q-43 1 -74 11t-53 25.5
t-34.5 37t-18.5 45.5q-11 49 -7 104.5t15 103.5l102 -10q-5 -18 -8.5 -40t-6 -44.5t-2 -44.5t4.5 -41q7 -31 32 -42.5t67 -13.5z" />
    <glyph glyph-name="cid4659" unicode="&#xac3d;" 
 />
    <glyph glyph-name="cid4660" unicode="&#xac3e;" 
 />
    <glyph glyph-name="cid3066" unicode="&#xac3f;" 
 />
    <glyph glyph-name="cid253" unicode="&#xac40;" horiz-adv-x="840" 
d="M805 389q-63 -6 -136 0q-2 -17 -4 -32.5t-4 -30.5l-100 5q9 47 13 99.5t4 106.5t-4.5 107t-13.5 101l105 10q6 -49 9 -98q29 2 60 6.5t61 12.5l5 -100q-62 -9 -123 -9q1 -23 0.5 -44.5t-1.5 -43.5q33 1 65 3.5t59 6.5zM387 444q-21 -26 -52.5 -53.5t-69 -53.5t-80 -49.5
t-86.5 -41.5l-42 92q81 29 147.5 70t103.5 86q30 36 21.5 60t-56.5 26q-42 2 -91.5 -7.5t-91.5 -29.5l-30 95q54 22 113.5 29.5t117.5 1.5q49 -5 82 -26.5t46.5 -52.5t6 -69t-38.5 -77zM408 -34q26 -1 60 1t72.5 7.5t79.5 13t80 18.5l13 -95q-41 -9 -83.5 -15t-83 -10
t-78 -5.5t-67.5 -0.5q-46 2 -76 12.5t-47 27t-21.5 37.5t1.5 44q7 25 16 41q-5 0 -11 0.5t-11 0.5l-6 82q91 -5 167 -3t154 12q2 4 2.5 8t1.5 8q3 20 -6 31t-43 13q-23 1 -52.5 0t-62 -4.5t-66.5 -9t-66 -12.5l-15 100q35 5 73.5 8.5t76.5 5t73 1t64 -3.5q73 -8 99.5 -44
t13.5 -82l-2 -6l28 5l-4 -82q-82 -16 -157.5 -23t-156.5 -7q-10 -17 -13 -33q-3 -17 6 -28t47 -13z" />
    <glyph glyph-name="cid3067" unicode="&#xac41;" 
 />
    <glyph glyph-name="cid4661" unicode="&#xac42;" 
 />
    <glyph glyph-name="cid4662" unicode="&#xac43;" 
 />
    <glyph glyph-name="cid4663" unicode="&#xac44;" 
 />
    <glyph glyph-name="cid4664" unicode="&#xac45;" 
 />
    <glyph glyph-name="cid4665" unicode="&#xac46;" 
 />
    <glyph glyph-name="cid3068" unicode="&#xac47;" 
 />
    <glyph glyph-name="cid3069" unicode="&#xac48;" 
 />
    <glyph glyph-name="cid3070" unicode="&#xac49;" 
 />
    <glyph glyph-name="cid4666" unicode="&#xac4a;" 
 />
    <glyph glyph-name="cid254" unicode="&#xac4b;" horiz-adv-x="840" 
d="M672 423q31 1 61 3.5t56 6.5l5 -100q-29 -3 -62 -3t-67 2q-2 -32 -5.5 -62t-8.5 -57l-99 5q10 58 16 128.5t7.5 141.5t-2 138t-12.5 119l104 10q3 -28 5 -58t4 -62q29 2 60 6.5t61 12.5l5 -100q-31 -5 -63 -7t-62 -2q0 -62 -3 -122zM395 438q-39 -61 -109.5 -122
t-158.5 -107l-57 86q81 38 144.5 89t96.5 104q25 40 17.5 59t-55.5 25q-42 5 -91.5 -6t-91.5 -31l-30 99q54 22 113.5 29.5t117.5 1.5q49 -5 81.5 -25t46.5 -51t8.5 -69.5t-32.5 -81.5zM469 125q34 -12 68 -29.5t66.5 -38.5t62 -45t53.5 -50l-71 -85q-51 60 -109 106
t-124 67q-42 -51 -89.5 -96.5t-97.5 -80.5l-62 89q42 25 82 59t75 74.5t64 86.5t50 95l87 -45q-20 -52 -55 -107z" />
    <glyph glyph-name="cid3071" unicode="&#xac4c;" 
 />
    <glyph glyph-name="cid255" unicode="&#xac4d;" horiz-adv-x="840" 
d="M805 361q-64 -6 -138 0l-9 -73l-98 5q9 54 13.5 112t4.5 116.5t-4 115t-13 108.5l103 10q6 -53 9 -102q29 2 60.5 6.5t61.5 12.5l5 -100q-62 -9 -124 -9q1 -29 0.5 -56.5t-2.5 -55.5q33 1 66 3.5t60 6.5zM400 438q-42 -60 -109.5 -118t-153.5 -101l-57 86q78 33 139.5 82
t96.5 101q26 39 18 60.5t-56 23.5q-42 2 -94 -7.5t-94 -29.5l-30 99q54 22 116 29.5t120 1.5q49 -5 82 -25.5t47.5 -51.5t8.5 -69.5t-34 -80.5zM518 235q39 -2 69.5 -16t50.5 -37.5t30.5 -53t10.5 -62.5q0 -38 -14.5 -71.5t-41.5 -58.5t-64.5 -40t-82.5 -15q-51 0 -91 14
t-67.5 39t-42 58t-14.5 70q0 42 18 79t51.5 64t81 40.5t106.5 8.5v-19zM476 -29q48 1 77.5 26.5t27.5 72.5q-2 46 -34 67.5t-93 13.5v17q-49 -11 -72.5 -40t-22.5 -65q1 -42 31 -67.5t86 -24.5z" />
    <glyph glyph-name="cid4667" unicode="&#xac4e;" 
 />
    <glyph glyph-name="cid4668" unicode="&#xac4f;" 
 />
    <glyph glyph-name="cid4669" unicode="&#xac50;" 
 />
    <glyph glyph-name="cid4670" unicode="&#xac51;" 
 />
    <glyph glyph-name="cid4671" unicode="&#xac52;" 
 />
    <glyph glyph-name="cid4672" unicode="&#xac53;" 
 />
    <glyph glyph-name="cid256" unicode="&#xac54;" horiz-adv-x="840" 
d="M745 745q8 -95 12 -198.5t3.5 -210t-4.5 -213t-11 -208.5l-97 5q5 69 8 142t5 151q-47 -6 -94 -6q-2 -61 -4.5 -122t-7.5 -125l-95 5q13 178 13 350.5t-13 359.5l95 10q6 -94 9 -178q24 0 48 1.5t47 3.5q-2 58 -4.5 113.5t-6.5 109.5zM268 574q51 -5 81.5 -30.5t42.5 -61
t7 -76.5t-24 -77q-42 -76 -108 -143t-144 -116l-63 88q37 21 71 46t62.5 52.5t51 55t38.5 53.5q12 20 18 40t3 36t-16 26.5t-38 12.5q-38 2 -76.5 -8.5t-65.5 -28.5l-30 93q42 23 92.5 33t97.5 5zM568 301q47 0 94 6v111q-23 -3 -47 -4.5t-48 -2.5q1 -28 1 -55v-55z" />
    <glyph glyph-name="cid4673" unicode="&#xac55;" 
 />
    <glyph glyph-name="cid4674" unicode="&#xac56;" 
 />
    <glyph glyph-name="cid4675" unicode="&#xac57;" 
 />
    <glyph glyph-name="cid257" unicode="&#xac58;" horiz-adv-x="840" 
d="M471 179q5 52 8.5 120t3.5 140t-3 141.5t-10 124.5l95 10q2 -29 3.5 -60.5t3.5 -63.5q23 0 47.5 1t47.5 4q-3 80 -9 149l97 10q5 -69 7 -150.5t1 -164t-4.5 -161t-9.5 -140.5l-92 5q4 37 6.5 81.5t4.5 95.5q-50 -6 -99 -6q-2 -38 -4 -73.5t-4 -67.5zM266 641
q51 -3 81 -23.5t41.5 -52.5t5.5 -72.5t-26 -83.5q-32 -67 -95 -134.5t-146 -116.5l-54 83q38 21 71.5 46t61.5 53t48.5 56.5t32.5 55.5q9 19 13 37t1 31.5t-14.5 22t-33.5 8.5q-35 1 -72.5 -10.5t-72.5 -34.5l-30 95q42 20 89 31.5t99 8.5zM669 512q-23 -2 -47.5 -4
t-48.5 -2q0 -26 -0.5 -53t-0.5 -54q24 0 48.5 1t49.5 4v54t-1 54zM779 -77q-74 -23 -151.5 -32t-141.5 -7q-47 1 -80 11t-54 25.5t-31.5 37t-14.5 45.5q-8 49 -5.5 99.5t13.5 98.5l100 -10q-9 -37 -13.5 -82.5t3.5 -83.5q6 -31 29 -40.5t70 -11.5q57 -2 122 8t137 32z" />
    <glyph glyph-name="cid4676" unicode="&#xac59;" 
 />
    <glyph glyph-name="cid4677" unicode="&#xac5a;" 
 />
    <glyph glyph-name="cid4678" unicode="&#xac5b;" 
 />
    <glyph glyph-name="cid258" unicode="&#xac5c;" horiz-adv-x="840" 
d="M477 330q8 82 6.5 180.5t-10.5 194.5l95 10l5 -92q23 0 47 1t47 4q-3 58 -9 117l97 10q8 -109 8.5 -220.5t-12.5 -229.5l-92 5q2 21 4 42.5t4 43.5q-24 -2 -48 -3.5t-48 -1.5q-1 -17 -1.5 -33t-2.5 -33zM358 429q-43 -60 -101.5 -110.5t-129.5 -91.5l-54 83
q32 17 62.5 37t57 41t48 42.5t36.5 41.5q12 17 17.5 33.5t1.5 30t-16.5 22.5t-36.5 9q-35 1 -67.5 -10.5t-67.5 -34.5l-30 95q42 20 84 31.5t94 8.5q51 -3 84 -24.5t46 -54t6 -72t-34 -77.5zM669 546q-23 -2 -47 -4t-47 -2v-36t-1 -36q24 0 48 1t47 4q2 36 0 73zM793 -89
q-41 -9 -89 -15t-95 -10t-90 -5.5t-73 -0.5q-46 2 -75.5 12.5t-45.5 26.5t-20.5 35.5t0.5 40.5q7 27 21 50q-8 0 -16.5 0.5t-16.5 0.5l-6 78q94 -5 184 -3t178 13q2 6 2 9q3 20 -7.5 30t-40.5 13q-24 2 -59.5 1t-74.5 -5t-78 -10t-71 -14l-15 99q39 6 83.5 10t88 5t82.5 0
t68 -4q36 -4 59.5 -14t36.5 -25t15.5 -33.5t-2.5 -37.5l-3 -12l14 2t15 3l-4 -78q-82 -16 -168 -23t-175 -7q-12 -19 -15 -36t6 -29t47 -14q26 -1 65.5 1t84.5 7.5t91.5 13t85.5 18.5z" />
    <glyph glyph-name="cid4679" unicode="&#xac5d;" 
 />
    <glyph glyph-name="cid4680" unicode="&#xac5e;" 
 />
    <glyph glyph-name="cid4681" unicode="&#xac5f;" 
 />
    <glyph glyph-name="cid4682" unicode="&#xac60;" 
 />
    <glyph glyph-name="cid4683" unicode="&#xac61;" 
 />
    <glyph glyph-name="cid4684" unicode="&#xac62;" 
 />
    <glyph glyph-name="cid4685" unicode="&#xac63;" 
 />
    <glyph glyph-name="cid3072" unicode="&#xac64;" 
 />
    <glyph glyph-name="cid259" unicode="&#xac65;" horiz-adv-x="840" 
d="M471 300q6 41 8.5 91.5t2.5 104.5t-3 107.5t-9 101.5l95 10q5 -53 6 -104q24 0 48.5 1t47.5 4q-1 34 -3 66t-5 63l96 10q8 -109 6.5 -235t-15.5 -244l-91 5q3 20 5 42t4 45q-48 -6 -97 -6l-6 -67zM368 419q-16 -33 -41 -67.5t-57 -66t-68.5 -59t-74.5 -48.5l-54 83
q35 17 68 40.5t61.5 50t50.5 55t34 55.5q9 19 13 37t1 31.5t-14.5 22t-33.5 8.5q-35 1 -72.5 -10.5t-72.5 -34.5l-30 95q42 20 89 31.5t99 8.5q51 -3 81 -23.5t41.5 -52.5t5.5 -72.5t-26 -83.5zM669 532q-24 -2 -48.5 -4t-48.5 -2v-40t-1 -40q24 0 48.5 1t48.5 4
q1 20 1 40.5v40.5zM759 17l-21 17q-2 -18 -6.5 -34.5t-9.5 -30.5q-17 -44 -50 -67t-70 -29t-71.5 3t-55.5 30q-25 25 -35 57t-7 63.5t18 59t40 44.5q31 21 70 27t81 1q-2 14 -5 26.5t-6 25.5l109 13q6 -47 6 -95q14 -7 27 -14.5t24 -16.5zM371 198q14 -77 22 -156.5
t5 -153.5l-96 -1q4 74 -6.5 148t-30.5 149zM638 8q8 31 10 68q-58 14 -99 -10q-15 -9 -22 -21.5t-8 -26t3.5 -26t14.5 -20.5q12 -10 27 -13t30 1t27 16t17 32z" />
    <glyph glyph-name="cid4686" unicode="&#xac66;" 
 />
    <glyph glyph-name="cid4687" unicode="&#xac67;" 
 />
    <glyph glyph-name="cid4688" unicode="&#xac68;" 
 />
    <glyph glyph-name="cid4689" unicode="&#xac69;" 
 />
    <glyph glyph-name="cid4690" unicode="&#xac6a;" 
 />
    <glyph glyph-name="cid4691" unicode="&#xac6b;" 
 />
    <glyph glyph-name="cid4692" unicode="&#xac6c;" 
 />
    <glyph glyph-name="cid4693" unicode="&#xac6d;" 
 />
    <glyph glyph-name="cid4694" unicode="&#xac6e;" 
 />
    <glyph glyph-name="cid4695" unicode="&#xac6f;" 
 />
    <glyph glyph-name="cid260" unicode="&#xac70;" horiz-adv-x="840" 
d="M712 755q9 -95 13.5 -201t5 -214t-3 -213.5t-10.5 -201.5l-103 5q8 95 12 200t3 214q-42 -4 -87 -4.5t-85 3.5l-2 57q-5 -15 -11.5 -30.5t-16.5 -30.5q-48 -75 -131 -144t-186 -115l-50 95q50 19 92.5 43.5t77.5 52t62 57t47 58.5q14 20 16 39t-6 33.5t-24.5 24.5
t-39.5 12q-44 5 -85.5 -6.5t-97.5 -36.5l-29 107q70 28 131 36t121 -4q66 -13 99.5 -49.5t36.5 -84.5q41 -5 83 -6t83 1q-2 77 -6.5 150.5t-11.5 142.5l103 10v0z" />
    <glyph glyph-name="cid261" unicode="&#xac71;" horiz-adv-x="840" 
d="M410 438q-42 -60 -109.5 -118t-153.5 -101l-57 86q78 33 139.5 82t96.5 101q26 39 18 60.5t-56 23.5q-42 2 -94 -7.5t-94 -29.5l-30 99q54 22 116 29.5t120 1.5q62 -7 98 -37t41 -75q19 -2 41.5 -3.5t45.5 -2t45.5 0t42.5 1.5q0 52 -3.5 101.5t-11.5 94.5l105 10
q14 -125 10 -245t-22 -235l-100 5q15 85 20 177q-21 -2 -44.5 -3t-47.5 -1.5t-46.5 -0.5t-40.5 2l-2 37q-9 -27 -27 -53zM536 225q90 -5 128 -42.5t40 -98.5q1 -18 -0.5 -41.5t-6 -50.5t-11.5 -55t-17 -55l-101 20q19 41 28.5 88t8.5 85q-1 35 -26.5 45.5t-63.5 11.5
q-56 1 -118.5 -11t-125.5 -36l-25 95q33 11 70.5 20t76 15t75 8.5t68.5 1.5z" />
    <glyph glyph-name="cid4696" unicode="&#xac72;" 
 />
    <glyph glyph-name="cid3073" unicode="&#xac73;" 
 />
    <glyph glyph-name="cid262" unicode="&#xac74;" horiz-adv-x="840" 
d="M410 428q-42 -60 -109.5 -118t-153.5 -101l-57 86q78 33 139.5 82t96.5 101q26 39 18 60.5t-56 23.5q-42 2 -94 -7.5t-94 -29.5l-30 99q54 22 116 29.5t120 1.5q62 -7 98 -37t41 -75q39 -5 88 -5.5t89 1.5q-1 57 -4.5 109t-11.5 97l104 10q6 -68 8 -147t-0.5 -160.5
t-9.5 -160.5t-19 -147l-99 12q13 65 21 141t10 154q-21 -2 -45 -3t-48.5 -1.5t-47.5 -0.5t-41 2l-2 37q-9 -27 -27 -53zM724 -77q-72 -23 -135.5 -32t-127.5 -7q-47 1 -80 11t-54 25.5t-31.5 37t-14.5 45.5q-8 49 -5.5 104.5t13.5 103.5l102 -10q-5 -18 -8.5 -41t-5 -46.5
t-1 -46.5t4.5 -42q6 -31 29 -39.5t68 -10.5q28 -1 54.5 1t53.5 7t56.5 13t64.5 19z" />
    <glyph glyph-name="cid3074" unicode="&#xac75;" 
 />
    <glyph glyph-name="cid4697" unicode="&#xac76;" 
 />
    <glyph glyph-name="cid263" unicode="&#xac77;" horiz-adv-x="840" 
d="M410 438q-42 -60 -109.5 -118t-153.5 -101l-57 86q78 33 139.5 82t96.5 101q26 39 18 60.5t-56 23.5q-42 2 -94 -7.5t-94 -29.5l-30 99q54 22 116 29.5t120 1.5q62 -7 98 -37t41 -75q39 -5 87.5 -5.5t88.5 1.5q0 51 -4 100t-12 96l105 10q14 -124 11 -234.5t-21 -224.5
l-100 5q7 38 12 77t7 79q-21 -2 -45 -3t-48 -1.5t-46.5 -0.5t-40.5 2l-2 37q-9 -27 -27 -53zM725 -89q-75 -20 -153.5 -27.5t-147.5 -4.5q-81 4 -117.5 37t-34.5 96q1 29 6 58.5t13 56.5l-44 3v93q51 -4 107.5 -5.5t114 -0.5t114.5 4t108 9v-93q-70 -6 -148 -9.5t-153 -2.5
q-7 -26 -10.5 -50.5t-3.5 -44.5q0 -30 16.5 -42.5t53.5 -14.5q53 -3 123 5t138 28z" />
    <glyph glyph-name="cid264" unicode="&#xac78;" horiz-adv-x="840" 
d="M401 444q-21 -26 -53 -53.5t-70.5 -53.5t-81.5 -49.5t-87 -41.5l-42 92q81 29 149.5 70t105.5 86q30 36 21.5 60t-56.5 26q-42 2 -93.5 -7.5t-93.5 -29.5l-30 95q54 22 115.5 29.5t119.5 1.5q54 -5 88.5 -30.5t44.5 -62.5q20 -2 43.5 -3.5t48 -2t48 0t44.5 1.5
q-2 45 -5.5 89t-11.5 84l105 10q14 -116 12 -226.5t-16 -202.5l-100 5q6 35 10 72.5t6 76.5q-22 -2 -47 -3t-50.5 -1.5t-49 -0.5t-41.5 2l-1 21q-11 -29 -32 -54zM738 -89q-41 -9 -84 -15t-85 -10t-80 -5.5t-68 -0.5q-46 2 -76 12.5t-47 27t-21.5 37.5t1.5 44q7 25 16 41
q-5 0 -11 0.5t-11 0.5l-6 82q91 -5 169 -3t157 12q2 4 2.5 8t1.5 8q3 20 -6 31t-43 13q-23 1 -53.5 0t-64 -4.5t-68 -9t-66.5 -12.5l-15 100q35 5 74 8.5t78 5t75 1t65 -3.5q73 -8 99.5 -44t13.5 -82l-2 -6l28 5l-4 -82q-82 -16 -159 -23t-160 -7q-10 -17 -13 -33
q-3 -17 6 -28t47 -13q26 -1 61 1t74.5 7.5t81 13t80.5 18.5z" />
    <glyph glyph-name="cid3075" unicode="&#xac79;" 
 />
    <glyph glyph-name="cid265" unicode="&#xac7a;" horiz-adv-x="840" 
d="M402 444q-21 -26 -53 -51.5t-71 -49t-82 -45t-87 -39.5l-42 92q81 26 150 62t106 81q30 36 21.5 60t-56.5 26q-42 2 -94 -7.5t-94 -29.5l-30 95q54 22 116 29.5t120 1.5q55 -5 89 -30.5t45 -62.5q19 -2 42.5 -3.5t47.5 -2t47.5 0t44.5 1.5q-2 45 -5.5 89t-11.5 84l105 10
q14 -116 12 -226.5t-16 -202.5l-100 5q6 35 10 72.5t6 76.5q-22 -2 -47 -3t-50.5 -1.5t-49 -0.5t-41.5 2l-1 19q-5 -13 -12.5 -26t-18.5 -26zM610 265q27 5 51 0.5t41.5 -18t27 -36t8.5 -55.5q-1 -34 -8 -80t-18 -88l23 5l-5 -76q-37 -8 -86 -11t-95 -1q0 -4 -0.5 -7.5
t-0.5 -7.5h-68q2 38 0.5 85.5t-6.5 96t-12.5 95t-17.5 82.5l87 18l6 -33q17 11 36 19.5t37 11.5zM330 -44q22 2 50 12t54 27l21 -75q-29 -19 -60 -28t-70 -13q-38 -4 -67 2t-48.5 19t-28.5 30.5t-7 37.5q2 15 8 33t14 35l-30 2l-1 75q38 -3 82 -2.5t86 4.5q9 20 10 38
t-5.5 27t-26.5 11q-15 1 -34 -1t-38 -6t-36.5 -9.5t-29.5 -10.5l-18 83q16 6 37.5 10t45 6.5t46.5 3t41 -0.5q50 -3 75 -29t22 -68q-1 -11 -4.5 -22t-8.5 -21l25 6v-72q-30 -9 -71.5 -15t-86.5 -8q-7 -14 -10 -27.5t-4 -24.5q-1 -19 18 -25.5t50 -3.5zM552 -22h43t44 2
q8 42 12 85.5t2 72.5q-2 31 -14 40t-32 7q-32 -3 -61 -26q4 -45 5.5 -91.5t0.5 -89.5z" />
    <glyph glyph-name="cid4698" unicode="&#xac7b;" 
 />
    <glyph glyph-name="cid4699" unicode="&#xac7c;" 
 />
    <glyph glyph-name="cid4700" unicode="&#xac7d;" 
 />
    <glyph glyph-name="cid4701" unicode="&#xac7e;" 
 />
    <glyph glyph-name="cid4702" unicode="&#xac7f;" 
 />
    <glyph glyph-name="cid266" unicode="&#xac80;" horiz-adv-x="840" 
d="M410 438q-42 -60 -109.5 -118t-153.5 -101l-57 86q78 33 139.5 82t96.5 101q26 39 18 60.5t-56 23.5q-42 2 -94 -7.5t-94 -29.5l-30 99q54 22 116 29.5t120 1.5q62 -7 98 -37t41 -75q39 -5 88 -5.5t89 1.5q-1 52 -4.5 101.5t-11.5 94.5l104 10q14 -125 11 -241.5
t-21 -231.5l-99 5q8 41 12.5 83.5t6.5 86.5q-21 -2 -45 -3t-48 -1.5t-47 -0.5t-41 2l-2 37q-9 -27 -27 -53zM710 98q-4 -25 -13 -55.5t-24 -58.5l42 6v-90q-93 -12 -175.5 -14.5t-167.5 1.5q0 -10 -1 -15h-87q2 32 1 74.5t-5.5 87.5t-12 89t-16.5 79l102 16l6 -30
q21 9 45.5 17t51 14.5t53 10t51.5 3.5q81 -1 120 -38.5t30 -96.5zM377 -32q48 -1 96 0t96 5q15 29 25.5 61.5t13.5 58.5t-16 38t-52 12q-37 0 -82 -11t-87 -28q8 -66 6 -136z" />
    <glyph glyph-name="cid267" unicode="&#xac81;" horiz-adv-x="840" 
d="M410 438q-42 -60 -109.5 -118t-153.5 -101l-57 86q78 33 139.5 82t96.5 101q26 39 18 60.5t-56 23.5q-42 2 -94 -7.5t-94 -29.5l-30 99q54 22 116 29.5t120 1.5q62 -7 98 -37t41 -75q39 -5 88 -5.5t89 1.5q-1 51 -5 99.5t-12 96.5l105 10q7 -62 10 -119t2 -112.5t-6 -110
t-14 -111.5l-100 5q13 73 18 150q-21 -2 -45 -3t-48.5 -1.5t-47 -0.5t-40.5 2l-2 37q-9 -27 -27 -53zM724 53q-5 4 -11 7l-12 6q-3 -27 -7.5 -52t-11.5 -45q-14 -41 -45 -64t-67 -30t-71 0.5t-58 27.5q-25 21 -36 52.5t-8.5 65.5t20 65.5t49.5 52.5q28 18 61.5 27.5
t68.5 10.5q-2 12 -4.5 24t-5.5 23l111 13q4 -38 6 -78q26 -10 49 -27zM346 218q7 -38 12.5 -80.5t9.5 -86t5 -85t0 -78.5l-96 -1q2 37 0 77t-6.5 81t-12.5 81t-18 78zM598 7q5 15 7 36t1 47q-27 2 -51.5 -4t-41.5 -20q-26 -22 -30 -50.5t18 -45.5q11 -9 25 -12t28 1.5
t25.5 16t18.5 31.5z" />
    <glyph glyph-name="cid268" unicode="&#xac82;" horiz-adv-x="840" 
d="M410 438q-42 -60 -109.5 -113t-153.5 -96l-57 86q78 33 139.5 77t96.5 96q26 39 18 60.5t-56 23.5q-42 2 -94 -7.5t-94 -29.5l-30 99q54 22 116 29.5t120 1.5q62 -7 98 -37t41 -75q39 -5 88 -5.5t89 1.5q-1 51 -5 100.5t-12 95.5l105 10q14 -125 11.5 -237t-19.5 -227
l-100 5q13 78 18 161q-21 -2 -45 -3t-48.5 -1.5t-47 -0.5t-40.5 2l-2 37q-9 -27 -27 -53zM658 85q47 -26 82 -64t60 -82l-76 -60q-17 34 -41.5 68.5t-58.5 60.5q-46 -84 -109 -141l-58 58q-18 -23 -43 -37t-55 -14q-28 0 -49 9.5t-36 24.5l-42 -1q5 66 -2.5 135.5
t-28.5 141.5l84 14q5 -23 9.5 -47.5t7.5 -49.5q15 11 34 17q19 7 41 9.5t46 -0.5q-1 23 -3 45t-7 44l94 5q5 -51 2.5 -104.5t-9.5 -92.5q-2 -15 -7 -30.5t-12 -29.5q22 23 41.5 53t34.5 64.5t24.5 71.5t12.5 75l92 -15q-2 -33 -9.5 -65t-18.5 -63zM352 -52q15 1 26.5 8.5
t19.5 20t13.5 28t7.5 32.5l2 13q-42 6 -70 -6q-17 -8 -28.5 -20t-10.5 -36q1 -20 13 -30.5t27 -9.5z" />
    <glyph glyph-name="cid269" unicode="&#xac83;" horiz-adv-x="840" 
d="M410 438q-20 -30 -49 -62t-64 -62.5t-75.5 -57.5t-84.5 -47l-57 86q40 16 77 39t69 48.5t57.5 52.5t42.5 53q26 39 18 60t-56 24q-41 2 -93.5 -7.5t-94.5 -29.5l-30 99q54 22 116 29.5t120 1.5q62 -7 98 -37t41 -75q19 -2 41.5 -3.5t45.5 -2t45.5 0t42.5 1.5
q-1 55 -4.5 105t-10.5 91l105 10q7 -62 9 -133t0 -143t-8 -140.5t-15 -125.5l-100 5q9 52 15 113.5t8 125.5q-21 -2 -45 -3t-48 -1.5t-46.5 -0.5t-40.5 2l-2 38q-9 -27 -27 -54zM504 123q68 -24 135 -67t115 -94l-71 -85q-50 59 -110 104.5t-125 67.5q-42 -51 -91.5 -96.5
t-98.5 -79.5l-62 89q42 25 83 59t78 74.5t66.5 86.5t49.5 95l87 -45q-9 -26 -23.5 -53.5t-32.5 -55.5z" />
    <glyph glyph-name="cid270" unicode="&#xac84;" horiz-adv-x="840" 
d="M90 300q78 35 139.5 85.5t96.5 102.5q54 80 -38 83q-42 2 -94 -7.5t-94 -29.5l-30 100q54 22 116 29.5t120 1.5q63 -7 98.5 -37.5t40.5 -75.5q40 -5 89 -5.5t89 1.5q-1 101 -18 197l105 10q7 -62 10.5 -119t3 -112t-5 -109.5t-13.5 -111.5l-100 5q6 38 10 75t6 73
q-21 -2 -45 -3t-48.5 -1.5t-47.5 -0.5t-41 2l-2 36q-5 -13 -11 -25.5t-15 -26.5q-41 -60 -109 -119.5t-154 -104.5zM636 115q22 -13 47 -32.5t49 -42.5t45 -47t35 -46l-81 -71q-10 21 -24.5 43t-32 42.5t-36 39t-36.5 32.5q-24 -53 -53 -99.5t-57 -79.5l-79 62q20 20 39 47
q-23 24 -52.5 45.5t-58.5 37.5q-29 -47 -62 -88t-64 -69l-70 65q30 24 59 58t54.5 73.5t45 80.5t31.5 78l88 -34q-7 -22 -17.5 -46t-24.5 -50q32 -14 63 -32t57 -40q26 50 45.5 102.5t30.5 103.5l89 -23q-4 -25 -11.5 -53t-18.5 -57z" />
    <glyph glyph-name="cid271" unicode="&#xac85;" horiz-adv-x="840" 
d="M410 438q-42 -60 -109.5 -118t-153.5 -101l-57 86q78 33 139.5 82t96.5 101q26 39 18 60.5t-56 23.5q-42 2 -94 -7.5t-94 -29.5l-30 99q54 22 116 29.5t120 1.5q62 -7 98 -37t41 -75q39 -5 87.5 -5.5t88.5 1.5q-1 52 -4.5 101.5t-11.5 94.5l105 10q14 -125 10.5 -246.5
t-21.5 -236.5l-100 5q8 42 13 87t7 93q-21 -2 -45 -3t-48 -1.5t-46.5 -0.5t-40.5 2l-2 37q-9 -27 -27 -53zM542 235q40 -2 70.5 -16t51 -37.5t31 -53t10.5 -62.5q0 -38 -15 -71.5t-42 -58.5t-65 -40t-83 -15q-51 0 -92 14t-69 39t-43 58t-15 70q0 42 18.5 79t52.5 64
t82.5 40.5t107.5 8.5v-19zM500 -29q48 1 78.5 26.5t28.5 72.5q-2 46 -35 67.5t-94 13.5v17q-50 -10 -75 -39.5t-24 -65.5q1 -42 33 -67.5t88 -24.5z" />
    <glyph glyph-name="cid272" unicode="&#xac86;" horiz-adv-x="840" 
d="M409 439q-40 -56 -108.5 -112t-171.5 -107l-51 89q96 44 156 90.5t94 94.5q27 38 20 59t-55 23q-21 1 -46 -1t-50.5 -7t-50.5 -12t-46 -17l-30 99q54 22 119.5 29.5t123.5 1.5q64 -7 99 -40.5t36 -81.5q38 -4 86 -4.5t86 1.5q0 55 -3.5 107t-11.5 94l105 10q7 -58 9 -122
t0.5 -126.5t-6.5 -120.5t-12 -104l-100 5q7 35 11 77t6 88q-21 -2 -46 -3t-49.5 -1.5t-47.5 -0.5t-41 2l-2 30q-5 -10 -10 -19.5t-13 -20.5zM710 -135q-51 34 -105 61t-115 40q-54 -32 -115.5 -59t-123.5 -45l-40 98q51 12 98 29t88 36t73.5 37t53.5 33q40 28 32 41t-56 16
q-40 2 -94.5 -9.5t-107.5 -31.5l-27 102q57 19 123.5 28t134.5 3q51 -5 84.5 -22t45.5 -43t1 -58.5t-48 -66.5q-8 -8 -16.5 -14.5t-18.5 -14.5q104 -15 192 -64z" />
    <glyph glyph-name="cid3076" unicode="&#xac87;" 
 />
    <glyph glyph-name="cid4703" unicode="&#xac88;" 
 />
    <glyph glyph-name="cid273" unicode="&#xac89;" horiz-adv-x="840" 
d="M401 444q-21 -26 -53 -53.5t-70.5 -53.5t-81.5 -49.5t-87 -41.5l-42 92q81 29 149.5 70t105.5 86q30 36 21.5 60t-56.5 26q-42 2 -93.5 -7.5t-93.5 -29.5l-30 95q54 22 115.5 29.5t119.5 1.5q54 -5 88.5 -30.5t44.5 -62.5q20 -2 43.5 -3.5t48 -2t48 0t44.5 1.5
q-2 45 -5.5 89t-11.5 84l105 10q14 -116 12 -226.5t-16 -202.5l-100 5q6 35 10 72.5t6 76.5q-22 -2 -47 -3t-50.5 -1.5t-49 -0.5t-41.5 2l-1 21q-11 -29 -32 -54zM733 -91q-75 -19 -154 -28t-148 -1q-73 8 -113.5 44t-35.5 108q6 73 30 145l-52 3v86q109 -9 218.5 -7.5
t216.5 9.5v-86q-66 -5 -142.5 -7t-152.5 -1q-5 -15 -9 -30t-7 -29q140 -8 285 17l1 -83q-70 -11 -147.5 -13.5t-149.5 2.5v-7q-3 -62 78 -70q28 -3 61.5 -1.5t68.5 6.5t70.5 14t69.5 22z" />
    <glyph glyph-name="cid274" unicode="&#xac8a;" horiz-adv-x="840" 
d="M410 438q-42 -60 -109.5 -118t-153.5 -101l-57 86q78 33 139.5 82t96.5 101q26 39 18 60.5t-56 23.5q-42 2 -94 -7.5t-94 -29.5l-30 99q54 22 116 29.5t120 1.5q62 -7 98 -37t41 -75q39 -5 87.5 -5.5t88.5 1.5q-1 52 -4.5 101.5t-11.5 94.5l105 10q14 -125 11 -241.5
t-21 -231.5l-100 5q8 41 12.5 83.5t6.5 86.5q-21 -2 -45 -3t-48 -1.5t-46.5 -0.5t-40.5 2l-2 37q-9 -27 -27 -53zM630 -18q29 2 54 5t48 6l-2 -93q-47 -6 -109 -10t-128 -5.5t-129.5 0t-112.5 6.5l-5 92q23 -2 48 -3.5t51 -3.5l-9 147q-21 1 -42.5 1.5t-41.5 2.5l-5 90
q121 -8 240.5 -7.5t223.5 12.5v-90l-70 -6q0 -32 -3 -71t-8 -73zM542 122q-28 -2 -55.5 -2h-55.5l4 -145q26 0 51 0.5t51 1.5q4 34 5.5 73t-0.5 72z" />
    <glyph glyph-name="cid275" unicode="&#xac8b;" horiz-adv-x="840" 
d="M401 449q-21 -26 -53 -53t-70.5 -52t-81.5 -47.5t-87 -40.5l-42 92q81 29 149.5 67.5t105.5 83.5q30 36 21.5 60t-56.5 26q-42 2 -93.5 -7.5t-93.5 -29.5l-30 95q54 22 115.5 29.5t119.5 1.5q57 -6 91.5 -33t43.5 -65q19 -2 42.5 -3.5t47.5 -2t48 0t44 1.5q-1 45 -5 88.5
t-12 84.5l105 10q14 -116 12 -221.5t-16 -197.5l-100 5q12 66 15 139q-21 -2 -46 -3t-50.5 -1.5t-49 -0.5t-41.5 2l-1 25q-10 -25 -32 -53zM389 322q59 -20 117 -26t113 0l1 -78q-60 -11 -125 -8.5t-121 19.5zM731 97q-19 -2 -41 -4t-46 -4q12 -16 19 -35t7 -41
q0 -63 -44 -104t-127 -41q-36 0 -68 10.5t-55 29t-36.5 45.5t-13.5 60q0 20 6 37t17 32q-25 1 -48 2t-43 3l-5 90q55 -6 119.5 -7.5t129 0t125 6t108.5 11.5zM499 -54q37 0 59 18t22 49q0 29 -23.5 48.5t-57.5 19.5q-32 0 -57.5 -19.5t-25.5 -48.5q0 -34 24 -50.5t59 -16.5z
" />
    <glyph glyph-name="cid276" unicode="&#xac8c;" horiz-adv-x="840" 
d="M745 745q8 -95 12 -198.5t3.5 -210t-4.5 -213t-11 -208.5l-100 5q7 93 10.5 195.5t3.5 208t-3.5 210.5t-10.5 201zM573 685q6 -101 9 -190t3 -175t-3 -173.5t-9 -186.5l-98 5q5 95 7.5 184t3.5 178q-30 -4 -61 -4.5t-57 1.5q-42 -74 -106.5 -138.5t-140.5 -112.5l-61 85
q37 21 71 46t62.5 52.5t51 55t38.5 53.5q12 20 18 40t3 36t-16 26.5t-38 12.5q-38 2 -76.5 -8.5t-65.5 -28.5l-30 93q42 23 92.5 33t97.5 5q36 -3 62 -17t41.5 -35t22 -47t5.5 -54q21 -1 42.5 -0.5t43.5 2.5l-4 124t-6 128z" />
    <glyph glyph-name="cid277" unicode="&#xac8d;" horiz-adv-x="840" 
d="M650 265q7 52 10.5 113t3.5 124.5t-2.5 126t-7.5 116.5l101 10q4 -54 5.5 -116t1 -127t-4.5 -129.5t-11 -122.5zM368 419q-16 -33 -41 -66t-57 -63.5t-68.5 -57.5t-74.5 -48l-54 83q35 17 68 39.5t61.5 48t50.5 53t34 54.5q9 19 13 37t1 31.5t-14.5 22t-33.5 8.5
q-35 1 -72.5 -10.5t-72.5 -34.5l-30 95q42 20 89 31.5t99 8.5q69 -4 100 -38.5t30 -85.5q26 -2 51.5 -2.5t49.5 1.5q-1 47 -4 92t-8 87l99 10q9 -112 7 -216t-11 -198l-94 5q4 29 6.5 61.5t3.5 68.5q-29 -3 -60.5 -3t-60.5 2q-2 -4 -3.5 -8t-3.5 -8zM591 215
q90 -5 128 -42.5t40 -98.5q2 -35 -6.5 -86.5t-28.5 -105.5l-101 20q19 41 28.5 83t8.5 80q-1 35 -26.5 45.5t-63.5 11.5q-28 0 -62.5 -2.5t-71 -8.5t-73 -15t-67.5 -21l-25 95q33 11 75.5 20t86 15t85 8.5t73.5 1.5z" />
    <glyph glyph-name="cid4704" unicode="&#xac8e;" 
 />
    <glyph glyph-name="cid4705" unicode="&#xac8f;" 
 />
    <glyph glyph-name="cid278" unicode="&#xac90;" horiz-adv-x="840" 
d="M653 144q6 55 9.5 130t3.5 156.5t-3 163.5t-9 151l101 10q5 -69 7 -150.5t1 -164t-4.5 -161t-9.5 -140.5zM375 425q-2 -4 -3.5 -8t-3.5 -8q-32 -67 -95 -134.5t-146 -116.5l-54 83q38 21 71.5 46t61.5 53t48.5 56.5t32.5 55.5q9 19 13 37t1 31.5t-14.5 22t-33.5 8.5
q-35 1 -72.5 -10.5t-72.5 -34.5l-30 95q42 20 89 31.5t99 8.5q69 -4 100 -38.5t30 -85.5q26 -2 51.5 -2.5t49.5 1.5q-1 52 -4 100t-8 89l99 10q5 -63 6.5 -134t0.5 -142t-4 -139t-7 -126l-94 5q5 50 8 114t4 133q-30 -3 -62 -3t-61 2zM779 -77q-74 -23 -151.5 -32t-141.5 -7
q-47 1 -80 11t-54 25.5t-31.5 37t-14.5 45.5q-8 49 -5.5 99.5t13.5 98.5l100 -10q-9 -37 -13.5 -82.5t3.5 -83.5q6 -31 29 -40.5t70 -11.5q57 -2 122 8t137 32z" />
    <glyph glyph-name="cid4706" unicode="&#xac91;" 
 />
    <glyph glyph-name="cid4707" unicode="&#xac92;" 
 />
    <glyph glyph-name="cid3077" unicode="&#xac93;" 
 />
    <glyph glyph-name="cid279" unicode="&#xac94;" horiz-adv-x="840" 
d="M655 310q12 104 11 215t-12 220l101 10q8 -109 8.5 -220.5t-12.5 -229.5zM358 429q-43 -60 -101.5 -110.5t-129.5 -91.5l-54 83q32 17 62.5 37t57 41t48 42.5t36.5 41.5q12 17 17.5 33.5t1.5 30t-16.5 22.5t-36.5 9q-35 1 -67.5 -10.5t-67.5 -34.5l-30 95q42 20 84 31.5
t94 8.5q60 -4 94 -31.5t42 -67.5q26 -2 52 -3t50 1q-2 76 -9 149l99 10q4 -56 5.5 -107t1.5 -98.5t-2 -93t-6 -91.5l-94 5q6 63 6 136q-29 -3 -58.5 -3t-57.5 2q-9 -18 -21 -36zM793 -89q-41 -9 -89 -15t-95 -10t-90 -5.5t-73 -0.5q-46 2 -75.5 12.5t-45.5 26.5t-20.5 35.5
t0.5 40.5q7 27 21 50q-8 0 -16.5 0.5t-16.5 0.5l-6 78q94 -5 184 -3t178 13q2 6 2 9q3 20 -7.5 30t-40.5 13q-24 2 -59.5 1t-74.5 -5t-78 -10t-71 -14l-15 99q39 6 83.5 10t88 5t82.5 0t68 -4q36 -4 59.5 -14t36.5 -25t15.5 -33.5t-2.5 -37.5l-3 -12l14 2t15 3l-4 -78
q-82 -16 -168 -23t-175 -7q-12 -19 -15 -36t6 -29t47 -14q26 -1 65.5 1t84.5 7.5t91.5 13t85.5 18.5z" />
    <glyph glyph-name="cid4708" unicode="&#xac95;" 
 />
    <glyph glyph-name="cid4709" unicode="&#xac96;" 
 />
    <glyph glyph-name="cid4710" unicode="&#xac97;" 
 />
    <glyph glyph-name="cid4711" unicode="&#xac98;" 
 />
    <glyph glyph-name="cid4712" unicode="&#xac99;" 
 />
    <glyph glyph-name="cid4713" unicode="&#xac9a;" 
 />
    <glyph glyph-name="cid4714" unicode="&#xac9b;" 
 />
    <glyph glyph-name="cid280" unicode="&#xac9c;" horiz-adv-x="840" 
d="M650 271q7 52 10.5 112t3.5 122.5t-2.5 124t-7.5 115.5l101 10q4 -54 5.5 -115t1 -125t-4.5 -127.5t-11 -121.5zM368 419q-16 -33 -41 -66t-57 -63.5t-68.5 -57.5t-74.5 -48l-54 83q35 17 68 39.5t61.5 48t50.5 53t34 54.5q9 19 13 37t1 31.5t-14.5 22t-33.5 8.5
q-35 1 -72.5 -10.5t-72.5 -34.5l-30 95q42 20 89 31.5t99 8.5q69 -4 100 -38.5t30 -85.5q26 -2 51.5 -2.5t49.5 1.5q-1 47 -4 92t-8 87l99 10q9 -112 7 -216t-11 -198l-94 5q4 29 6.5 61.5t3.5 68.5q-29 -3 -60.5 -3t-60.5 2q-2 -4 -3.5 -8t-3.5 -8zM770 -10v-90
q-94 -12 -190 -14.5t-183 1.5q0 -10 -1 -15h-87q2 32 1 72.5t-5.5 84t-12 86t-16.5 77.5l102 16l7 -30q22 9 51.5 17t60.5 14.5t62 10t56 3.5q81 -1 120 -38.5t30 -96.5q-4 -25 -12.5 -51.5t-23.5 -52.5zM402 -32q52 -1 109 0.5t114 5.5q17 29 26.5 55.5t11.5 53.5
q2 26 -16.5 38t-51.5 12q-18 0 -43 -3t-51.5 -8t-53.5 -12t-50 -16q3 -31 4.5 -62.5t0.5 -63.5z" />
    <glyph glyph-name="cid281" unicode="&#xac9d;" horiz-adv-x="840" 
d="M650 281q7 52 10.5 110.5t3.5 119t-2.5 120.5t-7.5 114l101 10q8 -109 6.5 -235t-15.5 -244zM486 306q4 29 6.5 61.5t3.5 68.5q-29 -3 -60.5 -3t-60.5 2q-2 -4 -3.5 -8t-3.5 -8q-16 -33 -41 -66t-57 -63.5t-68.5 -57.5t-74.5 -48l-54 83q35 17 68 39.5t61.5 48t50.5 53
t34 54.5q9 19 13 37t1 31.5t-14.5 22t-33.5 8.5q-35 1 -72.5 -10.5t-72.5 -34.5l-30 95q42 20 89 31.5t99 8.5q69 -4 100 -38.5t30 -85.5q26 -2 51.5 -2.5t49.5 1.5q-1 47 -4 92t-8 87l99 10q9 -112 7 -216t-11 -198zM759 17l-21 17q-2 -18 -6.5 -34.5t-9.5 -30.5
q-17 -44 -50 -67t-70 -29t-71.5 3t-55.5 30q-25 25 -35 57t-7 63.5t18 59t40 44.5q31 21 70 27t81 1q-2 14 -5 26.5t-6 25.5l109 13q6 -47 6 -95q14 -7 27 -14.5t24 -16.5zM371 198q14 -77 22 -156.5t5 -153.5l-96 -1q4 74 -6.5 148t-30.5 149zM638 8q8 31 10 68
q-58 14 -99 -10q-15 -9 -22 -21.5t-8 -26t3.5 -26t14.5 -20.5q12 -10 27 -13t30 1t27 16t17 32z" />
    <glyph glyph-name="cid4715" unicode="&#xac9e;" 
 />
    <glyph glyph-name="cid282" unicode="&#xac9f;" horiz-adv-x="840" 
d="M650 178q4 34 7.5 79.5t5 96.5t1.5 105t-1 105.5t-3.5 98t-5.5 82.5l101 10q2 -36 4 -82.5t2.5 -98t0 -106t-2.5 -107t-5 -101t-8 -87.5zM368 419q-16 -33 -41 -68t-57 -67.5t-68.5 -61.5t-74.5 -51l-54 83q35 18 68 42.5t61.5 52.5t50.5 57t34 56q9 19 13 37t1 31.5
t-14.5 22t-33.5 8.5q-35 1 -72.5 -10.5t-72.5 -34.5l-30 95q42 20 89 31.5t99 8.5q69 -4 100 -38.5t30 -85.5q26 -2 51.5 -2.5t49.5 1.5q-1 47 -4 92t-8 87l99 10q9 -112 7 -217.5t-11 -199.5l-94 5q4 29 6.5 62.5t3.5 70.5q-29 -3 -60.5 -3t-60.5 2q-2 -4 -3.5 -8t-3.5 -8z
M541 109q34 -11 70.5 -26.5t70.5 -34.5t64.5 -42t53.5 -48l-70 -81q-50 59 -114 100t-130 62q-44 -50 -96 -92.5t-103 -73.5l-60 87q41 20 81.5 48.5t77 63.5t67 77.5t51.5 91.5l85 -43q-8 -23 -20.5 -45t-27.5 -44z" />
    <glyph glyph-name="cid283" unicode="&#xaca0;" horiz-adv-x="840" 
d="M655 280q6 52 8.5 110.5t2 119.5t-3.5 121t-8 114l101 10q4 -54 6 -114t2 -121.5t-3 -124t-9 -120.5zM358 429q-42 -60 -97 -115t-126 -99l-58 84q32 17 62 38.5t55.5 45t46.5 46.5t36 43q12 17 17.5 33.5t1.5 30t-16.5 22.5t-36.5 9q-35 1 -67.5 -10.5t-67.5 -34.5
l-30 95q42 20 84 31.5t94 8.5q35 -2 61.5 -13t43.5 -28.5t25.5 -40.5t7.5 -48q26 -2 51.5 -2.5t49.5 1.5q-2 47 -4 92t-6 87l99 10q7 -112 7 -219.5t-8 -200.5l-94 5q3 29 4.5 63.5t1.5 72.5q-32 -3 -66.5 -3t-65.5 3zM637 121q22 -12 48 -32t51.5 -44t48 -49.5t37.5 -48.5
l-81 -71q-11 22 -27 45.5t-34.5 45t-38 40.5t-38.5 33q-25 -54 -54.5 -103t-58.5 -83l-79 62q10 11 19.5 22t18.5 23q-23 25 -53.5 47t-59.5 38q-29 -47 -62 -88t-64 -69l-70 65q30 24 59 58t54.5 73.5t45 80.5t31.5 78l88 -34q-7 -22 -17.5 -46t-24.5 -50
q33 -14 64.5 -32.5t57.5 -41.5q27 50 46.5 103.5t30.5 104.5l89 -23q-4 -24 -11 -50t-16 -54z" />
    <glyph glyph-name="cid284" unicode="&#xaca1;" horiz-adv-x="840" 
d="M650 271q7 52 10.5 112t3.5 122.5t-2.5 124t-7.5 115.5l101 10q4 -54 5.5 -115t1 -125t-4.5 -127.5t-11 -121.5zM375 435q-2 -4 -3.5 -8t-3.5 -8q-16 -33 -41 -67.5t-57 -67t-68.5 -61.5t-74.5 -51l-54 83q35 19 68 43.5t61.5 52t50.5 56t34 55.5q9 19 13 37t1 31.5
t-14.5 22t-33.5 8.5q-35 1 -72.5 -10.5t-72.5 -34.5l-30 95q42 20 89 31.5t99 8.5q69 -4 100 -38.5t30 -85.5q26 -2 51.5 -2.5t49.5 1.5q-1 47 -4 92t-8 87l99 10q9 -112 7 -216t-11 -198l-94 5q4 29 6.5 61.5t3.5 68.5q-29 -3 -60.5 -3t-60.5 2zM571 221q41 -1 74 -14
t56.5 -34.5t36 -50.5t12.5 -62q0 -36 -17.5 -68.5t-47.5 -57t-70.5 -39t-85.5 -14.5q-50 0 -93 12t-74 35t-48.5 55.5t-17.5 72.5q0 42 20.5 78t57.5 61t87.5 37t109.5 7v-18zM529 -28q24 0 46.5 7t39.5 19t27 28.5t9 37.5q-2 44 -42.5 61.5t-101.5 9.5v18
q-54 -8 -83.5 -34.5t-28.5 -61.5q1 -46 39.5 -66t94.5 -19z" />
    <glyph glyph-name="cid4716" unicode="&#xaca2;" 
 />
    <glyph glyph-name="cid4717" unicode="&#xaca3;" 
 />
    <glyph glyph-name="cid4718" unicode="&#xaca4;" 
 />
    <glyph glyph-name="cid3078" unicode="&#xaca5;" 
 />
    <glyph glyph-name="cid4719" unicode="&#xaca6;" 
 />
    <glyph glyph-name="cid3079" unicode="&#xaca7;" 
 />
    <glyph glyph-name="cid285" unicode="&#xaca8;" horiz-adv-x="840" 
d="M712 755q9 -95 13.5 -201t5 -214t-3 -213.5t-10.5 -201.5l-103 5q6 68 9 141t5 150q-38 -6 -76.5 -9t-71.5 -1v100q32 -4 71.5 -3.5t77.5 5.5q0 34 -0.5 67.5t-1.5 67.5q-43 -5 -89.5 -5.5t-81.5 2.5q-1 -26 -9 -53t-25 -53q-48 -75 -128.5 -144t-183.5 -115l-50 95
q50 19 91.5 43.5t75.5 52t60.5 57t46.5 58.5q14 20 16 39t-6 34t-24.5 24.5t-39.5 11.5q-44 4 -86 -8t-92 -35l-29 107q125 52 247 32q44 -7 73 -26t45 -46l-1 27q16 -3 38.5 -5t47.5 -2.5t51 -0.5t50 2q-6 109 -15 205l103 10v0z" />
    <glyph glyph-name="cid286" unicode="&#xaca9;" horiz-adv-x="840" 
d="M405 438q-21 -30 -47.5 -61.5t-59 -61.5t-70.5 -57.5t-81 -48.5l-57 86q39 16 73.5 39t63.5 48.5t52.5 52.5t41.5 53q26 39 18 60.5t-56 23.5q-42 2 -91.5 -7.5t-91.5 -29.5l-30 99q54 22 113.5 29.5t117.5 1.5q42 -5 72 -20.5t47 -39.5l-1 38q51 -6 100.5 -7t97.5 4
q-3 56 -12 105l105 10q14 -125 10 -245t-22 -235l-100 5q3 18 6 36.5t5 38.5q-35 -5 -73 -7.5t-72 -1.5v97q35 -3 75.5 -3.5t78.5 4.5q2 27 2.5 54.5t-0.5 54.5q-48 -5 -93 -7.5t-86 -0.5q2 -52 -36 -107zM536 225q90 -5 128 -42.5t40 -98.5q1 -18 -0.5 -41.5t-6 -50.5
t-11.5 -55t-17 -55l-101 20q19 41 28.5 88t8.5 85q-1 35 -26.5 45.5t-63.5 11.5q-56 1 -118.5 -11t-125.5 -36l-25 95q33 11 70.5 20t76 15t75 8.5t68.5 1.5z" />
    <glyph glyph-name="cid287" unicode="&#xacaa;" horiz-adv-x="840" 
d="M405 438q-42 -60 -107 -119.5t-151 -102.5l-57 86q78 33 137 83.5t94 102.5q26 39 18 60.5t-56 23.5q-42 2 -91.5 -7.5t-91.5 -29.5l-30 99q54 22 113.5 29.5t117.5 1.5q42 -5 72 -20.5t47 -39.5l-1 38q51 -6 100.5 -7t98.5 4q-2 29 -5 55t-8 50l105 10q7 -58 9.5 -120.5
t1 -124.5t-6.5 -121t-13 -109l-100 5q3 17 5.5 34.5t4.5 35.5q-36 -5 -74.5 -7.5t-72.5 -1.5v97q36 -3 76.5 -3.5t78.5 4.5q2 27 2 54.5v54.5q-48 -5 -93.5 -7.5t-86.5 -0.5q2 -52 -36 -107zM732 99q2 -43 -6 -98t-24 -118l-94 18q14 48 22 92t7 76t-11.5 48t-31.5 19
q-28 4 -52.5 0t-53.5 -15l-16 92q38 11 76 14.5t72 0.5q48 -5 79 -35.5t33 -93.5zM347 214q63 -8 89.5 -48t27.5 -96q1 -46 -7 -96.5t-21 -92.5l-96 17q6 14 11 34t9 41.5t7 43t3 38.5q1 29 -8 46t-35 22q-35 6 -66 -2.5t-63 -22.5l-19 94q34 14 78.5 20.5t89.5 1.5z" />
    <glyph glyph-name="cid4720" unicode="&#xacab;" 
 />
    <glyph glyph-name="cid288" unicode="&#xacac;" horiz-adv-x="840" 
d="M405 428q-21 -30 -47.5 -61.5t-59 -61.5t-70.5 -57.5t-81 -48.5l-57 86q39 16 73.5 39t63.5 48.5t52.5 52.5t41.5 53q26 39 18 60.5t-56 23.5q-42 2 -91.5 -7.5t-91.5 -29.5l-30 99q54 22 113.5 29.5t117.5 1.5q42 -5 72 -20.5t47 -39.5l-1 38q51 -6 101 -7t98 4
q-2 31 -4.5 60t-6.5 55l103 10q5 -68 7 -147t0.5 -160.5t-6.5 -160.5t-15 -147l-98 12q8 44 13 93t8 101q-38 -6 -78.5 -8.5t-76.5 -1.5v97q37 -3 78.5 -3.5t79.5 4.5q1 55 0 109q-49 -5 -94.5 -7.5t-86.5 -0.5q2 -52 -36 -107zM724 -77q-72 -23 -135.5 -32t-127.5 -7
q-47 1 -80 11t-54 25.5t-31.5 37t-14.5 45.5q-15 97 8 193l102 -10q-9 -37 -13.5 -80t3.5 -81q6 -31 29 -39.5t68 -10.5q28 -1 54.5 1t53.5 7t56.5 13t64.5 19z" />
    <glyph glyph-name="cid4721" unicode="&#xacad;" 
 />
    <glyph glyph-name="cid4722" unicode="&#xacae;" 
 />
    <glyph glyph-name="cid289" unicode="&#xacaf;" horiz-adv-x="840" 
d="M405 438q-21 -30 -47.5 -61.5t-59 -61.5t-70.5 -57.5t-81 -48.5l-57 86q39 16 73.5 39t63.5 48.5t52.5 52.5t41.5 53q26 39 18 60.5t-56 23.5q-42 2 -91.5 -7.5t-91.5 -29.5l-30 99q54 22 113.5 29.5t117.5 1.5q42 -5 72 -20.5t47 -39.5l-1 38q51 -6 100.5 -7t98.5 4
q-2 27 -5 53t-8 52l105 10q14 -125 11 -237.5t-21 -227.5l-100 5q3 15 5.5 30t4.5 30q-36 -5 -74 -7.5t-72 -1.5v97q35 -3 75.5 -3.5t78.5 4.5q5 54 3 109q-48 -5 -93.5 -7.5t-86.5 -0.5q2 -52 -36 -107zM725 -89q-75 -20 -153.5 -27.5t-147.5 -4.5q-81 4 -117.5 37
t-34.5 96q1 28 6 54t12 50l-43 3v93q51 -4 107.5 -5.5t114 -0.5t114.5 4t108 9v-93q-70 -6 -148 -9.5t-154 -2.5q-6 -23 -9.5 -44t-3.5 -40q0 -30 16.5 -42.5t53.5 -14.5q53 -3 123 5t138 28z" />
    <glyph glyph-name="cid290" unicode="&#xacb0;" horiz-adv-x="840" 
d="M398 445q-21 -26 -52.5 -54t-69.5 -54t-80.5 -49.5t-86.5 -41.5l-42 92q81 29 148 70.5t104 86.5q30 36 21.5 60t-56.5 26q-42 2 -92 -8t-92 -30l-30 95q54 22 114 30t118 2q42 -5 71.5 -20.5t46.5 -39.5l-1 33q103 -14 201 -3q-2 27 -5 53.5t-8 51.5l103 10
q14 -116 12 -226.5t-16 -202.5l-98 5q2 14 4 27.5t4 27.5q-37 -6 -77 -8.5t-75 -1.5v97q37 -3 79 -3t80 5q2 20 2 39v39q-51 -5 -97.5 -7.5t-88.5 -0.5q0 -48 -41 -100zM738 -89q-41 -9 -84 -15t-85 -10t-80 -5.5t-68 -0.5q-46 2 -76 12.5t-47 27t-21.5 37.5t1.5 44
q7 25 16 41q-5 0 -11 0.5t-11 0.5l-6 82q91 -5 169 -3t157 12q2 4 2.5 8t1.5 8q3 20 -6 31t-43 13q-23 1 -53.5 0t-64 -4.5t-68 -9t-66.5 -12.5l-15 100q35 5 74 8.5t78 5t75 1t65 -3.5q73 -8 99.5 -44t13.5 -82l-2 -6l28 5l-4 -82q-82 -16 -159 -23t-160 -7
q-10 -17 -13 -33q-3 -17 6 -28t47 -13q26 -1 61 1t74.5 7.5t81 13t80.5 18.5z" />
    <glyph glyph-name="cid3080" unicode="&#xacb1;" 
 />
    <glyph glyph-name="cid4723" unicode="&#xacb2;" 
 />
    <glyph glyph-name="cid4724" unicode="&#xacb3;" 
 />
    <glyph glyph-name="cid3081" unicode="&#xacb4;" 
 />
    <glyph glyph-name="cid4725" unicode="&#xacb5;" 
 />
    <glyph glyph-name="cid4726" unicode="&#xacb6;" 
 />
    <glyph glyph-name="cid291" unicode="&#xacb7;" horiz-adv-x="840" 
d="M402 444q-21 -26 -53 -51.5t-71 -49t-82 -45t-87 -39.5l-42 92q81 26 150 62t106 81q30 36 21.5 60t-56.5 26q-42 2 -94 -7.5t-94 -29.5l-30 95q54 22 116 29.5t120 1.5q39 -4 68 -18t46 -37l-1 29q51 -6 101 -7t98 4q-2 27 -5 53.5t-8 51.5l105 10q14 -116 12 -226.5
t-16 -202.5l-100 5q2 14 4 27.5t4 27.5q-36 -6 -75.5 -8.5t-74.5 -1.5v97q36 -3 77.5 -3.5t79.5 4.5q2 20 2 39.5v39.5q-48 -5 -93 -7.5t-87 -0.5q0 -24 -10 -49.5t-31 -51.5zM514 293q42 -14 89 -18t90 2l2 -71q-54 -9 -100 -7.5t-92 12.5zM330 -44q22 2 50 12t54 27
l21 -75q-29 -19 -60 -28t-70 -13q-38 -4 -67 2t-48.5 19t-28.5 30.5t-7 37.5q2 14 7 32.5t13 34.5l-28 2l-1 75q38 -3 82.5 -2.5t88.5 4.5q5 15 7 33q1 18 -5.5 27t-26.5 11q-15 1 -34 -1t-38 -6t-36.5 -9.5t-29.5 -10.5l-18 83q16 6 37.5 10t45 6.5t46.5 3t41 -0.5
q50 -3 75 -29t22 -68q-1 -10 -3.5 -19.5t-6.5 -17.5q9 1 22 5v-72q-30 -9 -72 -15t-87 -8q-7 -14 -10.5 -28.5t-4.5 -25.5q-1 -19 19 -24t51 -2zM757 102l-41 -6q23 -30 23 -82q0 -26 -9.5 -50.5t-27 -43.5t-43 -30.5t-57.5 -11.5q-61 0 -97 37.5t-36 98.5q0 40 23 74l-38 3
v74q40 -4 77 -6t73.5 -1.5t74 4t78.5 9.5v-69zM662 14q1 24 -14 44t-44 20q-27 0 -43 -18t-16 -46t15 -45.5t43 -17.5q31 0 44.5 19.5t14.5 43.5z" />
    <glyph glyph-name="cid292" unicode="&#xacb8;" horiz-adv-x="840" 
d="M405 438q-21 -30 -47.5 -61.5t-59 -61.5t-70.5 -57.5t-81 -48.5l-57 86q39 16 73.5 39t63.5 48.5t52.5 52.5t41.5 53q26 39 18 60.5t-56 23.5q-42 2 -91.5 -7.5t-91.5 -29.5l-30 99q54 22 113.5 29.5t117.5 1.5q42 -5 72 -20.5t47 -39.5l-1 38q52 -6 101.5 -7t98.5 4
q-2 28 -5 54t-7 51l103 10q14 -125 11 -246.5t-21 -236.5l-98 5q7 37 12 78q-37 -5 -76 -7.5t-74 -1.5v97q36 -3 77.5 -3.5t79.5 4.5q2 27 2.5 54.5t-0.5 54.5q-49 -5 -94.5 -7.5t-87.5 -0.5q2 -52 -36 -107zM710 88q-4 -25 -13 -51.5t-23 -52.5l41 6v-90
q-93 -12 -175.5 -14.5t-167.5 1.5q0 -10 -1 -15h-87q2 32 1 72.5t-5.5 84t-12 86t-16.5 77.5l102 16l7 -30q42 17 95.5 31.5t104.5 13.5q81 -1 120 -38.5t30 -96.5zM377 -32q48 -1 96 0t96 5q15 26 25.5 55t13.5 55t-16 38t-52 12q-37 0 -81.5 -11t-86.5 -28
q3 -31 4.5 -62.5t0.5 -63.5z" />
    <glyph glyph-name="cid293" unicode="&#xacb9;" horiz-adv-x="840" 
d="M405 438q-21 -30 -47.5 -61.5t-59 -61.5t-70.5 -57.5t-81 -48.5l-57 86q39 16 73.5 39t63.5 48.5t52.5 52.5t41.5 53q26 39 18 60.5t-56 23.5q-42 2 -91.5 -7.5t-91.5 -29.5l-30 99q54 22 113.5 29.5t117.5 1.5q42 -5 72 -20.5t47 -39.5l-1 38q51 -6 100.5 -7t98.5 4
q-2 27 -5 53t-8 52l105 10q14 -124 11.5 -234.5t-19.5 -224.5l-100 5q2 14 4 27t4 27q-35 -5 -73.5 -7.5t-72.5 -1.5v97q36 -3 76.5 -3.5t78.5 4.5q3 54 3 109q-49 -5 -94.5 -7.5t-86.5 -0.5q2 -52 -36 -107zM724 42q-12 9 -24 14q-6 -50 -18 -87q-14 -41 -45 -64t-67 -30
t-71 0.5t-58 27.5q-25 21 -36 51.5t-8.5 63t20 63t49.5 51.5q28 18 61.5 27.5t68.5 10.5q-2 12 -4.5 24t-5.5 23l111 13q2 -19 4 -38.5t2 -39.5q26 -10 49 -27zM346 211q14 -77 22 -163t5 -160l-96 -1q4 74 -6.5 154.5t-30.5 155.5zM598 7q10 30 8 74q-27 2 -51.5 -3
t-41.5 -19q-26 -22 -29 -47t17 -42q11 -9 25 -12t27.5 1.5t25.5 16t19 31.5z" />
    <glyph glyph-name="cid4727" unicode="&#xacba;" 
 />
    <glyph glyph-name="cid294" unicode="&#xacbb;" horiz-adv-x="840" 
d="M407 438q-20 -30 -48.5 -62t-63 -62.5t-74.5 -57.5t-84 -47l-57 86q40 16 76.5 39t68 48.5t56.5 52.5t42 53q26 39 18 60t-56 24q-41 2 -92 -7.5t-93 -29.5l-30 99q54 22 114.5 29.5t118.5 1.5q41 -5 70.5 -19.5t46.5 -37.5l-1 35q51 -6 101 -7t98 4q-2 29 -4.5 55.5
t-6.5 49.5l103 10q7 -62 9 -133t0 -143t-8 -140.5t-15 -125.5l-98 5q6 33 10.5 70.5t7.5 77.5q-37 -6 -77 -8.5t-75 -1.5v97q36 -3 77.5 -3.5t79.5 4.5q1 25 1 50v49q-48 -5 -93 -7.5t-87 -0.5q3 -49 -35 -107zM506 122q68 -24 134.5 -66.5t113.5 -93.5l-71 -85
q-49 58 -108.5 103.5t-123.5 67.5q-42 -50 -92 -95t-101 -80l-62 89q43 25 83.5 57.5t76 70.5t64.5 82t49 93l87 -45q-16 -47 -50 -98z" />
    <glyph glyph-name="cid295" unicode="&#xacbc;" horiz-adv-x="840" 
d="M90 300q78 35 137 85.5t94 102.5q54 80 -38 83q-42 2 -91.5 -7.5t-91.5 -29.5l-30 100q54 22 113.5 29.5t117.5 1.5q42 -5 72 -20.5t47 -39.5l-1 40q103 -14 201 -3q-2 26 -5 51.5t-8 51.5l103 10q7 -62 10.5 -119t3 -112t-5 -109.5t-13.5 -111.5l-98 5l9 60
q-37 -6 -77 -8.5t-75 -1.5v97q37 -3 79 -3t81 5q1 25 1.5 49.5t-0.5 48.5q-50 -5 -96 -7.5t-88 -0.5q2 -25 -6.5 -53t-28.5 -57q-41 -60 -106.5 -119.5t-151.5 -104.5zM636 115q22 -13 47 -32.5t49 -42.5t45 -47t35 -46l-81 -71q-10 21 -24.5 43t-32 42.5t-36 39t-36.5 32.5
q-24 -53 -53 -99.5t-57 -79.5l-79 62q20 20 39 47q-23 24 -52.5 45.5t-58.5 37.5q-29 -47 -62 -88t-64 -69l-70 65q30 24 59 58t54.5 73.5t45 80.5t31.5 78l88 -34q-7 -22 -17.5 -46t-24.5 -50q32 -14 63 -32t57 -40q26 50 45.5 102.5t30.5 103.5l89 -23q-4 -25 -11.5 -53
t-18.5 -57z" />
    <glyph glyph-name="cid296" unicode="&#xacbd;" horiz-adv-x="840" 
d="M405 438q-21 -30 -47.5 -61.5t-59 -61.5t-70.5 -57.5t-81 -48.5l-57 86q39 16 73.5 39t63.5 48.5t52.5 52.5t41.5 53q26 39 18 60.5t-56 23.5q-42 2 -91.5 -7.5t-91.5 -29.5l-30 99q54 22 113.5 29.5t117.5 1.5q42 -5 72 -20.5t47 -39.5l-1 38q51 -6 100.5 -7t97.5 4
q-5 55 -12 105l105 10q14 -125 10.5 -249.5t-21.5 -239.5l-100 5q7 40 12 84q-36 -5 -74.5 -7.5t-72.5 -1.5v97q36 -3 76.5 -3.5t78.5 4.5q2 27 2 54.5v54.5q-49 -5 -94 -7.5t-86 -0.5q2 -52 -36 -107zM542 229q40 -2 70.5 -16.5t51 -37.5t31 -52t10.5 -60q0 -38 -15 -71
t-42 -57.5t-65 -39t-83 -14.5q-51 0 -92 13.5t-69 38t-43 57t-15 69.5q0 40 18.5 76.5t52.5 63t82.5 40.5t107.5 9v-19zM500 -29q48 1 78.5 25t28.5 71q-2 42 -35 64t-94 14v16q-50 -10 -75 -39t-24 -62q1 -42 33 -66t88 -23z" />
    <glyph glyph-name="cid3082" unicode="&#xacbe;" 
 />
    <glyph glyph-name="cid297" unicode="&#xacbf;" horiz-adv-x="840" 
d="M398 445q-21 -26 -52.5 -54t-69.5 -54t-80.5 -49.5t-86.5 -41.5l-42 92q81 29 148 70.5t104 86.5q30 36 21.5 60t-56.5 26q-42 2 -92 -8t-92 -30l-30 95q54 22 114 30t118 2q42 -5 71.5 -20.5t46.5 -39.5l-1 33q103 -14 201 -3q-2 27 -5 53.5t-8 51.5l103 10
q14 -116 12 -227t-16 -203l-98 5q2 14 4 27.5t4 27.5q-38 -6 -79 -8.5t-77 -1.5v97q38 -4 81 -3.5t83 5.5q1 20 1 39.5v39.5q-51 -5 -97.5 -7.5t-88.5 -0.5q0 -48 -41 -100zM369 307q66 -23 126.5 -28t123.5 6l1 -78q-30 -6 -63.5 -8t-68 -1.5t-69 4.5t-65.5 12zM752 -135
q-58 28 -125 43t-131 20q-64 -22 -134 -39t-129 -27l-27 99q49 5 101 13.5t100 19.5t88 23t65 24q57 27 -9 28q-18 0 -46.5 -1.5t-62 -5.5t-68.5 -10.5t-66 -14.5l-17 94q36 7 75.5 12.5t79 7.5t78 1.5t71.5 -5.5q44 -6 67.5 -23.5t26.5 -40.5t-13 -48.5t-51 -48.5
q40 -2 82.5 -9.5t84.5 -20.5z" />
    <glyph glyph-name="cid4728" unicode="&#xacc0;" 
 />
    <glyph glyph-name="cid298" unicode="&#xacc1;" horiz-adv-x="840" 
d="M398 445q-21 -26 -52.5 -54t-69.5 -54t-80.5 -49.5t-86.5 -41.5l-42 92q81 29 148 70.5t104 86.5q30 36 21.5 60t-56.5 26q-42 2 -92 -8t-92 -30l-30 95q54 22 114 30t118 2q42 -5 71.5 -20.5t46.5 -39.5l-1 33q103 -14 201 -3q-2 27 -5 53.5t-8 51.5l103 10
q14 -116 12 -226.5t-16 -202.5l-98 5q2 14 4 27.5t4 27.5q-37 -6 -77 -8.5t-75 -1.5v97q37 -3 79 -3t80 5q2 20 2 39v39q-51 -5 -97.5 -7.5t-88.5 -0.5q0 -48 -41 -100zM733 -91q-75 -19 -154 -28t-148 -1q-73 8 -113.5 44t-35.5 108q6 73 30 145l-52 3v86
q109 -9 218.5 -7.5t216.5 9.5v-86q-66 -5 -142.5 -7t-152.5 -1q-5 -15 -9 -30l-8 -30q141 -7 286 17l1 -83q-70 -11 -147.5 -14t-149.5 3v-6q-3 -62 78 -70q28 -3 61.5 -1.5t68.5 6.5t70.5 14t69.5 22z" />
    <glyph glyph-name="cid3083" unicode="&#xacc2;" 
 />
    <glyph glyph-name="cid4729" unicode="&#xacc3;" 
 />
    <glyph glyph-name="cid299" unicode="&#xacc4;" horiz-adv-x="840" 
d="M745 745q8 -95 12 -198.5t3.5 -210t-4.5 -213t-11 -208.5l-99 5q7 93 10.5 195.5t3.5 208t-3.5 210.5t-10.5 201zM575 685q18 -177 16 -355.5t-16 -369.5l-99 5q10 112 15 229q-26 -2 -53 -2t-51 2v96q53 -8 107 -3q1 69 0 138q-26 -2 -52 -2t-47 2q-1 -25 -8 -49
t-19 -47q-42 -75 -104.5 -139.5t-140.5 -119.5l-63 88q75 42 130.5 99t87.5 108q12 20 18 40t3 36t-16 26.5t-38 12.5q-38 2 -74 -8.5t-63 -28.5l-30 93q42 23 90 33t95 5q39 -4 65.5 -20t42.5 -39v1q23 -2 55.5 -2.5t63.5 1.5q-2 42 -5.5 82t-8.5 78z" />
    <glyph glyph-name="cid3084" unicode="&#xacc5;" 
 />
    <glyph glyph-name="cid4730" unicode="&#xacc6;" 
 />
    <glyph glyph-name="cid4731" unicode="&#xacc7;" 
 />
    <glyph glyph-name="cid300" unicode="&#xacc8;" horiz-adv-x="840" 
d="M653 144q6 55 9.5 130t3.5 156.5t-3 163.5t-9 151l101 10q5 -69 7 -150.5t1 -164t-4.5 -161t-9.5 -140.5zM391 506q-2 -23 -9 -47t-19 -50q-32 -67 -92.5 -134.5t-143.5 -116.5l-54 83q38 21 71 46t59.5 53t46.5 56.5t32 55.5q9 19 13 37t1 31.5t-14.5 22t-33.5 8.5
q-67 1 -140 -45l-30 95q42 20 86.5 31.5t96.5 8.5q40 -2 66.5 -15t41.5 -34q29 -2 65 -2t67 4q-2 30 -4 58t-5 53l97 10q5 -63 6.5 -134t0.5 -142t-4 -139t-7 -126l-92 5q3 29 5 64.5t4 73.5q-26 -2 -53.5 -3t-53.5 1v87q56 -7 109 -3q1 55 0 111q-26 -4 -56.5 -4.5
t-56.5 0.5zM779 -77q-74 -23 -151.5 -32t-141.5 -7q-47 1 -80 11t-54 25.5t-31.5 37t-14.5 45.5q-8 49 -5.5 99.5t13.5 98.5l100 -10q-9 -37 -13.5 -82.5t3.5 -83.5q6 -31 29 -40.5t70 -11.5q57 -2 122 8t137 32z" />
    <glyph glyph-name="cid4732" unicode="&#xacc9;" 
 />
    <glyph glyph-name="cid4733" unicode="&#xacca;" 
 />
    <glyph glyph-name="cid3085" unicode="&#xaccb;" 
 />
    <glyph glyph-name="cid301" unicode="&#xaccc;" horiz-adv-x="840" 
d="M656 310q12 104 11 215t-12 220l100 10q8 -109 8.5 -220.5t-12.5 -229.5zM389 521q-3 -47 -36 -92q-43 -60 -99 -110.5t-127 -91.5l-54 83q65 35 117.5 78t81.5 84q12 17 17.5 33.5t1.5 30t-16.5 22.5t-36.5 9q-35 1 -65 -10.5t-65 -34.5l-30 95q41 20 81 31.5t92 8.5
q37 -2 64 -14t44 -31q35 -3 68.5 -3.5t66.5 1.5q-2 24 -3.5 48t-3.5 47l99 10q4 -56 5.5 -107t1.5 -98.5t-2 -93t-6 -91.5l-94 5q1 8 1.5 15t0.5 15q-49 -9 -100 -6l-5 85q33 -2 58 -1.5t51 4.5q1 39 0 81q-27 -2 -53.5 -2.5t-54.5 0.5zM793 -89q-41 -9 -89 -15t-95 -10
t-90 -5.5t-73 -0.5q-46 2 -75.5 12.5t-45.5 26.5t-20.5 35.5t0.5 40.5q7 27 21 50q-8 0 -16.5 0.5t-16.5 0.5l-6 78q94 -5 184 -3t178 13q2 6 2 9q3 20 -7.5 30t-40.5 13q-24 2 -59.5 1t-74.5 -5t-78 -10t-71 -14l-15 99q39 6 83.5 10t88 5t82.5 0t68 -4q36 -4 59.5 -14
t36.5 -25t15.5 -33.5t-2.5 -37.5l-3 -12l14 2t15 3l-4 -78q-82 -16 -168 -23t-175 -7q-12 -19 -15 -36t6 -29t47 -14q26 -1 65.5 1t84.5 7.5t91.5 13t85.5 18.5z" />
    <glyph glyph-name="cid4734" unicode="&#xaccd;" 
 />
    <glyph glyph-name="cid4735" unicode="&#xacce;" 
 />
    <glyph glyph-name="cid4736" unicode="&#xaccf;" 
 />
    <glyph glyph-name="cid4737" unicode="&#xacd0;" 
 />
    <glyph glyph-name="cid4738" unicode="&#xacd1;" 
 />
    <glyph glyph-name="cid4739" unicode="&#xacd2;" 
 />
    <glyph glyph-name="cid4740" unicode="&#xacd3;" 
 />
    <glyph glyph-name="cid3086" unicode="&#xacd4;" 
 />
    <glyph glyph-name="cid302" unicode="&#xacd5;" horiz-adv-x="840" 
d="M650 281q7 52 10.5 110.5t3.5 119t-2.5 120.5t-7.5 114l101 10q8 -109 6.5 -235t-15.5 -244zM502 446q2 51 0 103q-26 -3 -56 -3.5t-56 0.5q3 -29 -4 -61t-23 -66q-16 -33 -40.5 -66t-55 -63.5t-66.5 -57.5t-74 -48l-54 83q35 17 67.5 39.5t60 48t48.5 53t33 54.5
q9 19 13 37t1 31.5t-14.5 22t-33.5 8.5q-67 1 -140 -45l-30 95q42 20 86.5 31.5t96.5 8.5q68 -4 101 -40l-1 22q28 -2 66 -2.5t70 3.5q-1 18 -3 36t-4 35l99 10q9 -112 7 -216t-11 -198l-94 5q2 14 3.5 28t2.5 30q-23 -2 -46 -2.5t-46 1.5v87q47 -7 97 -4zM759 17l-21 17
q-2 -18 -6.5 -34.5t-9.5 -30.5q-17 -44 -50 -67t-70 -29t-71.5 3t-55.5 30q-25 25 -35 57t-7 63.5t18 59t40 44.5q31 21 70 27t81 1q-2 14 -5 26.5t-6 25.5l109 13q6 -47 6 -95q14 -7 27 -14.5t24 -16.5zM371 198q14 -77 22 -156.5t5 -153.5l-96 -1q4 74 -6.5 148t-30.5 149
zM638 8q8 31 10 68q-58 14 -99 -10q-15 -9 -22 -21.5t-8 -26t3.5 -26t14.5 -20.5q12 -10 27 -13t30 1t27 16t17 32z" />
    <glyph glyph-name="cid4741" unicode="&#xacd6;" 
 />
    <glyph glyph-name="cid303" unicode="&#xacd7;" horiz-adv-x="840" 
d="M650 178q4 34 7.5 79.5t5 96.5t1.5 105t-1 105.5t-3.5 98t-5.5 82.5l101 10q2 -36 4 -82.5t2.5 -98t0 -106t-2.5 -107t-5 -101t-8 -87.5zM368 419q-16 -33 -41 -68t-57 -67.5t-68.5 -61.5t-74.5 -51l-54 83q35 18 68 42.5t61.5 52.5t50.5 57t34 56q9 19 13 37t1 31.5
t-14.5 22t-33.5 8.5q-35 1 -72.5 -10.5t-72.5 -34.5l-30 95q42 20 89 31.5t99 8.5q40 -2 67 -15.5t42 -34.5q32 -2 62.5 -2.5t62.5 1.5q-2 27 -4.5 53.5t-5.5 51.5l99 10q9 -112 7 -217.5t-11 -199.5l-94 5q2 11 3 23l2 24q-51 -9 -103 -6l-5 85q35 -2 60.5 -1.5t52.5 4.5
q1 20 1.5 40.5t-0.5 41.5q-52 -4 -107 -3q-5 -44 -27 -92zM541 109q34 -11 70.5 -26.5t70.5 -34.5t64.5 -42t53.5 -48l-70 -81q-50 59 -114 100t-130 62q-44 -50 -96 -92.5t-103 -73.5l-60 87q41 20 81.5 48.5t77 63.5t67 77.5t51.5 91.5l85 -43q-8 -23 -20.5 -45t-27.5 -44
z" />
    <glyph glyph-name="cid304" unicode="&#xacd8;" horiz-adv-x="840" 
d="M657 267q6 52 8.5 112.5t2 123.5t-3.5 125.5t-8 116.5l99 10q4 -54 6 -116t2 -126t-3 -128.5t-9 -122.5zM353 429q-42 -60 -94.5 -121.5t-123.5 -105.5l-58 84q32 17 61 40.5t54 49t45 51t35 45.5q12 17 17.5 33.5t1.5 30t-16.5 22.5t-36.5 9q-35 1 -65 -10.5t-65 -34.5
l-30 95q41 20 81 31.5t92 8.5q40 -2 68.5 -16t45.5 -35q35 -3 69 -3.5t68 1.5q-2 27 -3.5 52.5t-3.5 48.5l97 10q3 -56 5 -113.5t2 -113t-2 -108t-6 -98.5l-92 5q2 13 2.5 27t1.5 29q-28 -6 -54.5 -8t-55.5 0l-5 85q36 -2 62.5 -1.5t54.5 5.5q1 23 0.5 46.5t-0.5 47.5
q-58 -6 -117 -3q-4 -42 -35 -86zM636 108q22 -12 47 -29.5t49.5 -38.5t47.5 -45t42 -48l-81 -71q-29 48 -66 87.5t-74 65.5q-24 -51 -53 -96.5t-58 -78.5l-79 62q18 19 36 42q-25 22 -55 42t-59 34q-29 -42 -61 -80t-62 -65l-70 65q30 24 59 56t54.5 69t45 76t31.5 76
l88 -34q-7 -23 -18 -47t-25 -49q34 -14 65 -30t58 -36q26 47 46 98t31 102l89 -23q-4 -24 -11 -50.5t-17 -53.5z" />
    <glyph glyph-name="cid3087" unicode="&#xacd9;" 
 />
    <glyph glyph-name="cid4742" unicode="&#xacda;" 
 />
    <glyph glyph-name="cid4743" unicode="&#xacdb;" 
 />
    <glyph glyph-name="cid4744" unicode="&#xacdc;" 
 />
    <glyph glyph-name="cid4745" unicode="&#xacdd;" 
 />
    <glyph glyph-name="cid4746" unicode="&#xacde;" 
 />
    <glyph glyph-name="cid4747" unicode="&#xacdf;" 
 />
    <glyph glyph-name="cid305" unicode="&#xace0;" horiz-adv-x="840" 
d="M445 553q-31 1 -65 -4t-68 -14t-66.5 -22.5t-59.5 -29.5l-36 103q70 35 152 53.5t163 13.5q95 -5 138 -52.5t47 -124.5q1 -26 -1.5 -54.5t-8.5 -57.5t-14 -57t-18 -52l-104 35q20 39 30.5 88t8.5 91q-2 39 -23 60.5t-75 23.5zM403 119q105 1 206 8t191 21l-5 -101
q-83 -11 -180 -17t-196 -7t-195.5 2.5t-178.5 11.5l-5 101q62 -8 129 -12.5t136 -6.5q3 52 0.5 105.5t-9.5 105.5h108q4 -48 3.5 -103t-4.5 -108z" />
    <glyph glyph-name="cid306" unicode="&#xace1;" horiz-adv-x="840" 
d="M463 635q-26 1 -57 -3t-63 -10.5t-62 -15t-53 -17.5l-28 97q59 22 132 34.5t143 10.5q81 -2 125 -39t47 -100q2 -52 -6 -93.5t-19 -76.5l-97 11q12 32 18.5 70t4.5 74q-2 31 -24.5 44t-60.5 14zM436 359q101 2 195.5 7t168.5 13l-5 -94q-79 -6 -176.5 -9.5t-198.5 -5
t-198.5 -0.5t-176.5 5l-5 94q63 -6 139.5 -8.5t159.5 -2.5q2 37 -0.5 75.5t-11.5 71.5h105q5 -29 6 -68t-2 -78zM506 201q82 -4 117 -41.5t37 -98.5q2 -39 -6 -85t-25 -94l-97 15q15 44 25 80t10 67q0 30 -21 47t-59 18q-28 0 -63 -3t-72 -9.5t-74 -16t-69 -21.5l-25 95
q34 11 76.5 20.5t86.5 16t85.5 9t73.5 1.5z" />
    <glyph glyph-name="cid4748" unicode="&#xace2;" 
 />
    <glyph glyph-name="cid4749" unicode="&#xace3;" 
 />
    <glyph glyph-name="cid307" unicode="&#xace4;" horiz-adv-x="840" 
d="M463 625q-26 0 -57 -3.5t-63 -10t-62 -15t-53 -17.5l-28 97q59 22 132 34.5t143 10.5q81 -2 125 -39t47 -100q2 -52 -6 -98.5t-19 -81.5l-97 11q12 32 18.5 75t4.5 79q-2 31 -24.5 44t-60.5 14zM436 334q100 2 194.5 7t169.5 13l-5 -94q-79 -6 -176.5 -9.5t-198.5 -5
t-198.5 -0.5t-176.5 5l-5 94q63 -6 139.5 -8.5t159.5 -2.5q2 38 -0.5 77.5t-11.5 74.5h105q5 -29 6 -70t-2 -81zM418 -25q57 -2 121.5 9t127.5 31l17 -92q-32 -10 -68 -18t-73.5 -13t-73.5 -7t-68 -1q-47 1 -79.5 11t-53.5 25.5t-32 37t-15 45.5q-4 23 -6 44t-1.5 42.5
t4 44.5t9.5 51l102 -10q-11 -45 -13.5 -80t5.5 -70q7 -31 29.5 -39.5t67.5 -10.5z" />
    <glyph glyph-name="cid4750" unicode="&#xace5;" 
 />
    <glyph glyph-name="cid4751" unicode="&#xace6;" 
 />
    <glyph glyph-name="cid308" unicode="&#xace7;" horiz-adv-x="840" 
d="M463 635q-26 1 -57 -3t-63 -10.5t-62 -15t-53 -17.5l-28 97q59 22 132 34.5t143 10.5q81 -2 125 -39t47 -100q2 -52 -6 -93.5t-19 -76.5l-97 11q12 32 18.5 70t4.5 74q-2 31 -24.5 44t-60.5 14zM437 364q100 2 194.5 7t168.5 13l-5 -94q-79 -6 -176.5 -9.5t-198.5 -5
t-198.5 -0.5t-176.5 5l-5 94q63 -6 139.5 -8.5t160.5 -2.5q1 36 -2 73t-11 69h105q4 -28 5.5 -65.5t-0.5 -75.5zM386 -29q22 -1 56 0.5t72 5.5t77.5 10.5t73.5 16.5l18 -93q-37 -9 -79 -15.5t-84 -11t-82 -6t-74 0.5q-161 7 -152 133q2 23 7 48t12 48l-44 3v90
q51 -4 110.5 -5.5t121 -0.5t121.5 4t111 9v-90q-72 -6 -157.5 -9.5t-167.5 -2.5q-10 -45 -12 -86q-1 -25 12.5 -36t59.5 -13z" />
    <glyph glyph-name="cid309" unicode="&#xace8;" horiz-adv-x="840" 
d="M463 638q-26 1 -57 -3t-63 -10.5t-62 -15t-53 -17.5l-28 94q59 22 132 34.5t143 10.5q81 -2 125.5 -39t46.5 -100q1 -37 -4 -69.5t-13 -54.5l-93 11q8 20 12.5 44.5t2.5 53.5q-2 31 -26.5 45.5t-62.5 15.5zM437 424q100 2 194.5 7t168.5 13l-5 -90q-80 -6 -178.5 -9.5
t-200 -5t-199 -0.5t-176.5 5l-1 90q63 -6 140.5 -8.5t162.5 -2.5q-1 25 -4 50.5t-9 51.5h102q2 -23 4 -48.5t1 -52.5zM373 -34q26 -1 61 0.5t75 6t81.5 12t80.5 17.5l13 -95q-41 -9 -84.5 -14.5t-85.5 -8.5t-80 -4t-68 0q-46 2 -76 12.5t-46.5 26.5t-21.5 35.5t0 40.5
q4 16 10 29t14 25h-18.5t-19.5 1l-6 81q183 -10 355 9q6 16 9 33q3 16 -7.5 22t-40.5 8q-24 2 -59.5 1t-74.5 -4.5t-78 -9t-71 -13.5l-15 100q35 5 79 8.5t88.5 5t85 1t69.5 -3.5q73 -8 98.5 -36t12.5 -74q-2 -7 -4 -13t-4 -13l32 6l-4 -81q-81 -15 -164.5 -22t-171.5 -8
q-14 -22 -17 -40q-3 -17 6 -28t47 -13z" />
    <glyph glyph-name="cid3088" unicode="&#xace9;" 
 />
    <glyph glyph-name="cid310" unicode="&#xacea;" horiz-adv-x="840" 
d="M463 638q-26 1 -57 -3t-63 -10.5t-62 -15t-53 -17.5l-28 94q59 22 132 34.5t143 10.5q81 -2 125.5 -39t46.5 -100q1 -37 -4 -73.5t-14 -63.5l-93 11q19 52 16 111q-2 31 -26.5 45.5t-62.5 15.5zM436 397q100 2 194.5 7t169.5 13l-5 -90q-80 -6 -178.5 -9.5t-200 -5
t-199 -0.5t-176.5 5l-1 90q63 -6 140.5 -8.5t161.5 -2.5q1 32 -1.5 65t-10.5 64h102q3 -26 4.5 -60.5t-0.5 -67.5zM590 246q27 5 51 0.5t41.5 -18t27 -36t8.5 -55.5t-7.5 -72.5t-17.5 -75.5q14 2 22 4l-5 -76q-37 -8 -86 -11t-95 -1q0 -4 -0.5 -7.5t-0.5 -7.5h-68
q2 38 0.5 82.5t-6.5 89.5t-12.5 88.5t-17.5 79.5l87 18l6 -35q17 11 36 20.5t37 12.5zM300 -41q26 2 55.5 11t55.5 26l24 -76q-28 -16 -59.5 -26.5t-70.5 -14.5q-75 -8 -116 16.5t-37 71.5q2 15 7 31t13 30l-27 2l-1 73q38 -3 83 -2.5t88 4.5q3 7 4.5 14t3.5 15q6 34 -32 37
q-15 1 -34 -1t-38 -6t-36.5 -9.5t-29.5 -10.5l-18 84q16 6 37.5 10t45 6.5t46.5 3t41 -0.5q50 -3 75 -29t22 -68q-1 -9 -3.5 -17t-5.5 -16l20 5v-70q-31 -10 -74.5 -15.5t-89.5 -7.5q-5 -12 -7.5 -22.5t-2.5 -19.5q0 -19 17 -24.5t44 -3.5zM532 -22q21 0 43.5 0.5t43.5 1.5
q8 36 12 73t2 66q-2 28 -14 40t-32 10q-16 -2 -31.5 -9.5t-29.5 -18.5q4 -40 5.5 -82t0.5 -81z" />
    <glyph glyph-name="cid3089" unicode="&#xaceb;" 
 />
    <glyph glyph-name="cid311" unicode="&#xacec;" horiz-adv-x="840" 
d="M463 638q-26 1 -57 -3t-63 -10.5t-62 -15t-53 -17.5l-28 94q59 22 132 34.5t143 10.5q81 -2 125.5 -39t46.5 -100q1 -37 -4 -73.5t-14 -63.5l-93 11q19 52 16 111q-2 31 -26.5 45.5t-62.5 15.5zM436 397q100 2 194.5 7t169.5 13l-5 -90q-80 -6 -178.5 -9.5t-200 -5
t-199 -0.5t-176.5 5l-1 90q63 -6 140.5 -8.5t161.5 -2.5q1 32 -1.5 65t-10.5 64h102q3 -26 4.5 -60.5t-0.5 -67.5zM620 118q39 -33 71.5 -72.5t58.5 -90.5l-80 -51q-13 35 -35 68t-48 62q-35 -78 -83 -138l-52 44q-33 -22 -79 -37t-86 -18q-29 -2 -54 2t-44 14t-29 26.5
t-8 39.5q2 15 7 31.5t13 30.5l-26 2l-1 73q39 -3 87.5 -2.5t95.5 5.5q2 6 3.5 12.5t3.5 14.5q3 18 -3.5 26.5t-26.5 10.5q-37 4 -79.5 -5t-72.5 -22l-18 84q47 13 96.5 18t87.5 1q50 -5 77.5 -30t19.5 -67q-2 -9 -4.5 -17t-5.5 -15q6 1 11.5 2t10.5 3v-70q-32 -10 -80 -16
t-98 -8q-9 -23 -9 -42t10.5 -23t35.5 -2q33 2 71.5 13.5t68.5 37.5l19 -34q48 55 74 125t33 151l91 -19q-2 -29 -8.5 -58.5t-15.5 -59.5z" />
    <glyph glyph-name="cid4752" unicode="&#xaced;" 
 />
    <glyph glyph-name="cid3090" unicode="&#xacee;" 
 />
    <glyph glyph-name="cid312" unicode="&#xacef;" horiz-adv-x="840" 
d="M463 638q-26 1 -57 -3t-63 -10.5t-62 -15t-53 -17.5l-28 94q59 22 132 34.5t143 10.5q81 -2 125.5 -39t46.5 -100q1 -37 -4 -73.5t-14 -63.5l-93 11q19 52 16 111q-2 31 -26.5 45.5t-62.5 15.5zM436 397q100 2 194.5 7t169.5 13l-5 -90q-80 -6 -178.5 -9.5t-200 -5
t-199 -0.5t-176.5 5l-1 90q63 -6 140.5 -8.5t161.5 -2.5q1 32 -1.5 65t-10.5 64h102q3 -26 4.5 -60.5t-0.5 -67.5zM679 187q-54 -9 -100 -7.5t-92 12.5l11 80q42 -14 89 -18t90 2zM300 -41q26 2 55.5 11t55.5 26l24 -76q-28 -16 -59.5 -26.5t-70.5 -14.5q-75 -8 -116 16.5
t-37 71.5q2 15 7 31t13 30l-27 2l-1 73q38 -3 83 -2.5t88 4.5q3 7 4.5 14t3.5 15q6 34 -32 37q-15 1 -34 -1t-38 -6t-36.5 -9.5t-29.5 -10.5l-18 84q16 6 37.5 10t45 6.5t46.5 3t41 -0.5q50 -3 75 -29t22 -68q-1 -9 -3.5 -17t-5.5 -16l20 5v-70q-31 -10 -74.5 -15.5
t-89.5 -7.5q-5 -12 -7.5 -22.5t-2.5 -19.5q0 -19 17 -24.5t44 -3.5zM438 159q40 -4 77 -6t73.5 -1.5t73.5 4t79 9.5v-69l-46 -6q23 -34 23 -78q0 -27 -10 -51.5t-27 -43.5t-41.5 -30t-54.5 -11q-57 0 -93.5 36t-36.5 97q0 40 24 73l-41 3v74zM641 10q1 24 -12 43t-42 19
q-26 0 -41 -17t-15 -46q0 -26 15.5 -43t39.5 -17q26 0 40 19t15 42z" />
    </font>
</defs>
</svg>
